G04 #@! TF.FileFunction,Copper,L1,Top,Signal*
%FSLAX46Y46*%
G04 Gerber Fmt 4.6, Leading zero omitted, Abs format (unit mm)*
G04 Created by KiCad (PCBNEW no-vcs-found-product) date Mon 03 Aug 2015 15:59:30 CEST*
%MOMM*%
G01*
G04 APERTURE LIST*
%ADD10C,0.127000*%
%ADD11R,1.250000X1.500000*%
%ADD12R,2.032000X2.032000*%
%ADD13O,2.032000X2.032000*%
%ADD14R,1.300000X1.500000*%
%ADD15R,1.500000X1.300000*%
%ADD16C,1.400000*%
%ADD17R,1.550000X0.600000*%
%ADD18R,2.235200X2.235200*%
%ADD19C,0.685800*%
%ADD20C,0.609600*%
%ADD21C,0.152400*%
G04 APERTURE END LIST*
D10*
D11*
X153924000Y-86380000D03*
X153924000Y-88880000D03*
D12*
X150876000Y-86360000D03*
D13*
X150876000Y-88900000D03*
D12*
X151130000Y-96012000D03*
D13*
X151130000Y-98552000D03*
D14*
X154686000Y-98124000D03*
X154686000Y-95424000D03*
D15*
X168990000Y-97790000D03*
X166290000Y-97790000D03*
D14*
X156464000Y-88980000D03*
X156464000Y-86280000D03*
D15*
X168990000Y-92710000D03*
X166290000Y-92710000D03*
X166290000Y-95250000D03*
X168990000Y-95250000D03*
D16*
X170100000Y-88900000D03*
X170100000Y-86360000D03*
X160100000Y-88900000D03*
X160100000Y-86360000D03*
D17*
X162974000Y-96647000D03*
X162974000Y-95377000D03*
X162974000Y-94107000D03*
X162974000Y-92837000D03*
X157574000Y-92837000D03*
X157574000Y-94107000D03*
X157574000Y-95377000D03*
X157574000Y-96647000D03*
D18*
X162560000Y-100330000D03*
D19*
X168910000Y-99314000D03*
X169164000Y-91186000D03*
X156718000Y-98044000D03*
D20*
X153924000Y-86380000D02*
X150896000Y-86380000D01*
X150896000Y-86380000D02*
X150876000Y-86360000D01*
X168990000Y-97790000D02*
X168990000Y-99234000D01*
X168990000Y-99234000D02*
X168910000Y-99314000D01*
X168990000Y-92710000D02*
X168990000Y-91360000D01*
X168990000Y-91360000D02*
X169164000Y-91186000D01*
X168990000Y-97790000D02*
X170180000Y-97790000D01*
X170688000Y-94408000D02*
X168990000Y-92710000D01*
X170688000Y-97282000D02*
X170688000Y-94408000D01*
X170180000Y-97790000D02*
X170688000Y-97282000D01*
X156718000Y-98044000D02*
X157226000Y-98044000D01*
X156638000Y-98124000D02*
X156718000Y-98044000D01*
X154686000Y-98124000D02*
X156638000Y-98124000D01*
X157574000Y-97696000D02*
X157574000Y-96647000D01*
X157226000Y-98044000D02*
X157574000Y-97696000D01*
X170100000Y-86360000D02*
X170688000Y-86360000D01*
X170100000Y-86360000D02*
X170434000Y-86360000D01*
X157574000Y-95377000D02*
X154733000Y-95377000D01*
X154733000Y-95377000D02*
X154606000Y-95250000D01*
X154606000Y-95250000D02*
X151892000Y-95250000D01*
X151892000Y-95250000D02*
X151130000Y-96012000D01*
X170100000Y-88900000D02*
X170180000Y-88900000D01*
X170180000Y-88900000D02*
X171577000Y-90297000D01*
X171577000Y-90297000D02*
X171577000Y-99060000D01*
X171577000Y-99060000D02*
X170307000Y-100330000D01*
X170307000Y-100330000D02*
X165354000Y-100330000D01*
X162560000Y-100330000D02*
X162560000Y-99060000D01*
X162560000Y-99060000D02*
X160274000Y-96774000D01*
X160655000Y-95377000D02*
X162974000Y-95377000D01*
X160274000Y-95758000D02*
X160655000Y-95377000D01*
X160274000Y-96774000D02*
X160274000Y-95758000D01*
X162560000Y-100330000D02*
X164592000Y-100330000D01*
X164592000Y-100330000D02*
X165354000Y-100330000D01*
X166290000Y-99394000D02*
X166290000Y-97790000D01*
X165354000Y-100330000D02*
X166290000Y-99394000D01*
X156464000Y-88980000D02*
X160020000Y-88980000D01*
X160020000Y-88980000D02*
X160100000Y-88900000D01*
X166290000Y-95250000D02*
X165608000Y-95250000D01*
X165608000Y-95250000D02*
X164465000Y-94107000D01*
X164465000Y-94107000D02*
X162974000Y-94107000D01*
X166290000Y-92710000D02*
X166290000Y-95250000D01*
X157574000Y-92837000D02*
X157574000Y-94107000D01*
D21*
G36*
X172441400Y-102793800D02*
X148741600Y-102793800D01*
X148741600Y-98812617D01*
X149809268Y-98812617D01*
X149810066Y-98816645D01*
X150011815Y-99301617D01*
X150383798Y-99672467D01*
X150869383Y-99872736D01*
X151079200Y-99814695D01*
X151079200Y-98602800D01*
X151180800Y-98602800D01*
X151180800Y-99814695D01*
X151390617Y-99872736D01*
X151876202Y-99672467D01*
X152248185Y-99301617D01*
X152449934Y-98816645D01*
X152450732Y-98812617D01*
X152392628Y-98602800D01*
X151180800Y-98602800D01*
X151079200Y-98602800D01*
X151079200Y-98602800D01*
X149867372Y-98602800D01*
X149809268Y-98812617D01*
X148741600Y-98812617D01*
X148741600Y-98291383D01*
X149809268Y-98291383D01*
X149867372Y-98501200D01*
X151079200Y-98501200D01*
X151079200Y-98481200D01*
X151180800Y-98481200D01*
X151180800Y-98501200D01*
X152392628Y-98501200D01*
X152450732Y-98291383D01*
X152449934Y-98287355D01*
X152248185Y-97802383D01*
X151876202Y-97431533D01*
X151736704Y-97374000D01*
X153802921Y-97374000D01*
X153802921Y-98874000D01*
X153819833Y-98961164D01*
X153870158Y-99037774D01*
X153946129Y-99089056D01*
X154036000Y-99107079D01*
X155336000Y-99107079D01*
X155423164Y-99090167D01*
X155499774Y-99039842D01*
X155551056Y-98963871D01*
X155569079Y-98874000D01*
X155569079Y-98657400D01*
X156638000Y-98657400D01*
X156842123Y-98616797D01*
X156864555Y-98601809D01*
X156923628Y-98577400D01*
X157226000Y-98577400D01*
X157430123Y-98536797D01*
X157603171Y-98421171D01*
X157951171Y-98073171D01*
X158066797Y-97900124D01*
X158107400Y-97696000D01*
X158107400Y-97180079D01*
X158349000Y-97180079D01*
X158436164Y-97163167D01*
X158512774Y-97112842D01*
X158564056Y-97036871D01*
X158582079Y-96947000D01*
X158582079Y-96347000D01*
X158565167Y-96259836D01*
X158514842Y-96183226D01*
X158438871Y-96131944D01*
X158349000Y-96113921D01*
X157575614Y-96113921D01*
X157574000Y-96113600D01*
X157572386Y-96113921D01*
X156799000Y-96113921D01*
X156711836Y-96130833D01*
X156635226Y-96181158D01*
X156583944Y-96257129D01*
X156565921Y-96347000D01*
X156565921Y-96947000D01*
X156582833Y-97034164D01*
X156633158Y-97110774D01*
X156709129Y-97162056D01*
X156799000Y-97180079D01*
X157040600Y-97180079D01*
X157040600Y-97475058D01*
X157005058Y-97510600D01*
X156923691Y-97510600D01*
X156832177Y-97472600D01*
X156604820Y-97472401D01*
X156394694Y-97559224D01*
X156363263Y-97590600D01*
X155569079Y-97590600D01*
X155569079Y-97374000D01*
X155552167Y-97286836D01*
X155501842Y-97210226D01*
X155425871Y-97158944D01*
X155336000Y-97140921D01*
X154036000Y-97140921D01*
X153948836Y-97157833D01*
X153872226Y-97208158D01*
X153820944Y-97284129D01*
X153802921Y-97374000D01*
X151736704Y-97374000D01*
X151462908Y-97261079D01*
X152146000Y-97261079D01*
X152233164Y-97244167D01*
X152309774Y-97193842D01*
X152361056Y-97117871D01*
X152379079Y-97028000D01*
X152379079Y-95783400D01*
X153802921Y-95783400D01*
X153802921Y-96174000D01*
X153819833Y-96261164D01*
X153870158Y-96337774D01*
X153946129Y-96389056D01*
X154036000Y-96407079D01*
X155336000Y-96407079D01*
X155423164Y-96390167D01*
X155499774Y-96339842D01*
X155551056Y-96263871D01*
X155569079Y-96174000D01*
X155569079Y-95910400D01*
X157574000Y-95910400D01*
X157575614Y-95910079D01*
X158349000Y-95910079D01*
X158436164Y-95893167D01*
X158512774Y-95842842D01*
X158564056Y-95766871D01*
X158565835Y-95758000D01*
X159740600Y-95758000D01*
X159740600Y-96774000D01*
X159781203Y-96978123D01*
X159896829Y-97151171D01*
X161601496Y-98855838D01*
X161582179Y-98863820D01*
X161095529Y-99349622D01*
X160831830Y-99984678D01*
X160831230Y-100672306D01*
X161093820Y-101307821D01*
X161579622Y-101794471D01*
X162214678Y-102058170D01*
X162902306Y-102058770D01*
X163537821Y-101796180D01*
X164024471Y-101310378D01*
X164210073Y-100863400D01*
X170307000Y-100863400D01*
X170511123Y-100822797D01*
X170684171Y-100707171D01*
X171954171Y-99437171D01*
X172069797Y-99264124D01*
X172110400Y-99060000D01*
X172110400Y-90297000D01*
X172069797Y-90092877D01*
X172069797Y-90092876D01*
X171954171Y-89919829D01*
X171028518Y-88994176D01*
X171028760Y-88716100D01*
X170887688Y-88374678D01*
X170626696Y-88113231D01*
X170285520Y-87971562D01*
X169916100Y-87971240D01*
X169574678Y-88112312D01*
X169313231Y-88373304D01*
X169171562Y-88714480D01*
X169171240Y-89083900D01*
X169312312Y-89425322D01*
X169573304Y-89686769D01*
X169914480Y-89828438D01*
X170283900Y-89828760D01*
X170333800Y-89808142D01*
X171043600Y-90517942D01*
X171043600Y-94009259D01*
X169973079Y-92938737D01*
X169973079Y-92060000D01*
X169956167Y-91972836D01*
X169905842Y-91896226D01*
X169829871Y-91844944D01*
X169740000Y-91826921D01*
X169523400Y-91826921D01*
X169523400Y-91634745D01*
X169648211Y-91510151D01*
X169735400Y-91300177D01*
X169735599Y-91072820D01*
X169648776Y-90862694D01*
X169488151Y-90701789D01*
X169278177Y-90614600D01*
X169050820Y-90614401D01*
X168840694Y-90701224D01*
X168679789Y-90861849D01*
X168641430Y-90954228D01*
X168612829Y-90982829D01*
X168497203Y-91155877D01*
X168456600Y-91360000D01*
X168456600Y-91826921D01*
X168240000Y-91826921D01*
X168152836Y-91843833D01*
X168076226Y-91894158D01*
X168024944Y-91970129D01*
X168006921Y-92060000D01*
X168006921Y-93360000D01*
X168023833Y-93447164D01*
X168074158Y-93523774D01*
X168150129Y-93575056D01*
X168240000Y-93593079D01*
X169118737Y-93593079D01*
X169795459Y-94269800D01*
X169123350Y-94269800D01*
X169040800Y-94352350D01*
X169040800Y-95199200D01*
X169987650Y-95199200D01*
X170070200Y-95116650D01*
X170070200Y-94544541D01*
X170154600Y-94628941D01*
X170154600Y-97061059D01*
X169973079Y-97242579D01*
X169973079Y-97140000D01*
X169956167Y-97052836D01*
X169905842Y-96976226D01*
X169829871Y-96924944D01*
X169740000Y-96906921D01*
X168240000Y-96906921D01*
X168152836Y-96923833D01*
X168076226Y-96974158D01*
X168024944Y-97050129D01*
X168006921Y-97140000D01*
X168006921Y-98440000D01*
X168023833Y-98527164D01*
X168074158Y-98603774D01*
X168150129Y-98655056D01*
X168240000Y-98673079D01*
X168456600Y-98673079D01*
X168456600Y-98959092D01*
X168425789Y-98989849D01*
X168338600Y-99199823D01*
X168338401Y-99427180D01*
X168425224Y-99637306D01*
X168584241Y-99796600D01*
X166641742Y-99796600D01*
X166667171Y-99771171D01*
X166782797Y-99598123D01*
X166823400Y-99394000D01*
X166823400Y-98673079D01*
X167040000Y-98673079D01*
X167127164Y-98656167D01*
X167203774Y-98605842D01*
X167255056Y-98529871D01*
X167273079Y-98440000D01*
X167273079Y-97140000D01*
X167256167Y-97052836D01*
X167205842Y-96976226D01*
X167129871Y-96924944D01*
X167040000Y-96906921D01*
X165540000Y-96906921D01*
X165452836Y-96923833D01*
X165376226Y-96974158D01*
X165324944Y-97050129D01*
X165306921Y-97140000D01*
X165306921Y-98440000D01*
X165323833Y-98527164D01*
X165374158Y-98603774D01*
X165450129Y-98655056D01*
X165540000Y-98673079D01*
X165756600Y-98673079D01*
X165756600Y-99173058D01*
X165133058Y-99796600D01*
X164209811Y-99796600D01*
X164026180Y-99352179D01*
X163540378Y-98865529D01*
X162905322Y-98601830D01*
X162856129Y-98601787D01*
X161034692Y-96780350D01*
X161868800Y-96780350D01*
X161868800Y-97012681D01*
X161919070Y-97134043D01*
X162011957Y-97226930D01*
X162133319Y-97277200D01*
X162840650Y-97277200D01*
X162923200Y-97194650D01*
X162923200Y-96697800D01*
X163024800Y-96697800D01*
X163024800Y-97194650D01*
X163107350Y-97277200D01*
X163814681Y-97277200D01*
X163936043Y-97226930D01*
X164028930Y-97134043D01*
X164079200Y-97012681D01*
X164079200Y-96780350D01*
X163996650Y-96697800D01*
X163024800Y-96697800D01*
X162923200Y-96697800D01*
X162923200Y-96697800D01*
X161951350Y-96697800D01*
X161868800Y-96780350D01*
X161034692Y-96780350D01*
X160807400Y-96553058D01*
X160807400Y-96281319D01*
X161868800Y-96281319D01*
X161868800Y-96513650D01*
X161951350Y-96596200D01*
X162923200Y-96596200D01*
X162923200Y-96099350D01*
X163024800Y-96099350D01*
X163024800Y-96596200D01*
X163996650Y-96596200D01*
X164079200Y-96513650D01*
X164079200Y-96281319D01*
X164028930Y-96159957D01*
X163936043Y-96067070D01*
X163814681Y-96016800D01*
X163107350Y-96016800D01*
X163024800Y-96099350D01*
X162923200Y-96099350D01*
X162923200Y-96099350D01*
X162840650Y-96016800D01*
X162133319Y-96016800D01*
X162011957Y-96067070D01*
X161919070Y-96159957D01*
X161868800Y-96281319D01*
X160807400Y-96281319D01*
X160807400Y-95978942D01*
X160875941Y-95910400D01*
X162974000Y-95910400D01*
X162975614Y-95910079D01*
X163749000Y-95910079D01*
X163836164Y-95893167D01*
X163912774Y-95842842D01*
X163964056Y-95766871D01*
X163982079Y-95677000D01*
X163982079Y-95077000D01*
X163965167Y-94989836D01*
X163914842Y-94913226D01*
X163838871Y-94861944D01*
X163749000Y-94843921D01*
X162975614Y-94843921D01*
X162974000Y-94843600D01*
X160655000Y-94843600D01*
X160450876Y-94884203D01*
X160381563Y-94930516D01*
X160277829Y-94999829D01*
X160277827Y-94999832D01*
X159896829Y-95380829D01*
X159781203Y-95553877D01*
X159740600Y-95758000D01*
X158565835Y-95758000D01*
X158582079Y-95677000D01*
X158582079Y-95077000D01*
X158565167Y-94989836D01*
X158514842Y-94913226D01*
X158438871Y-94861944D01*
X158349000Y-94843921D01*
X157575614Y-94843921D01*
X157574000Y-94843600D01*
X155569079Y-94843600D01*
X155569079Y-94674000D01*
X155552167Y-94586836D01*
X155501842Y-94510226D01*
X155425871Y-94458944D01*
X155336000Y-94440921D01*
X154036000Y-94440921D01*
X153948836Y-94457833D01*
X153872226Y-94508158D01*
X153820944Y-94584129D01*
X153802921Y-94674000D01*
X153802921Y-94716600D01*
X151892005Y-94716600D01*
X151892000Y-94716599D01*
X151687877Y-94757203D01*
X151679319Y-94762921D01*
X150114000Y-94762921D01*
X150026836Y-94779833D01*
X149950226Y-94830158D01*
X149898944Y-94906129D01*
X149880921Y-94996000D01*
X149880921Y-97028000D01*
X149897833Y-97115164D01*
X149948158Y-97191774D01*
X150024129Y-97243056D01*
X150114000Y-97261079D01*
X150797092Y-97261079D01*
X150383798Y-97431533D01*
X150011815Y-97802383D01*
X149810066Y-98287355D01*
X149809268Y-98291383D01*
X148741600Y-98291383D01*
X148741600Y-92537000D01*
X156565921Y-92537000D01*
X156565921Y-93137000D01*
X156582833Y-93224164D01*
X156633158Y-93300774D01*
X156709129Y-93352056D01*
X156799000Y-93370079D01*
X157040600Y-93370079D01*
X157040600Y-93573921D01*
X156799000Y-93573921D01*
X156711836Y-93590833D01*
X156635226Y-93641158D01*
X156583944Y-93717129D01*
X156565921Y-93807000D01*
X156565921Y-94407000D01*
X156582833Y-94494164D01*
X156633158Y-94570774D01*
X156709129Y-94622056D01*
X156799000Y-94640079D01*
X157572386Y-94640079D01*
X157574000Y-94640400D01*
X157575614Y-94640079D01*
X158349000Y-94640079D01*
X158436164Y-94623167D01*
X158512774Y-94572842D01*
X158564056Y-94496871D01*
X158582079Y-94407000D01*
X158582079Y-93807000D01*
X161965921Y-93807000D01*
X161965921Y-94407000D01*
X161982833Y-94494164D01*
X162033158Y-94570774D01*
X162109129Y-94622056D01*
X162199000Y-94640079D01*
X162972386Y-94640079D01*
X162974000Y-94640400D01*
X164244058Y-94640400D01*
X165230829Y-95627171D01*
X165306921Y-95678014D01*
X165306921Y-95900000D01*
X165323833Y-95987164D01*
X165374158Y-96063774D01*
X165450129Y-96115056D01*
X165540000Y-96133079D01*
X167040000Y-96133079D01*
X167127164Y-96116167D01*
X167203774Y-96065842D01*
X167255056Y-95989871D01*
X167273079Y-95900000D01*
X167273079Y-95383350D01*
X167909800Y-95383350D01*
X167909800Y-95965681D01*
X167960070Y-96087043D01*
X168052957Y-96179930D01*
X168174319Y-96230200D01*
X168856650Y-96230200D01*
X168939200Y-96147650D01*
X168939200Y-95300800D01*
X169040800Y-95300800D01*
X169040800Y-96147650D01*
X169123350Y-96230200D01*
X169805681Y-96230200D01*
X169927043Y-96179930D01*
X170019930Y-96087043D01*
X170070200Y-95965681D01*
X170070200Y-95383350D01*
X169987650Y-95300800D01*
X169040800Y-95300800D01*
X168939200Y-95300800D01*
X168939200Y-95300800D01*
X167992350Y-95300800D01*
X167909800Y-95383350D01*
X167273079Y-95383350D01*
X167273079Y-94600000D01*
X167260336Y-94534319D01*
X167909800Y-94534319D01*
X167909800Y-95116650D01*
X167992350Y-95199200D01*
X168939200Y-95199200D01*
X168939200Y-94352350D01*
X168856650Y-94269800D01*
X168174319Y-94269800D01*
X168052957Y-94320070D01*
X167960070Y-94412957D01*
X167909800Y-94534319D01*
X167260336Y-94534319D01*
X167256167Y-94512836D01*
X167205842Y-94436226D01*
X167129871Y-94384944D01*
X167040000Y-94366921D01*
X166823400Y-94366921D01*
X166823400Y-93593079D01*
X167040000Y-93593079D01*
X167127164Y-93576167D01*
X167203774Y-93525842D01*
X167255056Y-93449871D01*
X167273079Y-93360000D01*
X167273079Y-92060000D01*
X167256167Y-91972836D01*
X167205842Y-91896226D01*
X167129871Y-91844944D01*
X167040000Y-91826921D01*
X165540000Y-91826921D01*
X165452836Y-91843833D01*
X165376226Y-91894158D01*
X165324944Y-91970129D01*
X165306921Y-92060000D01*
X165306921Y-93360000D01*
X165323833Y-93447164D01*
X165374158Y-93523774D01*
X165450129Y-93575056D01*
X165540000Y-93593079D01*
X165756600Y-93593079D01*
X165756600Y-94366921D01*
X165540000Y-94366921D01*
X165489133Y-94376791D01*
X164842171Y-93729829D01*
X164669123Y-93614203D01*
X164465000Y-93573600D01*
X162974000Y-93573600D01*
X162972386Y-93573921D01*
X162199000Y-93573921D01*
X162111836Y-93590833D01*
X162035226Y-93641158D01*
X161983944Y-93717129D01*
X161965921Y-93807000D01*
X158582079Y-93807000D01*
X158582079Y-93807000D01*
X158565167Y-93719836D01*
X158514842Y-93643226D01*
X158438871Y-93591944D01*
X158349000Y-93573921D01*
X158107400Y-93573921D01*
X158107400Y-93370079D01*
X158349000Y-93370079D01*
X158436164Y-93353167D01*
X158512774Y-93302842D01*
X158564056Y-93226871D01*
X158582079Y-93137000D01*
X158582079Y-92970350D01*
X161868800Y-92970350D01*
X161868800Y-93202681D01*
X161919070Y-93324043D01*
X162011957Y-93416930D01*
X162133319Y-93467200D01*
X162840650Y-93467200D01*
X162923200Y-93384650D01*
X162923200Y-92887800D01*
X163024800Y-92887800D01*
X163024800Y-93384650D01*
X163107350Y-93467200D01*
X163814681Y-93467200D01*
X163936043Y-93416930D01*
X164028930Y-93324043D01*
X164079200Y-93202681D01*
X164079200Y-92970350D01*
X163996650Y-92887800D01*
X163024800Y-92887800D01*
X162923200Y-92887800D01*
X162923200Y-92887800D01*
X161951350Y-92887800D01*
X161868800Y-92970350D01*
X158582079Y-92970350D01*
X158582079Y-92537000D01*
X158569336Y-92471319D01*
X161868800Y-92471319D01*
X161868800Y-92703650D01*
X161951350Y-92786200D01*
X162923200Y-92786200D01*
X162923200Y-92289350D01*
X163024800Y-92289350D01*
X163024800Y-92786200D01*
X163996650Y-92786200D01*
X164079200Y-92703650D01*
X164079200Y-92471319D01*
X164028930Y-92349957D01*
X163936043Y-92257070D01*
X163814681Y-92206800D01*
X163107350Y-92206800D01*
X163024800Y-92289350D01*
X162923200Y-92289350D01*
X162923200Y-92289350D01*
X162840650Y-92206800D01*
X162133319Y-92206800D01*
X162011957Y-92257070D01*
X161919070Y-92349957D01*
X161868800Y-92471319D01*
X158569336Y-92471319D01*
X158565167Y-92449836D01*
X158514842Y-92373226D01*
X158438871Y-92321944D01*
X158349000Y-92303921D01*
X157575614Y-92303921D01*
X157574000Y-92303600D01*
X157572386Y-92303921D01*
X156799000Y-92303921D01*
X156711836Y-92320833D01*
X156635226Y-92371158D01*
X156583944Y-92447129D01*
X156565921Y-92537000D01*
X148741600Y-92537000D01*
X148741600Y-89160617D01*
X149555268Y-89160617D01*
X149556066Y-89164645D01*
X149757815Y-89649617D01*
X150129798Y-90020467D01*
X150615383Y-90220736D01*
X150825200Y-90162695D01*
X150825200Y-88950800D01*
X150926800Y-88950800D01*
X150926800Y-90162695D01*
X151136617Y-90220736D01*
X151418479Y-90104488D01*
X161871291Y-90104488D01*
X161966788Y-90335608D01*
X162143462Y-90512590D01*
X162374415Y-90608491D01*
X162624488Y-90608709D01*
X162855608Y-90513212D01*
X163032590Y-90336538D01*
X163128491Y-90105585D01*
X163128709Y-89855512D01*
X163033212Y-89624392D01*
X162856538Y-89447410D01*
X162625585Y-89351509D01*
X162375512Y-89351291D01*
X162144392Y-89446788D01*
X161967410Y-89623462D01*
X161871509Y-89854415D01*
X161871291Y-90104488D01*
X151418479Y-90104488D01*
X151622202Y-90020467D01*
X151994185Y-89649617D01*
X152195934Y-89164645D01*
X152196732Y-89160617D01*
X152155950Y-89013350D01*
X152968800Y-89013350D01*
X152968800Y-89695681D01*
X153019070Y-89817043D01*
X153111957Y-89909930D01*
X153233319Y-89960200D01*
X153790650Y-89960200D01*
X153873200Y-89877650D01*
X153873200Y-88930800D01*
X153974800Y-88930800D01*
X153974800Y-89877650D01*
X154057350Y-89960200D01*
X154614681Y-89960200D01*
X154736043Y-89909930D01*
X154828930Y-89817043D01*
X154879200Y-89695681D01*
X154879200Y-89013350D01*
X154796650Y-88930800D01*
X153974800Y-88930800D01*
X153873200Y-88930800D01*
X153873200Y-88930800D01*
X153051350Y-88930800D01*
X152968800Y-89013350D01*
X152155950Y-89013350D01*
X152138628Y-88950800D01*
X150926800Y-88950800D01*
X150825200Y-88950800D01*
X150825200Y-88950800D01*
X149613372Y-88950800D01*
X149555268Y-89160617D01*
X148741600Y-89160617D01*
X148741600Y-88639383D01*
X149555268Y-88639383D01*
X149613372Y-88849200D01*
X150825200Y-88849200D01*
X150825200Y-88829200D01*
X150926800Y-88829200D01*
X150926800Y-88849200D01*
X152138628Y-88849200D01*
X152196732Y-88639383D01*
X152195934Y-88635355D01*
X151994185Y-88150383D01*
X151907859Y-88064319D01*
X152968800Y-88064319D01*
X152968800Y-88746650D01*
X153051350Y-88829200D01*
X153873200Y-88829200D01*
X153873200Y-87882350D01*
X153974800Y-87882350D01*
X153974800Y-88829200D01*
X154796650Y-88829200D01*
X154879200Y-88746650D01*
X154879200Y-88230000D01*
X155580921Y-88230000D01*
X155580921Y-89730000D01*
X155597833Y-89817164D01*
X155648158Y-89893774D01*
X155724129Y-89945056D01*
X155814000Y-89963079D01*
X157114000Y-89963079D01*
X157201164Y-89946167D01*
X157277774Y-89895842D01*
X157329056Y-89819871D01*
X157347079Y-89730000D01*
X157347079Y-89513400D01*
X159400237Y-89513400D01*
X159573304Y-89686769D01*
X159914480Y-89828438D01*
X160283900Y-89828760D01*
X160625322Y-89687688D01*
X160886769Y-89426696D01*
X161028438Y-89085520D01*
X161028760Y-88716100D01*
X160887688Y-88374678D01*
X160626696Y-88113231D01*
X160285520Y-87971562D01*
X159916100Y-87971240D01*
X159574678Y-88112312D01*
X159313231Y-88373304D01*
X159282796Y-88446600D01*
X157347079Y-88446600D01*
X157347079Y-88230000D01*
X157330167Y-88142836D01*
X157279842Y-88066226D01*
X157203871Y-88014944D01*
X157114000Y-87996921D01*
X155814000Y-87996921D01*
X155726836Y-88013833D01*
X155650226Y-88064158D01*
X155598944Y-88140129D01*
X155580921Y-88230000D01*
X154879200Y-88230000D01*
X154879200Y-88064319D01*
X154828930Y-87942957D01*
X154736043Y-87850070D01*
X154614681Y-87799800D01*
X154057350Y-87799800D01*
X153974800Y-87882350D01*
X153873200Y-87882350D01*
X153873200Y-87882350D01*
X153790650Y-87799800D01*
X153233319Y-87799800D01*
X153111957Y-87850070D01*
X153019070Y-87942957D01*
X152968800Y-88064319D01*
X151907859Y-88064319D01*
X151622202Y-87779533D01*
X151208908Y-87609079D01*
X151892000Y-87609079D01*
X151979164Y-87592167D01*
X152055774Y-87541842D01*
X152107056Y-87465871D01*
X152125079Y-87376000D01*
X152125079Y-86913400D01*
X153065921Y-86913400D01*
X153065921Y-87130000D01*
X153082833Y-87217164D01*
X153133158Y-87293774D01*
X153209129Y-87345056D01*
X153299000Y-87363079D01*
X154549000Y-87363079D01*
X154636164Y-87346167D01*
X154712774Y-87295842D01*
X154764056Y-87219871D01*
X154782079Y-87130000D01*
X154782079Y-86413350D01*
X155483800Y-86413350D01*
X155483800Y-87095681D01*
X155534070Y-87217043D01*
X155626957Y-87309930D01*
X155748319Y-87360200D01*
X156330650Y-87360200D01*
X156413200Y-87277650D01*
X156413200Y-86330800D01*
X156514800Y-86330800D01*
X156514800Y-87277650D01*
X156597350Y-87360200D01*
X157179681Y-87360200D01*
X157301043Y-87309930D01*
X157393930Y-87217043D01*
X157444200Y-87095681D01*
X157444200Y-86543900D01*
X159171240Y-86543900D01*
X159312312Y-86885322D01*
X159573304Y-87146769D01*
X159914480Y-87288438D01*
X160283900Y-87288760D01*
X160625322Y-87147688D01*
X160693790Y-87079339D01*
X169452503Y-87079339D01*
X169524421Y-87238642D01*
X169904476Y-87392024D01*
X170314298Y-87388290D01*
X170675579Y-87238642D01*
X170747497Y-87079339D01*
X170100000Y-86431842D01*
X169452503Y-87079339D01*
X160693790Y-87079339D01*
X160886769Y-86886696D01*
X161028438Y-86545520D01*
X161028760Y-86176100D01*
X161023958Y-86164476D01*
X169067976Y-86164476D01*
X169071710Y-86574298D01*
X169221358Y-86935579D01*
X169380661Y-87007497D01*
X170028158Y-86360000D01*
X170171842Y-86360000D01*
X170819339Y-87007497D01*
X170978642Y-86935579D01*
X171132024Y-86555524D01*
X171128290Y-86145702D01*
X170978642Y-85784421D01*
X170819339Y-85712503D01*
X170171842Y-86360000D01*
X170028158Y-86360000D01*
X170028158Y-86360000D01*
X169380661Y-85712503D01*
X169221358Y-85784421D01*
X169067976Y-86164476D01*
X161023958Y-86164476D01*
X160887688Y-85834678D01*
X160694009Y-85640661D01*
X169452503Y-85640661D01*
X170100000Y-86288158D01*
X170747497Y-85640661D01*
X170675579Y-85481358D01*
X170295524Y-85327976D01*
X169885702Y-85331710D01*
X169524421Y-85481358D01*
X169452503Y-85640661D01*
X160694009Y-85640661D01*
X160626696Y-85573231D01*
X160285520Y-85431562D01*
X159916100Y-85431240D01*
X159574678Y-85572312D01*
X159313231Y-85833304D01*
X159171562Y-86174480D01*
X159171240Y-86543900D01*
X157444200Y-86543900D01*
X157444200Y-86413350D01*
X157361650Y-86330800D01*
X156514800Y-86330800D01*
X156413200Y-86330800D01*
X156413200Y-86330800D01*
X155566350Y-86330800D01*
X155483800Y-86413350D01*
X154782079Y-86413350D01*
X154782079Y-85630000D01*
X154765167Y-85542836D01*
X154714842Y-85466226D01*
X154712017Y-85464319D01*
X155483800Y-85464319D01*
X155483800Y-86146650D01*
X155566350Y-86229200D01*
X156413200Y-86229200D01*
X156413200Y-85282350D01*
X156514800Y-85282350D01*
X156514800Y-86229200D01*
X157361650Y-86229200D01*
X157444200Y-86146650D01*
X157444200Y-85464319D01*
X157393930Y-85342957D01*
X157301043Y-85250070D01*
X157179681Y-85199800D01*
X156597350Y-85199800D01*
X156514800Y-85282350D01*
X156413200Y-85282350D01*
X156413200Y-85282350D01*
X156330650Y-85199800D01*
X155748319Y-85199800D01*
X155626957Y-85250070D01*
X155534070Y-85342957D01*
X155483800Y-85464319D01*
X154712017Y-85464319D01*
X154638871Y-85414944D01*
X154549000Y-85396921D01*
X153299000Y-85396921D01*
X153211836Y-85413833D01*
X153135226Y-85464158D01*
X153083944Y-85540129D01*
X153065921Y-85630000D01*
X153065921Y-85846600D01*
X152125079Y-85846600D01*
X152125079Y-85344000D01*
X152108167Y-85256836D01*
X152057842Y-85180226D01*
X152019713Y-85154488D01*
X171071291Y-85154488D01*
X171166788Y-85385608D01*
X171343462Y-85562590D01*
X171574415Y-85658491D01*
X171824488Y-85658709D01*
X172055608Y-85563212D01*
X172232590Y-85386538D01*
X172328491Y-85155585D01*
X172328709Y-84905512D01*
X172233212Y-84674392D01*
X172056538Y-84497410D01*
X171825585Y-84401509D01*
X171575512Y-84401291D01*
X171344392Y-84496788D01*
X171167410Y-84673462D01*
X171071509Y-84904415D01*
X171071291Y-85154488D01*
X152019713Y-85154488D01*
X151981871Y-85128944D01*
X151892000Y-85110921D01*
X149860000Y-85110921D01*
X149772836Y-85127833D01*
X149696226Y-85178158D01*
X149644944Y-85254129D01*
X149626921Y-85344000D01*
X149626921Y-87376000D01*
X149643833Y-87463164D01*
X149694158Y-87539774D01*
X149770129Y-87591056D01*
X149860000Y-87609079D01*
X150543092Y-87609079D01*
X150129798Y-87779533D01*
X149757815Y-88150383D01*
X149556066Y-88635355D01*
X149555268Y-88639383D01*
X148741600Y-88639383D01*
X148741600Y-83388200D01*
X172441400Y-83388200D01*
X172441400Y-102793800D01*
X172441400Y-102793800D01*
G37*
X172441400Y-102793800D02*
X148741600Y-102793800D01*
X148741600Y-98812617D01*
X149809268Y-98812617D01*
X149810066Y-98816645D01*
X150011815Y-99301617D01*
X150383798Y-99672467D01*
X150869383Y-99872736D01*
X151079200Y-99814695D01*
X151079200Y-98602800D01*
X151180800Y-98602800D01*
X151180800Y-99814695D01*
X151390617Y-99872736D01*
X151876202Y-99672467D01*
X152248185Y-99301617D01*
X152449934Y-98816645D01*
X152450732Y-98812617D01*
X152392628Y-98602800D01*
X151180800Y-98602800D01*
X151079200Y-98602800D01*
X151079200Y-98602800D01*
X149867372Y-98602800D01*
X149809268Y-98812617D01*
X148741600Y-98812617D01*
X148741600Y-98291383D01*
X149809268Y-98291383D01*
X149867372Y-98501200D01*
X151079200Y-98501200D01*
X151079200Y-98481200D01*
X151180800Y-98481200D01*
X151180800Y-98501200D01*
X152392628Y-98501200D01*
X152450732Y-98291383D01*
X152449934Y-98287355D01*
X152248185Y-97802383D01*
X151876202Y-97431533D01*
X151736704Y-97374000D01*
X153802921Y-97374000D01*
X153802921Y-98874000D01*
X153819833Y-98961164D01*
X153870158Y-99037774D01*
X153946129Y-99089056D01*
X154036000Y-99107079D01*
X155336000Y-99107079D01*
X155423164Y-99090167D01*
X155499774Y-99039842D01*
X155551056Y-98963871D01*
X155569079Y-98874000D01*
X155569079Y-98657400D01*
X156638000Y-98657400D01*
X156842123Y-98616797D01*
X156864555Y-98601809D01*
X156923628Y-98577400D01*
X157226000Y-98577400D01*
X157430123Y-98536797D01*
X157603171Y-98421171D01*
X157951171Y-98073171D01*
X158066797Y-97900124D01*
X158107400Y-97696000D01*
X158107400Y-97180079D01*
X158349000Y-97180079D01*
X158436164Y-97163167D01*
X158512774Y-97112842D01*
X158564056Y-97036871D01*
X158582079Y-96947000D01*
X158582079Y-96347000D01*
X158565167Y-96259836D01*
X158514842Y-96183226D01*
X158438871Y-96131944D01*
X158349000Y-96113921D01*
X157575614Y-96113921D01*
X157574000Y-96113600D01*
X157572386Y-96113921D01*
X156799000Y-96113921D01*
X156711836Y-96130833D01*
X156635226Y-96181158D01*
X156583944Y-96257129D01*
X156565921Y-96347000D01*
X156565921Y-96947000D01*
X156582833Y-97034164D01*
X156633158Y-97110774D01*
X156709129Y-97162056D01*
X156799000Y-97180079D01*
X157040600Y-97180079D01*
X157040600Y-97475058D01*
X157005058Y-97510600D01*
X156923691Y-97510600D01*
X156832177Y-97472600D01*
X156604820Y-97472401D01*
X156394694Y-97559224D01*
X156363263Y-97590600D01*
X155569079Y-97590600D01*
X155569079Y-97374000D01*
X155552167Y-97286836D01*
X155501842Y-97210226D01*
X155425871Y-97158944D01*
X155336000Y-97140921D01*
X154036000Y-97140921D01*
X153948836Y-97157833D01*
X153872226Y-97208158D01*
X153820944Y-97284129D01*
X153802921Y-97374000D01*
X151736704Y-97374000D01*
X151462908Y-97261079D01*
X152146000Y-97261079D01*
X152233164Y-97244167D01*
X152309774Y-97193842D01*
X152361056Y-97117871D01*
X152379079Y-97028000D01*
X152379079Y-95783400D01*
X153802921Y-95783400D01*
X153802921Y-96174000D01*
X153819833Y-96261164D01*
X153870158Y-96337774D01*
X153946129Y-96389056D01*
X154036000Y-96407079D01*
X155336000Y-96407079D01*
X155423164Y-96390167D01*
X155499774Y-96339842D01*
X155551056Y-96263871D01*
X155569079Y-96174000D01*
X155569079Y-95910400D01*
X157574000Y-95910400D01*
X157575614Y-95910079D01*
X158349000Y-95910079D01*
X158436164Y-95893167D01*
X158512774Y-95842842D01*
X158564056Y-95766871D01*
X158565835Y-95758000D01*
X159740600Y-95758000D01*
X159740600Y-96774000D01*
X159781203Y-96978123D01*
X159896829Y-97151171D01*
X161601496Y-98855838D01*
X161582179Y-98863820D01*
X161095529Y-99349622D01*
X160831830Y-99984678D01*
X160831230Y-100672306D01*
X161093820Y-101307821D01*
X161579622Y-101794471D01*
X162214678Y-102058170D01*
X162902306Y-102058770D01*
X163537821Y-101796180D01*
X164024471Y-101310378D01*
X164210073Y-100863400D01*
X170307000Y-100863400D01*
X170511123Y-100822797D01*
X170684171Y-100707171D01*
X171954171Y-99437171D01*
X172069797Y-99264124D01*
X172110400Y-99060000D01*
X172110400Y-90297000D01*
X172069797Y-90092877D01*
X172069797Y-90092876D01*
X171954171Y-89919829D01*
X171028518Y-88994176D01*
X171028760Y-88716100D01*
X170887688Y-88374678D01*
X170626696Y-88113231D01*
X170285520Y-87971562D01*
X169916100Y-87971240D01*
X169574678Y-88112312D01*
X169313231Y-88373304D01*
X169171562Y-88714480D01*
X169171240Y-89083900D01*
X169312312Y-89425322D01*
X169573304Y-89686769D01*
X169914480Y-89828438D01*
X170283900Y-89828760D01*
X170333800Y-89808142D01*
X171043600Y-90517942D01*
X171043600Y-94009259D01*
X169973079Y-92938737D01*
X169973079Y-92060000D01*
X169956167Y-91972836D01*
X169905842Y-91896226D01*
X169829871Y-91844944D01*
X169740000Y-91826921D01*
X169523400Y-91826921D01*
X169523400Y-91634745D01*
X169648211Y-91510151D01*
X169735400Y-91300177D01*
X169735599Y-91072820D01*
X169648776Y-90862694D01*
X169488151Y-90701789D01*
X169278177Y-90614600D01*
X169050820Y-90614401D01*
X168840694Y-90701224D01*
X168679789Y-90861849D01*
X168641430Y-90954228D01*
X168612829Y-90982829D01*
X168497203Y-91155877D01*
X168456600Y-91360000D01*
X168456600Y-91826921D01*
X168240000Y-91826921D01*
X168152836Y-91843833D01*
X168076226Y-91894158D01*
X168024944Y-91970129D01*
X168006921Y-92060000D01*
X168006921Y-93360000D01*
X168023833Y-93447164D01*
X168074158Y-93523774D01*
X168150129Y-93575056D01*
X168240000Y-93593079D01*
X169118737Y-93593079D01*
X169795459Y-94269800D01*
X169123350Y-94269800D01*
X169040800Y-94352350D01*
X169040800Y-95199200D01*
X169987650Y-95199200D01*
X170070200Y-95116650D01*
X170070200Y-94544541D01*
X170154600Y-94628941D01*
X170154600Y-97061059D01*
X169973079Y-97242579D01*
X169973079Y-97140000D01*
X169956167Y-97052836D01*
X169905842Y-96976226D01*
X169829871Y-96924944D01*
X169740000Y-96906921D01*
X168240000Y-96906921D01*
X168152836Y-96923833D01*
X168076226Y-96974158D01*
X168024944Y-97050129D01*
X168006921Y-97140000D01*
X168006921Y-98440000D01*
X168023833Y-98527164D01*
X168074158Y-98603774D01*
X168150129Y-98655056D01*
X168240000Y-98673079D01*
X168456600Y-98673079D01*
X168456600Y-98959092D01*
X168425789Y-98989849D01*
X168338600Y-99199823D01*
X168338401Y-99427180D01*
X168425224Y-99637306D01*
X168584241Y-99796600D01*
X166641742Y-99796600D01*
X166667171Y-99771171D01*
X166782797Y-99598123D01*
X166823400Y-99394000D01*
X166823400Y-98673079D01*
X167040000Y-98673079D01*
X167127164Y-98656167D01*
X167203774Y-98605842D01*
X167255056Y-98529871D01*
X167273079Y-98440000D01*
X167273079Y-97140000D01*
X167256167Y-97052836D01*
X167205842Y-96976226D01*
X167129871Y-96924944D01*
X167040000Y-96906921D01*
X165540000Y-96906921D01*
X165452836Y-96923833D01*
X165376226Y-96974158D01*
X165324944Y-97050129D01*
X165306921Y-97140000D01*
X165306921Y-98440000D01*
X165323833Y-98527164D01*
X165374158Y-98603774D01*
X165450129Y-98655056D01*
X165540000Y-98673079D01*
X165756600Y-98673079D01*
X165756600Y-99173058D01*
X165133058Y-99796600D01*
X164209811Y-99796600D01*
X164026180Y-99352179D01*
X163540378Y-98865529D01*
X162905322Y-98601830D01*
X162856129Y-98601787D01*
X161034692Y-96780350D01*
X161868800Y-96780350D01*
X161868800Y-97012681D01*
X161919070Y-97134043D01*
X162011957Y-97226930D01*
X162133319Y-97277200D01*
X162840650Y-97277200D01*
X162923200Y-97194650D01*
X162923200Y-96697800D01*
X163024800Y-96697800D01*
X163024800Y-97194650D01*
X163107350Y-97277200D01*
X163814681Y-97277200D01*
X163936043Y-97226930D01*
X164028930Y-97134043D01*
X164079200Y-97012681D01*
X164079200Y-96780350D01*
X163996650Y-96697800D01*
X163024800Y-96697800D01*
X162923200Y-96697800D01*
X162923200Y-96697800D01*
X161951350Y-96697800D01*
X161868800Y-96780350D01*
X161034692Y-96780350D01*
X160807400Y-96553058D01*
X160807400Y-96281319D01*
X161868800Y-96281319D01*
X161868800Y-96513650D01*
X161951350Y-96596200D01*
X162923200Y-96596200D01*
X162923200Y-96099350D01*
X163024800Y-96099350D01*
X163024800Y-96596200D01*
X163996650Y-96596200D01*
X164079200Y-96513650D01*
X164079200Y-96281319D01*
X164028930Y-96159957D01*
X163936043Y-96067070D01*
X163814681Y-96016800D01*
X163107350Y-96016800D01*
X163024800Y-96099350D01*
X162923200Y-96099350D01*
X162923200Y-96099350D01*
X162840650Y-96016800D01*
X162133319Y-96016800D01*
X162011957Y-96067070D01*
X161919070Y-96159957D01*
X161868800Y-96281319D01*
X160807400Y-96281319D01*
X160807400Y-95978942D01*
X160875941Y-95910400D01*
X162974000Y-95910400D01*
X162975614Y-95910079D01*
X163749000Y-95910079D01*
X163836164Y-95893167D01*
X163912774Y-95842842D01*
X163964056Y-95766871D01*
X163982079Y-95677000D01*
X163982079Y-95077000D01*
X163965167Y-94989836D01*
X163914842Y-94913226D01*
X163838871Y-94861944D01*
X163749000Y-94843921D01*
X162975614Y-94843921D01*
X162974000Y-94843600D01*
X160655000Y-94843600D01*
X160450876Y-94884203D01*
X160381563Y-94930516D01*
X160277829Y-94999829D01*
X160277827Y-94999832D01*
X159896829Y-95380829D01*
X159781203Y-95553877D01*
X159740600Y-95758000D01*
X158565835Y-95758000D01*
X158582079Y-95677000D01*
X158582079Y-95077000D01*
X158565167Y-94989836D01*
X158514842Y-94913226D01*
X158438871Y-94861944D01*
X158349000Y-94843921D01*
X157575614Y-94843921D01*
X157574000Y-94843600D01*
X155569079Y-94843600D01*
X155569079Y-94674000D01*
X155552167Y-94586836D01*
X155501842Y-94510226D01*
X155425871Y-94458944D01*
X155336000Y-94440921D01*
X154036000Y-94440921D01*
X153948836Y-94457833D01*
X153872226Y-94508158D01*
X153820944Y-94584129D01*
X153802921Y-94674000D01*
X153802921Y-94716600D01*
X151892005Y-94716600D01*
X151892000Y-94716599D01*
X151687877Y-94757203D01*
X151679319Y-94762921D01*
X150114000Y-94762921D01*
X150026836Y-94779833D01*
X149950226Y-94830158D01*
X149898944Y-94906129D01*
X149880921Y-94996000D01*
X149880921Y-97028000D01*
X149897833Y-97115164D01*
X149948158Y-97191774D01*
X150024129Y-97243056D01*
X150114000Y-97261079D01*
X150797092Y-97261079D01*
X150383798Y-97431533D01*
X150011815Y-97802383D01*
X149810066Y-98287355D01*
X149809268Y-98291383D01*
X148741600Y-98291383D01*
X148741600Y-92537000D01*
X156565921Y-92537000D01*
X156565921Y-93137000D01*
X156582833Y-93224164D01*
X156633158Y-93300774D01*
X156709129Y-93352056D01*
X156799000Y-93370079D01*
X157040600Y-93370079D01*
X157040600Y-93573921D01*
X156799000Y-93573921D01*
X156711836Y-93590833D01*
X156635226Y-93641158D01*
X156583944Y-93717129D01*
X156565921Y-93807000D01*
X156565921Y-94407000D01*
X156582833Y-94494164D01*
X156633158Y-94570774D01*
X156709129Y-94622056D01*
X156799000Y-94640079D01*
X157572386Y-94640079D01*
X157574000Y-94640400D01*
X157575614Y-94640079D01*
X158349000Y-94640079D01*
X158436164Y-94623167D01*
X158512774Y-94572842D01*
X158564056Y-94496871D01*
X158582079Y-94407000D01*
X158582079Y-93807000D01*
X161965921Y-93807000D01*
X161965921Y-94407000D01*
X161982833Y-94494164D01*
X162033158Y-94570774D01*
X162109129Y-94622056D01*
X162199000Y-94640079D01*
X162972386Y-94640079D01*
X162974000Y-94640400D01*
X164244058Y-94640400D01*
X165230829Y-95627171D01*
X165306921Y-95678014D01*
X165306921Y-95900000D01*
X165323833Y-95987164D01*
X165374158Y-96063774D01*
X165450129Y-96115056D01*
X165540000Y-96133079D01*
X167040000Y-96133079D01*
X167127164Y-96116167D01*
X167203774Y-96065842D01*
X167255056Y-95989871D01*
X167273079Y-95900000D01*
X167273079Y-95383350D01*
X167909800Y-95383350D01*
X167909800Y-95965681D01*
X167960070Y-96087043D01*
X168052957Y-96179930D01*
X168174319Y-96230200D01*
X168856650Y-96230200D01*
X168939200Y-96147650D01*
X168939200Y-95300800D01*
X169040800Y-95300800D01*
X169040800Y-96147650D01*
X169123350Y-96230200D01*
X169805681Y-96230200D01*
X169927043Y-96179930D01*
X170019930Y-96087043D01*
X170070200Y-95965681D01*
X170070200Y-95383350D01*
X169987650Y-95300800D01*
X169040800Y-95300800D01*
X168939200Y-95300800D01*
X168939200Y-95300800D01*
X167992350Y-95300800D01*
X167909800Y-95383350D01*
X167273079Y-95383350D01*
X167273079Y-94600000D01*
X167260336Y-94534319D01*
X167909800Y-94534319D01*
X167909800Y-95116650D01*
X167992350Y-95199200D01*
X168939200Y-95199200D01*
X168939200Y-94352350D01*
X168856650Y-94269800D01*
X168174319Y-94269800D01*
X168052957Y-94320070D01*
X167960070Y-94412957D01*
X167909800Y-94534319D01*
X167260336Y-94534319D01*
X167256167Y-94512836D01*
X167205842Y-94436226D01*
X167129871Y-94384944D01*
X167040000Y-94366921D01*
X166823400Y-94366921D01*
X166823400Y-93593079D01*
X167040000Y-93593079D01*
X167127164Y-93576167D01*
X167203774Y-93525842D01*
X167255056Y-93449871D01*
X167273079Y-93360000D01*
X167273079Y-92060000D01*
X167256167Y-91972836D01*
X167205842Y-91896226D01*
X167129871Y-91844944D01*
X167040000Y-91826921D01*
X165540000Y-91826921D01*
X165452836Y-91843833D01*
X165376226Y-91894158D01*
X165324944Y-91970129D01*
X165306921Y-92060000D01*
X165306921Y-93360000D01*
X165323833Y-93447164D01*
X165374158Y-93523774D01*
X165450129Y-93575056D01*
X165540000Y-93593079D01*
X165756600Y-93593079D01*
X165756600Y-94366921D01*
X165540000Y-94366921D01*
X165489133Y-94376791D01*
X164842171Y-93729829D01*
X164669123Y-93614203D01*
X164465000Y-93573600D01*
X162974000Y-93573600D01*
X162972386Y-93573921D01*
X162199000Y-93573921D01*
X162111836Y-93590833D01*
X162035226Y-93641158D01*
X161983944Y-93717129D01*
X161965921Y-93807000D01*
X158582079Y-93807000D01*
X158582079Y-93807000D01*
X158565167Y-93719836D01*
X158514842Y-93643226D01*
X158438871Y-93591944D01*
X158349000Y-93573921D01*
X158107400Y-93573921D01*
X158107400Y-93370079D01*
X158349000Y-93370079D01*
X158436164Y-93353167D01*
X158512774Y-93302842D01*
X158564056Y-93226871D01*
X158582079Y-93137000D01*
X158582079Y-92970350D01*
X161868800Y-92970350D01*
X161868800Y-93202681D01*
X161919070Y-93324043D01*
X162011957Y-93416930D01*
X162133319Y-93467200D01*
X162840650Y-93467200D01*
X162923200Y-93384650D01*
X162923200Y-92887800D01*
X163024800Y-92887800D01*
X163024800Y-93384650D01*
X163107350Y-93467200D01*
X163814681Y-93467200D01*
X163936043Y-93416930D01*
X164028930Y-93324043D01*
X164079200Y-93202681D01*
X164079200Y-92970350D01*
X163996650Y-92887800D01*
X163024800Y-92887800D01*
X162923200Y-92887800D01*
X162923200Y-92887800D01*
X161951350Y-92887800D01*
X161868800Y-92970350D01*
X158582079Y-92970350D01*
X158582079Y-92537000D01*
X158569336Y-92471319D01*
X161868800Y-92471319D01*
X161868800Y-92703650D01*
X161951350Y-92786200D01*
X162923200Y-92786200D01*
X162923200Y-92289350D01*
X163024800Y-92289350D01*
X163024800Y-92786200D01*
X163996650Y-92786200D01*
X164079200Y-92703650D01*
X164079200Y-92471319D01*
X164028930Y-92349957D01*
X163936043Y-92257070D01*
X163814681Y-92206800D01*
X163107350Y-92206800D01*
X163024800Y-92289350D01*
X162923200Y-92289350D01*
X162923200Y-92289350D01*
X162840650Y-92206800D01*
X162133319Y-92206800D01*
X162011957Y-92257070D01*
X161919070Y-92349957D01*
X161868800Y-92471319D01*
X158569336Y-92471319D01*
X158565167Y-92449836D01*
X158514842Y-92373226D01*
X158438871Y-92321944D01*
X158349000Y-92303921D01*
X157575614Y-92303921D01*
X157574000Y-92303600D01*
X157572386Y-92303921D01*
X156799000Y-92303921D01*
X156711836Y-92320833D01*
X156635226Y-92371158D01*
X156583944Y-92447129D01*
X156565921Y-92537000D01*
X148741600Y-92537000D01*
X148741600Y-89160617D01*
X149555268Y-89160617D01*
X149556066Y-89164645D01*
X149757815Y-89649617D01*
X150129798Y-90020467D01*
X150615383Y-90220736D01*
X150825200Y-90162695D01*
X150825200Y-88950800D01*
X150926800Y-88950800D01*
X150926800Y-90162695D01*
X151136617Y-90220736D01*
X151418479Y-90104488D01*
X161871291Y-90104488D01*
X161966788Y-90335608D01*
X162143462Y-90512590D01*
X162374415Y-90608491D01*
X162624488Y-90608709D01*
X162855608Y-90513212D01*
X163032590Y-90336538D01*
X163128491Y-90105585D01*
X163128709Y-89855512D01*
X163033212Y-89624392D01*
X162856538Y-89447410D01*
X162625585Y-89351509D01*
X162375512Y-89351291D01*
X162144392Y-89446788D01*
X161967410Y-89623462D01*
X161871509Y-89854415D01*
X161871291Y-90104488D01*
X151418479Y-90104488D01*
X151622202Y-90020467D01*
X151994185Y-89649617D01*
X152195934Y-89164645D01*
X152196732Y-89160617D01*
X152155950Y-89013350D01*
X152968800Y-89013350D01*
X152968800Y-89695681D01*
X153019070Y-89817043D01*
X153111957Y-89909930D01*
X153233319Y-89960200D01*
X153790650Y-89960200D01*
X153873200Y-89877650D01*
X153873200Y-88930800D01*
X153974800Y-88930800D01*
X153974800Y-89877650D01*
X154057350Y-89960200D01*
X154614681Y-89960200D01*
X154736043Y-89909930D01*
X154828930Y-89817043D01*
X154879200Y-89695681D01*
X154879200Y-89013350D01*
X154796650Y-88930800D01*
X153974800Y-88930800D01*
X153873200Y-88930800D01*
X153873200Y-88930800D01*
X153051350Y-88930800D01*
X152968800Y-89013350D01*
X152155950Y-89013350D01*
X152138628Y-88950800D01*
X150926800Y-88950800D01*
X150825200Y-88950800D01*
X150825200Y-88950800D01*
X149613372Y-88950800D01*
X149555268Y-89160617D01*
X148741600Y-89160617D01*
X148741600Y-88639383D01*
X149555268Y-88639383D01*
X149613372Y-88849200D01*
X150825200Y-88849200D01*
X150825200Y-88829200D01*
X150926800Y-88829200D01*
X150926800Y-88849200D01*
X152138628Y-88849200D01*
X152196732Y-88639383D01*
X152195934Y-88635355D01*
X151994185Y-88150383D01*
X151907859Y-88064319D01*
X152968800Y-88064319D01*
X152968800Y-88746650D01*
X153051350Y-88829200D01*
X153873200Y-88829200D01*
X153873200Y-87882350D01*
X153974800Y-87882350D01*
X153974800Y-88829200D01*
X154796650Y-88829200D01*
X154879200Y-88746650D01*
X154879200Y-88230000D01*
X155580921Y-88230000D01*
X155580921Y-89730000D01*
X155597833Y-89817164D01*
X155648158Y-89893774D01*
X155724129Y-89945056D01*
X155814000Y-89963079D01*
X157114000Y-89963079D01*
X157201164Y-89946167D01*
X157277774Y-89895842D01*
X157329056Y-89819871D01*
X157347079Y-89730000D01*
X157347079Y-89513400D01*
X159400237Y-89513400D01*
X159573304Y-89686769D01*
X159914480Y-89828438D01*
X160283900Y-89828760D01*
X160625322Y-89687688D01*
X160886769Y-89426696D01*
X161028438Y-89085520D01*
X161028760Y-88716100D01*
X160887688Y-88374678D01*
X160626696Y-88113231D01*
X160285520Y-87971562D01*
X159916100Y-87971240D01*
X159574678Y-88112312D01*
X159313231Y-88373304D01*
X159282796Y-88446600D01*
X157347079Y-88446600D01*
X157347079Y-88230000D01*
X157330167Y-88142836D01*
X157279842Y-88066226D01*
X157203871Y-88014944D01*
X157114000Y-87996921D01*
X155814000Y-87996921D01*
X155726836Y-88013833D01*
X155650226Y-88064158D01*
X155598944Y-88140129D01*
X155580921Y-88230000D01*
X154879200Y-88230000D01*
X154879200Y-88064319D01*
X154828930Y-87942957D01*
X154736043Y-87850070D01*
X154614681Y-87799800D01*
X154057350Y-87799800D01*
X153974800Y-87882350D01*
X153873200Y-87882350D01*
X153873200Y-87882350D01*
X153790650Y-87799800D01*
X153233319Y-87799800D01*
X153111957Y-87850070D01*
X153019070Y-87942957D01*
X152968800Y-88064319D01*
X151907859Y-88064319D01*
X151622202Y-87779533D01*
X151208908Y-87609079D01*
X151892000Y-87609079D01*
X151979164Y-87592167D01*
X152055774Y-87541842D01*
X152107056Y-87465871D01*
X152125079Y-87376000D01*
X152125079Y-86913400D01*
X153065921Y-86913400D01*
X153065921Y-87130000D01*
X153082833Y-87217164D01*
X153133158Y-87293774D01*
X153209129Y-87345056D01*
X153299000Y-87363079D01*
X154549000Y-87363079D01*
X154636164Y-87346167D01*
X154712774Y-87295842D01*
X154764056Y-87219871D01*
X154782079Y-87130000D01*
X154782079Y-86413350D01*
X155483800Y-86413350D01*
X155483800Y-87095681D01*
X155534070Y-87217043D01*
X155626957Y-87309930D01*
X155748319Y-87360200D01*
X156330650Y-87360200D01*
X156413200Y-87277650D01*
X156413200Y-86330800D01*
X156514800Y-86330800D01*
X156514800Y-87277650D01*
X156597350Y-87360200D01*
X157179681Y-87360200D01*
X157301043Y-87309930D01*
X157393930Y-87217043D01*
X157444200Y-87095681D01*
X157444200Y-86543900D01*
X159171240Y-86543900D01*
X159312312Y-86885322D01*
X159573304Y-87146769D01*
X159914480Y-87288438D01*
X160283900Y-87288760D01*
X160625322Y-87147688D01*
X160693790Y-87079339D01*
X169452503Y-87079339D01*
X169524421Y-87238642D01*
X169904476Y-87392024D01*
X170314298Y-87388290D01*
X170675579Y-87238642D01*
X170747497Y-87079339D01*
X170100000Y-86431842D01*
X169452503Y-87079339D01*
X160693790Y-87079339D01*
X160886769Y-86886696D01*
X161028438Y-86545520D01*
X161028760Y-86176100D01*
X161023958Y-86164476D01*
X169067976Y-86164476D01*
X169071710Y-86574298D01*
X169221358Y-86935579D01*
X169380661Y-87007497D01*
X170028158Y-86360000D01*
X170171842Y-86360000D01*
X170819339Y-87007497D01*
X170978642Y-86935579D01*
X171132024Y-86555524D01*
X171128290Y-86145702D01*
X170978642Y-85784421D01*
X170819339Y-85712503D01*
X170171842Y-86360000D01*
X170028158Y-86360000D01*
X170028158Y-86360000D01*
X169380661Y-85712503D01*
X169221358Y-85784421D01*
X169067976Y-86164476D01*
X161023958Y-86164476D01*
X160887688Y-85834678D01*
X160694009Y-85640661D01*
X169452503Y-85640661D01*
X170100000Y-86288158D01*
X170747497Y-85640661D01*
X170675579Y-85481358D01*
X170295524Y-85327976D01*
X169885702Y-85331710D01*
X169524421Y-85481358D01*
X169452503Y-85640661D01*
X160694009Y-85640661D01*
X160626696Y-85573231D01*
X160285520Y-85431562D01*
X159916100Y-85431240D01*
X159574678Y-85572312D01*
X159313231Y-85833304D01*
X159171562Y-86174480D01*
X159171240Y-86543900D01*
X157444200Y-86543900D01*
X157444200Y-86413350D01*
X157361650Y-86330800D01*
X156514800Y-86330800D01*
X156413200Y-86330800D01*
X156413200Y-86330800D01*
X155566350Y-86330800D01*
X155483800Y-86413350D01*
X154782079Y-86413350D01*
X154782079Y-85630000D01*
X154765167Y-85542836D01*
X154714842Y-85466226D01*
X154712017Y-85464319D01*
X155483800Y-85464319D01*
X155483800Y-86146650D01*
X155566350Y-86229200D01*
X156413200Y-86229200D01*
X156413200Y-85282350D01*
X156514800Y-85282350D01*
X156514800Y-86229200D01*
X157361650Y-86229200D01*
X157444200Y-86146650D01*
X157444200Y-85464319D01*
X157393930Y-85342957D01*
X157301043Y-85250070D01*
X157179681Y-85199800D01*
X156597350Y-85199800D01*
X156514800Y-85282350D01*
X156413200Y-85282350D01*
X156413200Y-85282350D01*
X156330650Y-85199800D01*
X155748319Y-85199800D01*
X155626957Y-85250070D01*
X155534070Y-85342957D01*
X155483800Y-85464319D01*
X154712017Y-85464319D01*
X154638871Y-85414944D01*
X154549000Y-85396921D01*
X153299000Y-85396921D01*
X153211836Y-85413833D01*
X153135226Y-85464158D01*
X153083944Y-85540129D01*
X153065921Y-85630000D01*
X153065921Y-85846600D01*
X152125079Y-85846600D01*
X152125079Y-85344000D01*
X152108167Y-85256836D01*
X152057842Y-85180226D01*
X152019713Y-85154488D01*
X171071291Y-85154488D01*
X171166788Y-85385608D01*
X171343462Y-85562590D01*
X171574415Y-85658491D01*
X171824488Y-85658709D01*
X172055608Y-85563212D01*
X172232590Y-85386538D01*
X172328491Y-85155585D01*
X172328709Y-84905512D01*
X172233212Y-84674392D01*
X172056538Y-84497410D01*
X171825585Y-84401509D01*
X171575512Y-84401291D01*
X171344392Y-84496788D01*
X171167410Y-84673462D01*
X171071509Y-84904415D01*
X171071291Y-85154488D01*
X152019713Y-85154488D01*
X151981871Y-85128944D01*
X151892000Y-85110921D01*
X149860000Y-85110921D01*
X149772836Y-85127833D01*
X149696226Y-85178158D01*
X149644944Y-85254129D01*
X149626921Y-85344000D01*
X149626921Y-87376000D01*
X149643833Y-87463164D01*
X149694158Y-87539774D01*
X149770129Y-87591056D01*
X149860000Y-87609079D01*
X150543092Y-87609079D01*
X150129798Y-87779533D01*
X149757815Y-88150383D01*
X149556066Y-88635355D01*
X149555268Y-88639383D01*
X148741600Y-88639383D01*
X148741600Y-83388200D01*
X172441400Y-83388200D01*
X172441400Y-102793800D01*
M02*
