G04 #@! TF.FileFunction,Copper,L2,Bot,Signal*
%FSLAX46Y46*%
G04 Gerber Fmt 4.6, Leading zero omitted, Abs format (unit mm)*
G04 Created by KiCad (PCBNEW 0.201506222247+5806~23~ubuntu14.04.1-product) date Sun 28 Jun 2015 17:50:51 CEST*
%MOMM*%
G01*
G04 APERTURE LIST*
%ADD10C,0.127000*%
%ADD11C,0.031750*%
%ADD12R,2.032000X2.032000*%
%ADD13O,2.032000X2.032000*%
%ADD14C,1.400000*%
%ADD15C,0.685800*%
%ADD16C,0.152400*%
G04 APERTURE END LIST*
D10*
D11*
X158496000Y-98388714D02*
X158496000Y-98570143D01*
X158526238Y-98497571D02*
X158496000Y-98570143D01*
X158465762Y-98497571D01*
X158514143Y-98715286D02*
X158496000Y-98570143D01*
X158477857Y-98715286D01*
D12*
X150876000Y-86360000D03*
D13*
X150876000Y-88900000D03*
D12*
X151130000Y-96012000D03*
D13*
X151130000Y-98552000D03*
D14*
X170100000Y-88900000D03*
X170100000Y-86360000D03*
X160100000Y-88900000D03*
X160100000Y-86360000D03*
D15*
X168910000Y-99314000D03*
X169164000Y-91186000D03*
X156718000Y-98044000D03*
D16*
G36*
X172441400Y-102793800D02*
X148741600Y-102793800D01*
X148741600Y-97307400D01*
X151105617Y-97307400D01*
X150629329Y-97402140D01*
X150225552Y-97671935D01*
X149955757Y-98075712D01*
X149861017Y-98552000D01*
X149955757Y-99028288D01*
X150225552Y-99432065D01*
X150629329Y-99701860D01*
X151105617Y-99796600D01*
X151154383Y-99796600D01*
X151630671Y-99701860D01*
X152034448Y-99432065D01*
X152304243Y-99028288D01*
X152398983Y-98552000D01*
X152304243Y-98075712D01*
X152251232Y-97996375D01*
X158203144Y-97996375D01*
X158203144Y-99583875D01*
X158788856Y-99583875D01*
X158788856Y-97996375D01*
X158203144Y-97996375D01*
X152251232Y-97996375D01*
X152034448Y-97671935D01*
X151630671Y-97402140D01*
X151154383Y-97307400D01*
X151105617Y-97307400D01*
X148741600Y-97307400D01*
X148741600Y-94762921D01*
X150114000Y-94762921D01*
X150026836Y-94779833D01*
X149950226Y-94830158D01*
X149898944Y-94906129D01*
X149880921Y-94996000D01*
X149880921Y-97028000D01*
X149897833Y-97115164D01*
X149948158Y-97191774D01*
X150024129Y-97243056D01*
X150114000Y-97261079D01*
X152146000Y-97261079D01*
X152233164Y-97244167D01*
X152309774Y-97193842D01*
X152361056Y-97117871D01*
X152379079Y-97028000D01*
X152379079Y-94996000D01*
X152362167Y-94908836D01*
X152311842Y-94832226D01*
X152235871Y-94780944D01*
X152146000Y-94762921D01*
X150114000Y-94762921D01*
X148741600Y-94762921D01*
X148741600Y-90335608D01*
X161966788Y-90335608D01*
X162143462Y-90512590D01*
X162374415Y-90608491D01*
X162624488Y-90608709D01*
X162855608Y-90513212D01*
X163032590Y-90336538D01*
X163128491Y-90105585D01*
X163128709Y-89855512D01*
X163033212Y-89624392D01*
X162856538Y-89447410D01*
X162625585Y-89351509D01*
X162375512Y-89351291D01*
X162144392Y-89446788D01*
X160866641Y-89446788D01*
X160886769Y-89426696D01*
X161028438Y-89085520D01*
X161028760Y-88716100D01*
X160887688Y-88374678D01*
X160626696Y-88113231D01*
X160624483Y-88112312D01*
X169574678Y-88112312D01*
X169313231Y-88373304D01*
X169171562Y-88714480D01*
X169171240Y-89083900D01*
X169312312Y-89425322D01*
X169573304Y-89686769D01*
X169914480Y-89828438D01*
X170283900Y-89828760D01*
X170625322Y-89687688D01*
X170886769Y-89426696D01*
X171028438Y-89085520D01*
X171028760Y-88716100D01*
X170887688Y-88374678D01*
X170626696Y-88113231D01*
X170285520Y-87971562D01*
X169916100Y-87971240D01*
X169574678Y-88112312D01*
X160624483Y-88112312D01*
X160285520Y-87971562D01*
X159916100Y-87971240D01*
X159574678Y-88112312D01*
X159313231Y-88373304D01*
X159171562Y-88714480D01*
X159171240Y-89083900D01*
X159312312Y-89425322D01*
X159573304Y-89686769D01*
X159914480Y-89828438D01*
X160283900Y-89828760D01*
X160625322Y-89687688D01*
X160866641Y-89446788D01*
X162144392Y-89446788D01*
X160866641Y-89446788D01*
X160866641Y-89446788D01*
X162144392Y-89446788D01*
X161967410Y-89623462D01*
X161871509Y-89854415D01*
X151669175Y-89854415D01*
X151780448Y-89780065D01*
X152050243Y-89376288D01*
X152144983Y-88900000D01*
X152050243Y-88423712D01*
X151780448Y-88019935D01*
X151376671Y-87750140D01*
X151155771Y-87706200D01*
X151957681Y-87706200D01*
X152079043Y-87655930D01*
X152171930Y-87563043D01*
X152222200Y-87441681D01*
X152222200Y-87079339D01*
X159452503Y-87079339D01*
X159524421Y-87238642D01*
X159904476Y-87392024D01*
X160314298Y-87388290D01*
X160675579Y-87238642D01*
X160717055Y-87146769D01*
X169573304Y-87146769D01*
X169914480Y-87288438D01*
X170283900Y-87288760D01*
X170625322Y-87147688D01*
X170886769Y-86886696D01*
X171028438Y-86545520D01*
X171028760Y-86176100D01*
X170887688Y-85834678D01*
X170626696Y-85573231D01*
X170285520Y-85431562D01*
X169916100Y-85431240D01*
X169574678Y-85572312D01*
X160716641Y-85572312D01*
X160675579Y-85481358D01*
X160295524Y-85327976D01*
X159885702Y-85331710D01*
X159524421Y-85481358D01*
X159452503Y-85640661D01*
X160100000Y-86288158D01*
X160747497Y-85640661D01*
X160716641Y-85572312D01*
X169574678Y-85572312D01*
X160716641Y-85572312D01*
X160716641Y-85572312D01*
X169574678Y-85572312D01*
X169313231Y-85833304D01*
X160998891Y-85833304D01*
X160978642Y-85784421D01*
X160819339Y-85712503D01*
X160171842Y-86360000D01*
X160819339Y-87007497D01*
X160978642Y-86935579D01*
X161132024Y-86555524D01*
X161128290Y-86145702D01*
X160998891Y-85833304D01*
X169313231Y-85833304D01*
X160998891Y-85833304D01*
X160998891Y-85833304D01*
X169313231Y-85833304D01*
X169171562Y-86174480D01*
X169171240Y-86543900D01*
X169312312Y-86885322D01*
X169573304Y-87146769D01*
X160717055Y-87146769D01*
X160747497Y-87079339D01*
X160100000Y-86431842D01*
X159452503Y-87079339D01*
X152222200Y-87079339D01*
X152222200Y-86574298D01*
X159071710Y-86574298D01*
X159221358Y-86935579D01*
X159380661Y-87007497D01*
X160028158Y-86360000D01*
X159380661Y-85712503D01*
X159221358Y-85784421D01*
X152222200Y-85784421D01*
X152222200Y-85278319D01*
X152171930Y-85156957D01*
X152079043Y-85064070D01*
X151957681Y-85013800D01*
X151009350Y-85013800D01*
X150926800Y-85096350D01*
X150926800Y-86309200D01*
X152139650Y-86309200D01*
X152222200Y-86226650D01*
X152222200Y-85784421D01*
X159221358Y-85784421D01*
X152222200Y-85784421D01*
X152222200Y-85784421D01*
X159221358Y-85784421D01*
X159067976Y-86164476D01*
X159071710Y-86574298D01*
X152222200Y-86574298D01*
X152222200Y-86493350D01*
X152139650Y-86410800D01*
X150926800Y-86410800D01*
X150926800Y-86430800D01*
X150825200Y-86430800D01*
X150825200Y-86410800D01*
X149612350Y-86410800D01*
X149529800Y-86493350D01*
X149529800Y-87441681D01*
X149580070Y-87563043D01*
X149672957Y-87655930D01*
X149794319Y-87706200D01*
X150596229Y-87706200D01*
X150375329Y-87750140D01*
X149971552Y-88019935D01*
X149701757Y-88423712D01*
X149607017Y-88900000D01*
X149701757Y-89376288D01*
X149971552Y-89780065D01*
X150375329Y-90049860D01*
X150851617Y-90144600D01*
X150900383Y-90144600D01*
X151376671Y-90049860D01*
X151669175Y-89854415D01*
X161871509Y-89854415D01*
X151669175Y-89854415D01*
X151669175Y-89854415D01*
X161871509Y-89854415D01*
X161871291Y-90104488D01*
X161966788Y-90335608D01*
X148741600Y-90335608D01*
X148741600Y-85013800D01*
X149794319Y-85013800D01*
X149672957Y-85064070D01*
X149580070Y-85156957D01*
X149529800Y-85278319D01*
X149529800Y-86226650D01*
X149612350Y-86309200D01*
X150825200Y-86309200D01*
X150825200Y-85096350D01*
X150742650Y-85013800D01*
X149794319Y-85013800D01*
X148741600Y-85013800D01*
X148741600Y-84496788D01*
X171344392Y-84496788D01*
X171167410Y-84673462D01*
X171071509Y-84904415D01*
X171071291Y-85154488D01*
X171166788Y-85385608D01*
X171343462Y-85562590D01*
X171574415Y-85658491D01*
X171824488Y-85658709D01*
X172055608Y-85563212D01*
X172232590Y-85386538D01*
X172328491Y-85155585D01*
X172328709Y-84905512D01*
X172233212Y-84674392D01*
X172056538Y-84497410D01*
X171825585Y-84401509D01*
X171575512Y-84401291D01*
X171344392Y-84496788D01*
X148741600Y-84496788D01*
X148741600Y-83388200D01*
X172441400Y-83388200D01*
X172441400Y-102793800D01*
X172441400Y-102793800D01*
G37*
X172441400Y-102793800D02*
X148741600Y-102793800D01*
X148741600Y-97307400D01*
X151105617Y-97307400D01*
X150629329Y-97402140D01*
X150225552Y-97671935D01*
X149955757Y-98075712D01*
X149861017Y-98552000D01*
X149955757Y-99028288D01*
X150225552Y-99432065D01*
X150629329Y-99701860D01*
X151105617Y-99796600D01*
X151154383Y-99796600D01*
X151630671Y-99701860D01*
X152034448Y-99432065D01*
X152304243Y-99028288D01*
X152398983Y-98552000D01*
X152304243Y-98075712D01*
X152251232Y-97996375D01*
X158203144Y-97996375D01*
X158203144Y-99583875D01*
X158788856Y-99583875D01*
X158788856Y-97996375D01*
X158203144Y-97996375D01*
X152251232Y-97996375D01*
X152034448Y-97671935D01*
X151630671Y-97402140D01*
X151154383Y-97307400D01*
X151105617Y-97307400D01*
X148741600Y-97307400D01*
X148741600Y-94762921D01*
X150114000Y-94762921D01*
X150026836Y-94779833D01*
X149950226Y-94830158D01*
X149898944Y-94906129D01*
X149880921Y-94996000D01*
X149880921Y-97028000D01*
X149897833Y-97115164D01*
X149948158Y-97191774D01*
X150024129Y-97243056D01*
X150114000Y-97261079D01*
X152146000Y-97261079D01*
X152233164Y-97244167D01*
X152309774Y-97193842D01*
X152361056Y-97117871D01*
X152379079Y-97028000D01*
X152379079Y-94996000D01*
X152362167Y-94908836D01*
X152311842Y-94832226D01*
X152235871Y-94780944D01*
X152146000Y-94762921D01*
X150114000Y-94762921D01*
X148741600Y-94762921D01*
X148741600Y-90335608D01*
X161966788Y-90335608D01*
X162143462Y-90512590D01*
X162374415Y-90608491D01*
X162624488Y-90608709D01*
X162855608Y-90513212D01*
X163032590Y-90336538D01*
X163128491Y-90105585D01*
X163128709Y-89855512D01*
X163033212Y-89624392D01*
X162856538Y-89447410D01*
X162625585Y-89351509D01*
X162375512Y-89351291D01*
X162144392Y-89446788D01*
X160866641Y-89446788D01*
X160886769Y-89426696D01*
X161028438Y-89085520D01*
X161028760Y-88716100D01*
X160887688Y-88374678D01*
X160626696Y-88113231D01*
X160624483Y-88112312D01*
X169574678Y-88112312D01*
X169313231Y-88373304D01*
X169171562Y-88714480D01*
X169171240Y-89083900D01*
X169312312Y-89425322D01*
X169573304Y-89686769D01*
X169914480Y-89828438D01*
X170283900Y-89828760D01*
X170625322Y-89687688D01*
X170886769Y-89426696D01*
X171028438Y-89085520D01*
X171028760Y-88716100D01*
X170887688Y-88374678D01*
X170626696Y-88113231D01*
X170285520Y-87971562D01*
X169916100Y-87971240D01*
X169574678Y-88112312D01*
X160624483Y-88112312D01*
X160285520Y-87971562D01*
X159916100Y-87971240D01*
X159574678Y-88112312D01*
X159313231Y-88373304D01*
X159171562Y-88714480D01*
X159171240Y-89083900D01*
X159312312Y-89425322D01*
X159573304Y-89686769D01*
X159914480Y-89828438D01*
X160283900Y-89828760D01*
X160625322Y-89687688D01*
X160866641Y-89446788D01*
X162144392Y-89446788D01*
X160866641Y-89446788D01*
X160866641Y-89446788D01*
X162144392Y-89446788D01*
X161967410Y-89623462D01*
X161871509Y-89854415D01*
X151669175Y-89854415D01*
X151780448Y-89780065D01*
X152050243Y-89376288D01*
X152144983Y-88900000D01*
X152050243Y-88423712D01*
X151780448Y-88019935D01*
X151376671Y-87750140D01*
X151155771Y-87706200D01*
X151957681Y-87706200D01*
X152079043Y-87655930D01*
X152171930Y-87563043D01*
X152222200Y-87441681D01*
X152222200Y-87079339D01*
X159452503Y-87079339D01*
X159524421Y-87238642D01*
X159904476Y-87392024D01*
X160314298Y-87388290D01*
X160675579Y-87238642D01*
X160717055Y-87146769D01*
X169573304Y-87146769D01*
X169914480Y-87288438D01*
X170283900Y-87288760D01*
X170625322Y-87147688D01*
X170886769Y-86886696D01*
X171028438Y-86545520D01*
X171028760Y-86176100D01*
X170887688Y-85834678D01*
X170626696Y-85573231D01*
X170285520Y-85431562D01*
X169916100Y-85431240D01*
X169574678Y-85572312D01*
X160716641Y-85572312D01*
X160675579Y-85481358D01*
X160295524Y-85327976D01*
X159885702Y-85331710D01*
X159524421Y-85481358D01*
X159452503Y-85640661D01*
X160100000Y-86288158D01*
X160747497Y-85640661D01*
X160716641Y-85572312D01*
X169574678Y-85572312D01*
X160716641Y-85572312D01*
X160716641Y-85572312D01*
X169574678Y-85572312D01*
X169313231Y-85833304D01*
X160998891Y-85833304D01*
X160978642Y-85784421D01*
X160819339Y-85712503D01*
X160171842Y-86360000D01*
X160819339Y-87007497D01*
X160978642Y-86935579D01*
X161132024Y-86555524D01*
X161128290Y-86145702D01*
X160998891Y-85833304D01*
X169313231Y-85833304D01*
X160998891Y-85833304D01*
X160998891Y-85833304D01*
X169313231Y-85833304D01*
X169171562Y-86174480D01*
X169171240Y-86543900D01*
X169312312Y-86885322D01*
X169573304Y-87146769D01*
X160717055Y-87146769D01*
X160747497Y-87079339D01*
X160100000Y-86431842D01*
X159452503Y-87079339D01*
X152222200Y-87079339D01*
X152222200Y-86574298D01*
X159071710Y-86574298D01*
X159221358Y-86935579D01*
X159380661Y-87007497D01*
X160028158Y-86360000D01*
X159380661Y-85712503D01*
X159221358Y-85784421D01*
X152222200Y-85784421D01*
X152222200Y-85278319D01*
X152171930Y-85156957D01*
X152079043Y-85064070D01*
X151957681Y-85013800D01*
X151009350Y-85013800D01*
X150926800Y-85096350D01*
X150926800Y-86309200D01*
X152139650Y-86309200D01*
X152222200Y-86226650D01*
X152222200Y-85784421D01*
X159221358Y-85784421D01*
X152222200Y-85784421D01*
X152222200Y-85784421D01*
X159221358Y-85784421D01*
X159067976Y-86164476D01*
X159071710Y-86574298D01*
X152222200Y-86574298D01*
X152222200Y-86493350D01*
X152139650Y-86410800D01*
X150926800Y-86410800D01*
X150926800Y-86430800D01*
X150825200Y-86430800D01*
X150825200Y-86410800D01*
X149612350Y-86410800D01*
X149529800Y-86493350D01*
X149529800Y-87441681D01*
X149580070Y-87563043D01*
X149672957Y-87655930D01*
X149794319Y-87706200D01*
X150596229Y-87706200D01*
X150375329Y-87750140D01*
X149971552Y-88019935D01*
X149701757Y-88423712D01*
X149607017Y-88900000D01*
X149701757Y-89376288D01*
X149971552Y-89780065D01*
X150375329Y-90049860D01*
X150851617Y-90144600D01*
X150900383Y-90144600D01*
X151376671Y-90049860D01*
X151669175Y-89854415D01*
X161871509Y-89854415D01*
X151669175Y-89854415D01*
X151669175Y-89854415D01*
X161871509Y-89854415D01*
X161871291Y-90104488D01*
X161966788Y-90335608D01*
X148741600Y-90335608D01*
X148741600Y-85013800D01*
X149794319Y-85013800D01*
X149672957Y-85064070D01*
X149580070Y-85156957D01*
X149529800Y-85278319D01*
X149529800Y-86226650D01*
X149612350Y-86309200D01*
X150825200Y-86309200D01*
X150825200Y-85096350D01*
X150742650Y-85013800D01*
X149794319Y-85013800D01*
X148741600Y-85013800D01*
X148741600Y-84496788D01*
X171344392Y-84496788D01*
X171167410Y-84673462D01*
X171071509Y-84904415D01*
X171071291Y-85154488D01*
X171166788Y-85385608D01*
X171343462Y-85562590D01*
X171574415Y-85658491D01*
X171824488Y-85658709D01*
X172055608Y-85563212D01*
X172232590Y-85386538D01*
X172328491Y-85155585D01*
X172328709Y-84905512D01*
X172233212Y-84674392D01*
X172056538Y-84497410D01*
X171825585Y-84401509D01*
X171575512Y-84401291D01*
X171344392Y-84496788D01*
X148741600Y-84496788D01*
X148741600Y-83388200D01*
X172441400Y-83388200D01*
X172441400Y-102793800D01*
M02*
