G04 #@! TF.FileFunction,Legend,Top*
%FSLAX46Y46*%
G04 Gerber Fmt 4.6, Leading zero omitted, Abs format (unit mm)*
G04 Created by KiCad (PCBNEW 4.0.1-2.201512121406+6195~38~ubuntu14.04.1-stable) date Tue 19 Apr 2016 08:35:01 PM CEST*
%MOMM*%
G01*
G04 APERTURE LIST*
%ADD10C,0.150000*%
%ADD11C,0.127000*%
G04 APERTURE END LIST*
D10*
D11*
X123516571Y-75819000D02*
X123444000Y-75782714D01*
X123335143Y-75782714D01*
X123226286Y-75819000D01*
X123153714Y-75891571D01*
X123117429Y-75964143D01*
X123081143Y-76109286D01*
X123081143Y-76218143D01*
X123117429Y-76363286D01*
X123153714Y-76435857D01*
X123226286Y-76508429D01*
X123335143Y-76544714D01*
X123407714Y-76544714D01*
X123516571Y-76508429D01*
X123552857Y-76472143D01*
X123552857Y-76218143D01*
X123407714Y-76218143D01*
X123988286Y-76544714D02*
X123915714Y-76508429D01*
X123879429Y-76472143D01*
X123843143Y-76399571D01*
X123843143Y-76181857D01*
X123879429Y-76109286D01*
X123915714Y-76073000D01*
X123988286Y-76036714D01*
X124097143Y-76036714D01*
X124169714Y-76073000D01*
X124206000Y-76109286D01*
X124242286Y-76181857D01*
X124242286Y-76399571D01*
X124206000Y-76472143D01*
X124169714Y-76508429D01*
X124097143Y-76544714D01*
X123988286Y-76544714D01*
X124968000Y-75819000D02*
X124895429Y-75782714D01*
X124786572Y-75782714D01*
X124677715Y-75819000D01*
X124605143Y-75891571D01*
X124568858Y-75964143D01*
X124532572Y-76109286D01*
X124532572Y-76218143D01*
X124568858Y-76363286D01*
X124605143Y-76435857D01*
X124677715Y-76508429D01*
X124786572Y-76544714D01*
X124859143Y-76544714D01*
X124968000Y-76508429D01*
X125004286Y-76472143D01*
X125004286Y-76218143D01*
X124859143Y-76218143D01*
X125439715Y-76544714D02*
X125367143Y-76508429D01*
X125330858Y-76472143D01*
X125294572Y-76399571D01*
X125294572Y-76181857D01*
X125330858Y-76109286D01*
X125367143Y-76073000D01*
X125439715Y-76036714D01*
X125548572Y-76036714D01*
X125621143Y-76073000D01*
X125657429Y-76109286D01*
X125693715Y-76181857D01*
X125693715Y-76399571D01*
X125657429Y-76472143D01*
X125621143Y-76508429D01*
X125548572Y-76544714D01*
X125439715Y-76544714D01*
X126419429Y-75819000D02*
X126346858Y-75782714D01*
X126238001Y-75782714D01*
X126129144Y-75819000D01*
X126056572Y-75891571D01*
X126020287Y-75964143D01*
X125984001Y-76109286D01*
X125984001Y-76218143D01*
X126020287Y-76363286D01*
X126056572Y-76435857D01*
X126129144Y-76508429D01*
X126238001Y-76544714D01*
X126310572Y-76544714D01*
X126419429Y-76508429D01*
X126455715Y-76472143D01*
X126455715Y-76218143D01*
X126310572Y-76218143D01*
X126891144Y-76544714D02*
X126818572Y-76508429D01*
X126782287Y-76472143D01*
X126746001Y-76399571D01*
X126746001Y-76181857D01*
X126782287Y-76109286D01*
X126818572Y-76073000D01*
X126891144Y-76036714D01*
X127000001Y-76036714D01*
X127072572Y-76073000D01*
X127108858Y-76109286D01*
X127145144Y-76181857D01*
X127145144Y-76399571D01*
X127108858Y-76472143D01*
X127072572Y-76508429D01*
X127000001Y-76544714D01*
X126891144Y-76544714D01*
X137849429Y-90280671D02*
X138103429Y-90280671D01*
X138212286Y-90679814D02*
X137849429Y-90679814D01*
X137849429Y-89917814D01*
X138212286Y-89917814D01*
X138538858Y-90171814D02*
X138538858Y-90679814D01*
X138538858Y-90244386D02*
X138575143Y-90208100D01*
X138647715Y-90171814D01*
X138756572Y-90171814D01*
X138829143Y-90208100D01*
X138865429Y-90280671D01*
X138865429Y-90679814D01*
X139554858Y-90643529D02*
X139482287Y-90679814D01*
X139337144Y-90679814D01*
X139264572Y-90643529D01*
X139228287Y-90607243D01*
X139192001Y-90534671D01*
X139192001Y-90316957D01*
X139228287Y-90244386D01*
X139264572Y-90208100D01*
X139337144Y-90171814D01*
X139482287Y-90171814D01*
X139554858Y-90208100D01*
X139990287Y-90679814D02*
X139917715Y-90643529D01*
X139881430Y-90607243D01*
X139845144Y-90534671D01*
X139845144Y-90316957D01*
X139881430Y-90244386D01*
X139917715Y-90208100D01*
X139990287Y-90171814D01*
X140099144Y-90171814D01*
X140171715Y-90208100D01*
X140208001Y-90244386D01*
X140244287Y-90316957D01*
X140244287Y-90534671D01*
X140208001Y-90607243D01*
X140171715Y-90643529D01*
X140099144Y-90679814D01*
X139990287Y-90679814D01*
X140897430Y-90679814D02*
X140897430Y-89917814D01*
X140897430Y-90643529D02*
X140824859Y-90679814D01*
X140679716Y-90679814D01*
X140607144Y-90643529D01*
X140570859Y-90607243D01*
X140534573Y-90534671D01*
X140534573Y-90316957D01*
X140570859Y-90244386D01*
X140607144Y-90208100D01*
X140679716Y-90171814D01*
X140824859Y-90171814D01*
X140897430Y-90208100D01*
X141550573Y-90643529D02*
X141478002Y-90679814D01*
X141332859Y-90679814D01*
X141260288Y-90643529D01*
X141224002Y-90570957D01*
X141224002Y-90280671D01*
X141260288Y-90208100D01*
X141332859Y-90171814D01*
X141478002Y-90171814D01*
X141550573Y-90208100D01*
X141586859Y-90280671D01*
X141586859Y-90353243D01*
X141224002Y-90425814D01*
X141913431Y-90679814D02*
X141913431Y-90171814D01*
X141913431Y-90316957D02*
X141949716Y-90244386D01*
X141986002Y-90208100D01*
X142058573Y-90171814D01*
X142131145Y-90171814D01*
X143219716Y-90280671D02*
X143328573Y-90316957D01*
X143364858Y-90353243D01*
X143401144Y-90425814D01*
X143401144Y-90534671D01*
X143364858Y-90607243D01*
X143328573Y-90643529D01*
X143256001Y-90679814D01*
X142965716Y-90679814D01*
X142965716Y-89917814D01*
X143219716Y-89917814D01*
X143292287Y-89954100D01*
X143328573Y-89990386D01*
X143364858Y-90062957D01*
X143364858Y-90135529D01*
X143328573Y-90208100D01*
X143292287Y-90244386D01*
X143219716Y-90280671D01*
X142965716Y-90280671D01*
X143727716Y-90679814D02*
X143727716Y-90171814D01*
X143727716Y-90316957D02*
X143764001Y-90244386D01*
X143800287Y-90208100D01*
X143872858Y-90171814D01*
X143945430Y-90171814D01*
X144489715Y-90643529D02*
X144417144Y-90679814D01*
X144272001Y-90679814D01*
X144199430Y-90643529D01*
X144163144Y-90570957D01*
X144163144Y-90280671D01*
X144199430Y-90208100D01*
X144272001Y-90171814D01*
X144417144Y-90171814D01*
X144489715Y-90208100D01*
X144526001Y-90280671D01*
X144526001Y-90353243D01*
X144163144Y-90425814D01*
X145179144Y-90679814D02*
X145179144Y-90280671D01*
X145142858Y-90208100D01*
X145070287Y-90171814D01*
X144925144Y-90171814D01*
X144852573Y-90208100D01*
X145179144Y-90643529D02*
X145106573Y-90679814D01*
X144925144Y-90679814D01*
X144852573Y-90643529D01*
X144816287Y-90570957D01*
X144816287Y-90498386D01*
X144852573Y-90425814D01*
X144925144Y-90389529D01*
X145106573Y-90389529D01*
X145179144Y-90353243D01*
X145542002Y-90679814D02*
X145542002Y-89917814D01*
X145614573Y-90389529D02*
X145832287Y-90679814D01*
X145832287Y-90171814D02*
X145542002Y-90462100D01*
X146267716Y-90679814D02*
X146195144Y-90643529D01*
X146158859Y-90607243D01*
X146122573Y-90534671D01*
X146122573Y-90316957D01*
X146158859Y-90244386D01*
X146195144Y-90208100D01*
X146267716Y-90171814D01*
X146376573Y-90171814D01*
X146449144Y-90208100D01*
X146485430Y-90244386D01*
X146521716Y-90316957D01*
X146521716Y-90534671D01*
X146485430Y-90607243D01*
X146449144Y-90643529D01*
X146376573Y-90679814D01*
X146267716Y-90679814D01*
X147174859Y-90171814D02*
X147174859Y-90679814D01*
X146848288Y-90171814D02*
X146848288Y-90570957D01*
X146884573Y-90643529D01*
X146957145Y-90679814D01*
X147066002Y-90679814D01*
X147138573Y-90643529D01*
X147174859Y-90607243D01*
X147428859Y-90171814D02*
X147719145Y-90171814D01*
X147537717Y-89917814D02*
X147537717Y-90570957D01*
X147574002Y-90643529D01*
X147646574Y-90679814D01*
X147719145Y-90679814D01*
X137813143Y-91184186D02*
X137849429Y-91147900D01*
X137922000Y-91111614D01*
X138103429Y-91111614D01*
X138176000Y-91147900D01*
X138212286Y-91184186D01*
X138248571Y-91256757D01*
X138248571Y-91329329D01*
X138212286Y-91438186D01*
X137776857Y-91873614D01*
X138248571Y-91873614D01*
X138938000Y-91873614D02*
X138575143Y-91873614D01*
X138575143Y-91111614D01*
X139192000Y-91801043D02*
X139228285Y-91837329D01*
X139192000Y-91873614D01*
X139155714Y-91837329D01*
X139192000Y-91801043D01*
X139192000Y-91873614D01*
X139953999Y-91873614D02*
X139518571Y-91873614D01*
X139736285Y-91873614D02*
X139736285Y-91111614D01*
X139663714Y-91220471D01*
X139591142Y-91293043D01*
X139518571Y-91329329D01*
X146993429Y-78502329D02*
X147574000Y-78502329D01*
X147283714Y-78792614D02*
X147283714Y-78212043D01*
X146993429Y-82374014D02*
X146993429Y-81612014D01*
X147428857Y-82374014D02*
X147102286Y-81938586D01*
X147428857Y-81612014D02*
X146993429Y-82047443D01*
X147428857Y-85882843D02*
X147392571Y-85919129D01*
X147283714Y-85955414D01*
X147211143Y-85955414D01*
X147102286Y-85919129D01*
X147029714Y-85846557D01*
X146993429Y-85773986D01*
X146957143Y-85628843D01*
X146957143Y-85519986D01*
X146993429Y-85374843D01*
X147029714Y-85302271D01*
X147102286Y-85229700D01*
X147211143Y-85193414D01*
X147283714Y-85193414D01*
X147392571Y-85229700D01*
X147428857Y-85265986D01*
X147392571Y-88811100D02*
X147320000Y-88774814D01*
X147211143Y-88774814D01*
X147102286Y-88811100D01*
X147029714Y-88883671D01*
X146993429Y-88956243D01*
X146957143Y-89101386D01*
X146957143Y-89210243D01*
X146993429Y-89355386D01*
X147029714Y-89427957D01*
X147102286Y-89500529D01*
X147211143Y-89536814D01*
X147283714Y-89536814D01*
X147392571Y-89500529D01*
X147428857Y-89464243D01*
X147428857Y-89210243D01*
X147283714Y-89210243D01*
X122736429Y-78502329D02*
X123317000Y-78502329D01*
X123026714Y-78792614D02*
X123026714Y-78212043D01*
X122736429Y-82374014D02*
X122736429Y-81612014D01*
X123171857Y-82374014D02*
X122845286Y-81938586D01*
X123171857Y-81612014D02*
X122736429Y-82047443D01*
X123171857Y-85882843D02*
X123135571Y-85919129D01*
X123026714Y-85955414D01*
X122954143Y-85955414D01*
X122845286Y-85919129D01*
X122772714Y-85846557D01*
X122736429Y-85773986D01*
X122700143Y-85628843D01*
X122700143Y-85519986D01*
X122736429Y-85374843D01*
X122772714Y-85302271D01*
X122845286Y-85229700D01*
X122954143Y-85193414D01*
X123026714Y-85193414D01*
X123135571Y-85229700D01*
X123171857Y-85265986D01*
X123135571Y-88811100D02*
X123063000Y-88774814D01*
X122954143Y-88774814D01*
X122845286Y-88811100D01*
X122772714Y-88883671D01*
X122736429Y-88956243D01*
X122700143Y-89101386D01*
X122700143Y-89210243D01*
X122736429Y-89355386D01*
X122772714Y-89427957D01*
X122845286Y-89500529D01*
X122954143Y-89536814D01*
X123026714Y-89536814D01*
X123135571Y-89500529D01*
X123171857Y-89464243D01*
X123171857Y-89210243D01*
X123026714Y-89210243D01*
D10*
X124206000Y-81280000D02*
X124206000Y-88900000D01*
X126746000Y-81280000D02*
X126746000Y-88900000D01*
X127026000Y-78460000D02*
X127026000Y-80010000D01*
X124206000Y-88900000D02*
X126746000Y-88900000D01*
X126746000Y-81280000D02*
X124206000Y-81280000D01*
X123926000Y-80010000D02*
X123926000Y-78460000D01*
X123926000Y-78460000D02*
X127026000Y-78460000D01*
X143510000Y-81280000D02*
X143510000Y-88900000D01*
X146050000Y-81280000D02*
X146050000Y-88900000D01*
X146330000Y-78460000D02*
X146330000Y-80010000D01*
X143510000Y-88900000D02*
X146050000Y-88900000D01*
X146050000Y-81280000D02*
X143510000Y-81280000D01*
X143230000Y-80010000D02*
X143230000Y-78460000D01*
X143230000Y-78460000D02*
X146330000Y-78460000D01*
X142128000Y-86820000D02*
X128128000Y-86820000D01*
X128128000Y-86820000D02*
X128128000Y-80820000D01*
X128128000Y-80820000D02*
X142128000Y-80820000D01*
X142128000Y-80820000D02*
X142128000Y-86820000D01*
X127785905Y-79446381D02*
X127785905Y-78446381D01*
X128166858Y-78446381D01*
X128262096Y-78494000D01*
X128309715Y-78541619D01*
X128357334Y-78636857D01*
X128357334Y-78779714D01*
X128309715Y-78874952D01*
X128262096Y-78922571D01*
X128166858Y-78970190D01*
X127785905Y-78970190D01*
X129309715Y-79446381D02*
X128738286Y-79446381D01*
X129024000Y-79446381D02*
X129024000Y-78446381D01*
X128928762Y-78589238D01*
X128833524Y-78684476D01*
X128738286Y-78732095D01*
X141247905Y-79446381D02*
X141247905Y-78446381D01*
X141628858Y-78446381D01*
X141724096Y-78494000D01*
X141771715Y-78541619D01*
X141819334Y-78636857D01*
X141819334Y-78779714D01*
X141771715Y-78874952D01*
X141724096Y-78922571D01*
X141628858Y-78970190D01*
X141247905Y-78970190D01*
X142200286Y-78541619D02*
X142247905Y-78494000D01*
X142343143Y-78446381D01*
X142581239Y-78446381D01*
X142676477Y-78494000D01*
X142724096Y-78541619D01*
X142771715Y-78636857D01*
X142771715Y-78732095D01*
X142724096Y-78874952D01*
X142152667Y-79446381D01*
X142771715Y-79446381D01*
X134368635Y-79279501D02*
X134368635Y-80089025D01*
X134416254Y-80184263D01*
X134463873Y-80231882D01*
X134559111Y-80279501D01*
X134749588Y-80279501D01*
X134844826Y-80231882D01*
X134892445Y-80184263D01*
X134940064Y-80089025D01*
X134940064Y-79279501D01*
X135940064Y-80279501D02*
X135368635Y-80279501D01*
X135654349Y-80279501D02*
X135654349Y-79279501D01*
X135559111Y-79422358D01*
X135463873Y-79517596D01*
X135368635Y-79565215D01*
M02*
