G04 #@! TF.FileFunction,Legend,Top*
%FSLAX46Y46*%
G04 Gerber Fmt 4.6, Leading zero omitted, Abs format (unit mm)*
G04 Created by KiCad (PCBNEW (2015-05-26 BZR 5680)-product) date 2015 June 16, Tuesday 18:31:44*
%MOMM*%
G01*
G04 APERTURE LIST*
%ADD10C,0.100000*%
%ADD11C,0.127000*%
%ADD12C,0.150000*%
%ADD13R,1.000000X1.250000*%
%ADD14R,1.000000X1.600000*%
%ADD15R,1.250000X1.000000*%
%ADD16R,1.600000X1.000000*%
%ADD17R,2.032000X2.032000*%
%ADD18O,2.032000X2.032000*%
%ADD19R,2.032000X1.727200*%
%ADD20O,2.032000X1.727200*%
%ADD21R,1.270000X0.406400*%
G04 APERTURE END LIST*
D10*
D11*
X148771429Y-96140814D02*
X148771429Y-95378814D01*
X149025429Y-95923100D01*
X149279429Y-95378814D01*
X149279429Y-96140814D01*
X149751143Y-96140814D02*
X149678571Y-96104529D01*
X149642286Y-96068243D01*
X149606000Y-95995671D01*
X149606000Y-95777957D01*
X149642286Y-95705386D01*
X149678571Y-95669100D01*
X149751143Y-95632814D01*
X149860000Y-95632814D01*
X149932571Y-95669100D01*
X149968857Y-95705386D01*
X150005143Y-95777957D01*
X150005143Y-95995671D01*
X149968857Y-96068243D01*
X149932571Y-96104529D01*
X149860000Y-96140814D01*
X149751143Y-96140814D01*
X150222857Y-95632814D02*
X150513143Y-95632814D01*
X150331715Y-95378814D02*
X150331715Y-96031957D01*
X150368000Y-96104529D01*
X150440572Y-96140814D01*
X150513143Y-96140814D01*
X150876001Y-96140814D02*
X150803429Y-96104529D01*
X150767144Y-96068243D01*
X150730858Y-95995671D01*
X150730858Y-95777957D01*
X150767144Y-95705386D01*
X150803429Y-95669100D01*
X150876001Y-95632814D01*
X150984858Y-95632814D01*
X151057429Y-95669100D01*
X151093715Y-95705386D01*
X151130001Y-95777957D01*
X151130001Y-95995671D01*
X151093715Y-96068243D01*
X151057429Y-96104529D01*
X150984858Y-96140814D01*
X150876001Y-96140814D01*
X152037144Y-96140814D02*
X152037144Y-95378814D01*
X152218572Y-95378814D01*
X152327429Y-95415100D01*
X152400001Y-95487671D01*
X152436286Y-95560243D01*
X152472572Y-95705386D01*
X152472572Y-95814243D01*
X152436286Y-95959386D01*
X152400001Y-96031957D01*
X152327429Y-96104529D01*
X152218572Y-96140814D01*
X152037144Y-96140814D01*
X152799144Y-96140814D02*
X152799144Y-95632814D01*
X152799144Y-95777957D02*
X152835429Y-95705386D01*
X152871715Y-95669100D01*
X152944286Y-95632814D01*
X153016858Y-95632814D01*
X153270858Y-96140814D02*
X153270858Y-95632814D01*
X153270858Y-95378814D02*
X153234572Y-95415100D01*
X153270858Y-95451386D01*
X153307143Y-95415100D01*
X153270858Y-95378814D01*
X153270858Y-95451386D01*
X153561143Y-95632814D02*
X153742572Y-96140814D01*
X153924000Y-95632814D01*
X154504571Y-96104529D02*
X154432000Y-96140814D01*
X154286857Y-96140814D01*
X154214286Y-96104529D01*
X154178000Y-96031957D01*
X154178000Y-95741671D01*
X154214286Y-95669100D01*
X154286857Y-95632814D01*
X154432000Y-95632814D01*
X154504571Y-95669100D01*
X154540857Y-95741671D01*
X154540857Y-95814243D01*
X154178000Y-95886814D01*
X154867429Y-96140814D02*
X154867429Y-95632814D01*
X154867429Y-95777957D02*
X154903714Y-95705386D01*
X154940000Y-95669100D01*
X155012571Y-95632814D01*
X155085143Y-95632814D01*
X149206857Y-97334614D02*
X148952857Y-96971757D01*
X148771429Y-97334614D02*
X148771429Y-96572614D01*
X149061714Y-96572614D01*
X149134286Y-96608900D01*
X149170571Y-96645186D01*
X149206857Y-96717757D01*
X149206857Y-96826614D01*
X149170571Y-96899186D01*
X149134286Y-96935471D01*
X149061714Y-96971757D01*
X148771429Y-96971757D01*
X149823714Y-97298329D02*
X149751143Y-97334614D01*
X149606000Y-97334614D01*
X149533429Y-97298329D01*
X149497143Y-97225757D01*
X149497143Y-96935471D01*
X149533429Y-96862900D01*
X149606000Y-96826614D01*
X149751143Y-96826614D01*
X149823714Y-96862900D01*
X149860000Y-96935471D01*
X149860000Y-97008043D01*
X149497143Y-97080614D01*
X150114000Y-96826614D02*
X150295429Y-97334614D01*
X150476857Y-96826614D01*
X151311428Y-96645186D02*
X151347714Y-96608900D01*
X151420285Y-96572614D01*
X151601714Y-96572614D01*
X151674285Y-96608900D01*
X151710571Y-96645186D01*
X151746856Y-96717757D01*
X151746856Y-96790329D01*
X151710571Y-96899186D01*
X151275142Y-97334614D01*
X151746856Y-97334614D01*
X152436285Y-97334614D02*
X152073428Y-97334614D01*
X152073428Y-96572614D01*
X152690285Y-97262043D02*
X152726570Y-97298329D01*
X152690285Y-97334614D01*
X152653999Y-97298329D01*
X152690285Y-97262043D01*
X152690285Y-97334614D01*
X153452284Y-97334614D02*
X153016856Y-97334614D01*
X153234570Y-97334614D02*
X153234570Y-96572614D01*
X153161999Y-96681471D01*
X153089427Y-96754043D01*
X153016856Y-96790329D01*
D12*
X160282000Y-87718000D02*
X161282000Y-87718000D01*
X161282000Y-86018000D02*
X160282000Y-86018000D01*
X166354000Y-85589000D02*
X164354000Y-85589000D01*
X164354000Y-87639000D02*
X166354000Y-87639000D01*
X155790000Y-93210000D02*
X155790000Y-92210000D01*
X154090000Y-92210000D02*
X154090000Y-93210000D01*
X166379000Y-94218000D02*
X166379000Y-92218000D01*
X164329000Y-92218000D02*
X164329000Y-94218000D01*
X159766000Y-84074000D02*
X157226000Y-84074000D01*
X162586000Y-84354000D02*
X161036000Y-84354000D01*
X159766000Y-84074000D02*
X159766000Y-81534000D01*
X161036000Y-81254000D02*
X162586000Y-81254000D01*
X162586000Y-81254000D02*
X162586000Y-84354000D01*
X159766000Y-81534000D02*
X157226000Y-81534000D01*
X157226000Y-81534000D02*
X157226000Y-84074000D01*
X149352000Y-84074000D02*
X149352000Y-91694000D01*
X151892000Y-84074000D02*
X151892000Y-91694000D01*
X152172000Y-81254000D02*
X152172000Y-82804000D01*
X149352000Y-91694000D02*
X151892000Y-91694000D01*
X151892000Y-84074000D02*
X149352000Y-84074000D01*
X149072000Y-82804000D02*
X149072000Y-81254000D01*
X149072000Y-81254000D02*
X152172000Y-81254000D01*
X160274000Y-97790000D02*
X162814000Y-97790000D01*
X157454000Y-97510000D02*
X159004000Y-97510000D01*
X160274000Y-97790000D02*
X160274000Y-100330000D01*
X159004000Y-100610000D02*
X157454000Y-100610000D01*
X157454000Y-100610000D02*
X157454000Y-97510000D01*
X160274000Y-100330000D02*
X162814000Y-100330000D01*
X162814000Y-100330000D02*
X162814000Y-97790000D01*
X161798000Y-96012000D02*
X161798000Y-88392000D01*
X158242000Y-88392000D02*
X158242000Y-96012000D01*
X161798000Y-96012000D02*
X158242000Y-96012000D01*
X158242000Y-88392000D02*
X161798000Y-88392000D01*
X159109210Y-88900000D02*
G75*
G03X159109210Y-88900000I-359210J0D01*
G01*
X160655000Y-88392000D02*
X160655000Y-89154000D01*
X160655000Y-89154000D02*
X159385000Y-89154000D01*
X159385000Y-89154000D02*
X159385000Y-88392000D01*
D11*
X166116000Y-88791143D02*
X166079714Y-88827429D01*
X165970857Y-88863714D01*
X165898286Y-88863714D01*
X165789429Y-88827429D01*
X165716857Y-88754857D01*
X165680572Y-88682286D01*
X165644286Y-88537143D01*
X165644286Y-88428286D01*
X165680572Y-88283143D01*
X165716857Y-88210571D01*
X165789429Y-88138000D01*
X165898286Y-88101714D01*
X165970857Y-88101714D01*
X166079714Y-88138000D01*
X166116000Y-88174286D01*
X166841714Y-88863714D02*
X166406286Y-88863714D01*
X166624000Y-88863714D02*
X166624000Y-88101714D01*
X166551429Y-88210571D01*
X166478857Y-88283143D01*
X166406286Y-88319429D01*
X157861000Y-87140143D02*
X157824714Y-87176429D01*
X157715857Y-87212714D01*
X157643286Y-87212714D01*
X157534429Y-87176429D01*
X157461857Y-87103857D01*
X157425572Y-87031286D01*
X157389286Y-86886143D01*
X157389286Y-86777286D01*
X157425572Y-86632143D01*
X157461857Y-86559571D01*
X157534429Y-86487000D01*
X157643286Y-86450714D01*
X157715857Y-86450714D01*
X157824714Y-86487000D01*
X157861000Y-86523286D01*
X158151286Y-86523286D02*
X158187572Y-86487000D01*
X158260143Y-86450714D01*
X158441572Y-86450714D01*
X158514143Y-86487000D01*
X158550429Y-86523286D01*
X158586714Y-86595857D01*
X158586714Y-86668429D01*
X158550429Y-86777286D01*
X158115000Y-87212714D01*
X158586714Y-87212714D01*
X155212143Y-89535000D02*
X155248429Y-89571286D01*
X155284714Y-89680143D01*
X155284714Y-89752714D01*
X155248429Y-89861571D01*
X155175857Y-89934143D01*
X155103286Y-89970428D01*
X154958143Y-90006714D01*
X154849286Y-90006714D01*
X154704143Y-89970428D01*
X154631571Y-89934143D01*
X154559000Y-89861571D01*
X154522714Y-89752714D01*
X154522714Y-89680143D01*
X154559000Y-89571286D01*
X154595286Y-89535000D01*
X154522714Y-89281000D02*
X154522714Y-88809286D01*
X154813000Y-89063286D01*
X154813000Y-88954428D01*
X154849286Y-88881857D01*
X154885571Y-88845571D01*
X154958143Y-88809286D01*
X155139571Y-88809286D01*
X155212143Y-88845571D01*
X155248429Y-88881857D01*
X155284714Y-88954428D01*
X155284714Y-89172143D01*
X155248429Y-89244714D01*
X155212143Y-89281000D01*
X166261143Y-96520000D02*
X166297429Y-96556286D01*
X166333714Y-96665143D01*
X166333714Y-96737714D01*
X166297429Y-96846571D01*
X166224857Y-96919143D01*
X166152286Y-96955428D01*
X166007143Y-96991714D01*
X165898286Y-96991714D01*
X165753143Y-96955428D01*
X165680571Y-96919143D01*
X165608000Y-96846571D01*
X165571714Y-96737714D01*
X165571714Y-96665143D01*
X165608000Y-96556286D01*
X165644286Y-96520000D01*
X165825714Y-95866857D02*
X166333714Y-95866857D01*
X165535429Y-96048286D02*
X166079714Y-96229714D01*
X166079714Y-95758000D01*
X155266572Y-81878714D02*
X155266572Y-81116714D01*
X155556857Y-81116714D01*
X155629429Y-81153000D01*
X155665714Y-81189286D01*
X155702000Y-81261857D01*
X155702000Y-81370714D01*
X155665714Y-81443286D01*
X155629429Y-81479571D01*
X155556857Y-81515857D01*
X155266572Y-81515857D01*
X156427714Y-81878714D02*
X155992286Y-81878714D01*
X156210000Y-81878714D02*
X156210000Y-81116714D01*
X156137429Y-81225571D01*
X156064857Y-81298143D01*
X155992286Y-81334429D01*
X149823714Y-93653428D02*
X149061714Y-93653428D01*
X149061714Y-93363143D01*
X149098000Y-93290571D01*
X149134286Y-93254286D01*
X149206857Y-93218000D01*
X149315714Y-93218000D01*
X149388286Y-93254286D01*
X149424571Y-93290571D01*
X149460857Y-93363143D01*
X149460857Y-93653428D01*
X149134286Y-92927714D02*
X149098000Y-92891428D01*
X149061714Y-92818857D01*
X149061714Y-92637428D01*
X149098000Y-92564857D01*
X149134286Y-92528571D01*
X149206857Y-92492286D01*
X149279429Y-92492286D01*
X149388286Y-92528571D01*
X149823714Y-92964000D01*
X149823714Y-92492286D01*
X155647572Y-100674714D02*
X155647572Y-99912714D01*
X155937857Y-99912714D01*
X156010429Y-99949000D01*
X156046714Y-99985286D01*
X156083000Y-100057857D01*
X156083000Y-100166714D01*
X156046714Y-100239286D01*
X156010429Y-100275571D01*
X155937857Y-100311857D01*
X155647572Y-100311857D01*
X156337000Y-99912714D02*
X156808714Y-99912714D01*
X156554714Y-100203000D01*
X156663572Y-100203000D01*
X156736143Y-100239286D01*
X156772429Y-100275571D01*
X156808714Y-100348143D01*
X156808714Y-100529571D01*
X156772429Y-100602143D01*
X156736143Y-100638429D01*
X156663572Y-100674714D01*
X156445857Y-100674714D01*
X156373286Y-100638429D01*
X156337000Y-100602143D01*
X162487429Y-96102714D02*
X162487429Y-96719571D01*
X162523714Y-96792143D01*
X162560000Y-96828429D01*
X162632571Y-96864714D01*
X162777714Y-96864714D01*
X162850286Y-96828429D01*
X162886571Y-96792143D01*
X162922857Y-96719571D01*
X162922857Y-96102714D01*
X163684857Y-96864714D02*
X163249429Y-96864714D01*
X163467143Y-96864714D02*
X163467143Y-96102714D01*
X163394572Y-96211571D01*
X163322000Y-96284143D01*
X163249429Y-96320429D01*
%LPC*%
D13*
X161782000Y-86868000D03*
X159782000Y-86868000D03*
D14*
X163854000Y-86614000D03*
X166854000Y-86614000D03*
D15*
X154940000Y-91710000D03*
X154940000Y-93710000D03*
D16*
X165354000Y-91718000D03*
X165354000Y-94718000D03*
D17*
X161036000Y-82804000D03*
D18*
X158496000Y-82804000D03*
D19*
X150622000Y-82804000D03*
D20*
X150622000Y-85344000D03*
X150622000Y-87884000D03*
X150622000Y-90424000D03*
D17*
X159004000Y-99060000D03*
D18*
X161544000Y-99060000D03*
D21*
X157353000Y-89281000D03*
X157353000Y-89916000D03*
X157353000Y-90576400D03*
X157353000Y-91236800D03*
X157353000Y-91871800D03*
X157353000Y-92532200D03*
X157353000Y-93192600D03*
X157353000Y-93827600D03*
X157353000Y-94488000D03*
X157353000Y-95123000D03*
X162687000Y-95123000D03*
X162687000Y-94488000D03*
X162687000Y-93827600D03*
X162687000Y-93192600D03*
X162687000Y-92532200D03*
X162687000Y-91871800D03*
X162687000Y-91236800D03*
X162687000Y-90576400D03*
X162687000Y-89916000D03*
X162687000Y-89281000D03*
M02*
