G04 #@! TF.FileFunction,Copper,L1,Top,Signal*
%FSLAX46Y46*%
G04 Gerber Fmt 4.6, Leading zero omitted, Abs format (unit mm)*
G04 Created by KiCad (PCBNEW 0.201508140901+6091~28~ubuntu14.04.1-product) date Mon 05 Oct 2015 11:49:52 PM CEST*
%MOMM*%
G01*
G04 APERTURE LIST*
%ADD10C,0.100000*%
%ADD11C,0.685800*%
%ADD12R,1.000000X1.250000*%
%ADD13R,1.000000X1.600000*%
%ADD14R,1.250000X1.000000*%
%ADD15R,1.600000X1.000000*%
%ADD16R,2.032000X1.727200*%
%ADD17O,2.032000X1.727200*%
%ADD18R,2.032000X2.032000*%
%ADD19O,2.032000X2.032000*%
%ADD20R,1.270000X0.406400*%
%ADD21R,1.198880X1.198880*%
%ADD22R,1.727200X2.032000*%
%ADD23O,1.727200X2.032000*%
%ADD24R,1.500000X1.300000*%
%ADD25C,0.152400*%
%ADD26C,0.609600*%
%ADD27C,0.304800*%
G04 APERTURE END LIST*
D10*
D11*
X169926000Y-87376000D03*
X169926000Y-86106000D03*
X169926000Y-84836000D03*
X169926000Y-83566000D03*
X168656000Y-82296000D03*
X169926000Y-82296000D03*
X171196000Y-82296000D03*
X171196000Y-83566000D03*
X171196000Y-84836000D03*
X171196000Y-86106000D03*
X171196000Y-87376000D03*
X171196000Y-88646000D03*
X171196000Y-89916000D03*
X156718000Y-87122000D03*
X154686000Y-86360000D03*
X158877000Y-90297000D03*
X151638000Y-84328000D03*
X149098000Y-85598000D03*
X150368000Y-84328000D03*
X154686000Y-88900000D03*
X155194000Y-94996000D03*
X153924000Y-94996000D03*
X152654000Y-94996000D03*
X151384000Y-94996000D03*
X150114000Y-94996000D03*
X148844000Y-94996000D03*
X147574000Y-94996000D03*
X146304000Y-94996000D03*
X145034000Y-94996000D03*
X156718000Y-101346000D03*
X156718000Y-102616000D03*
X156718000Y-100076000D03*
X156718000Y-94996000D03*
X155194000Y-102616000D03*
X153924000Y-102616000D03*
X152654000Y-102616000D03*
X151384000Y-102616000D03*
X150114000Y-102616000D03*
X148844000Y-102616000D03*
X156718000Y-98806000D03*
X156718000Y-97536000D03*
X156718000Y-96266000D03*
X155194000Y-101346000D03*
X153924000Y-101346000D03*
X152654000Y-101346000D03*
X151384000Y-101346000D03*
X150114000Y-101346000D03*
X155194000Y-100076000D03*
X153924000Y-100076000D03*
X152654000Y-100076000D03*
X151384000Y-100076000D03*
X150114000Y-100076000D03*
X155194000Y-98806000D03*
X153924000Y-98806000D03*
X152654000Y-98806000D03*
X151384000Y-98806000D03*
X150114000Y-98806000D03*
X148844000Y-98806000D03*
X143764000Y-98806000D03*
X155194000Y-97536000D03*
X153924000Y-97536000D03*
X152654000Y-97536000D03*
X151384000Y-97536000D03*
X150114000Y-97536000D03*
X148844000Y-97536000D03*
X147574000Y-97536000D03*
X146304000Y-97536000D03*
X145034000Y-97536000D03*
X143764000Y-97536000D03*
X155194000Y-96266000D03*
X153924000Y-96266000D03*
X152654000Y-96266000D03*
X151384000Y-96266000D03*
X150114000Y-96266000D03*
X148844000Y-96266000D03*
X147574000Y-96266000D03*
X146304000Y-96266000D03*
X145034000Y-96266000D03*
X143764000Y-96266000D03*
X143764000Y-94996000D03*
X166116000Y-102616000D03*
X164846000Y-102616000D03*
X163576000Y-102616000D03*
X166116000Y-101346000D03*
X164846000Y-101346000D03*
X163576000Y-101346000D03*
X166116000Y-100076000D03*
X164846000Y-100076000D03*
X163576000Y-100076000D03*
X166116000Y-98806000D03*
X164846000Y-98806000D03*
X163576000Y-98806000D03*
X162306000Y-98806000D03*
X166116000Y-97536000D03*
X164846000Y-97536000D03*
X163576000Y-97536000D03*
X162306000Y-97536000D03*
X166116000Y-96266000D03*
X164846000Y-96266000D03*
X163576000Y-96266000D03*
X162306000Y-96266000D03*
X171196000Y-97536000D03*
X169926000Y-97536000D03*
X168656000Y-97536000D03*
X167386000Y-97536000D03*
X171196000Y-96266000D03*
X169926000Y-96266000D03*
X168656000Y-96266000D03*
X167386000Y-96266000D03*
X171196000Y-94996000D03*
X169926000Y-94996000D03*
X168656000Y-94996000D03*
X167386000Y-94996000D03*
X171196000Y-93726000D03*
X169926000Y-93726000D03*
X168656000Y-93726000D03*
X167386000Y-93726000D03*
X171196000Y-92456000D03*
X169926000Y-92456000D03*
X168656000Y-92456000D03*
X171196000Y-91186000D03*
X169926000Y-91186000D03*
X155448000Y-79756000D03*
X155448000Y-81026000D03*
X155448000Y-82296000D03*
X155448000Y-83566000D03*
X149098000Y-84328000D03*
X154178000Y-82296000D03*
X152908000Y-82296000D03*
X151638000Y-82296000D03*
X150368000Y-82296000D03*
X149098000Y-82296000D03*
X154178000Y-81026000D03*
X152908000Y-81026000D03*
X151638000Y-81026000D03*
X150368000Y-81026000D03*
X149098000Y-81026000D03*
X154178000Y-79756000D03*
X152908000Y-79756000D03*
X151638000Y-79756000D03*
X150368000Y-79756000D03*
X149098000Y-79756000D03*
X154178000Y-78486000D03*
X152908000Y-78486000D03*
X151638000Y-78486000D03*
X150368000Y-78486000D03*
X149098000Y-78486000D03*
X154178000Y-77216000D03*
X152908000Y-77216000D03*
X151638000Y-77216000D03*
X150368000Y-77216000D03*
X149098000Y-77216000D03*
X154178000Y-75946000D03*
X152908000Y-75946000D03*
X151638000Y-75946000D03*
X150368000Y-75946000D03*
D12*
X161782000Y-86868000D03*
X159782000Y-86868000D03*
D13*
X163854000Y-86614000D03*
X166854000Y-86614000D03*
D14*
X154940000Y-91710000D03*
X154940000Y-93710000D03*
D15*
X165354000Y-91718000D03*
X165354000Y-94718000D03*
D16*
X144780000Y-84455000D03*
D17*
X144780000Y-86995000D03*
X144780000Y-89535000D03*
X144780000Y-92075000D03*
D18*
X159004000Y-101600000D03*
D19*
X161544000Y-101600000D03*
D20*
X157353000Y-89281000D03*
X157353000Y-89916000D03*
X157353000Y-90576400D03*
X157353000Y-91236800D03*
X157353000Y-91871800D03*
X157353000Y-92532200D03*
X157353000Y-93192600D03*
X157353000Y-93827600D03*
X157353000Y-94488000D03*
X157353000Y-95123000D03*
X162687000Y-95123000D03*
X162687000Y-94488000D03*
X162687000Y-93827600D03*
X162687000Y-93192600D03*
X162687000Y-92532200D03*
X162687000Y-91871800D03*
X162687000Y-91236800D03*
X162687000Y-90576400D03*
X162687000Y-89916000D03*
X162687000Y-89281000D03*
D21*
X159385000Y-80992980D03*
X159385000Y-83091020D03*
X162814000Y-80992980D03*
X162814000Y-83091020D03*
X149191980Y-92075000D03*
X151290020Y-92075000D03*
X149191980Y-89535000D03*
X151290020Y-89535000D03*
X149191980Y-86995000D03*
X151290020Y-86995000D03*
D22*
X161925000Y-76835000D03*
D23*
X159385000Y-76835000D03*
X156845000Y-76835000D03*
D24*
X166036000Y-89281000D03*
X168736000Y-89281000D03*
D11*
X149098000Y-75946000D03*
X155702000Y-89916000D03*
X157480000Y-83947000D03*
X164592000Y-83566000D03*
X152146000Y-93726000D03*
X153924000Y-89662000D03*
X154178000Y-87122000D03*
D25*
X154940000Y-93710000D02*
X154940000Y-93980000D01*
D26*
X168736000Y-89281000D02*
X168736000Y-90217000D01*
X167235000Y-91718000D02*
X165354000Y-91718000D01*
X168736000Y-90217000D02*
X167235000Y-91718000D01*
X162814000Y-80992980D02*
X165066980Y-80992980D01*
X168736000Y-84662000D02*
X168736000Y-89281000D01*
X165066980Y-80992980D02*
X168736000Y-84662000D01*
X161925000Y-76835000D02*
X163068000Y-77978000D01*
X163068000Y-77978000D02*
X163068000Y-80738980D01*
X163068000Y-80738980D02*
X162814000Y-80992980D01*
D27*
X155159200Y-91490800D02*
X154940000Y-91710000D01*
X155413200Y-91236800D02*
X154940000Y-91710000D01*
X155101800Y-91871800D02*
X154940000Y-91710000D01*
X157353000Y-91871800D02*
X155101800Y-91871800D01*
X158699200Y-91236800D02*
X162687000Y-91236800D01*
X157353000Y-91236800D02*
X158699200Y-91236800D01*
X157353000Y-91871800D02*
X162687000Y-91871800D01*
X157353000Y-91236800D02*
X155413200Y-91236800D01*
X164872800Y-91236800D02*
X165354000Y-91718000D01*
X162687000Y-91236800D02*
X164872800Y-91236800D01*
X165200200Y-91871800D02*
X165354000Y-91718000D01*
X162687000Y-91871800D02*
X165200200Y-91871800D01*
X155702000Y-89916000D02*
X157353000Y-89916000D01*
X149191980Y-86995000D02*
X149225000Y-86995000D01*
X149225000Y-86995000D02*
X150622000Y-85598000D01*
X160782000Y-89916000D02*
X162687000Y-89916000D01*
X156464000Y-85598000D02*
X160782000Y-89916000D01*
X150622000Y-85598000D02*
X156464000Y-85598000D01*
X149191980Y-86995000D02*
X149191980Y-87215980D01*
D26*
X145796000Y-86995000D02*
X149191980Y-86995000D01*
D27*
X149191980Y-89535000D02*
X149191980Y-89314020D01*
X149191980Y-89314020D02*
X150368000Y-88138000D01*
X160528000Y-90678000D02*
X162585400Y-90678000D01*
X157988000Y-88138000D02*
X160528000Y-90678000D01*
X150368000Y-88138000D02*
X157988000Y-88138000D01*
X162585400Y-90678000D02*
X162687000Y-90576400D01*
X149191980Y-89535000D02*
X149191980Y-89060020D01*
D26*
X145796000Y-89535000D02*
X149191980Y-89535000D01*
D27*
X149191980Y-92075000D02*
X149191980Y-91600020D01*
X149191980Y-91600020D02*
X150215600Y-90576400D01*
X150215600Y-90576400D02*
X157353000Y-90576400D01*
D26*
X145796000Y-92075000D02*
X149191980Y-92075000D01*
D27*
X145034000Y-91821000D02*
X144780000Y-92075000D01*
D26*
X159004000Y-93980000D02*
X159004000Y-101600000D01*
D27*
X158572200Y-92532200D02*
X157353000Y-92532200D01*
X158572200Y-92532200D02*
X159004000Y-92964000D01*
D26*
X159004000Y-93980000D02*
X159004000Y-92964000D01*
D27*
X158216600Y-93192600D02*
X159004000Y-93980000D01*
X157353000Y-93192600D02*
X158216600Y-93192600D01*
D26*
X161036000Y-93980000D02*
X161036000Y-101092000D01*
X161036000Y-101092000D02*
X161544000Y-101600000D01*
D27*
X161467800Y-92532200D02*
X162687000Y-92532200D01*
X161467800Y-92532200D02*
X161036000Y-92964000D01*
D26*
X161036000Y-93980000D02*
X161036000Y-92964000D01*
D27*
X162687000Y-93192600D02*
X161823400Y-93192600D01*
X161823400Y-93192600D02*
X161036000Y-93980000D01*
D26*
X163854000Y-86614000D02*
X164465000Y-86614000D01*
X166036000Y-88185000D02*
X166036000Y-89281000D01*
X164465000Y-86614000D02*
X166036000Y-88185000D01*
X159385000Y-80992980D02*
X160240980Y-80992980D01*
X161782000Y-85582000D02*
X161782000Y-86868000D01*
X161036000Y-84836000D02*
X161782000Y-85582000D01*
X161036000Y-81788000D02*
X161036000Y-84836000D01*
X160240980Y-80992980D02*
X161036000Y-81788000D01*
X159385000Y-76835000D02*
X159385000Y-80992980D01*
X163854000Y-86614000D02*
X163854000Y-86336000D01*
X159385000Y-80992980D02*
X159605980Y-80992980D01*
D27*
X162687000Y-89281000D02*
X162687000Y-87781000D01*
X162687000Y-87781000D02*
X163854000Y-86614000D01*
X162687000Y-89281000D02*
X162433000Y-89281000D01*
X162433000Y-89281000D02*
X161782000Y-88630000D01*
X161782000Y-88630000D02*
X161782000Y-86868000D01*
D26*
X162036000Y-86614000D02*
X161782000Y-86868000D01*
X163854000Y-86614000D02*
X162036000Y-86614000D01*
X161782000Y-86868000D02*
X161782000Y-86376000D01*
D27*
X164338000Y-86614000D02*
X163854000Y-86614000D01*
X163703000Y-89281000D02*
X164338000Y-88646000D01*
X164338000Y-88646000D02*
X164338000Y-87376000D01*
X164338000Y-87376000D02*
X164338000Y-86614000D01*
X162687000Y-89281000D02*
X163703000Y-89281000D01*
X163854000Y-86844000D02*
X163854000Y-86614000D01*
X161782000Y-86868000D02*
X161782000Y-87138000D01*
D26*
X159385000Y-83091020D02*
X158335980Y-83091020D01*
X158335980Y-83091020D02*
X157480000Y-83947000D01*
X162814000Y-83091020D02*
X164117020Y-83091020D01*
X164117020Y-83091020D02*
X164592000Y-83566000D01*
X151290020Y-92075000D02*
X151290020Y-92870020D01*
X151290020Y-92870020D02*
X152146000Y-93726000D01*
X151290020Y-89535000D02*
X153797000Y-89535000D01*
X153797000Y-89535000D02*
X153924000Y-89662000D01*
X151290020Y-86995000D02*
X154051000Y-86995000D01*
X154051000Y-86995000D02*
X154178000Y-87122000D01*
X151290020Y-86995000D02*
X151290020Y-86453980D01*
D25*
G36*
X172060400Y-103353400D02*
X143153600Y-103353400D01*
X143153600Y-100672331D01*
X144321101Y-100672331D01*
X144583710Y-101307894D01*
X145069548Y-101794581D01*
X145704652Y-102058299D01*
X146392331Y-102058899D01*
X147027894Y-101796290D01*
X147514581Y-101310452D01*
X147778299Y-100675348D01*
X147778899Y-99987669D01*
X147516290Y-99352106D01*
X147030452Y-98865419D01*
X146395348Y-98601701D01*
X145707669Y-98601101D01*
X145072106Y-98863710D01*
X144585419Y-99349548D01*
X144321701Y-99984652D01*
X144321101Y-100672331D01*
X143153600Y-100672331D01*
X143153600Y-86995000D01*
X143511017Y-86995000D01*
X143594156Y-87412967D01*
X143830915Y-87767302D01*
X144185250Y-88004061D01*
X144603217Y-88087200D01*
X144956783Y-88087200D01*
X145374750Y-88004061D01*
X145729085Y-87767302D01*
X145888714Y-87528400D01*
X148359462Y-87528400D01*
X148359462Y-87594440D01*
X148375402Y-87679154D01*
X148425468Y-87756958D01*
X148501860Y-87809155D01*
X148592540Y-87827518D01*
X149791420Y-87827518D01*
X149876134Y-87811578D01*
X149953938Y-87761512D01*
X150006135Y-87685120D01*
X150024498Y-87594440D01*
X150024498Y-86734318D01*
X150523175Y-86235640D01*
X150475865Y-86304880D01*
X150457502Y-86395560D01*
X150457502Y-87594440D01*
X150473442Y-87679154D01*
X150523508Y-87756958D01*
X150523569Y-87757000D01*
X150368000Y-87757000D01*
X150222198Y-87786002D01*
X150098592Y-87868592D01*
X150098590Y-87868595D01*
X149272206Y-88694978D01*
X149191980Y-88679020D01*
X149074029Y-88702482D01*
X148592540Y-88702482D01*
X148507826Y-88718422D01*
X148430022Y-88768488D01*
X148377825Y-88844880D01*
X148359462Y-88935560D01*
X148359462Y-89001600D01*
X145888714Y-89001600D01*
X145729085Y-88762698D01*
X145374750Y-88525939D01*
X144956783Y-88442800D01*
X144603217Y-88442800D01*
X144185250Y-88525939D01*
X143830915Y-88762698D01*
X143594156Y-89117033D01*
X143511017Y-89535000D01*
X143594156Y-89952967D01*
X143830915Y-90307302D01*
X144185250Y-90544061D01*
X144603217Y-90627200D01*
X144956783Y-90627200D01*
X145374750Y-90544061D01*
X145729085Y-90307302D01*
X145888714Y-90068400D01*
X148359462Y-90068400D01*
X148359462Y-90134440D01*
X148375402Y-90219154D01*
X148425468Y-90296958D01*
X148501860Y-90349155D01*
X148592540Y-90367518D01*
X149791420Y-90367518D01*
X149876134Y-90351578D01*
X149953938Y-90301512D01*
X150006135Y-90225120D01*
X150024498Y-90134440D01*
X150024498Y-89020318D01*
X150525815Y-88519000D01*
X157830184Y-88519000D01*
X160166985Y-90855800D01*
X158205647Y-90855800D01*
X158221078Y-90779600D01*
X158221078Y-90373200D01*
X158205138Y-90288486D01*
X158177913Y-90246178D01*
X158202715Y-90209880D01*
X158221078Y-90119200D01*
X158221078Y-89712800D01*
X158205138Y-89628086D01*
X158155072Y-89550282D01*
X158078680Y-89498085D01*
X157988000Y-89479722D01*
X156718000Y-89479722D01*
X156633286Y-89495662D01*
X156572154Y-89535000D01*
X156129182Y-89535000D01*
X156026151Y-89431789D01*
X155816177Y-89344600D01*
X155588820Y-89344401D01*
X155378694Y-89431224D01*
X155217789Y-89591849D01*
X155130600Y-89801823D01*
X155130401Y-90029180D01*
X155199082Y-90195400D01*
X154129628Y-90195400D01*
X154247306Y-90146776D01*
X154408211Y-89986151D01*
X154495400Y-89776177D01*
X154495599Y-89548820D01*
X154408776Y-89338694D01*
X154248151Y-89177789D01*
X154131634Y-89129407D01*
X154001123Y-89042203D01*
X153797000Y-89001600D01*
X152122538Y-89001600D01*
X152122538Y-88935560D01*
X152106598Y-88850846D01*
X152056532Y-88773042D01*
X151980140Y-88720845D01*
X151889460Y-88702482D01*
X150690580Y-88702482D01*
X150605866Y-88718422D01*
X150528062Y-88768488D01*
X150475865Y-88844880D01*
X150457502Y-88935560D01*
X150457502Y-90134440D01*
X150468972Y-90195400D01*
X150215600Y-90195400D01*
X150069797Y-90224402D01*
X150020288Y-90257483D01*
X149946192Y-90306992D01*
X149946190Y-90306995D01*
X149010702Y-91242482D01*
X148592540Y-91242482D01*
X148507826Y-91258422D01*
X148430022Y-91308488D01*
X148377825Y-91384880D01*
X148359462Y-91475560D01*
X148359462Y-91541600D01*
X145888714Y-91541600D01*
X145729085Y-91302698D01*
X145374750Y-91065939D01*
X144956783Y-90982800D01*
X144603217Y-90982800D01*
X144185250Y-91065939D01*
X143830915Y-91302698D01*
X143594156Y-91657033D01*
X143511017Y-92075000D01*
X143594156Y-92492967D01*
X143830915Y-92847302D01*
X144185250Y-93084061D01*
X144603217Y-93167200D01*
X144956783Y-93167200D01*
X145374750Y-93084061D01*
X145729085Y-92847302D01*
X145888714Y-92608400D01*
X148359462Y-92608400D01*
X148359462Y-92674440D01*
X148375402Y-92759154D01*
X148425468Y-92836958D01*
X148501860Y-92889155D01*
X148592540Y-92907518D01*
X149791420Y-92907518D01*
X149876134Y-92891578D01*
X149953938Y-92841512D01*
X150006135Y-92765120D01*
X150024498Y-92674440D01*
X150024498Y-91475560D01*
X150457502Y-91475560D01*
X150457502Y-92674440D01*
X150473442Y-92759154D01*
X150523508Y-92836958D01*
X150599900Y-92889155D01*
X150690580Y-92907518D01*
X150764079Y-92907518D01*
X150797223Y-93074143D01*
X150912849Y-93247191D01*
X151623383Y-93957724D01*
X151661224Y-94049306D01*
X151821849Y-94210211D01*
X152031823Y-94297400D01*
X152259180Y-94297599D01*
X152469306Y-94210776D01*
X152630211Y-94050151D01*
X152717400Y-93840177D01*
X152717599Y-93612820D01*
X152630776Y-93402694D01*
X152470151Y-93241789D01*
X152377770Y-93203429D01*
X152029998Y-92855656D01*
X152051978Y-92841512D01*
X152104175Y-92765120D01*
X152122538Y-92674440D01*
X152122538Y-91475560D01*
X152106598Y-91390846D01*
X152056532Y-91313042D01*
X151980140Y-91260845D01*
X151889460Y-91242482D01*
X150690580Y-91242482D01*
X150605866Y-91258422D01*
X150528062Y-91308488D01*
X150475865Y-91384880D01*
X150457502Y-91475560D01*
X150024498Y-91475560D01*
X150008558Y-91390846D01*
X149981703Y-91349113D01*
X150373415Y-90957400D01*
X155158746Y-90957400D01*
X155143792Y-90967392D01*
X155134262Y-90976922D01*
X154315000Y-90976922D01*
X154230286Y-90992862D01*
X154152482Y-91042928D01*
X154100285Y-91119320D01*
X154081922Y-91210000D01*
X154081922Y-92210000D01*
X154097862Y-92294714D01*
X154147928Y-92372518D01*
X154224320Y-92424715D01*
X154315000Y-92443078D01*
X155565000Y-92443078D01*
X155649714Y-92427138D01*
X155727518Y-92377072D01*
X155779715Y-92300680D01*
X155789411Y-92252800D01*
X156500353Y-92252800D01*
X156484922Y-92329000D01*
X156484922Y-92735400D01*
X156500862Y-92820114D01*
X156528087Y-92862422D01*
X156503285Y-92898720D01*
X156484922Y-92989400D01*
X156484922Y-93395800D01*
X156500862Y-93480514D01*
X156550928Y-93558318D01*
X156627320Y-93610515D01*
X156718000Y-93628878D01*
X157988000Y-93628878D01*
X158072714Y-93612938D01*
X158088174Y-93602990D01*
X158470600Y-93985416D01*
X158470600Y-100350922D01*
X157988000Y-100350922D01*
X157903286Y-100366862D01*
X157825482Y-100416928D01*
X157773285Y-100493320D01*
X157754922Y-100584000D01*
X157754922Y-102616000D01*
X157770862Y-102700714D01*
X157820928Y-102778518D01*
X157897320Y-102830715D01*
X157988000Y-102849078D01*
X160020000Y-102849078D01*
X160104714Y-102833138D01*
X160182518Y-102783072D01*
X160234715Y-102706680D01*
X160253078Y-102616000D01*
X160253078Y-100584000D01*
X160237138Y-100499286D01*
X160187072Y-100421482D01*
X160110680Y-100369285D01*
X160020000Y-100350922D01*
X159537400Y-100350922D01*
X159537400Y-92964000D01*
X159496797Y-92759877D01*
X159381171Y-92586829D01*
X159208123Y-92471203D01*
X159010760Y-92431945D01*
X158841608Y-92262792D01*
X158826654Y-92252800D01*
X161213346Y-92252800D01*
X161198392Y-92262792D01*
X161198390Y-92262795D01*
X161029240Y-92431945D01*
X160831877Y-92471203D01*
X160658829Y-92586829D01*
X160543203Y-92759877D01*
X160502600Y-92964000D01*
X160502600Y-100937007D01*
X160394140Y-101099329D01*
X160299400Y-101575617D01*
X160299400Y-101624383D01*
X160394140Y-102100671D01*
X160663935Y-102504448D01*
X161067712Y-102774243D01*
X161544000Y-102868983D01*
X162020288Y-102774243D01*
X162424065Y-102504448D01*
X162693860Y-102100671D01*
X162788600Y-101624383D01*
X162788600Y-101575617D01*
X162693860Y-101099329D01*
X162424065Y-100695552D01*
X162389313Y-100672331D01*
X167435101Y-100672331D01*
X167697710Y-101307894D01*
X168183548Y-101794581D01*
X168818652Y-102058299D01*
X169506331Y-102058899D01*
X170141894Y-101796290D01*
X170628581Y-101310452D01*
X170892299Y-100675348D01*
X170892899Y-99987669D01*
X170630290Y-99352106D01*
X170144452Y-98865419D01*
X169509348Y-98601701D01*
X168821669Y-98601101D01*
X168186106Y-98863710D01*
X167699419Y-99349548D01*
X167435701Y-99984652D01*
X167435101Y-100672331D01*
X162389313Y-100672331D01*
X162020288Y-100425757D01*
X161569400Y-100336069D01*
X161569400Y-93985416D01*
X161951209Y-93603607D01*
X161961320Y-93610515D01*
X162052000Y-93628878D01*
X163322000Y-93628878D01*
X163406714Y-93612938D01*
X163484518Y-93562872D01*
X163536715Y-93486480D01*
X163555078Y-93395800D01*
X163555078Y-92989400D01*
X163539138Y-92904686D01*
X163511913Y-92862378D01*
X163536715Y-92826080D01*
X163555078Y-92735400D01*
X163555078Y-92329000D01*
X163540740Y-92252800D01*
X164327470Y-92252800D01*
X164336862Y-92302714D01*
X164386928Y-92380518D01*
X164463320Y-92432715D01*
X164554000Y-92451078D01*
X166154000Y-92451078D01*
X166238714Y-92435138D01*
X166316518Y-92385072D01*
X166368715Y-92308680D01*
X166380314Y-92251400D01*
X167235000Y-92251400D01*
X167439123Y-92210797D01*
X167612171Y-92095171D01*
X169113168Y-90594173D01*
X169113171Y-90594171D01*
X169228797Y-90421123D01*
X169239460Y-90367518D01*
X169269401Y-90217000D01*
X169269400Y-90216995D01*
X169269400Y-90164078D01*
X169486000Y-90164078D01*
X169570714Y-90148138D01*
X169648518Y-90098072D01*
X169700715Y-90021680D01*
X169719078Y-89931000D01*
X169719078Y-88631000D01*
X169703138Y-88546286D01*
X169653072Y-88468482D01*
X169576680Y-88416285D01*
X169486000Y-88397922D01*
X169269400Y-88397922D01*
X169269400Y-84662000D01*
X169228797Y-84457877D01*
X169113171Y-84284829D01*
X165444151Y-80615809D01*
X165271103Y-80500183D01*
X165066980Y-80459580D01*
X163646518Y-80459580D01*
X163646518Y-80393540D01*
X163630578Y-80308826D01*
X163601400Y-80263483D01*
X163601400Y-78447331D01*
X167435101Y-78447331D01*
X167697710Y-79082894D01*
X168183548Y-79569581D01*
X168818652Y-79833299D01*
X169506331Y-79833899D01*
X170141894Y-79571290D01*
X170628581Y-79085452D01*
X170892299Y-78450348D01*
X170892899Y-77762669D01*
X170630290Y-77127106D01*
X170144452Y-76640419D01*
X169509348Y-76376701D01*
X168821669Y-76376101D01*
X168186106Y-76638710D01*
X167699419Y-77124548D01*
X167435701Y-77759652D01*
X167435101Y-78447331D01*
X163601400Y-78447331D01*
X163601400Y-77978000D01*
X163560797Y-77773877D01*
X163445171Y-77600829D01*
X163021678Y-77177336D01*
X163021678Y-75819000D01*
X163005738Y-75734286D01*
X162955672Y-75656482D01*
X162879280Y-75604285D01*
X162788600Y-75585922D01*
X161061400Y-75585922D01*
X160976686Y-75601862D01*
X160898882Y-75651928D01*
X160846685Y-75728320D01*
X160828322Y-75819000D01*
X160828322Y-77851000D01*
X160844262Y-77935714D01*
X160894328Y-78013518D01*
X160970720Y-78065715D01*
X161061400Y-78084078D01*
X162419736Y-78084078D01*
X162534600Y-78198942D01*
X162534600Y-80160462D01*
X162214560Y-80160462D01*
X162129846Y-80176402D01*
X162052042Y-80226468D01*
X161999845Y-80302860D01*
X161981482Y-80393540D01*
X161981482Y-81592420D01*
X161997422Y-81677134D01*
X162047488Y-81754938D01*
X162123880Y-81807135D01*
X162214560Y-81825498D01*
X163413440Y-81825498D01*
X163498154Y-81809558D01*
X163575958Y-81759492D01*
X163628155Y-81683100D01*
X163646518Y-81592420D01*
X163646518Y-81526380D01*
X164846038Y-81526380D01*
X168202600Y-84882942D01*
X168202600Y-88397922D01*
X167986000Y-88397922D01*
X167901286Y-88413862D01*
X167823482Y-88463928D01*
X167771285Y-88540320D01*
X167752922Y-88631000D01*
X167752922Y-89931000D01*
X167768862Y-90015714D01*
X167818928Y-90093518D01*
X167895320Y-90145715D01*
X167986000Y-90164078D01*
X168034581Y-90164078D01*
X167014058Y-91184600D01*
X166380793Y-91184600D01*
X166371138Y-91133286D01*
X166321072Y-91055482D01*
X166244680Y-91003285D01*
X166154000Y-90984922D01*
X165159738Y-90984922D01*
X165142208Y-90967392D01*
X165018603Y-90884802D01*
X164872800Y-90855800D01*
X163539647Y-90855800D01*
X163555078Y-90779600D01*
X163555078Y-90373200D01*
X163539138Y-90288486D01*
X163511913Y-90246178D01*
X163536715Y-90209880D01*
X163555078Y-90119200D01*
X163555078Y-89712800D01*
X163545519Y-89662000D01*
X163703000Y-89662000D01*
X163848803Y-89632998D01*
X163972408Y-89550408D01*
X164607405Y-88915410D01*
X164607408Y-88915408D01*
X164689998Y-88791802D01*
X164690714Y-88788203D01*
X164719001Y-88646000D01*
X164719000Y-88645995D01*
X164719000Y-87622342D01*
X165494581Y-88397922D01*
X165286000Y-88397922D01*
X165201286Y-88413862D01*
X165123482Y-88463928D01*
X165071285Y-88540320D01*
X165052922Y-88631000D01*
X165052922Y-89931000D01*
X165068862Y-90015714D01*
X165118928Y-90093518D01*
X165195320Y-90145715D01*
X165286000Y-90164078D01*
X166786000Y-90164078D01*
X166870714Y-90148138D01*
X166948518Y-90098072D01*
X167000715Y-90021680D01*
X167019078Y-89931000D01*
X167019078Y-88631000D01*
X167003138Y-88546286D01*
X166953072Y-88468482D01*
X166876680Y-88416285D01*
X166786000Y-88397922D01*
X166569400Y-88397922D01*
X166569400Y-88185005D01*
X166569401Y-88185000D01*
X166528797Y-87980877D01*
X166492666Y-87926803D01*
X166413171Y-87807829D01*
X166413168Y-87807827D01*
X164842171Y-86236829D01*
X164669123Y-86121203D01*
X164587078Y-86104883D01*
X164587078Y-85814000D01*
X164571138Y-85729286D01*
X164521072Y-85651482D01*
X164444680Y-85599285D01*
X164354000Y-85580922D01*
X163354000Y-85580922D01*
X163269286Y-85596862D01*
X163191482Y-85646928D01*
X163139285Y-85723320D01*
X163120922Y-85814000D01*
X163120922Y-86080600D01*
X162449148Y-86080600D01*
X162449072Y-86080482D01*
X162372680Y-86028285D01*
X162315400Y-86016686D01*
X162315400Y-85582000D01*
X162274797Y-85377877D01*
X162274797Y-85377876D01*
X162159171Y-85204829D01*
X161569400Y-84615058D01*
X161569400Y-82491580D01*
X161981482Y-82491580D01*
X161981482Y-83690460D01*
X161997422Y-83775174D01*
X162047488Y-83852978D01*
X162123880Y-83905175D01*
X162214560Y-83923538D01*
X163413440Y-83923538D01*
X163498154Y-83907598D01*
X163575958Y-83857532D01*
X163628155Y-83781140D01*
X163646518Y-83690460D01*
X163646518Y-83624420D01*
X163896078Y-83624420D01*
X164069383Y-83797725D01*
X164107224Y-83889306D01*
X164267849Y-84050211D01*
X164477823Y-84137400D01*
X164705180Y-84137599D01*
X164915306Y-84050776D01*
X165076211Y-83890151D01*
X165163400Y-83680177D01*
X165163599Y-83452820D01*
X165076776Y-83242694D01*
X164916151Y-83081789D01*
X164823772Y-83043430D01*
X164494191Y-82713849D01*
X164321143Y-82598223D01*
X164117020Y-82557620D01*
X163646518Y-82557620D01*
X163646518Y-82491580D01*
X163630578Y-82406866D01*
X163580512Y-82329062D01*
X163504120Y-82276865D01*
X163413440Y-82258502D01*
X162214560Y-82258502D01*
X162129846Y-82274442D01*
X162052042Y-82324508D01*
X161999845Y-82400900D01*
X161981482Y-82491580D01*
X161569400Y-82491580D01*
X161569400Y-81788000D01*
X161528797Y-81583877D01*
X161413171Y-81410829D01*
X160618151Y-80615809D01*
X160445103Y-80500183D01*
X160240980Y-80459580D01*
X160217518Y-80459580D01*
X160217518Y-80393540D01*
X160201578Y-80308826D01*
X160151512Y-80231022D01*
X160075120Y-80178825D01*
X159984440Y-80160462D01*
X159918400Y-80160462D01*
X159918400Y-77943714D01*
X160157302Y-77784085D01*
X160394061Y-77429750D01*
X160477200Y-77011783D01*
X160477200Y-76658217D01*
X160394061Y-76240250D01*
X160157302Y-75885915D01*
X159802967Y-75649156D01*
X159385000Y-75566017D01*
X158967033Y-75649156D01*
X158612698Y-75885915D01*
X158375939Y-76240250D01*
X158292800Y-76658217D01*
X158292800Y-77011783D01*
X158375939Y-77429750D01*
X158612698Y-77784085D01*
X158851600Y-77943714D01*
X158851600Y-80160462D01*
X158785560Y-80160462D01*
X158700846Y-80176402D01*
X158623042Y-80226468D01*
X158570845Y-80302860D01*
X158552482Y-80393540D01*
X158552482Y-81592420D01*
X158568422Y-81677134D01*
X158618488Y-81754938D01*
X158694880Y-81807135D01*
X158785560Y-81825498D01*
X159984440Y-81825498D01*
X160069154Y-81809558D01*
X160146958Y-81759492D01*
X160190064Y-81696406D01*
X160502600Y-82008942D01*
X160502600Y-84836000D01*
X160543203Y-85040123D01*
X160658829Y-85213171D01*
X161248600Y-85802942D01*
X161248600Y-86016207D01*
X161197286Y-86025862D01*
X161119482Y-86075928D01*
X161067285Y-86152320D01*
X161048922Y-86243000D01*
X161048922Y-87493000D01*
X161064862Y-87577714D01*
X161114928Y-87655518D01*
X161191320Y-87707715D01*
X161282000Y-87726078D01*
X161401000Y-87726078D01*
X161401000Y-88630000D01*
X161430002Y-88775803D01*
X161512592Y-88899408D01*
X161818922Y-89205738D01*
X161818922Y-89484200D01*
X161828481Y-89535000D01*
X160939816Y-89535000D01*
X156733408Y-85328592D01*
X156609803Y-85246002D01*
X156464000Y-85217000D01*
X150622000Y-85217000D01*
X150476197Y-85246002D01*
X150426688Y-85279083D01*
X150352592Y-85328592D01*
X150352590Y-85328595D01*
X149518702Y-86162482D01*
X148592540Y-86162482D01*
X148507826Y-86178422D01*
X148430022Y-86228488D01*
X148377825Y-86304880D01*
X148359462Y-86395560D01*
X148359462Y-86461600D01*
X145888714Y-86461600D01*
X145729085Y-86222698D01*
X145374750Y-85985939D01*
X144956783Y-85902800D01*
X144603217Y-85902800D01*
X144185250Y-85985939D01*
X143830915Y-86222698D01*
X143594156Y-86577033D01*
X143511017Y-86995000D01*
X143153600Y-86995000D01*
X143153600Y-83591400D01*
X143530922Y-83591400D01*
X143530922Y-85318600D01*
X143546862Y-85403314D01*
X143596928Y-85481118D01*
X143673320Y-85533315D01*
X143764000Y-85551678D01*
X145796000Y-85551678D01*
X145880714Y-85535738D01*
X145958518Y-85485672D01*
X146010715Y-85409280D01*
X146029078Y-85318600D01*
X146029078Y-84060180D01*
X156908401Y-84060180D01*
X156995224Y-84270306D01*
X157155849Y-84431211D01*
X157365823Y-84518400D01*
X157593180Y-84518599D01*
X157803306Y-84431776D01*
X157964211Y-84271151D01*
X158002570Y-84178771D01*
X158552482Y-83628859D01*
X158552482Y-83690460D01*
X158568422Y-83775174D01*
X158618488Y-83852978D01*
X158694880Y-83905175D01*
X158785560Y-83923538D01*
X159984440Y-83923538D01*
X160069154Y-83907598D01*
X160146958Y-83857532D01*
X160199155Y-83781140D01*
X160217518Y-83690460D01*
X160217518Y-82491580D01*
X160201578Y-82406866D01*
X160151512Y-82329062D01*
X160075120Y-82276865D01*
X159984440Y-82258502D01*
X158785560Y-82258502D01*
X158700846Y-82274442D01*
X158623042Y-82324508D01*
X158570845Y-82400900D01*
X158552482Y-82491580D01*
X158552482Y-82557620D01*
X158335985Y-82557620D01*
X158335980Y-82557619D01*
X158131857Y-82598223D01*
X157958809Y-82713849D01*
X157958807Y-82713852D01*
X157248275Y-83424383D01*
X157156694Y-83462224D01*
X156995789Y-83622849D01*
X156908600Y-83832823D01*
X156908401Y-84060180D01*
X146029078Y-84060180D01*
X146029078Y-83591400D01*
X146013138Y-83506686D01*
X145963072Y-83428882D01*
X145886680Y-83376685D01*
X145796000Y-83358322D01*
X143764000Y-83358322D01*
X143679286Y-83374262D01*
X143601482Y-83424328D01*
X143549285Y-83500720D01*
X143530922Y-83591400D01*
X143153600Y-83591400D01*
X143153600Y-78447331D01*
X144321101Y-78447331D01*
X144583710Y-79082894D01*
X145069548Y-79569581D01*
X145704652Y-79833299D01*
X146392331Y-79833899D01*
X147027894Y-79571290D01*
X147514581Y-79085452D01*
X147778299Y-78450348D01*
X147778899Y-77762669D01*
X147516290Y-77127106D01*
X147030452Y-76640419D01*
X146395348Y-76376701D01*
X145707669Y-76376101D01*
X145072106Y-76638710D01*
X144585419Y-77124548D01*
X144321701Y-77759652D01*
X144321101Y-78447331D01*
X143153600Y-78447331D01*
X143153600Y-75208600D01*
X172060400Y-75208600D01*
X172060400Y-103353400D01*
X172060400Y-103353400D01*
G37*
X172060400Y-103353400D02*
X143153600Y-103353400D01*
X143153600Y-100672331D01*
X144321101Y-100672331D01*
X144583710Y-101307894D01*
X145069548Y-101794581D01*
X145704652Y-102058299D01*
X146392331Y-102058899D01*
X147027894Y-101796290D01*
X147514581Y-101310452D01*
X147778299Y-100675348D01*
X147778899Y-99987669D01*
X147516290Y-99352106D01*
X147030452Y-98865419D01*
X146395348Y-98601701D01*
X145707669Y-98601101D01*
X145072106Y-98863710D01*
X144585419Y-99349548D01*
X144321701Y-99984652D01*
X144321101Y-100672331D01*
X143153600Y-100672331D01*
X143153600Y-86995000D01*
X143511017Y-86995000D01*
X143594156Y-87412967D01*
X143830915Y-87767302D01*
X144185250Y-88004061D01*
X144603217Y-88087200D01*
X144956783Y-88087200D01*
X145374750Y-88004061D01*
X145729085Y-87767302D01*
X145888714Y-87528400D01*
X148359462Y-87528400D01*
X148359462Y-87594440D01*
X148375402Y-87679154D01*
X148425468Y-87756958D01*
X148501860Y-87809155D01*
X148592540Y-87827518D01*
X149791420Y-87827518D01*
X149876134Y-87811578D01*
X149953938Y-87761512D01*
X150006135Y-87685120D01*
X150024498Y-87594440D01*
X150024498Y-86734318D01*
X150523175Y-86235640D01*
X150475865Y-86304880D01*
X150457502Y-86395560D01*
X150457502Y-87594440D01*
X150473442Y-87679154D01*
X150523508Y-87756958D01*
X150523569Y-87757000D01*
X150368000Y-87757000D01*
X150222198Y-87786002D01*
X150098592Y-87868592D01*
X150098590Y-87868595D01*
X149272206Y-88694978D01*
X149191980Y-88679020D01*
X149074029Y-88702482D01*
X148592540Y-88702482D01*
X148507826Y-88718422D01*
X148430022Y-88768488D01*
X148377825Y-88844880D01*
X148359462Y-88935560D01*
X148359462Y-89001600D01*
X145888714Y-89001600D01*
X145729085Y-88762698D01*
X145374750Y-88525939D01*
X144956783Y-88442800D01*
X144603217Y-88442800D01*
X144185250Y-88525939D01*
X143830915Y-88762698D01*
X143594156Y-89117033D01*
X143511017Y-89535000D01*
X143594156Y-89952967D01*
X143830915Y-90307302D01*
X144185250Y-90544061D01*
X144603217Y-90627200D01*
X144956783Y-90627200D01*
X145374750Y-90544061D01*
X145729085Y-90307302D01*
X145888714Y-90068400D01*
X148359462Y-90068400D01*
X148359462Y-90134440D01*
X148375402Y-90219154D01*
X148425468Y-90296958D01*
X148501860Y-90349155D01*
X148592540Y-90367518D01*
X149791420Y-90367518D01*
X149876134Y-90351578D01*
X149953938Y-90301512D01*
X150006135Y-90225120D01*
X150024498Y-90134440D01*
X150024498Y-89020318D01*
X150525815Y-88519000D01*
X157830184Y-88519000D01*
X160166985Y-90855800D01*
X158205647Y-90855800D01*
X158221078Y-90779600D01*
X158221078Y-90373200D01*
X158205138Y-90288486D01*
X158177913Y-90246178D01*
X158202715Y-90209880D01*
X158221078Y-90119200D01*
X158221078Y-89712800D01*
X158205138Y-89628086D01*
X158155072Y-89550282D01*
X158078680Y-89498085D01*
X157988000Y-89479722D01*
X156718000Y-89479722D01*
X156633286Y-89495662D01*
X156572154Y-89535000D01*
X156129182Y-89535000D01*
X156026151Y-89431789D01*
X155816177Y-89344600D01*
X155588820Y-89344401D01*
X155378694Y-89431224D01*
X155217789Y-89591849D01*
X155130600Y-89801823D01*
X155130401Y-90029180D01*
X155199082Y-90195400D01*
X154129628Y-90195400D01*
X154247306Y-90146776D01*
X154408211Y-89986151D01*
X154495400Y-89776177D01*
X154495599Y-89548820D01*
X154408776Y-89338694D01*
X154248151Y-89177789D01*
X154131634Y-89129407D01*
X154001123Y-89042203D01*
X153797000Y-89001600D01*
X152122538Y-89001600D01*
X152122538Y-88935560D01*
X152106598Y-88850846D01*
X152056532Y-88773042D01*
X151980140Y-88720845D01*
X151889460Y-88702482D01*
X150690580Y-88702482D01*
X150605866Y-88718422D01*
X150528062Y-88768488D01*
X150475865Y-88844880D01*
X150457502Y-88935560D01*
X150457502Y-90134440D01*
X150468972Y-90195400D01*
X150215600Y-90195400D01*
X150069797Y-90224402D01*
X150020288Y-90257483D01*
X149946192Y-90306992D01*
X149946190Y-90306995D01*
X149010702Y-91242482D01*
X148592540Y-91242482D01*
X148507826Y-91258422D01*
X148430022Y-91308488D01*
X148377825Y-91384880D01*
X148359462Y-91475560D01*
X148359462Y-91541600D01*
X145888714Y-91541600D01*
X145729085Y-91302698D01*
X145374750Y-91065939D01*
X144956783Y-90982800D01*
X144603217Y-90982800D01*
X144185250Y-91065939D01*
X143830915Y-91302698D01*
X143594156Y-91657033D01*
X143511017Y-92075000D01*
X143594156Y-92492967D01*
X143830915Y-92847302D01*
X144185250Y-93084061D01*
X144603217Y-93167200D01*
X144956783Y-93167200D01*
X145374750Y-93084061D01*
X145729085Y-92847302D01*
X145888714Y-92608400D01*
X148359462Y-92608400D01*
X148359462Y-92674440D01*
X148375402Y-92759154D01*
X148425468Y-92836958D01*
X148501860Y-92889155D01*
X148592540Y-92907518D01*
X149791420Y-92907518D01*
X149876134Y-92891578D01*
X149953938Y-92841512D01*
X150006135Y-92765120D01*
X150024498Y-92674440D01*
X150024498Y-91475560D01*
X150457502Y-91475560D01*
X150457502Y-92674440D01*
X150473442Y-92759154D01*
X150523508Y-92836958D01*
X150599900Y-92889155D01*
X150690580Y-92907518D01*
X150764079Y-92907518D01*
X150797223Y-93074143D01*
X150912849Y-93247191D01*
X151623383Y-93957724D01*
X151661224Y-94049306D01*
X151821849Y-94210211D01*
X152031823Y-94297400D01*
X152259180Y-94297599D01*
X152469306Y-94210776D01*
X152630211Y-94050151D01*
X152717400Y-93840177D01*
X152717599Y-93612820D01*
X152630776Y-93402694D01*
X152470151Y-93241789D01*
X152377770Y-93203429D01*
X152029998Y-92855656D01*
X152051978Y-92841512D01*
X152104175Y-92765120D01*
X152122538Y-92674440D01*
X152122538Y-91475560D01*
X152106598Y-91390846D01*
X152056532Y-91313042D01*
X151980140Y-91260845D01*
X151889460Y-91242482D01*
X150690580Y-91242482D01*
X150605866Y-91258422D01*
X150528062Y-91308488D01*
X150475865Y-91384880D01*
X150457502Y-91475560D01*
X150024498Y-91475560D01*
X150008558Y-91390846D01*
X149981703Y-91349113D01*
X150373415Y-90957400D01*
X155158746Y-90957400D01*
X155143792Y-90967392D01*
X155134262Y-90976922D01*
X154315000Y-90976922D01*
X154230286Y-90992862D01*
X154152482Y-91042928D01*
X154100285Y-91119320D01*
X154081922Y-91210000D01*
X154081922Y-92210000D01*
X154097862Y-92294714D01*
X154147928Y-92372518D01*
X154224320Y-92424715D01*
X154315000Y-92443078D01*
X155565000Y-92443078D01*
X155649714Y-92427138D01*
X155727518Y-92377072D01*
X155779715Y-92300680D01*
X155789411Y-92252800D01*
X156500353Y-92252800D01*
X156484922Y-92329000D01*
X156484922Y-92735400D01*
X156500862Y-92820114D01*
X156528087Y-92862422D01*
X156503285Y-92898720D01*
X156484922Y-92989400D01*
X156484922Y-93395800D01*
X156500862Y-93480514D01*
X156550928Y-93558318D01*
X156627320Y-93610515D01*
X156718000Y-93628878D01*
X157988000Y-93628878D01*
X158072714Y-93612938D01*
X158088174Y-93602990D01*
X158470600Y-93985416D01*
X158470600Y-100350922D01*
X157988000Y-100350922D01*
X157903286Y-100366862D01*
X157825482Y-100416928D01*
X157773285Y-100493320D01*
X157754922Y-100584000D01*
X157754922Y-102616000D01*
X157770862Y-102700714D01*
X157820928Y-102778518D01*
X157897320Y-102830715D01*
X157988000Y-102849078D01*
X160020000Y-102849078D01*
X160104714Y-102833138D01*
X160182518Y-102783072D01*
X160234715Y-102706680D01*
X160253078Y-102616000D01*
X160253078Y-100584000D01*
X160237138Y-100499286D01*
X160187072Y-100421482D01*
X160110680Y-100369285D01*
X160020000Y-100350922D01*
X159537400Y-100350922D01*
X159537400Y-92964000D01*
X159496797Y-92759877D01*
X159381171Y-92586829D01*
X159208123Y-92471203D01*
X159010760Y-92431945D01*
X158841608Y-92262792D01*
X158826654Y-92252800D01*
X161213346Y-92252800D01*
X161198392Y-92262792D01*
X161198390Y-92262795D01*
X161029240Y-92431945D01*
X160831877Y-92471203D01*
X160658829Y-92586829D01*
X160543203Y-92759877D01*
X160502600Y-92964000D01*
X160502600Y-100937007D01*
X160394140Y-101099329D01*
X160299400Y-101575617D01*
X160299400Y-101624383D01*
X160394140Y-102100671D01*
X160663935Y-102504448D01*
X161067712Y-102774243D01*
X161544000Y-102868983D01*
X162020288Y-102774243D01*
X162424065Y-102504448D01*
X162693860Y-102100671D01*
X162788600Y-101624383D01*
X162788600Y-101575617D01*
X162693860Y-101099329D01*
X162424065Y-100695552D01*
X162389313Y-100672331D01*
X167435101Y-100672331D01*
X167697710Y-101307894D01*
X168183548Y-101794581D01*
X168818652Y-102058299D01*
X169506331Y-102058899D01*
X170141894Y-101796290D01*
X170628581Y-101310452D01*
X170892299Y-100675348D01*
X170892899Y-99987669D01*
X170630290Y-99352106D01*
X170144452Y-98865419D01*
X169509348Y-98601701D01*
X168821669Y-98601101D01*
X168186106Y-98863710D01*
X167699419Y-99349548D01*
X167435701Y-99984652D01*
X167435101Y-100672331D01*
X162389313Y-100672331D01*
X162020288Y-100425757D01*
X161569400Y-100336069D01*
X161569400Y-93985416D01*
X161951209Y-93603607D01*
X161961320Y-93610515D01*
X162052000Y-93628878D01*
X163322000Y-93628878D01*
X163406714Y-93612938D01*
X163484518Y-93562872D01*
X163536715Y-93486480D01*
X163555078Y-93395800D01*
X163555078Y-92989400D01*
X163539138Y-92904686D01*
X163511913Y-92862378D01*
X163536715Y-92826080D01*
X163555078Y-92735400D01*
X163555078Y-92329000D01*
X163540740Y-92252800D01*
X164327470Y-92252800D01*
X164336862Y-92302714D01*
X164386928Y-92380518D01*
X164463320Y-92432715D01*
X164554000Y-92451078D01*
X166154000Y-92451078D01*
X166238714Y-92435138D01*
X166316518Y-92385072D01*
X166368715Y-92308680D01*
X166380314Y-92251400D01*
X167235000Y-92251400D01*
X167439123Y-92210797D01*
X167612171Y-92095171D01*
X169113168Y-90594173D01*
X169113171Y-90594171D01*
X169228797Y-90421123D01*
X169239460Y-90367518D01*
X169269401Y-90217000D01*
X169269400Y-90216995D01*
X169269400Y-90164078D01*
X169486000Y-90164078D01*
X169570714Y-90148138D01*
X169648518Y-90098072D01*
X169700715Y-90021680D01*
X169719078Y-89931000D01*
X169719078Y-88631000D01*
X169703138Y-88546286D01*
X169653072Y-88468482D01*
X169576680Y-88416285D01*
X169486000Y-88397922D01*
X169269400Y-88397922D01*
X169269400Y-84662000D01*
X169228797Y-84457877D01*
X169113171Y-84284829D01*
X165444151Y-80615809D01*
X165271103Y-80500183D01*
X165066980Y-80459580D01*
X163646518Y-80459580D01*
X163646518Y-80393540D01*
X163630578Y-80308826D01*
X163601400Y-80263483D01*
X163601400Y-78447331D01*
X167435101Y-78447331D01*
X167697710Y-79082894D01*
X168183548Y-79569581D01*
X168818652Y-79833299D01*
X169506331Y-79833899D01*
X170141894Y-79571290D01*
X170628581Y-79085452D01*
X170892299Y-78450348D01*
X170892899Y-77762669D01*
X170630290Y-77127106D01*
X170144452Y-76640419D01*
X169509348Y-76376701D01*
X168821669Y-76376101D01*
X168186106Y-76638710D01*
X167699419Y-77124548D01*
X167435701Y-77759652D01*
X167435101Y-78447331D01*
X163601400Y-78447331D01*
X163601400Y-77978000D01*
X163560797Y-77773877D01*
X163445171Y-77600829D01*
X163021678Y-77177336D01*
X163021678Y-75819000D01*
X163005738Y-75734286D01*
X162955672Y-75656482D01*
X162879280Y-75604285D01*
X162788600Y-75585922D01*
X161061400Y-75585922D01*
X160976686Y-75601862D01*
X160898882Y-75651928D01*
X160846685Y-75728320D01*
X160828322Y-75819000D01*
X160828322Y-77851000D01*
X160844262Y-77935714D01*
X160894328Y-78013518D01*
X160970720Y-78065715D01*
X161061400Y-78084078D01*
X162419736Y-78084078D01*
X162534600Y-78198942D01*
X162534600Y-80160462D01*
X162214560Y-80160462D01*
X162129846Y-80176402D01*
X162052042Y-80226468D01*
X161999845Y-80302860D01*
X161981482Y-80393540D01*
X161981482Y-81592420D01*
X161997422Y-81677134D01*
X162047488Y-81754938D01*
X162123880Y-81807135D01*
X162214560Y-81825498D01*
X163413440Y-81825498D01*
X163498154Y-81809558D01*
X163575958Y-81759492D01*
X163628155Y-81683100D01*
X163646518Y-81592420D01*
X163646518Y-81526380D01*
X164846038Y-81526380D01*
X168202600Y-84882942D01*
X168202600Y-88397922D01*
X167986000Y-88397922D01*
X167901286Y-88413862D01*
X167823482Y-88463928D01*
X167771285Y-88540320D01*
X167752922Y-88631000D01*
X167752922Y-89931000D01*
X167768862Y-90015714D01*
X167818928Y-90093518D01*
X167895320Y-90145715D01*
X167986000Y-90164078D01*
X168034581Y-90164078D01*
X167014058Y-91184600D01*
X166380793Y-91184600D01*
X166371138Y-91133286D01*
X166321072Y-91055482D01*
X166244680Y-91003285D01*
X166154000Y-90984922D01*
X165159738Y-90984922D01*
X165142208Y-90967392D01*
X165018603Y-90884802D01*
X164872800Y-90855800D01*
X163539647Y-90855800D01*
X163555078Y-90779600D01*
X163555078Y-90373200D01*
X163539138Y-90288486D01*
X163511913Y-90246178D01*
X163536715Y-90209880D01*
X163555078Y-90119200D01*
X163555078Y-89712800D01*
X163545519Y-89662000D01*
X163703000Y-89662000D01*
X163848803Y-89632998D01*
X163972408Y-89550408D01*
X164607405Y-88915410D01*
X164607408Y-88915408D01*
X164689998Y-88791802D01*
X164690714Y-88788203D01*
X164719001Y-88646000D01*
X164719000Y-88645995D01*
X164719000Y-87622342D01*
X165494581Y-88397922D01*
X165286000Y-88397922D01*
X165201286Y-88413862D01*
X165123482Y-88463928D01*
X165071285Y-88540320D01*
X165052922Y-88631000D01*
X165052922Y-89931000D01*
X165068862Y-90015714D01*
X165118928Y-90093518D01*
X165195320Y-90145715D01*
X165286000Y-90164078D01*
X166786000Y-90164078D01*
X166870714Y-90148138D01*
X166948518Y-90098072D01*
X167000715Y-90021680D01*
X167019078Y-89931000D01*
X167019078Y-88631000D01*
X167003138Y-88546286D01*
X166953072Y-88468482D01*
X166876680Y-88416285D01*
X166786000Y-88397922D01*
X166569400Y-88397922D01*
X166569400Y-88185005D01*
X166569401Y-88185000D01*
X166528797Y-87980877D01*
X166492666Y-87926803D01*
X166413171Y-87807829D01*
X166413168Y-87807827D01*
X164842171Y-86236829D01*
X164669123Y-86121203D01*
X164587078Y-86104883D01*
X164587078Y-85814000D01*
X164571138Y-85729286D01*
X164521072Y-85651482D01*
X164444680Y-85599285D01*
X164354000Y-85580922D01*
X163354000Y-85580922D01*
X163269286Y-85596862D01*
X163191482Y-85646928D01*
X163139285Y-85723320D01*
X163120922Y-85814000D01*
X163120922Y-86080600D01*
X162449148Y-86080600D01*
X162449072Y-86080482D01*
X162372680Y-86028285D01*
X162315400Y-86016686D01*
X162315400Y-85582000D01*
X162274797Y-85377877D01*
X162274797Y-85377876D01*
X162159171Y-85204829D01*
X161569400Y-84615058D01*
X161569400Y-82491580D01*
X161981482Y-82491580D01*
X161981482Y-83690460D01*
X161997422Y-83775174D01*
X162047488Y-83852978D01*
X162123880Y-83905175D01*
X162214560Y-83923538D01*
X163413440Y-83923538D01*
X163498154Y-83907598D01*
X163575958Y-83857532D01*
X163628155Y-83781140D01*
X163646518Y-83690460D01*
X163646518Y-83624420D01*
X163896078Y-83624420D01*
X164069383Y-83797725D01*
X164107224Y-83889306D01*
X164267849Y-84050211D01*
X164477823Y-84137400D01*
X164705180Y-84137599D01*
X164915306Y-84050776D01*
X165076211Y-83890151D01*
X165163400Y-83680177D01*
X165163599Y-83452820D01*
X165076776Y-83242694D01*
X164916151Y-83081789D01*
X164823772Y-83043430D01*
X164494191Y-82713849D01*
X164321143Y-82598223D01*
X164117020Y-82557620D01*
X163646518Y-82557620D01*
X163646518Y-82491580D01*
X163630578Y-82406866D01*
X163580512Y-82329062D01*
X163504120Y-82276865D01*
X163413440Y-82258502D01*
X162214560Y-82258502D01*
X162129846Y-82274442D01*
X162052042Y-82324508D01*
X161999845Y-82400900D01*
X161981482Y-82491580D01*
X161569400Y-82491580D01*
X161569400Y-81788000D01*
X161528797Y-81583877D01*
X161413171Y-81410829D01*
X160618151Y-80615809D01*
X160445103Y-80500183D01*
X160240980Y-80459580D01*
X160217518Y-80459580D01*
X160217518Y-80393540D01*
X160201578Y-80308826D01*
X160151512Y-80231022D01*
X160075120Y-80178825D01*
X159984440Y-80160462D01*
X159918400Y-80160462D01*
X159918400Y-77943714D01*
X160157302Y-77784085D01*
X160394061Y-77429750D01*
X160477200Y-77011783D01*
X160477200Y-76658217D01*
X160394061Y-76240250D01*
X160157302Y-75885915D01*
X159802967Y-75649156D01*
X159385000Y-75566017D01*
X158967033Y-75649156D01*
X158612698Y-75885915D01*
X158375939Y-76240250D01*
X158292800Y-76658217D01*
X158292800Y-77011783D01*
X158375939Y-77429750D01*
X158612698Y-77784085D01*
X158851600Y-77943714D01*
X158851600Y-80160462D01*
X158785560Y-80160462D01*
X158700846Y-80176402D01*
X158623042Y-80226468D01*
X158570845Y-80302860D01*
X158552482Y-80393540D01*
X158552482Y-81592420D01*
X158568422Y-81677134D01*
X158618488Y-81754938D01*
X158694880Y-81807135D01*
X158785560Y-81825498D01*
X159984440Y-81825498D01*
X160069154Y-81809558D01*
X160146958Y-81759492D01*
X160190064Y-81696406D01*
X160502600Y-82008942D01*
X160502600Y-84836000D01*
X160543203Y-85040123D01*
X160658829Y-85213171D01*
X161248600Y-85802942D01*
X161248600Y-86016207D01*
X161197286Y-86025862D01*
X161119482Y-86075928D01*
X161067285Y-86152320D01*
X161048922Y-86243000D01*
X161048922Y-87493000D01*
X161064862Y-87577714D01*
X161114928Y-87655518D01*
X161191320Y-87707715D01*
X161282000Y-87726078D01*
X161401000Y-87726078D01*
X161401000Y-88630000D01*
X161430002Y-88775803D01*
X161512592Y-88899408D01*
X161818922Y-89205738D01*
X161818922Y-89484200D01*
X161828481Y-89535000D01*
X160939816Y-89535000D01*
X156733408Y-85328592D01*
X156609803Y-85246002D01*
X156464000Y-85217000D01*
X150622000Y-85217000D01*
X150476197Y-85246002D01*
X150426688Y-85279083D01*
X150352592Y-85328592D01*
X150352590Y-85328595D01*
X149518702Y-86162482D01*
X148592540Y-86162482D01*
X148507826Y-86178422D01*
X148430022Y-86228488D01*
X148377825Y-86304880D01*
X148359462Y-86395560D01*
X148359462Y-86461600D01*
X145888714Y-86461600D01*
X145729085Y-86222698D01*
X145374750Y-85985939D01*
X144956783Y-85902800D01*
X144603217Y-85902800D01*
X144185250Y-85985939D01*
X143830915Y-86222698D01*
X143594156Y-86577033D01*
X143511017Y-86995000D01*
X143153600Y-86995000D01*
X143153600Y-83591400D01*
X143530922Y-83591400D01*
X143530922Y-85318600D01*
X143546862Y-85403314D01*
X143596928Y-85481118D01*
X143673320Y-85533315D01*
X143764000Y-85551678D01*
X145796000Y-85551678D01*
X145880714Y-85535738D01*
X145958518Y-85485672D01*
X146010715Y-85409280D01*
X146029078Y-85318600D01*
X146029078Y-84060180D01*
X156908401Y-84060180D01*
X156995224Y-84270306D01*
X157155849Y-84431211D01*
X157365823Y-84518400D01*
X157593180Y-84518599D01*
X157803306Y-84431776D01*
X157964211Y-84271151D01*
X158002570Y-84178771D01*
X158552482Y-83628859D01*
X158552482Y-83690460D01*
X158568422Y-83775174D01*
X158618488Y-83852978D01*
X158694880Y-83905175D01*
X158785560Y-83923538D01*
X159984440Y-83923538D01*
X160069154Y-83907598D01*
X160146958Y-83857532D01*
X160199155Y-83781140D01*
X160217518Y-83690460D01*
X160217518Y-82491580D01*
X160201578Y-82406866D01*
X160151512Y-82329062D01*
X160075120Y-82276865D01*
X159984440Y-82258502D01*
X158785560Y-82258502D01*
X158700846Y-82274442D01*
X158623042Y-82324508D01*
X158570845Y-82400900D01*
X158552482Y-82491580D01*
X158552482Y-82557620D01*
X158335985Y-82557620D01*
X158335980Y-82557619D01*
X158131857Y-82598223D01*
X157958809Y-82713849D01*
X157958807Y-82713852D01*
X157248275Y-83424383D01*
X157156694Y-83462224D01*
X156995789Y-83622849D01*
X156908600Y-83832823D01*
X156908401Y-84060180D01*
X146029078Y-84060180D01*
X146029078Y-83591400D01*
X146013138Y-83506686D01*
X145963072Y-83428882D01*
X145886680Y-83376685D01*
X145796000Y-83358322D01*
X143764000Y-83358322D01*
X143679286Y-83374262D01*
X143601482Y-83424328D01*
X143549285Y-83500720D01*
X143530922Y-83591400D01*
X143153600Y-83591400D01*
X143153600Y-78447331D01*
X144321101Y-78447331D01*
X144583710Y-79082894D01*
X145069548Y-79569581D01*
X145704652Y-79833299D01*
X146392331Y-79833899D01*
X147027894Y-79571290D01*
X147514581Y-79085452D01*
X147778299Y-78450348D01*
X147778899Y-77762669D01*
X147516290Y-77127106D01*
X147030452Y-76640419D01*
X146395348Y-76376701D01*
X145707669Y-76376101D01*
X145072106Y-76638710D01*
X144585419Y-77124548D01*
X144321701Y-77759652D01*
X144321101Y-78447331D01*
X143153600Y-78447331D01*
X143153600Y-75208600D01*
X172060400Y-75208600D01*
X172060400Y-103353400D01*
G36*
X158108067Y-87780883D02*
X157988000Y-87757000D01*
X152055061Y-87757000D01*
X152104175Y-87685120D01*
X152122538Y-87594440D01*
X152122538Y-87528400D01*
X153776173Y-87528400D01*
X153853849Y-87606211D01*
X154063823Y-87693400D01*
X154291180Y-87693599D01*
X154501306Y-87606776D01*
X154662211Y-87446151D01*
X154749400Y-87236177D01*
X154749599Y-87008820D01*
X154662776Y-86798694D01*
X154502151Y-86637789D01*
X154385634Y-86589407D01*
X154255123Y-86502203D01*
X154051000Y-86461600D01*
X152122538Y-86461600D01*
X152122538Y-86395560D01*
X152106598Y-86310846D01*
X152056532Y-86233042D01*
X151980140Y-86180845D01*
X151889460Y-86162482D01*
X151724435Y-86162482D01*
X151667191Y-86076809D01*
X151520808Y-85979000D01*
X156306184Y-85979000D01*
X158108067Y-87780883D01*
X158108067Y-87780883D01*
G37*
X158108067Y-87780883D02*
X157988000Y-87757000D01*
X152055061Y-87757000D01*
X152104175Y-87685120D01*
X152122538Y-87594440D01*
X152122538Y-87528400D01*
X153776173Y-87528400D01*
X153853849Y-87606211D01*
X154063823Y-87693400D01*
X154291180Y-87693599D01*
X154501306Y-87606776D01*
X154662211Y-87446151D01*
X154749400Y-87236177D01*
X154749599Y-87008820D01*
X154662776Y-86798694D01*
X154502151Y-86637789D01*
X154385634Y-86589407D01*
X154255123Y-86502203D01*
X154051000Y-86461600D01*
X152122538Y-86461600D01*
X152122538Y-86395560D01*
X152106598Y-86310846D01*
X152056532Y-86233042D01*
X151980140Y-86180845D01*
X151889460Y-86162482D01*
X151724435Y-86162482D01*
X151667191Y-86076809D01*
X151520808Y-85979000D01*
X156306184Y-85979000D01*
X158108067Y-87780883D01*
M02*
