G04 #@! TF.FileFunction,Copper,L2,Bot,Signal*
%FSLAX46Y46*%
G04 Gerber Fmt 4.6, Leading zero omitted, Abs format (unit mm)*
G04 Created by KiCad (PCBNEW 0.201508140901+6091~28~ubuntu14.04.1-product) date Mon 05 Oct 2015 11:49:52 PM CEST*
%MOMM*%
G01*
G04 APERTURE LIST*
%ADD10C,0.100000*%
%ADD11C,0.685800*%
%ADD12R,2.032000X1.727200*%
%ADD13O,2.032000X1.727200*%
%ADD14R,2.032000X2.032000*%
%ADD15O,2.032000X2.032000*%
%ADD16R,1.727200X2.032000*%
%ADD17O,1.727200X2.032000*%
%ADD18R,1.300000X1.500000*%
%ADD19R,1.500000X1.300000*%
%ADD20C,0.609600*%
%ADD21C,0.304800*%
%ADD22C,0.152400*%
G04 APERTURE END LIST*
D10*
D11*
X169926000Y-87376000D03*
X169926000Y-86106000D03*
X169926000Y-84836000D03*
X169926000Y-83566000D03*
X168656000Y-82296000D03*
X169926000Y-82296000D03*
X171196000Y-82296000D03*
X171196000Y-83566000D03*
X171196000Y-84836000D03*
X171196000Y-86106000D03*
X171196000Y-87376000D03*
X171196000Y-88646000D03*
X171196000Y-89916000D03*
X156718000Y-87122000D03*
X154686000Y-86360000D03*
X158877000Y-90297000D03*
X151638000Y-84328000D03*
X149098000Y-85598000D03*
X150368000Y-84328000D03*
X154686000Y-88900000D03*
X155194000Y-94996000D03*
X153924000Y-94996000D03*
X152654000Y-94996000D03*
X151384000Y-94996000D03*
X150114000Y-94996000D03*
X148844000Y-94996000D03*
X147574000Y-94996000D03*
X146304000Y-94996000D03*
X145034000Y-94996000D03*
X156718000Y-101346000D03*
X156718000Y-102616000D03*
X156718000Y-100076000D03*
X156718000Y-94996000D03*
X155194000Y-102616000D03*
X153924000Y-102616000D03*
X152654000Y-102616000D03*
X151384000Y-102616000D03*
X150114000Y-102616000D03*
X148844000Y-102616000D03*
X156718000Y-98806000D03*
X156718000Y-97536000D03*
X156718000Y-96266000D03*
X155194000Y-101346000D03*
X153924000Y-101346000D03*
X152654000Y-101346000D03*
X151384000Y-101346000D03*
X150114000Y-101346000D03*
X155194000Y-100076000D03*
X153924000Y-100076000D03*
X152654000Y-100076000D03*
X151384000Y-100076000D03*
X150114000Y-100076000D03*
X155194000Y-98806000D03*
X153924000Y-98806000D03*
X152654000Y-98806000D03*
X151384000Y-98806000D03*
X150114000Y-98806000D03*
X148844000Y-98806000D03*
X143764000Y-98806000D03*
X155194000Y-97536000D03*
X153924000Y-97536000D03*
X152654000Y-97536000D03*
X151384000Y-97536000D03*
X150114000Y-97536000D03*
X148844000Y-97536000D03*
X147574000Y-97536000D03*
X146304000Y-97536000D03*
X145034000Y-97536000D03*
X143764000Y-97536000D03*
X155194000Y-96266000D03*
X153924000Y-96266000D03*
X152654000Y-96266000D03*
X151384000Y-96266000D03*
X150114000Y-96266000D03*
X148844000Y-96266000D03*
X147574000Y-96266000D03*
X146304000Y-96266000D03*
X145034000Y-96266000D03*
X143764000Y-96266000D03*
X143764000Y-94996000D03*
X166116000Y-102616000D03*
X164846000Y-102616000D03*
X163576000Y-102616000D03*
X166116000Y-101346000D03*
X164846000Y-101346000D03*
X163576000Y-101346000D03*
X166116000Y-100076000D03*
X164846000Y-100076000D03*
X163576000Y-100076000D03*
X166116000Y-98806000D03*
X164846000Y-98806000D03*
X163576000Y-98806000D03*
X162306000Y-98806000D03*
X166116000Y-97536000D03*
X164846000Y-97536000D03*
X163576000Y-97536000D03*
X162306000Y-97536000D03*
X166116000Y-96266000D03*
X164846000Y-96266000D03*
X163576000Y-96266000D03*
X162306000Y-96266000D03*
X171196000Y-97536000D03*
X169926000Y-97536000D03*
X168656000Y-97536000D03*
X167386000Y-97536000D03*
X171196000Y-96266000D03*
X169926000Y-96266000D03*
X168656000Y-96266000D03*
X167386000Y-96266000D03*
X171196000Y-94996000D03*
X169926000Y-94996000D03*
X168656000Y-94996000D03*
X167386000Y-94996000D03*
X171196000Y-93726000D03*
X169926000Y-93726000D03*
X168656000Y-93726000D03*
X167386000Y-93726000D03*
X171196000Y-92456000D03*
X169926000Y-92456000D03*
X168656000Y-92456000D03*
X171196000Y-91186000D03*
X169926000Y-91186000D03*
X155448000Y-79756000D03*
X155448000Y-81026000D03*
X155448000Y-82296000D03*
X155448000Y-83566000D03*
X149098000Y-84328000D03*
X154178000Y-82296000D03*
X152908000Y-82296000D03*
X151638000Y-82296000D03*
X150368000Y-82296000D03*
X149098000Y-82296000D03*
X154178000Y-81026000D03*
X152908000Y-81026000D03*
X151638000Y-81026000D03*
X150368000Y-81026000D03*
X149098000Y-81026000D03*
X154178000Y-79756000D03*
X152908000Y-79756000D03*
X151638000Y-79756000D03*
X150368000Y-79756000D03*
X149098000Y-79756000D03*
X154178000Y-78486000D03*
X152908000Y-78486000D03*
X151638000Y-78486000D03*
X150368000Y-78486000D03*
X149098000Y-78486000D03*
X154178000Y-77216000D03*
X152908000Y-77216000D03*
X151638000Y-77216000D03*
X150368000Y-77216000D03*
X149098000Y-77216000D03*
X154178000Y-75946000D03*
X152908000Y-75946000D03*
X151638000Y-75946000D03*
X150368000Y-75946000D03*
D12*
X144780000Y-84455000D03*
D13*
X144780000Y-86995000D03*
X144780000Y-89535000D03*
X144780000Y-92075000D03*
D14*
X159004000Y-101600000D03*
D15*
X161544000Y-101600000D03*
D16*
X161925000Y-76835000D03*
D17*
X159385000Y-76835000D03*
X156845000Y-76835000D03*
D18*
X159385000Y-84027000D03*
X159385000Y-81327000D03*
X162814000Y-84027000D03*
X162814000Y-81327000D03*
D19*
X152226000Y-89535000D03*
X149526000Y-89535000D03*
X152226000Y-86995000D03*
X149526000Y-86995000D03*
X152226000Y-92075000D03*
X149526000Y-92075000D03*
D11*
X149098000Y-75946000D03*
X155702000Y-89916000D03*
X157480000Y-83947000D03*
X164592000Y-83566000D03*
X152146000Y-93726000D03*
X153924000Y-89662000D03*
X154178000Y-87122000D03*
D20*
X144780000Y-84455000D02*
X144907000Y-84455000D01*
X144907000Y-84455000D02*
X146050000Y-83312000D01*
X155702000Y-85852000D02*
X155702000Y-89916000D01*
X153162000Y-83312000D02*
X155702000Y-85852000D01*
X146050000Y-83312000D02*
X153162000Y-83312000D01*
D21*
X144780000Y-84455000D02*
X144780000Y-84709000D01*
X144780000Y-84455000D02*
X145542000Y-84455000D01*
D20*
X157560000Y-84027000D02*
X159385000Y-84027000D01*
X157480000Y-83947000D02*
X157560000Y-84027000D01*
X164131000Y-84027000D02*
X162814000Y-84027000D01*
X164592000Y-83566000D02*
X164131000Y-84027000D01*
X152226000Y-93646000D02*
X152226000Y-92075000D01*
X152146000Y-93726000D02*
X152226000Y-93646000D01*
X153924000Y-89662000D02*
X153797000Y-89535000D01*
X153797000Y-89535000D02*
X152226000Y-89535000D01*
X154178000Y-87122000D02*
X154051000Y-86995000D01*
X154051000Y-86995000D02*
X152226000Y-86995000D01*
D22*
G36*
X172060400Y-103353400D02*
X143153600Y-103353400D01*
X143153600Y-100672331D01*
X144321101Y-100672331D01*
X144583710Y-101307894D01*
X145069548Y-101794581D01*
X145704652Y-102058299D01*
X146392331Y-102058899D01*
X147027894Y-101796290D01*
X147514581Y-101310452D01*
X147778299Y-100675348D01*
X147778378Y-100584000D01*
X157754922Y-100584000D01*
X157754922Y-102616000D01*
X157770862Y-102700714D01*
X157820928Y-102778518D01*
X157897320Y-102830715D01*
X157988000Y-102849078D01*
X160020000Y-102849078D01*
X160104714Y-102833138D01*
X160182518Y-102783072D01*
X160234715Y-102706680D01*
X160253078Y-102616000D01*
X160253078Y-101575617D01*
X160299400Y-101575617D01*
X160299400Y-101624383D01*
X160394140Y-102100671D01*
X160663935Y-102504448D01*
X161067712Y-102774243D01*
X161544000Y-102868983D01*
X162020288Y-102774243D01*
X162424065Y-102504448D01*
X162693860Y-102100671D01*
X162788600Y-101624383D01*
X162788600Y-101575617D01*
X162693860Y-101099329D01*
X162424065Y-100695552D01*
X162389313Y-100672331D01*
X167435101Y-100672331D01*
X167697710Y-101307894D01*
X168183548Y-101794581D01*
X168818652Y-102058299D01*
X169506331Y-102058899D01*
X170141894Y-101796290D01*
X170628581Y-101310452D01*
X170892299Y-100675348D01*
X170892899Y-99987669D01*
X170630290Y-99352106D01*
X170144452Y-98865419D01*
X169509348Y-98601701D01*
X168821669Y-98601101D01*
X168186106Y-98863710D01*
X167699419Y-99349548D01*
X167435701Y-99984652D01*
X167435101Y-100672331D01*
X162389313Y-100672331D01*
X162020288Y-100425757D01*
X161544000Y-100331017D01*
X161067712Y-100425757D01*
X160663935Y-100695552D01*
X160394140Y-101099329D01*
X160299400Y-101575617D01*
X160253078Y-101575617D01*
X160253078Y-100584000D01*
X160237138Y-100499286D01*
X160187072Y-100421482D01*
X160110680Y-100369285D01*
X160020000Y-100350922D01*
X157988000Y-100350922D01*
X157903286Y-100366862D01*
X157825482Y-100416928D01*
X157773285Y-100493320D01*
X157754922Y-100584000D01*
X147778378Y-100584000D01*
X147778899Y-99987669D01*
X147516290Y-99352106D01*
X147030452Y-98865419D01*
X146395348Y-98601701D01*
X145707669Y-98601101D01*
X145072106Y-98863710D01*
X144585419Y-99349548D01*
X144321701Y-99984652D01*
X144321101Y-100672331D01*
X143153600Y-100672331D01*
X143153600Y-92075000D01*
X143511017Y-92075000D01*
X143594156Y-92492967D01*
X143830915Y-92847302D01*
X144185250Y-93084061D01*
X144603217Y-93167200D01*
X144956783Y-93167200D01*
X145374750Y-93084061D01*
X145729085Y-92847302D01*
X145965844Y-92492967D01*
X146048983Y-92075000D01*
X145965844Y-91657033D01*
X145810805Y-91425000D01*
X151242922Y-91425000D01*
X151242922Y-92725000D01*
X151258862Y-92809714D01*
X151308928Y-92887518D01*
X151385320Y-92939715D01*
X151476000Y-92958078D01*
X151692600Y-92958078D01*
X151692600Y-93371092D01*
X151661789Y-93401849D01*
X151574600Y-93611823D01*
X151574401Y-93839180D01*
X151661224Y-94049306D01*
X151821849Y-94210211D01*
X152031823Y-94297400D01*
X152259180Y-94297599D01*
X152469306Y-94210776D01*
X152630211Y-94050151D01*
X152704197Y-93871974D01*
X152718797Y-93850123D01*
X152759400Y-93646000D01*
X152759400Y-92958078D01*
X152976000Y-92958078D01*
X153060714Y-92942138D01*
X153138518Y-92892072D01*
X153190715Y-92815680D01*
X153209078Y-92725000D01*
X153209078Y-91425000D01*
X153193138Y-91340286D01*
X153143072Y-91262482D01*
X153066680Y-91210285D01*
X152976000Y-91191922D01*
X151476000Y-91191922D01*
X151391286Y-91207862D01*
X151313482Y-91257928D01*
X151261285Y-91334320D01*
X151242922Y-91425000D01*
X145810805Y-91425000D01*
X145729085Y-91302698D01*
X145374750Y-91065939D01*
X144956783Y-90982800D01*
X144603217Y-90982800D01*
X144185250Y-91065939D01*
X143830915Y-91302698D01*
X143594156Y-91657033D01*
X143511017Y-92075000D01*
X143153600Y-92075000D01*
X143153600Y-89535000D01*
X143511017Y-89535000D01*
X143594156Y-89952967D01*
X143830915Y-90307302D01*
X144185250Y-90544061D01*
X144603217Y-90627200D01*
X144956783Y-90627200D01*
X145374750Y-90544061D01*
X145729085Y-90307302D01*
X145965844Y-89952967D01*
X146048983Y-89535000D01*
X145965844Y-89117033D01*
X145810805Y-88885000D01*
X151242922Y-88885000D01*
X151242922Y-90185000D01*
X151258862Y-90269714D01*
X151308928Y-90347518D01*
X151385320Y-90399715D01*
X151476000Y-90418078D01*
X152976000Y-90418078D01*
X153060714Y-90402138D01*
X153138518Y-90352072D01*
X153190715Y-90275680D01*
X153209078Y-90185000D01*
X153209078Y-90068400D01*
X153522173Y-90068400D01*
X153599849Y-90146211D01*
X153809823Y-90233400D01*
X154037180Y-90233599D01*
X154247306Y-90146776D01*
X154408211Y-89986151D01*
X154495400Y-89776177D01*
X154495599Y-89548820D01*
X154408776Y-89338694D01*
X154248151Y-89177789D01*
X154131634Y-89129407D01*
X154001123Y-89042203D01*
X153797000Y-89001600D01*
X153209078Y-89001600D01*
X153209078Y-88885000D01*
X153193138Y-88800286D01*
X153143072Y-88722482D01*
X153066680Y-88670285D01*
X152976000Y-88651922D01*
X151476000Y-88651922D01*
X151391286Y-88667862D01*
X151313482Y-88717928D01*
X151261285Y-88794320D01*
X151242922Y-88885000D01*
X145810805Y-88885000D01*
X145729085Y-88762698D01*
X145374750Y-88525939D01*
X144956783Y-88442800D01*
X144603217Y-88442800D01*
X144185250Y-88525939D01*
X143830915Y-88762698D01*
X143594156Y-89117033D01*
X143511017Y-89535000D01*
X143153600Y-89535000D01*
X143153600Y-86995000D01*
X143511017Y-86995000D01*
X143594156Y-87412967D01*
X143830915Y-87767302D01*
X144185250Y-88004061D01*
X144603217Y-88087200D01*
X144956783Y-88087200D01*
X145374750Y-88004061D01*
X145729085Y-87767302D01*
X145965844Y-87412967D01*
X146048983Y-86995000D01*
X145965844Y-86577033D01*
X145810805Y-86345000D01*
X151242922Y-86345000D01*
X151242922Y-87645000D01*
X151258862Y-87729714D01*
X151308928Y-87807518D01*
X151385320Y-87859715D01*
X151476000Y-87878078D01*
X152976000Y-87878078D01*
X153060714Y-87862138D01*
X153138518Y-87812072D01*
X153190715Y-87735680D01*
X153209078Y-87645000D01*
X153209078Y-87528400D01*
X153776173Y-87528400D01*
X153853849Y-87606211D01*
X154063823Y-87693400D01*
X154291180Y-87693599D01*
X154501306Y-87606776D01*
X154662211Y-87446151D01*
X154749400Y-87236177D01*
X154749599Y-87008820D01*
X154662776Y-86798694D01*
X154502151Y-86637789D01*
X154385634Y-86589407D01*
X154255123Y-86502203D01*
X154051000Y-86461600D01*
X153209078Y-86461600D01*
X153209078Y-86345000D01*
X153193138Y-86260286D01*
X153143072Y-86182482D01*
X153066680Y-86130285D01*
X152976000Y-86111922D01*
X151476000Y-86111922D01*
X151391286Y-86127862D01*
X151313482Y-86177928D01*
X151261285Y-86254320D01*
X151242922Y-86345000D01*
X145810805Y-86345000D01*
X145729085Y-86222698D01*
X145374750Y-85985939D01*
X144956783Y-85902800D01*
X144603217Y-85902800D01*
X144185250Y-85985939D01*
X143830915Y-86222698D01*
X143594156Y-86577033D01*
X143511017Y-86995000D01*
X143153600Y-86995000D01*
X143153600Y-83591400D01*
X143530922Y-83591400D01*
X143530922Y-85318600D01*
X143546862Y-85403314D01*
X143596928Y-85481118D01*
X143673320Y-85533315D01*
X143764000Y-85551678D01*
X145796000Y-85551678D01*
X145880714Y-85535738D01*
X145958518Y-85485672D01*
X146010715Y-85409280D01*
X146029078Y-85318600D01*
X146029078Y-84087264D01*
X146270942Y-83845400D01*
X152941058Y-83845400D01*
X155168600Y-86072941D01*
X155168600Y-89710309D01*
X155130600Y-89801823D01*
X155130401Y-90029180D01*
X155217224Y-90239306D01*
X155377849Y-90400211D01*
X155587823Y-90487400D01*
X155815180Y-90487599D01*
X156025306Y-90400776D01*
X156186211Y-90240151D01*
X156273400Y-90030177D01*
X156273599Y-89802820D01*
X156235400Y-89710372D01*
X156235400Y-85852000D01*
X156194797Y-85647877D01*
X156194797Y-85647876D01*
X156130519Y-85551678D01*
X156079171Y-85474829D01*
X156079168Y-85474827D01*
X154664522Y-84060180D01*
X156908401Y-84060180D01*
X156995224Y-84270306D01*
X157155849Y-84431211D01*
X157334026Y-84505197D01*
X157355877Y-84519797D01*
X157560000Y-84560400D01*
X158501922Y-84560400D01*
X158501922Y-84777000D01*
X158517862Y-84861714D01*
X158567928Y-84939518D01*
X158644320Y-84991715D01*
X158735000Y-85010078D01*
X160035000Y-85010078D01*
X160119714Y-84994138D01*
X160197518Y-84944072D01*
X160249715Y-84867680D01*
X160268078Y-84777000D01*
X160268078Y-83277000D01*
X161930922Y-83277000D01*
X161930922Y-84777000D01*
X161946862Y-84861714D01*
X161996928Y-84939518D01*
X162073320Y-84991715D01*
X162164000Y-85010078D01*
X163464000Y-85010078D01*
X163548714Y-84994138D01*
X163626518Y-84944072D01*
X163678715Y-84867680D01*
X163697078Y-84777000D01*
X163697078Y-84560400D01*
X164131000Y-84560400D01*
X164335123Y-84519797D01*
X164508171Y-84404171D01*
X164823724Y-84088617D01*
X164915306Y-84050776D01*
X165076211Y-83890151D01*
X165163400Y-83680177D01*
X165163599Y-83452820D01*
X165076776Y-83242694D01*
X164916151Y-83081789D01*
X164706177Y-82994600D01*
X164478820Y-82994401D01*
X164268694Y-83081224D01*
X164107789Y-83241849D01*
X164069429Y-83334229D01*
X163910058Y-83493600D01*
X163697078Y-83493600D01*
X163697078Y-83277000D01*
X163681138Y-83192286D01*
X163631072Y-83114482D01*
X163554680Y-83062285D01*
X163464000Y-83043922D01*
X162164000Y-83043922D01*
X162079286Y-83059862D01*
X162001482Y-83109928D01*
X161949285Y-83186320D01*
X161930922Y-83277000D01*
X160268078Y-83277000D01*
X160252138Y-83192286D01*
X160202072Y-83114482D01*
X160125680Y-83062285D01*
X160035000Y-83043922D01*
X158735000Y-83043922D01*
X158650286Y-83059862D01*
X158572482Y-83109928D01*
X158520285Y-83186320D01*
X158501922Y-83277000D01*
X158501922Y-83493600D01*
X157834908Y-83493600D01*
X157804151Y-83462789D01*
X157594177Y-83375600D01*
X157366820Y-83375401D01*
X157156694Y-83462224D01*
X156995789Y-83622849D01*
X156908600Y-83832823D01*
X156908401Y-84060180D01*
X154664522Y-84060180D01*
X153539171Y-82934829D01*
X153366123Y-82819203D01*
X153162000Y-82778600D01*
X146050000Y-82778600D01*
X145845877Y-82819203D01*
X145672829Y-82934829D01*
X145249336Y-83358322D01*
X143764000Y-83358322D01*
X143679286Y-83374262D01*
X143601482Y-83424328D01*
X143549285Y-83500720D01*
X143530922Y-83591400D01*
X143153600Y-83591400D01*
X143153600Y-78447331D01*
X144321101Y-78447331D01*
X144583710Y-79082894D01*
X145069548Y-79569581D01*
X145704652Y-79833299D01*
X146392331Y-79833899D01*
X147027894Y-79571290D01*
X147514581Y-79085452D01*
X147778299Y-78450348D01*
X147778301Y-78447331D01*
X167435101Y-78447331D01*
X167697710Y-79082894D01*
X168183548Y-79569581D01*
X168818652Y-79833299D01*
X169506331Y-79833899D01*
X170141894Y-79571290D01*
X170628581Y-79085452D01*
X170892299Y-78450348D01*
X170892899Y-77762669D01*
X170630290Y-77127106D01*
X170144452Y-76640419D01*
X169509348Y-76376701D01*
X168821669Y-76376101D01*
X168186106Y-76638710D01*
X167699419Y-77124548D01*
X167435701Y-77759652D01*
X167435101Y-78447331D01*
X147778301Y-78447331D01*
X147778899Y-77762669D01*
X147516290Y-77127106D01*
X147048219Y-76658217D01*
X158292800Y-76658217D01*
X158292800Y-77011783D01*
X158375939Y-77429750D01*
X158612698Y-77784085D01*
X158967033Y-78020844D01*
X159385000Y-78103983D01*
X159802967Y-78020844D01*
X160157302Y-77784085D01*
X160394061Y-77429750D01*
X160477200Y-77011783D01*
X160477200Y-76658217D01*
X160394061Y-76240250D01*
X160157302Y-75885915D01*
X160057157Y-75819000D01*
X160828322Y-75819000D01*
X160828322Y-77851000D01*
X160844262Y-77935714D01*
X160894328Y-78013518D01*
X160970720Y-78065715D01*
X161061400Y-78084078D01*
X162788600Y-78084078D01*
X162873314Y-78068138D01*
X162951118Y-78018072D01*
X163003315Y-77941680D01*
X163021678Y-77851000D01*
X163021678Y-75819000D01*
X163005738Y-75734286D01*
X162955672Y-75656482D01*
X162879280Y-75604285D01*
X162788600Y-75585922D01*
X161061400Y-75585922D01*
X160976686Y-75601862D01*
X160898882Y-75651928D01*
X160846685Y-75728320D01*
X160828322Y-75819000D01*
X160057157Y-75819000D01*
X159802967Y-75649156D01*
X159385000Y-75566017D01*
X158967033Y-75649156D01*
X158612698Y-75885915D01*
X158375939Y-76240250D01*
X158292800Y-76658217D01*
X147048219Y-76658217D01*
X147030452Y-76640419D01*
X146395348Y-76376701D01*
X145707669Y-76376101D01*
X145072106Y-76638710D01*
X144585419Y-77124548D01*
X144321701Y-77759652D01*
X144321101Y-78447331D01*
X143153600Y-78447331D01*
X143153600Y-75208600D01*
X172060400Y-75208600D01*
X172060400Y-103353400D01*
X172060400Y-103353400D01*
G37*
X172060400Y-103353400D02*
X143153600Y-103353400D01*
X143153600Y-100672331D01*
X144321101Y-100672331D01*
X144583710Y-101307894D01*
X145069548Y-101794581D01*
X145704652Y-102058299D01*
X146392331Y-102058899D01*
X147027894Y-101796290D01*
X147514581Y-101310452D01*
X147778299Y-100675348D01*
X147778378Y-100584000D01*
X157754922Y-100584000D01*
X157754922Y-102616000D01*
X157770862Y-102700714D01*
X157820928Y-102778518D01*
X157897320Y-102830715D01*
X157988000Y-102849078D01*
X160020000Y-102849078D01*
X160104714Y-102833138D01*
X160182518Y-102783072D01*
X160234715Y-102706680D01*
X160253078Y-102616000D01*
X160253078Y-101575617D01*
X160299400Y-101575617D01*
X160299400Y-101624383D01*
X160394140Y-102100671D01*
X160663935Y-102504448D01*
X161067712Y-102774243D01*
X161544000Y-102868983D01*
X162020288Y-102774243D01*
X162424065Y-102504448D01*
X162693860Y-102100671D01*
X162788600Y-101624383D01*
X162788600Y-101575617D01*
X162693860Y-101099329D01*
X162424065Y-100695552D01*
X162389313Y-100672331D01*
X167435101Y-100672331D01*
X167697710Y-101307894D01*
X168183548Y-101794581D01*
X168818652Y-102058299D01*
X169506331Y-102058899D01*
X170141894Y-101796290D01*
X170628581Y-101310452D01*
X170892299Y-100675348D01*
X170892899Y-99987669D01*
X170630290Y-99352106D01*
X170144452Y-98865419D01*
X169509348Y-98601701D01*
X168821669Y-98601101D01*
X168186106Y-98863710D01*
X167699419Y-99349548D01*
X167435701Y-99984652D01*
X167435101Y-100672331D01*
X162389313Y-100672331D01*
X162020288Y-100425757D01*
X161544000Y-100331017D01*
X161067712Y-100425757D01*
X160663935Y-100695552D01*
X160394140Y-101099329D01*
X160299400Y-101575617D01*
X160253078Y-101575617D01*
X160253078Y-100584000D01*
X160237138Y-100499286D01*
X160187072Y-100421482D01*
X160110680Y-100369285D01*
X160020000Y-100350922D01*
X157988000Y-100350922D01*
X157903286Y-100366862D01*
X157825482Y-100416928D01*
X157773285Y-100493320D01*
X157754922Y-100584000D01*
X147778378Y-100584000D01*
X147778899Y-99987669D01*
X147516290Y-99352106D01*
X147030452Y-98865419D01*
X146395348Y-98601701D01*
X145707669Y-98601101D01*
X145072106Y-98863710D01*
X144585419Y-99349548D01*
X144321701Y-99984652D01*
X144321101Y-100672331D01*
X143153600Y-100672331D01*
X143153600Y-92075000D01*
X143511017Y-92075000D01*
X143594156Y-92492967D01*
X143830915Y-92847302D01*
X144185250Y-93084061D01*
X144603217Y-93167200D01*
X144956783Y-93167200D01*
X145374750Y-93084061D01*
X145729085Y-92847302D01*
X145965844Y-92492967D01*
X146048983Y-92075000D01*
X145965844Y-91657033D01*
X145810805Y-91425000D01*
X151242922Y-91425000D01*
X151242922Y-92725000D01*
X151258862Y-92809714D01*
X151308928Y-92887518D01*
X151385320Y-92939715D01*
X151476000Y-92958078D01*
X151692600Y-92958078D01*
X151692600Y-93371092D01*
X151661789Y-93401849D01*
X151574600Y-93611823D01*
X151574401Y-93839180D01*
X151661224Y-94049306D01*
X151821849Y-94210211D01*
X152031823Y-94297400D01*
X152259180Y-94297599D01*
X152469306Y-94210776D01*
X152630211Y-94050151D01*
X152704197Y-93871974D01*
X152718797Y-93850123D01*
X152759400Y-93646000D01*
X152759400Y-92958078D01*
X152976000Y-92958078D01*
X153060714Y-92942138D01*
X153138518Y-92892072D01*
X153190715Y-92815680D01*
X153209078Y-92725000D01*
X153209078Y-91425000D01*
X153193138Y-91340286D01*
X153143072Y-91262482D01*
X153066680Y-91210285D01*
X152976000Y-91191922D01*
X151476000Y-91191922D01*
X151391286Y-91207862D01*
X151313482Y-91257928D01*
X151261285Y-91334320D01*
X151242922Y-91425000D01*
X145810805Y-91425000D01*
X145729085Y-91302698D01*
X145374750Y-91065939D01*
X144956783Y-90982800D01*
X144603217Y-90982800D01*
X144185250Y-91065939D01*
X143830915Y-91302698D01*
X143594156Y-91657033D01*
X143511017Y-92075000D01*
X143153600Y-92075000D01*
X143153600Y-89535000D01*
X143511017Y-89535000D01*
X143594156Y-89952967D01*
X143830915Y-90307302D01*
X144185250Y-90544061D01*
X144603217Y-90627200D01*
X144956783Y-90627200D01*
X145374750Y-90544061D01*
X145729085Y-90307302D01*
X145965844Y-89952967D01*
X146048983Y-89535000D01*
X145965844Y-89117033D01*
X145810805Y-88885000D01*
X151242922Y-88885000D01*
X151242922Y-90185000D01*
X151258862Y-90269714D01*
X151308928Y-90347518D01*
X151385320Y-90399715D01*
X151476000Y-90418078D01*
X152976000Y-90418078D01*
X153060714Y-90402138D01*
X153138518Y-90352072D01*
X153190715Y-90275680D01*
X153209078Y-90185000D01*
X153209078Y-90068400D01*
X153522173Y-90068400D01*
X153599849Y-90146211D01*
X153809823Y-90233400D01*
X154037180Y-90233599D01*
X154247306Y-90146776D01*
X154408211Y-89986151D01*
X154495400Y-89776177D01*
X154495599Y-89548820D01*
X154408776Y-89338694D01*
X154248151Y-89177789D01*
X154131634Y-89129407D01*
X154001123Y-89042203D01*
X153797000Y-89001600D01*
X153209078Y-89001600D01*
X153209078Y-88885000D01*
X153193138Y-88800286D01*
X153143072Y-88722482D01*
X153066680Y-88670285D01*
X152976000Y-88651922D01*
X151476000Y-88651922D01*
X151391286Y-88667862D01*
X151313482Y-88717928D01*
X151261285Y-88794320D01*
X151242922Y-88885000D01*
X145810805Y-88885000D01*
X145729085Y-88762698D01*
X145374750Y-88525939D01*
X144956783Y-88442800D01*
X144603217Y-88442800D01*
X144185250Y-88525939D01*
X143830915Y-88762698D01*
X143594156Y-89117033D01*
X143511017Y-89535000D01*
X143153600Y-89535000D01*
X143153600Y-86995000D01*
X143511017Y-86995000D01*
X143594156Y-87412967D01*
X143830915Y-87767302D01*
X144185250Y-88004061D01*
X144603217Y-88087200D01*
X144956783Y-88087200D01*
X145374750Y-88004061D01*
X145729085Y-87767302D01*
X145965844Y-87412967D01*
X146048983Y-86995000D01*
X145965844Y-86577033D01*
X145810805Y-86345000D01*
X151242922Y-86345000D01*
X151242922Y-87645000D01*
X151258862Y-87729714D01*
X151308928Y-87807518D01*
X151385320Y-87859715D01*
X151476000Y-87878078D01*
X152976000Y-87878078D01*
X153060714Y-87862138D01*
X153138518Y-87812072D01*
X153190715Y-87735680D01*
X153209078Y-87645000D01*
X153209078Y-87528400D01*
X153776173Y-87528400D01*
X153853849Y-87606211D01*
X154063823Y-87693400D01*
X154291180Y-87693599D01*
X154501306Y-87606776D01*
X154662211Y-87446151D01*
X154749400Y-87236177D01*
X154749599Y-87008820D01*
X154662776Y-86798694D01*
X154502151Y-86637789D01*
X154385634Y-86589407D01*
X154255123Y-86502203D01*
X154051000Y-86461600D01*
X153209078Y-86461600D01*
X153209078Y-86345000D01*
X153193138Y-86260286D01*
X153143072Y-86182482D01*
X153066680Y-86130285D01*
X152976000Y-86111922D01*
X151476000Y-86111922D01*
X151391286Y-86127862D01*
X151313482Y-86177928D01*
X151261285Y-86254320D01*
X151242922Y-86345000D01*
X145810805Y-86345000D01*
X145729085Y-86222698D01*
X145374750Y-85985939D01*
X144956783Y-85902800D01*
X144603217Y-85902800D01*
X144185250Y-85985939D01*
X143830915Y-86222698D01*
X143594156Y-86577033D01*
X143511017Y-86995000D01*
X143153600Y-86995000D01*
X143153600Y-83591400D01*
X143530922Y-83591400D01*
X143530922Y-85318600D01*
X143546862Y-85403314D01*
X143596928Y-85481118D01*
X143673320Y-85533315D01*
X143764000Y-85551678D01*
X145796000Y-85551678D01*
X145880714Y-85535738D01*
X145958518Y-85485672D01*
X146010715Y-85409280D01*
X146029078Y-85318600D01*
X146029078Y-84087264D01*
X146270942Y-83845400D01*
X152941058Y-83845400D01*
X155168600Y-86072941D01*
X155168600Y-89710309D01*
X155130600Y-89801823D01*
X155130401Y-90029180D01*
X155217224Y-90239306D01*
X155377849Y-90400211D01*
X155587823Y-90487400D01*
X155815180Y-90487599D01*
X156025306Y-90400776D01*
X156186211Y-90240151D01*
X156273400Y-90030177D01*
X156273599Y-89802820D01*
X156235400Y-89710372D01*
X156235400Y-85852000D01*
X156194797Y-85647877D01*
X156194797Y-85647876D01*
X156130519Y-85551678D01*
X156079171Y-85474829D01*
X156079168Y-85474827D01*
X154664522Y-84060180D01*
X156908401Y-84060180D01*
X156995224Y-84270306D01*
X157155849Y-84431211D01*
X157334026Y-84505197D01*
X157355877Y-84519797D01*
X157560000Y-84560400D01*
X158501922Y-84560400D01*
X158501922Y-84777000D01*
X158517862Y-84861714D01*
X158567928Y-84939518D01*
X158644320Y-84991715D01*
X158735000Y-85010078D01*
X160035000Y-85010078D01*
X160119714Y-84994138D01*
X160197518Y-84944072D01*
X160249715Y-84867680D01*
X160268078Y-84777000D01*
X160268078Y-83277000D01*
X161930922Y-83277000D01*
X161930922Y-84777000D01*
X161946862Y-84861714D01*
X161996928Y-84939518D01*
X162073320Y-84991715D01*
X162164000Y-85010078D01*
X163464000Y-85010078D01*
X163548714Y-84994138D01*
X163626518Y-84944072D01*
X163678715Y-84867680D01*
X163697078Y-84777000D01*
X163697078Y-84560400D01*
X164131000Y-84560400D01*
X164335123Y-84519797D01*
X164508171Y-84404171D01*
X164823724Y-84088617D01*
X164915306Y-84050776D01*
X165076211Y-83890151D01*
X165163400Y-83680177D01*
X165163599Y-83452820D01*
X165076776Y-83242694D01*
X164916151Y-83081789D01*
X164706177Y-82994600D01*
X164478820Y-82994401D01*
X164268694Y-83081224D01*
X164107789Y-83241849D01*
X164069429Y-83334229D01*
X163910058Y-83493600D01*
X163697078Y-83493600D01*
X163697078Y-83277000D01*
X163681138Y-83192286D01*
X163631072Y-83114482D01*
X163554680Y-83062285D01*
X163464000Y-83043922D01*
X162164000Y-83043922D01*
X162079286Y-83059862D01*
X162001482Y-83109928D01*
X161949285Y-83186320D01*
X161930922Y-83277000D01*
X160268078Y-83277000D01*
X160252138Y-83192286D01*
X160202072Y-83114482D01*
X160125680Y-83062285D01*
X160035000Y-83043922D01*
X158735000Y-83043922D01*
X158650286Y-83059862D01*
X158572482Y-83109928D01*
X158520285Y-83186320D01*
X158501922Y-83277000D01*
X158501922Y-83493600D01*
X157834908Y-83493600D01*
X157804151Y-83462789D01*
X157594177Y-83375600D01*
X157366820Y-83375401D01*
X157156694Y-83462224D01*
X156995789Y-83622849D01*
X156908600Y-83832823D01*
X156908401Y-84060180D01*
X154664522Y-84060180D01*
X153539171Y-82934829D01*
X153366123Y-82819203D01*
X153162000Y-82778600D01*
X146050000Y-82778600D01*
X145845877Y-82819203D01*
X145672829Y-82934829D01*
X145249336Y-83358322D01*
X143764000Y-83358322D01*
X143679286Y-83374262D01*
X143601482Y-83424328D01*
X143549285Y-83500720D01*
X143530922Y-83591400D01*
X143153600Y-83591400D01*
X143153600Y-78447331D01*
X144321101Y-78447331D01*
X144583710Y-79082894D01*
X145069548Y-79569581D01*
X145704652Y-79833299D01*
X146392331Y-79833899D01*
X147027894Y-79571290D01*
X147514581Y-79085452D01*
X147778299Y-78450348D01*
X147778301Y-78447331D01*
X167435101Y-78447331D01*
X167697710Y-79082894D01*
X168183548Y-79569581D01*
X168818652Y-79833299D01*
X169506331Y-79833899D01*
X170141894Y-79571290D01*
X170628581Y-79085452D01*
X170892299Y-78450348D01*
X170892899Y-77762669D01*
X170630290Y-77127106D01*
X170144452Y-76640419D01*
X169509348Y-76376701D01*
X168821669Y-76376101D01*
X168186106Y-76638710D01*
X167699419Y-77124548D01*
X167435701Y-77759652D01*
X167435101Y-78447331D01*
X147778301Y-78447331D01*
X147778899Y-77762669D01*
X147516290Y-77127106D01*
X147048219Y-76658217D01*
X158292800Y-76658217D01*
X158292800Y-77011783D01*
X158375939Y-77429750D01*
X158612698Y-77784085D01*
X158967033Y-78020844D01*
X159385000Y-78103983D01*
X159802967Y-78020844D01*
X160157302Y-77784085D01*
X160394061Y-77429750D01*
X160477200Y-77011783D01*
X160477200Y-76658217D01*
X160394061Y-76240250D01*
X160157302Y-75885915D01*
X160057157Y-75819000D01*
X160828322Y-75819000D01*
X160828322Y-77851000D01*
X160844262Y-77935714D01*
X160894328Y-78013518D01*
X160970720Y-78065715D01*
X161061400Y-78084078D01*
X162788600Y-78084078D01*
X162873314Y-78068138D01*
X162951118Y-78018072D01*
X163003315Y-77941680D01*
X163021678Y-77851000D01*
X163021678Y-75819000D01*
X163005738Y-75734286D01*
X162955672Y-75656482D01*
X162879280Y-75604285D01*
X162788600Y-75585922D01*
X161061400Y-75585922D01*
X160976686Y-75601862D01*
X160898882Y-75651928D01*
X160846685Y-75728320D01*
X160828322Y-75819000D01*
X160057157Y-75819000D01*
X159802967Y-75649156D01*
X159385000Y-75566017D01*
X158967033Y-75649156D01*
X158612698Y-75885915D01*
X158375939Y-76240250D01*
X158292800Y-76658217D01*
X147048219Y-76658217D01*
X147030452Y-76640419D01*
X146395348Y-76376701D01*
X145707669Y-76376101D01*
X145072106Y-76638710D01*
X144585419Y-77124548D01*
X144321701Y-77759652D01*
X144321101Y-78447331D01*
X143153600Y-78447331D01*
X143153600Y-75208600D01*
X172060400Y-75208600D01*
X172060400Y-103353400D01*
M02*
