M48
;DRILL file {KiCad 0.201508140901+6091~28~ubuntu14.04.1-product} date Mon 05 Oct 2015 11:49:54 PM CEST
;FORMAT={2:4/ absolute / inch / suppress trailing zeros}
FMAT,2
INCH,LZ
T1C0.013
T2C0.040
T3C0.118
%
G90
G05
M72
T1
X0566Y-0374
X0566Y-0379
X0566Y-0384
X0566Y-0389
X0571Y-0374
X0571Y-0379
X0571Y-0384
X0576Y-0374
X0576Y-0379
X0576Y-0384
X0581Y-0374
X0581Y-0379
X0581Y-0384
X0586Y-0374
X0586Y-0379
X0586Y-0384
X0586Y-0389
X0586Y-0404
X0587Y-0299
X0587Y-0304
X0587Y-0309
X0587Y-0314
X0587Y-0319
X0587Y-0324
X0587Y-0332
X0587Y-0337
X0591Y-0374
X0591Y-0379
X0591Y-0384
X0591Y-0389
X0591Y-0394
X0591Y-0399
X0591Y-0404
X0592Y-0299
X0592Y-0304
X0592Y-0309
X0592Y-0314
X0592Y-0319
X0592Y-0324
X0592Y-0332
X0596Y-0374
X0596Y-0379
X0596Y-0384
X0596Y-0389
X0596Y-0394
X0596Y-0399
X0596Y-0404
X0597Y-0299
X0597Y-0304
X0597Y-0309
X0597Y-0314
X0597Y-0319
X0597Y-0324
X0597Y-0332
X0599Y-0369
X0601Y-0374
X0601Y-0379
X0601Y-0384
X0601Y-0389
X0601Y-0394
X0601Y-0399
X0601Y-0404
X0602Y-0299
X0602Y-0304
X0602Y-0309
X0602Y-0314
X0602Y-0319
X0602Y-0324
X0606Y-0353
X0606Y-0374
X0606Y-0379
X0606Y-0384
X0606Y-0389
X0606Y-0394
X0606Y-0399
X0606Y-0404
X0607Y-0299
X0607Y-0304
X0607Y-0309
X0607Y-0314
X0607Y-0319
X0607Y-0324
X0607Y-0343
X0609Y-034
X0609Y-035
X0611Y-0374
X0611Y-0379
X0611Y-0384
X0611Y-0389
X0611Y-0394
X0611Y-0399
X0611Y-0404
X0612Y-0314
X0612Y-0319
X0612Y-0324
X0612Y-0329
X0613Y-0354
X0617Y-0343
X0617Y-0374
X0617Y-0379
X0617Y-0384
X0617Y-0389
X0617Y-0394
X0617Y-0399
X0617Y-0404
X062Y-03305
X06255Y-03555
X0639Y-0379
X0639Y-0384
X0639Y-0389
X0644Y-0379
X0644Y-0384
X0644Y-0389
X0644Y-0394
X0644Y-0399
X0644Y-0404
X0648Y-0329
X0649Y-0379
X0649Y-0384
X0649Y-0389
X0649Y-0394
X0649Y-0399
X0649Y-0404
X0654Y-0379
X0654Y-0384
X0654Y-0389
X0654Y-0394
X0654Y-0399
X0654Y-0404
X0659Y-0369
X0659Y-0374
X0659Y-0379
X0659Y-0384
X0664Y-0324
X0664Y-0364
X0664Y-0369
X0664Y-0374
X0664Y-0379
X0664Y-0384
X0669Y-0324
X0669Y-0329
X0669Y-0334
X0669Y-0339
X0669Y-0344
X0669Y-0359
X0669Y-0364
X0669Y-0369
X0669Y-0374
X0669Y-0379
X0669Y-0384
X0674Y-0324
X0674Y-0329
X0674Y-0334
X0674Y-0339
X0674Y-0344
X0674Y-0349
X0674Y-0354
X0674Y-0359
X0674Y-0364
X0674Y-0369
X0674Y-0374
X0674Y-0379
X0674Y-0384
T2
X057Y-03325
X057Y-03425
X057Y-03525
X057Y-03625
X06175Y-03025
X0626Y-04
X06275Y-03025
X0636Y-04
X06375Y-03025
T3
X0575Y-03075
X0575Y-0395
X0666Y-03075
X0666Y-0395
T0
M30
