G04 #@! TF.FileFunction,Paste,Top*
%FSLAX46Y46*%
G04 Gerber Fmt 4.6, Leading zero omitted, Abs format (unit mm)*
G04 Created by KiCad (PCBNEW 0.201508140901+6091~28~ubuntu14.04.1-product) date Mon 05 Oct 2015 11:49:52 PM CEST*
%MOMM*%
G01*
G04 APERTURE LIST*
%ADD10C,0.100000*%
%ADD11R,1.000000X1.250000*%
%ADD12R,1.000000X1.600000*%
%ADD13R,1.250000X1.000000*%
%ADD14R,1.600000X1.000000*%
%ADD15R,1.270000X0.406400*%
%ADD16R,1.198880X1.198880*%
%ADD17R,1.500000X1.300000*%
G04 APERTURE END LIST*
D10*
D11*
X161782000Y-86868000D03*
X159782000Y-86868000D03*
D12*
X163854000Y-86614000D03*
X166854000Y-86614000D03*
D13*
X154940000Y-91710000D03*
X154940000Y-93710000D03*
D14*
X165354000Y-91718000D03*
X165354000Y-94718000D03*
D15*
X157353000Y-89281000D03*
X157353000Y-89916000D03*
X157353000Y-90576400D03*
X157353000Y-91236800D03*
X157353000Y-91871800D03*
X157353000Y-92532200D03*
X157353000Y-93192600D03*
X157353000Y-93827600D03*
X157353000Y-94488000D03*
X157353000Y-95123000D03*
X162687000Y-95123000D03*
X162687000Y-94488000D03*
X162687000Y-93827600D03*
X162687000Y-93192600D03*
X162687000Y-92532200D03*
X162687000Y-91871800D03*
X162687000Y-91236800D03*
X162687000Y-90576400D03*
X162687000Y-89916000D03*
X162687000Y-89281000D03*
D16*
X159385000Y-80992980D03*
X159385000Y-83091020D03*
X162814000Y-80992980D03*
X162814000Y-83091020D03*
X149191980Y-92075000D03*
X151290020Y-92075000D03*
X149191980Y-89535000D03*
X151290020Y-89535000D03*
X149191980Y-86995000D03*
X151290020Y-86995000D03*
D17*
X166036000Y-89281000D03*
X168736000Y-89281000D03*
M02*
