G04 #@! TF.FileFunction,Legend,Top*
%FSLAX46Y46*%
G04 Gerber Fmt 4.6, Leading zero omitted, Abs format (unit mm)*
G04 Created by KiCad (PCBNEW 0.201508140901+6091~28~ubuntu14.04.1-product) date Tue 06 Oct 2015 12:02:15 AM CEST*
%MOMM*%
G01*
G04 APERTURE LIST*
%ADD10C,0.100000*%
%ADD11C,0.127000*%
%ADD12C,0.150000*%
%ADD13C,0.685800*%
%ADD14R,1.000000X1.250000*%
%ADD15R,1.000000X1.600000*%
%ADD16R,1.250000X1.000000*%
%ADD17R,1.600000X1.000000*%
%ADD18R,2.032000X1.727200*%
%ADD19O,2.032000X1.727200*%
%ADD20R,2.032000X2.032000*%
%ADD21O,2.032000X2.032000*%
%ADD22R,1.270000X0.406400*%
%ADD23R,1.198880X1.198880*%
%ADD24R,1.727200X2.032000*%
%ADD25O,1.727200X2.032000*%
%ADD26R,1.500000X1.300000*%
G04 APERTURE END LIST*
D10*
D11*
X155248428Y-97664814D02*
X155248428Y-96902814D01*
X155502428Y-97447100D01*
X155756428Y-96902814D01*
X155756428Y-97664814D01*
X156228142Y-97664814D02*
X156155570Y-97628529D01*
X156119285Y-97592243D01*
X156082999Y-97519671D01*
X156082999Y-97301957D01*
X156119285Y-97229386D01*
X156155570Y-97193100D01*
X156228142Y-97156814D01*
X156336999Y-97156814D01*
X156409570Y-97193100D01*
X156445856Y-97229386D01*
X156482142Y-97301957D01*
X156482142Y-97519671D01*
X156445856Y-97592243D01*
X156409570Y-97628529D01*
X156336999Y-97664814D01*
X156228142Y-97664814D01*
X156699856Y-97156814D02*
X156990142Y-97156814D01*
X156808714Y-96902814D02*
X156808714Y-97555957D01*
X156844999Y-97628529D01*
X156917571Y-97664814D01*
X156990142Y-97664814D01*
X157353000Y-97664814D02*
X157280428Y-97628529D01*
X157244143Y-97592243D01*
X157207857Y-97519671D01*
X157207857Y-97301957D01*
X157244143Y-97229386D01*
X157280428Y-97193100D01*
X157353000Y-97156814D01*
X157461857Y-97156814D01*
X157534428Y-97193100D01*
X157570714Y-97229386D01*
X157607000Y-97301957D01*
X157607000Y-97519671D01*
X157570714Y-97592243D01*
X157534428Y-97628529D01*
X157461857Y-97664814D01*
X157353000Y-97664814D01*
X157933572Y-97664814D02*
X157933572Y-97156814D01*
X157933572Y-97301957D02*
X157969857Y-97229386D01*
X158006143Y-97193100D01*
X158078714Y-97156814D01*
X158151286Y-97156814D01*
X159421285Y-97592243D02*
X159384999Y-97628529D01*
X159276142Y-97664814D01*
X159203571Y-97664814D01*
X159094714Y-97628529D01*
X159022142Y-97555957D01*
X158985857Y-97483386D01*
X158949571Y-97338243D01*
X158949571Y-97229386D01*
X158985857Y-97084243D01*
X159022142Y-97011671D01*
X159094714Y-96939100D01*
X159203571Y-96902814D01*
X159276142Y-96902814D01*
X159384999Y-96939100D01*
X159421285Y-96975386D01*
X159856714Y-97664814D02*
X159784142Y-97628529D01*
X159747857Y-97592243D01*
X159711571Y-97519671D01*
X159711571Y-97301957D01*
X159747857Y-97229386D01*
X159784142Y-97193100D01*
X159856714Y-97156814D01*
X159965571Y-97156814D01*
X160038142Y-97193100D01*
X160074428Y-97229386D01*
X160110714Y-97301957D01*
X160110714Y-97519671D01*
X160074428Y-97592243D01*
X160038142Y-97628529D01*
X159965571Y-97664814D01*
X159856714Y-97664814D01*
X160437286Y-97156814D02*
X160437286Y-97664814D01*
X160437286Y-97229386D02*
X160473571Y-97193100D01*
X160546143Y-97156814D01*
X160655000Y-97156814D01*
X160727571Y-97193100D01*
X160763857Y-97265671D01*
X160763857Y-97664814D01*
X161017857Y-97156814D02*
X161308143Y-97156814D01*
X161126715Y-96902814D02*
X161126715Y-97555957D01*
X161163000Y-97628529D01*
X161235572Y-97664814D01*
X161308143Y-97664814D01*
X161562144Y-97664814D02*
X161562144Y-97156814D01*
X161562144Y-97301957D02*
X161598429Y-97229386D01*
X161634715Y-97193100D01*
X161707286Y-97156814D01*
X161779858Y-97156814D01*
X162142715Y-97664814D02*
X162070143Y-97628529D01*
X162033858Y-97592243D01*
X161997572Y-97519671D01*
X161997572Y-97301957D01*
X162033858Y-97229386D01*
X162070143Y-97193100D01*
X162142715Y-97156814D01*
X162251572Y-97156814D01*
X162324143Y-97193100D01*
X162360429Y-97229386D01*
X162396715Y-97301957D01*
X162396715Y-97519671D01*
X162360429Y-97592243D01*
X162324143Y-97628529D01*
X162251572Y-97664814D01*
X162142715Y-97664814D01*
X162832144Y-97664814D02*
X162759572Y-97628529D01*
X162723287Y-97555957D01*
X162723287Y-96902814D01*
X163231287Y-97664814D02*
X163158715Y-97628529D01*
X163122430Y-97555957D01*
X163122430Y-96902814D01*
X163811858Y-97628529D02*
X163739287Y-97664814D01*
X163594144Y-97664814D01*
X163521573Y-97628529D01*
X163485287Y-97555957D01*
X163485287Y-97265671D01*
X163521573Y-97193100D01*
X163594144Y-97156814D01*
X163739287Y-97156814D01*
X163811858Y-97193100D01*
X163848144Y-97265671D01*
X163848144Y-97338243D01*
X163485287Y-97410814D01*
X164174716Y-97664814D02*
X164174716Y-97156814D01*
X164174716Y-97301957D02*
X164211001Y-97229386D01*
X164247287Y-97193100D01*
X164319858Y-97156814D01*
X164392430Y-97156814D01*
X155774572Y-98169186D02*
X155810858Y-98132900D01*
X155883429Y-98096614D01*
X156064858Y-98096614D01*
X156137429Y-98132900D01*
X156173715Y-98169186D01*
X156210000Y-98241757D01*
X156210000Y-98314329D01*
X156173715Y-98423186D01*
X155738286Y-98858614D01*
X156210000Y-98858614D01*
X156899429Y-98858614D02*
X156536572Y-98858614D01*
X156536572Y-98096614D01*
X157153429Y-98786043D02*
X157189714Y-98822329D01*
X157153429Y-98858614D01*
X157117143Y-98822329D01*
X157153429Y-98786043D01*
X157153429Y-98858614D01*
X157443714Y-98096614D02*
X157915428Y-98096614D01*
X157661428Y-98386900D01*
X157770286Y-98386900D01*
X157842857Y-98423186D01*
X157879143Y-98459471D01*
X157915428Y-98532043D01*
X157915428Y-98713471D01*
X157879143Y-98786043D01*
X157842857Y-98822329D01*
X157770286Y-98858614D01*
X157552571Y-98858614D01*
X157480000Y-98822329D01*
X157443714Y-98786043D01*
X158242000Y-98568329D02*
X158822571Y-98568329D01*
X159185429Y-98858614D02*
X159185429Y-98096614D01*
X159185429Y-98386900D02*
X159258000Y-98350614D01*
X159403143Y-98350614D01*
X159475714Y-98386900D01*
X159512000Y-98423186D01*
X159548286Y-98495757D01*
X159548286Y-98713471D01*
X159512000Y-98786043D01*
X159475714Y-98822329D01*
X159403143Y-98858614D01*
X159258000Y-98858614D01*
X159185429Y-98822329D01*
X159802286Y-98096614D02*
X160274000Y-98096614D01*
X160020000Y-98386900D01*
X160128858Y-98386900D01*
X160201429Y-98423186D01*
X160237715Y-98459471D01*
X160274000Y-98532043D01*
X160274000Y-98713471D01*
X160237715Y-98786043D01*
X160201429Y-98822329D01*
X160128858Y-98858614D01*
X159911143Y-98858614D01*
X159838572Y-98822329D01*
X159802286Y-98786043D01*
X160528000Y-98096614D02*
X160999714Y-98096614D01*
X160745714Y-98386900D01*
X160854572Y-98386900D01*
X160927143Y-98423186D01*
X160963429Y-98459471D01*
X160999714Y-98532043D01*
X160999714Y-98713471D01*
X160963429Y-98786043D01*
X160927143Y-98822329D01*
X160854572Y-98858614D01*
X160636857Y-98858614D01*
X160564286Y-98822329D01*
X160528000Y-98786043D01*
X161616571Y-98822329D02*
X161544000Y-98858614D01*
X161398857Y-98858614D01*
X161326286Y-98822329D01*
X161290000Y-98749757D01*
X161290000Y-98459471D01*
X161326286Y-98386900D01*
X161398857Y-98350614D01*
X161544000Y-98350614D01*
X161616571Y-98386900D01*
X161652857Y-98459471D01*
X161652857Y-98532043D01*
X161290000Y-98604614D01*
X161906857Y-98096614D02*
X162378571Y-98096614D01*
X162124571Y-98386900D01*
X162233429Y-98386900D01*
X162306000Y-98423186D01*
X162342286Y-98459471D01*
X162378571Y-98532043D01*
X162378571Y-98713471D01*
X162342286Y-98786043D01*
X162306000Y-98822329D01*
X162233429Y-98858614D01*
X162015714Y-98858614D01*
X161943143Y-98822329D01*
X161906857Y-98786043D01*
X163031714Y-98822329D02*
X162959143Y-98858614D01*
X162814000Y-98858614D01*
X162741428Y-98822329D01*
X162705143Y-98786043D01*
X162668857Y-98713471D01*
X162668857Y-98495757D01*
X162705143Y-98423186D01*
X162741428Y-98386900D01*
X162814000Y-98350614D01*
X162959143Y-98350614D01*
X163031714Y-98386900D01*
X163467143Y-98423186D02*
X163394571Y-98386900D01*
X163358286Y-98350614D01*
X163322000Y-98278043D01*
X163322000Y-98241757D01*
X163358286Y-98169186D01*
X163394571Y-98132900D01*
X163467143Y-98096614D01*
X163612286Y-98096614D01*
X163684857Y-98132900D01*
X163721143Y-98169186D01*
X163757428Y-98241757D01*
X163757428Y-98278043D01*
X163721143Y-98350614D01*
X163684857Y-98386900D01*
X163612286Y-98423186D01*
X163467143Y-98423186D01*
X163394571Y-98459471D01*
X163358286Y-98495757D01*
X163322000Y-98568329D01*
X163322000Y-98713471D01*
X163358286Y-98786043D01*
X163394571Y-98822329D01*
X163467143Y-98858614D01*
X163612286Y-98858614D01*
X163684857Y-98822329D01*
X163721143Y-98786043D01*
X163757428Y-98713471D01*
X163757428Y-98568329D01*
X163721143Y-98495757D01*
X163684857Y-98459471D01*
X163612286Y-98423186D01*
X156409571Y-78867000D02*
X156337000Y-78830714D01*
X156228143Y-78830714D01*
X156119286Y-78867000D01*
X156046714Y-78939571D01*
X156010429Y-79012143D01*
X155974143Y-79157286D01*
X155974143Y-79266143D01*
X156010429Y-79411286D01*
X156046714Y-79483857D01*
X156119286Y-79556429D01*
X156228143Y-79592714D01*
X156300714Y-79592714D01*
X156409571Y-79556429D01*
X156445857Y-79520143D01*
X156445857Y-79266143D01*
X156300714Y-79266143D01*
X156772429Y-79592714D02*
X156772429Y-78830714D01*
X157207857Y-79592714D01*
X157207857Y-78830714D01*
X157570715Y-79592714D02*
X157570715Y-78830714D01*
X157752143Y-78830714D01*
X157861000Y-78867000D01*
X157933572Y-78939571D01*
X157969857Y-79012143D01*
X158006143Y-79157286D01*
X158006143Y-79266143D01*
X157969857Y-79411286D01*
X157933572Y-79483857D01*
X157861000Y-79556429D01*
X157752143Y-79592714D01*
X157570715Y-79592714D01*
X158822571Y-78830714D02*
X159076571Y-79592714D01*
X159330571Y-78830714D01*
X159911143Y-79556429D02*
X159838572Y-79592714D01*
X159693429Y-79592714D01*
X159620857Y-79556429D01*
X159584572Y-79520143D01*
X159548286Y-79447571D01*
X159548286Y-79229857D01*
X159584572Y-79157286D01*
X159620857Y-79121000D01*
X159693429Y-79084714D01*
X159838572Y-79084714D01*
X159911143Y-79121000D01*
X160564286Y-79556429D02*
X160491715Y-79592714D01*
X160346572Y-79592714D01*
X160274000Y-79556429D01*
X160237715Y-79520143D01*
X160201429Y-79447571D01*
X160201429Y-79229857D01*
X160237715Y-79157286D01*
X160274000Y-79121000D01*
X160346572Y-79084714D01*
X160491715Y-79084714D01*
X160564286Y-79121000D01*
X161362571Y-78830714D02*
X161616571Y-79592714D01*
X161870571Y-78830714D01*
X162124572Y-79592714D02*
X162124572Y-78830714D01*
X162378572Y-79375000D01*
X162632572Y-78830714D01*
X162632572Y-79592714D01*
X158060571Y-101944714D02*
X158205714Y-101944714D01*
X158278286Y-101981000D01*
X158350857Y-102053571D01*
X158387143Y-102198714D01*
X158387143Y-102452714D01*
X158350857Y-102597857D01*
X158278286Y-102670429D01*
X158205714Y-102706714D01*
X158060571Y-102706714D01*
X157988000Y-102670429D01*
X157915429Y-102597857D01*
X157879143Y-102452714D01*
X157879143Y-102198714D01*
X157915429Y-102053571D01*
X157988000Y-101981000D01*
X158060571Y-101944714D01*
X159112857Y-102706714D02*
X158677429Y-102706714D01*
X158895143Y-102706714D02*
X158895143Y-101944714D01*
X158822572Y-102053571D01*
X158750000Y-102126143D01*
X158677429Y-102162429D01*
X161326284Y-101944714D02*
X161471427Y-101944714D01*
X161543999Y-101981000D01*
X161616570Y-102053571D01*
X161652856Y-102198714D01*
X161652856Y-102452714D01*
X161616570Y-102597857D01*
X161543999Y-102670429D01*
X161471427Y-102706714D01*
X161326284Y-102706714D01*
X161253713Y-102670429D01*
X161181142Y-102597857D01*
X161144856Y-102452714D01*
X161144856Y-102198714D01*
X161181142Y-102053571D01*
X161253713Y-101981000D01*
X161326284Y-101944714D01*
X161943142Y-102017286D02*
X161979428Y-101981000D01*
X162051999Y-101944714D01*
X162233428Y-101944714D01*
X162305999Y-101981000D01*
X162342285Y-102017286D01*
X162378570Y-102089857D01*
X162378570Y-102162429D01*
X162342285Y-102271286D01*
X161906856Y-102706714D01*
X162378570Y-102706714D01*
X147374429Y-93072857D02*
X147410714Y-92964000D01*
X147410714Y-92782571D01*
X147374429Y-92710000D01*
X147338143Y-92673714D01*
X147265571Y-92637429D01*
X147193000Y-92637429D01*
X147120429Y-92673714D01*
X147084143Y-92710000D01*
X147047857Y-92782571D01*
X147011571Y-92927714D01*
X146975286Y-93000286D01*
X146939000Y-93036571D01*
X146866429Y-93072857D01*
X146793857Y-93072857D01*
X146721286Y-93036571D01*
X146685000Y-93000286D01*
X146648714Y-92927714D01*
X146648714Y-92746286D01*
X146685000Y-92637429D01*
X146648714Y-92419715D02*
X146648714Y-91984286D01*
X147410714Y-92202000D02*
X146648714Y-92202000D01*
X147011571Y-91476286D02*
X147047857Y-91367429D01*
X147084143Y-91331144D01*
X147156714Y-91294858D01*
X147265571Y-91294858D01*
X147338143Y-91331144D01*
X147374429Y-91367429D01*
X147410714Y-91440001D01*
X147410714Y-91730286D01*
X146648714Y-91730286D01*
X146648714Y-91476286D01*
X146685000Y-91403715D01*
X146721286Y-91367429D01*
X146793857Y-91331144D01*
X146866429Y-91331144D01*
X146939000Y-91367429D01*
X146975286Y-91403715D01*
X147011571Y-91476286D01*
X147011571Y-91730286D01*
X147047857Y-90823144D02*
X147410714Y-90823144D01*
X146648714Y-91077144D02*
X147047857Y-90823144D01*
X146648714Y-90569144D01*
X147410714Y-85162571D02*
X146648714Y-85162571D01*
X146648714Y-84872286D01*
X146685000Y-84799714D01*
X146721286Y-84763429D01*
X146793857Y-84727143D01*
X146902714Y-84727143D01*
X146975286Y-84763429D01*
X147011571Y-84799714D01*
X147047857Y-84872286D01*
X147047857Y-85162571D01*
X146648714Y-84473143D02*
X147410714Y-84291714D01*
X146866429Y-84146571D01*
X147410714Y-84001429D01*
X146648714Y-83820000D01*
X147410714Y-83529714D02*
X146648714Y-83529714D01*
X147193000Y-83275714D01*
X146648714Y-83021714D01*
X147410714Y-83021714D01*
D12*
X160282000Y-87718000D02*
X161282000Y-87718000D01*
X161282000Y-86018000D02*
X160282000Y-86018000D01*
X166354000Y-85589000D02*
X164354000Y-85589000D01*
X164354000Y-87639000D02*
X166354000Y-87639000D01*
X155790000Y-93210000D02*
X155790000Y-92210000D01*
X154090000Y-92210000D02*
X154090000Y-93210000D01*
X166379000Y-94218000D02*
X166379000Y-92218000D01*
X164329000Y-92218000D02*
X164329000Y-94218000D01*
X143510000Y-85725000D02*
X143510000Y-93345000D01*
X146050000Y-85725000D02*
X146050000Y-93345000D01*
X146330000Y-82905000D02*
X146330000Y-84455000D01*
X143510000Y-93345000D02*
X146050000Y-93345000D01*
X146050000Y-85725000D02*
X143510000Y-85725000D01*
X143230000Y-84455000D02*
X143230000Y-82905000D01*
X143230000Y-82905000D02*
X146330000Y-82905000D01*
X160274000Y-100330000D02*
X162814000Y-100330000D01*
X157454000Y-100050000D02*
X159004000Y-100050000D01*
X160274000Y-100330000D02*
X160274000Y-102870000D01*
X159004000Y-103150000D02*
X157454000Y-103150000D01*
X157454000Y-103150000D02*
X157454000Y-100050000D01*
X160274000Y-102870000D02*
X162814000Y-102870000D01*
X162814000Y-102870000D02*
X162814000Y-100330000D01*
X161798000Y-96012000D02*
X161798000Y-88392000D01*
X158242000Y-88392000D02*
X158242000Y-96012000D01*
X161798000Y-96012000D02*
X158242000Y-96012000D01*
X158242000Y-88392000D02*
X161798000Y-88392000D01*
X159109210Y-88900000D02*
G75*
G03X159109210Y-88900000I-359210J0D01*
G01*
X160655000Y-88392000D02*
X160655000Y-89154000D01*
X160655000Y-89154000D02*
X159385000Y-89154000D01*
X159385000Y-89154000D02*
X159385000Y-88392000D01*
X160135000Y-83642000D02*
X160135000Y-80942000D01*
X158635000Y-83642000D02*
X158635000Y-80942000D01*
X159535000Y-82142000D02*
X159285000Y-82142000D01*
X159285000Y-82142000D02*
X159435000Y-82292000D01*
X159035000Y-82392000D02*
X159735000Y-82392000D01*
X159385000Y-82042000D02*
X159385000Y-81692000D01*
X159385000Y-82392000D02*
X159035000Y-82042000D01*
X159035000Y-82042000D02*
X159735000Y-82042000D01*
X159735000Y-82042000D02*
X159385000Y-82392000D01*
X163564000Y-83642000D02*
X163564000Y-80942000D01*
X162064000Y-83642000D02*
X162064000Y-80942000D01*
X162964000Y-82142000D02*
X162714000Y-82142000D01*
X162714000Y-82142000D02*
X162864000Y-82292000D01*
X162464000Y-82392000D02*
X163164000Y-82392000D01*
X162814000Y-82042000D02*
X162814000Y-81692000D01*
X162814000Y-82392000D02*
X162464000Y-82042000D01*
X162464000Y-82042000D02*
X163164000Y-82042000D01*
X163164000Y-82042000D02*
X162814000Y-82392000D01*
X151841000Y-91325000D02*
X149141000Y-91325000D01*
X151841000Y-92825000D02*
X149141000Y-92825000D01*
X150341000Y-91925000D02*
X150341000Y-92175000D01*
X150341000Y-92175000D02*
X150491000Y-92025000D01*
X150591000Y-92425000D02*
X150591000Y-91725000D01*
X150241000Y-92075000D02*
X149891000Y-92075000D01*
X150591000Y-92075000D02*
X150241000Y-92425000D01*
X150241000Y-92425000D02*
X150241000Y-91725000D01*
X150241000Y-91725000D02*
X150591000Y-92075000D01*
X151841000Y-88785000D02*
X149141000Y-88785000D01*
X151841000Y-90285000D02*
X149141000Y-90285000D01*
X150341000Y-89385000D02*
X150341000Y-89635000D01*
X150341000Y-89635000D02*
X150491000Y-89485000D01*
X150591000Y-89885000D02*
X150591000Y-89185000D01*
X150241000Y-89535000D02*
X149891000Y-89535000D01*
X150591000Y-89535000D02*
X150241000Y-89885000D01*
X150241000Y-89885000D02*
X150241000Y-89185000D01*
X150241000Y-89185000D02*
X150591000Y-89535000D01*
X151841000Y-86245000D02*
X149141000Y-86245000D01*
X151841000Y-87745000D02*
X149141000Y-87745000D01*
X150341000Y-86845000D02*
X150341000Y-87095000D01*
X150341000Y-87095000D02*
X150491000Y-86945000D01*
X150591000Y-87345000D02*
X150591000Y-86645000D01*
X150241000Y-86995000D02*
X149891000Y-86995000D01*
X150591000Y-86995000D02*
X150241000Y-87345000D01*
X150241000Y-87345000D02*
X150241000Y-86645000D01*
X150241000Y-86645000D02*
X150591000Y-86995000D01*
X160655000Y-75565000D02*
X155575000Y-75565000D01*
X155575000Y-75565000D02*
X155575000Y-78105000D01*
X155575000Y-78105000D02*
X160655000Y-78105000D01*
X163475000Y-78385000D02*
X161925000Y-78385000D01*
X160655000Y-78105000D02*
X160655000Y-75565000D01*
X161925000Y-75285000D02*
X163475000Y-75285000D01*
X163475000Y-75285000D02*
X163475000Y-78385000D01*
X167986000Y-90156000D02*
X166786000Y-90156000D01*
X166786000Y-88406000D02*
X167986000Y-88406000D01*
D11*
X158115000Y-87267143D02*
X158078714Y-87303429D01*
X157969857Y-87339714D01*
X157897286Y-87339714D01*
X157788429Y-87303429D01*
X157715857Y-87230857D01*
X157679572Y-87158286D01*
X157643286Y-87013143D01*
X157643286Y-86904286D01*
X157679572Y-86759143D01*
X157715857Y-86686571D01*
X157788429Y-86614000D01*
X157897286Y-86577714D01*
X157969857Y-86577714D01*
X158078714Y-86614000D01*
X158115000Y-86650286D01*
X158840714Y-87339714D02*
X158405286Y-87339714D01*
X158623000Y-87339714D02*
X158623000Y-86577714D01*
X158550429Y-86686571D01*
X158477857Y-86759143D01*
X158405286Y-86795429D01*
X165227000Y-88664143D02*
X165190714Y-88700429D01*
X165081857Y-88736714D01*
X165009286Y-88736714D01*
X164900429Y-88700429D01*
X164827857Y-88627857D01*
X164791572Y-88555286D01*
X164755286Y-88410143D01*
X164755286Y-88301286D01*
X164791572Y-88156143D01*
X164827857Y-88083571D01*
X164900429Y-88011000D01*
X165009286Y-87974714D01*
X165081857Y-87974714D01*
X165190714Y-88011000D01*
X165227000Y-88047286D01*
X165517286Y-88047286D02*
X165553572Y-88011000D01*
X165626143Y-87974714D01*
X165807572Y-87974714D01*
X165880143Y-88011000D01*
X165916429Y-88047286D01*
X165952714Y-88119857D01*
X165952714Y-88192429D01*
X165916429Y-88301286D01*
X165481000Y-88736714D01*
X165952714Y-88736714D01*
X155466143Y-95631000D02*
X155502429Y-95667286D01*
X155538714Y-95776143D01*
X155538714Y-95848714D01*
X155502429Y-95957571D01*
X155429857Y-96030143D01*
X155357286Y-96066428D01*
X155212143Y-96102714D01*
X155103286Y-96102714D01*
X154958143Y-96066428D01*
X154885571Y-96030143D01*
X154813000Y-95957571D01*
X154776714Y-95848714D01*
X154776714Y-95776143D01*
X154813000Y-95667286D01*
X154849286Y-95631000D01*
X154776714Y-95377000D02*
X154776714Y-94905286D01*
X155067000Y-95159286D01*
X155067000Y-95050428D01*
X155103286Y-94977857D01*
X155139571Y-94941571D01*
X155212143Y-94905286D01*
X155393571Y-94905286D01*
X155466143Y-94941571D01*
X155502429Y-94977857D01*
X155538714Y-95050428D01*
X155538714Y-95268143D01*
X155502429Y-95340714D01*
X155466143Y-95377000D01*
X167404143Y-93218000D02*
X167440429Y-93254286D01*
X167476714Y-93363143D01*
X167476714Y-93435714D01*
X167440429Y-93544571D01*
X167367857Y-93617143D01*
X167295286Y-93653428D01*
X167150143Y-93689714D01*
X167041286Y-93689714D01*
X166896143Y-93653428D01*
X166823571Y-93617143D01*
X166751000Y-93544571D01*
X166714714Y-93435714D01*
X166714714Y-93363143D01*
X166751000Y-93254286D01*
X166787286Y-93218000D01*
X166968714Y-92564857D02*
X167476714Y-92564857D01*
X166678429Y-92746286D02*
X167222714Y-92927714D01*
X167222714Y-92456000D01*
X145124714Y-95304428D02*
X144362714Y-95304428D01*
X144362714Y-95014143D01*
X144399000Y-94941571D01*
X144435286Y-94905286D01*
X144507857Y-94869000D01*
X144616714Y-94869000D01*
X144689286Y-94905286D01*
X144725571Y-94941571D01*
X144761857Y-95014143D01*
X144761857Y-95304428D01*
X144435286Y-94578714D02*
X144399000Y-94542428D01*
X144362714Y-94469857D01*
X144362714Y-94288428D01*
X144399000Y-94215857D01*
X144435286Y-94179571D01*
X144507857Y-94143286D01*
X144580429Y-94143286D01*
X144689286Y-94179571D01*
X145124714Y-94615000D01*
X145124714Y-94143286D01*
X155901572Y-101944714D02*
X155901572Y-101182714D01*
X156191857Y-101182714D01*
X156264429Y-101219000D01*
X156300714Y-101255286D01*
X156337000Y-101327857D01*
X156337000Y-101436714D01*
X156300714Y-101509286D01*
X156264429Y-101545571D01*
X156191857Y-101581857D01*
X155901572Y-101581857D01*
X156591000Y-101182714D02*
X157062714Y-101182714D01*
X156808714Y-101473000D01*
X156917572Y-101473000D01*
X156990143Y-101509286D01*
X157026429Y-101545571D01*
X157062714Y-101618143D01*
X157062714Y-101799571D01*
X157026429Y-101872143D01*
X156990143Y-101908429D01*
X156917572Y-101944714D01*
X156699857Y-101944714D01*
X156627286Y-101908429D01*
X156591000Y-101872143D01*
X156772429Y-87847714D02*
X156772429Y-88464571D01*
X156808714Y-88537143D01*
X156845000Y-88573429D01*
X156917571Y-88609714D01*
X157062714Y-88609714D01*
X157135286Y-88573429D01*
X157171571Y-88537143D01*
X157207857Y-88464571D01*
X157207857Y-87847714D01*
X157969857Y-88609714D02*
X157534429Y-88609714D01*
X157752143Y-88609714D02*
X157752143Y-87847714D01*
X157679572Y-87956571D01*
X157607000Y-88029143D01*
X157534429Y-88065429D01*
X157979714Y-82604428D02*
X157217714Y-82604428D01*
X157217714Y-82423000D01*
X157254000Y-82314143D01*
X157326571Y-82241571D01*
X157399143Y-82205286D01*
X157544286Y-82169000D01*
X157653143Y-82169000D01*
X157798286Y-82205286D01*
X157870857Y-82241571D01*
X157943429Y-82314143D01*
X157979714Y-82423000D01*
X157979714Y-82604428D01*
X157979714Y-81443286D02*
X157979714Y-81878714D01*
X157979714Y-81661000D02*
X157217714Y-81661000D01*
X157326571Y-81733571D01*
X157399143Y-81806143D01*
X157435429Y-81878714D01*
X161408714Y-82604428D02*
X160646714Y-82604428D01*
X160646714Y-82423000D01*
X160683000Y-82314143D01*
X160755571Y-82241571D01*
X160828143Y-82205286D01*
X160973286Y-82169000D01*
X161082143Y-82169000D01*
X161227286Y-82205286D01*
X161299857Y-82241571D01*
X161372429Y-82314143D01*
X161408714Y-82423000D01*
X161408714Y-82604428D01*
X160719286Y-81878714D02*
X160683000Y-81842428D01*
X160646714Y-81769857D01*
X160646714Y-81588428D01*
X160683000Y-81515857D01*
X160719286Y-81479571D01*
X160791857Y-81443286D01*
X160864429Y-81443286D01*
X160973286Y-81479571D01*
X161408714Y-81915000D01*
X161408714Y-81443286D01*
X147410714Y-90169999D02*
X146648714Y-90169999D01*
X147410714Y-89807142D02*
X146648714Y-89807142D01*
X147410714Y-89371714D01*
X146648714Y-89371714D01*
X147410714Y-88609714D02*
X147410714Y-89045142D01*
X147410714Y-88827428D02*
X146648714Y-88827428D01*
X146757571Y-88899999D01*
X146830143Y-88972571D01*
X146866429Y-89045142D01*
X147410714Y-87629999D02*
X146648714Y-87629999D01*
X147410714Y-87267142D02*
X146648714Y-87267142D01*
X147410714Y-86831714D01*
X146648714Y-86831714D01*
X146721286Y-86505142D02*
X146685000Y-86468856D01*
X146648714Y-86396285D01*
X146648714Y-86214856D01*
X146685000Y-86142285D01*
X146721286Y-86105999D01*
X146793857Y-86069714D01*
X146866429Y-86069714D01*
X146975286Y-86105999D01*
X147410714Y-86541428D01*
X147410714Y-86069714D01*
X164029572Y-77052714D02*
X164029572Y-76290714D01*
X164319857Y-76290714D01*
X164392429Y-76327000D01*
X164428714Y-76363286D01*
X164465000Y-76435857D01*
X164465000Y-76544714D01*
X164428714Y-76617286D01*
X164392429Y-76653571D01*
X164319857Y-76689857D01*
X164029572Y-76689857D01*
X165190714Y-77052714D02*
X164755286Y-77052714D01*
X164973000Y-77052714D02*
X164973000Y-76290714D01*
X164900429Y-76399571D01*
X164827857Y-76472143D01*
X164755286Y-76508429D01*
X167259000Y-87525714D02*
X167005000Y-87162857D01*
X166823572Y-87525714D02*
X166823572Y-86763714D01*
X167113857Y-86763714D01*
X167186429Y-86800000D01*
X167222714Y-86836286D01*
X167259000Y-86908857D01*
X167259000Y-87017714D01*
X167222714Y-87090286D01*
X167186429Y-87126571D01*
X167113857Y-87162857D01*
X166823572Y-87162857D01*
X167912143Y-86763714D02*
X167767000Y-86763714D01*
X167694429Y-86800000D01*
X167658143Y-86836286D01*
X167585572Y-86945143D01*
X167549286Y-87090286D01*
X167549286Y-87380571D01*
X167585572Y-87453143D01*
X167621857Y-87489429D01*
X167694429Y-87525714D01*
X167839572Y-87525714D01*
X167912143Y-87489429D01*
X167948429Y-87453143D01*
X167984714Y-87380571D01*
X167984714Y-87199143D01*
X167948429Y-87126571D01*
X167912143Y-87090286D01*
X167839572Y-87054000D01*
X167694429Y-87054000D01*
X167621857Y-87090286D01*
X167585572Y-87126571D01*
X167549286Y-87199143D01*
%LPC*%
D13*
X169926000Y-87376000D03*
X169926000Y-86106000D03*
X169926000Y-84836000D03*
X169926000Y-83566000D03*
X168656000Y-82296000D03*
X169926000Y-82296000D03*
X171196000Y-82296000D03*
X171196000Y-83566000D03*
X171196000Y-84836000D03*
X171196000Y-86106000D03*
X171196000Y-87376000D03*
X171196000Y-88646000D03*
X171196000Y-89916000D03*
X156718000Y-87122000D03*
X154686000Y-86360000D03*
X158877000Y-90297000D03*
X151638000Y-84328000D03*
X149098000Y-85598000D03*
X150368000Y-84328000D03*
X154686000Y-88900000D03*
X155194000Y-94996000D03*
X153924000Y-94996000D03*
X152654000Y-94996000D03*
X151384000Y-94996000D03*
X150114000Y-94996000D03*
X148844000Y-94996000D03*
X147574000Y-94996000D03*
X146304000Y-94996000D03*
X145034000Y-94996000D03*
X156718000Y-101346000D03*
X156718000Y-102616000D03*
X156718000Y-100076000D03*
X156718000Y-94996000D03*
X155194000Y-102616000D03*
X153924000Y-102616000D03*
X152654000Y-102616000D03*
X151384000Y-102616000D03*
X150114000Y-102616000D03*
X148844000Y-102616000D03*
X156718000Y-98806000D03*
X156718000Y-97536000D03*
X156718000Y-96266000D03*
X155194000Y-101346000D03*
X153924000Y-101346000D03*
X152654000Y-101346000D03*
X151384000Y-101346000D03*
X150114000Y-101346000D03*
X155194000Y-100076000D03*
X153924000Y-100076000D03*
X152654000Y-100076000D03*
X151384000Y-100076000D03*
X150114000Y-100076000D03*
X155194000Y-98806000D03*
X153924000Y-98806000D03*
X152654000Y-98806000D03*
X151384000Y-98806000D03*
X150114000Y-98806000D03*
X148844000Y-98806000D03*
X143764000Y-98806000D03*
X155194000Y-97536000D03*
X153924000Y-97536000D03*
X152654000Y-97536000D03*
X151384000Y-97536000D03*
X150114000Y-97536000D03*
X148844000Y-97536000D03*
X147574000Y-97536000D03*
X146304000Y-97536000D03*
X145034000Y-97536000D03*
X143764000Y-97536000D03*
X155194000Y-96266000D03*
X153924000Y-96266000D03*
X152654000Y-96266000D03*
X151384000Y-96266000D03*
X150114000Y-96266000D03*
X148844000Y-96266000D03*
X147574000Y-96266000D03*
X146304000Y-96266000D03*
X145034000Y-96266000D03*
X143764000Y-96266000D03*
X143764000Y-94996000D03*
X166116000Y-102616000D03*
X164846000Y-102616000D03*
X163576000Y-102616000D03*
X166116000Y-101346000D03*
X164846000Y-101346000D03*
X163576000Y-101346000D03*
X166116000Y-100076000D03*
X164846000Y-100076000D03*
X163576000Y-100076000D03*
X166116000Y-98806000D03*
X164846000Y-98806000D03*
X163576000Y-98806000D03*
X162306000Y-98806000D03*
X166116000Y-97536000D03*
X164846000Y-97536000D03*
X163576000Y-97536000D03*
X162306000Y-97536000D03*
X166116000Y-96266000D03*
X164846000Y-96266000D03*
X163576000Y-96266000D03*
X162306000Y-96266000D03*
X171196000Y-97536000D03*
X169926000Y-97536000D03*
X168656000Y-97536000D03*
X167386000Y-97536000D03*
X171196000Y-96266000D03*
X169926000Y-96266000D03*
X168656000Y-96266000D03*
X167386000Y-96266000D03*
X171196000Y-94996000D03*
X169926000Y-94996000D03*
X168656000Y-94996000D03*
X167386000Y-94996000D03*
X171196000Y-93726000D03*
X169926000Y-93726000D03*
X168656000Y-93726000D03*
X167386000Y-93726000D03*
X171196000Y-92456000D03*
X169926000Y-92456000D03*
X168656000Y-92456000D03*
X171196000Y-91186000D03*
X169926000Y-91186000D03*
X155448000Y-79756000D03*
X155448000Y-81026000D03*
X155448000Y-82296000D03*
X155448000Y-83566000D03*
X149098000Y-84328000D03*
X154178000Y-82296000D03*
X152908000Y-82296000D03*
X151638000Y-82296000D03*
X150368000Y-82296000D03*
X149098000Y-82296000D03*
X154178000Y-81026000D03*
X152908000Y-81026000D03*
X151638000Y-81026000D03*
X150368000Y-81026000D03*
X149098000Y-81026000D03*
X154178000Y-79756000D03*
X152908000Y-79756000D03*
X151638000Y-79756000D03*
X150368000Y-79756000D03*
X149098000Y-79756000D03*
X154178000Y-78486000D03*
X152908000Y-78486000D03*
X151638000Y-78486000D03*
X150368000Y-78486000D03*
X149098000Y-78486000D03*
X154178000Y-77216000D03*
X152908000Y-77216000D03*
X151638000Y-77216000D03*
X150368000Y-77216000D03*
X149098000Y-77216000D03*
X154178000Y-75946000D03*
X152908000Y-75946000D03*
X151638000Y-75946000D03*
X150368000Y-75946000D03*
D14*
X161782000Y-86868000D03*
X159782000Y-86868000D03*
D15*
X163854000Y-86614000D03*
X166854000Y-86614000D03*
D16*
X154940000Y-91710000D03*
X154940000Y-93710000D03*
D17*
X165354000Y-91718000D03*
X165354000Y-94718000D03*
D18*
X144780000Y-84455000D03*
D19*
X144780000Y-86995000D03*
X144780000Y-89535000D03*
X144780000Y-92075000D03*
D20*
X159004000Y-101600000D03*
D21*
X161544000Y-101600000D03*
D22*
X157353000Y-89281000D03*
X157353000Y-89916000D03*
X157353000Y-90576400D03*
X157353000Y-91236800D03*
X157353000Y-91871800D03*
X157353000Y-92532200D03*
X157353000Y-93192600D03*
X157353000Y-93827600D03*
X157353000Y-94488000D03*
X157353000Y-95123000D03*
X162687000Y-95123000D03*
X162687000Y-94488000D03*
X162687000Y-93827600D03*
X162687000Y-93192600D03*
X162687000Y-92532200D03*
X162687000Y-91871800D03*
X162687000Y-91236800D03*
X162687000Y-90576400D03*
X162687000Y-89916000D03*
X162687000Y-89281000D03*
D23*
X159385000Y-80992980D03*
X159385000Y-83091020D03*
X162814000Y-80992980D03*
X162814000Y-83091020D03*
X149191980Y-92075000D03*
X151290020Y-92075000D03*
X149191980Y-89535000D03*
X151290020Y-89535000D03*
X149191980Y-86995000D03*
X151290020Y-86995000D03*
D24*
X161925000Y-76835000D03*
D25*
X159385000Y-76835000D03*
X156845000Y-76835000D03*
D26*
X166036000Y-89281000D03*
X168736000Y-89281000D03*
D13*
X149098000Y-75946000D03*
M02*
