G04 #@! TF.FileFunction,Legend,Bot*
%FSLAX46Y46*%
G04 Gerber Fmt 4.6, Leading zero omitted, Abs format (unit mm)*
G04 Created by KiCad (PCBNEW 0.201508140901+6091~28~ubuntu14.04.1-product) date Mon 05 Oct 2015 11:49:52 PM CEST*
%MOMM*%
G01*
G04 APERTURE LIST*
%ADD10C,0.100000*%
%ADD11C,0.150000*%
%ADD12C,0.127000*%
%ADD13C,0.685800*%
%ADD14R,2.032000X1.727200*%
%ADD15O,2.032000X1.727200*%
%ADD16R,2.032000X2.032000*%
%ADD17O,2.032000X2.032000*%
%ADD18R,1.727200X2.032000*%
%ADD19O,1.727200X2.032000*%
%ADD20R,1.300000X1.500000*%
%ADD21R,1.500000X1.300000*%
G04 APERTURE END LIST*
D10*
D11*
X158510000Y-82077000D02*
X158510000Y-83277000D01*
X160260000Y-83277000D02*
X160260000Y-82077000D01*
X161939000Y-82077000D02*
X161939000Y-83277000D01*
X163689000Y-83277000D02*
X163689000Y-82077000D01*
X150276000Y-90410000D02*
X151476000Y-90410000D01*
X151476000Y-88660000D02*
X150276000Y-88660000D01*
X150276000Y-87870000D02*
X151476000Y-87870000D01*
X151476000Y-86120000D02*
X150276000Y-86120000D01*
X150276000Y-92950000D02*
X151476000Y-92950000D01*
X151476000Y-91200000D02*
X150276000Y-91200000D01*
D12*
X161380714Y-82677000D02*
X161017857Y-82423000D01*
X161380714Y-82241572D02*
X160618714Y-82241572D01*
X160618714Y-82531857D01*
X160655000Y-82604429D01*
X160691286Y-82640714D01*
X160763857Y-82677000D01*
X160872714Y-82677000D01*
X160945286Y-82640714D01*
X160981571Y-82604429D01*
X161017857Y-82531857D01*
X161017857Y-82241572D01*
X161380714Y-83402714D02*
X161380714Y-82967286D01*
X161380714Y-83185000D02*
X160618714Y-83185000D01*
X160727571Y-83112429D01*
X160800143Y-83039857D01*
X160836429Y-82967286D01*
X165258714Y-82550000D02*
X164895857Y-82296000D01*
X165258714Y-82114572D02*
X164496714Y-82114572D01*
X164496714Y-82404857D01*
X164533000Y-82477429D01*
X164569286Y-82513714D01*
X164641857Y-82550000D01*
X164750714Y-82550000D01*
X164823286Y-82513714D01*
X164859571Y-82477429D01*
X164895857Y-82404857D01*
X164895857Y-82114572D01*
X164569286Y-82840286D02*
X164533000Y-82876572D01*
X164496714Y-82949143D01*
X164496714Y-83130572D01*
X164533000Y-83203143D01*
X164569286Y-83239429D01*
X164641857Y-83275714D01*
X164714429Y-83275714D01*
X164823286Y-83239429D01*
X165258714Y-82804000D01*
X165258714Y-83275714D01*
X147701000Y-90006714D02*
X147955000Y-89643857D01*
X148136428Y-90006714D02*
X148136428Y-89244714D01*
X147846143Y-89244714D01*
X147773571Y-89281000D01*
X147737286Y-89317286D01*
X147701000Y-89389857D01*
X147701000Y-89498714D01*
X147737286Y-89571286D01*
X147773571Y-89607571D01*
X147846143Y-89643857D01*
X148136428Y-89643857D01*
X147447000Y-89244714D02*
X146975286Y-89244714D01*
X147229286Y-89535000D01*
X147120428Y-89535000D01*
X147047857Y-89571286D01*
X147011571Y-89607571D01*
X146975286Y-89680143D01*
X146975286Y-89861571D01*
X147011571Y-89934143D01*
X147047857Y-89970429D01*
X147120428Y-90006714D01*
X147338143Y-90006714D01*
X147410714Y-89970429D01*
X147447000Y-89934143D01*
X151003000Y-85942714D02*
X151257000Y-85579857D01*
X151438428Y-85942714D02*
X151438428Y-85180714D01*
X151148143Y-85180714D01*
X151075571Y-85217000D01*
X151039286Y-85253286D01*
X151003000Y-85325857D01*
X151003000Y-85434714D01*
X151039286Y-85507286D01*
X151075571Y-85543571D01*
X151148143Y-85579857D01*
X151438428Y-85579857D01*
X150349857Y-85434714D02*
X150349857Y-85942714D01*
X150531286Y-85144429D02*
X150712714Y-85688714D01*
X150241000Y-85688714D01*
X150495000Y-94070714D02*
X150749000Y-93707857D01*
X150930428Y-94070714D02*
X150930428Y-93308714D01*
X150640143Y-93308714D01*
X150567571Y-93345000D01*
X150531286Y-93381286D01*
X150495000Y-93453857D01*
X150495000Y-93562714D01*
X150531286Y-93635286D01*
X150567571Y-93671571D01*
X150640143Y-93707857D01*
X150930428Y-93707857D01*
X149805571Y-93308714D02*
X150168428Y-93308714D01*
X150204714Y-93671571D01*
X150168428Y-93635286D01*
X150095857Y-93599000D01*
X149914428Y-93599000D01*
X149841857Y-93635286D01*
X149805571Y-93671571D01*
X149769286Y-93744143D01*
X149769286Y-93925571D01*
X149805571Y-93998143D01*
X149841857Y-94034429D01*
X149914428Y-94070714D01*
X150095857Y-94070714D01*
X150168428Y-94034429D01*
X150204714Y-93998143D01*
%LPC*%
D13*
X169926000Y-87376000D03*
X169926000Y-86106000D03*
X169926000Y-84836000D03*
X169926000Y-83566000D03*
X168656000Y-82296000D03*
X169926000Y-82296000D03*
X171196000Y-82296000D03*
X171196000Y-83566000D03*
X171196000Y-84836000D03*
X171196000Y-86106000D03*
X171196000Y-87376000D03*
X171196000Y-88646000D03*
X171196000Y-89916000D03*
X156718000Y-87122000D03*
X154686000Y-86360000D03*
X158877000Y-90297000D03*
X151638000Y-84328000D03*
X149098000Y-85598000D03*
X150368000Y-84328000D03*
X154686000Y-88900000D03*
X155194000Y-94996000D03*
X153924000Y-94996000D03*
X152654000Y-94996000D03*
X151384000Y-94996000D03*
X150114000Y-94996000D03*
X148844000Y-94996000D03*
X147574000Y-94996000D03*
X146304000Y-94996000D03*
X145034000Y-94996000D03*
X156718000Y-101346000D03*
X156718000Y-102616000D03*
X156718000Y-100076000D03*
X156718000Y-94996000D03*
X155194000Y-102616000D03*
X153924000Y-102616000D03*
X152654000Y-102616000D03*
X151384000Y-102616000D03*
X150114000Y-102616000D03*
X148844000Y-102616000D03*
X156718000Y-98806000D03*
X156718000Y-97536000D03*
X156718000Y-96266000D03*
X155194000Y-101346000D03*
X153924000Y-101346000D03*
X152654000Y-101346000D03*
X151384000Y-101346000D03*
X150114000Y-101346000D03*
X155194000Y-100076000D03*
X153924000Y-100076000D03*
X152654000Y-100076000D03*
X151384000Y-100076000D03*
X150114000Y-100076000D03*
X155194000Y-98806000D03*
X153924000Y-98806000D03*
X152654000Y-98806000D03*
X151384000Y-98806000D03*
X150114000Y-98806000D03*
X148844000Y-98806000D03*
X143764000Y-98806000D03*
X155194000Y-97536000D03*
X153924000Y-97536000D03*
X152654000Y-97536000D03*
X151384000Y-97536000D03*
X150114000Y-97536000D03*
X148844000Y-97536000D03*
X147574000Y-97536000D03*
X146304000Y-97536000D03*
X145034000Y-97536000D03*
X143764000Y-97536000D03*
X155194000Y-96266000D03*
X153924000Y-96266000D03*
X152654000Y-96266000D03*
X151384000Y-96266000D03*
X150114000Y-96266000D03*
X148844000Y-96266000D03*
X147574000Y-96266000D03*
X146304000Y-96266000D03*
X145034000Y-96266000D03*
X143764000Y-96266000D03*
X143764000Y-94996000D03*
X166116000Y-102616000D03*
X164846000Y-102616000D03*
X163576000Y-102616000D03*
X166116000Y-101346000D03*
X164846000Y-101346000D03*
X163576000Y-101346000D03*
X166116000Y-100076000D03*
X164846000Y-100076000D03*
X163576000Y-100076000D03*
X166116000Y-98806000D03*
X164846000Y-98806000D03*
X163576000Y-98806000D03*
X162306000Y-98806000D03*
X166116000Y-97536000D03*
X164846000Y-97536000D03*
X163576000Y-97536000D03*
X162306000Y-97536000D03*
X166116000Y-96266000D03*
X164846000Y-96266000D03*
X163576000Y-96266000D03*
X162306000Y-96266000D03*
X171196000Y-97536000D03*
X169926000Y-97536000D03*
X168656000Y-97536000D03*
X167386000Y-97536000D03*
X171196000Y-96266000D03*
X169926000Y-96266000D03*
X168656000Y-96266000D03*
X167386000Y-96266000D03*
X171196000Y-94996000D03*
X169926000Y-94996000D03*
X168656000Y-94996000D03*
X167386000Y-94996000D03*
X171196000Y-93726000D03*
X169926000Y-93726000D03*
X168656000Y-93726000D03*
X167386000Y-93726000D03*
X171196000Y-92456000D03*
X169926000Y-92456000D03*
X168656000Y-92456000D03*
X171196000Y-91186000D03*
X169926000Y-91186000D03*
X155448000Y-79756000D03*
X155448000Y-81026000D03*
X155448000Y-82296000D03*
X155448000Y-83566000D03*
X149098000Y-84328000D03*
X154178000Y-82296000D03*
X152908000Y-82296000D03*
X151638000Y-82296000D03*
X150368000Y-82296000D03*
X149098000Y-82296000D03*
X154178000Y-81026000D03*
X152908000Y-81026000D03*
X151638000Y-81026000D03*
X150368000Y-81026000D03*
X149098000Y-81026000D03*
X154178000Y-79756000D03*
X152908000Y-79756000D03*
X151638000Y-79756000D03*
X150368000Y-79756000D03*
X149098000Y-79756000D03*
X154178000Y-78486000D03*
X152908000Y-78486000D03*
X151638000Y-78486000D03*
X150368000Y-78486000D03*
X149098000Y-78486000D03*
X154178000Y-77216000D03*
X152908000Y-77216000D03*
X151638000Y-77216000D03*
X150368000Y-77216000D03*
X149098000Y-77216000D03*
X154178000Y-75946000D03*
X152908000Y-75946000D03*
X151638000Y-75946000D03*
X150368000Y-75946000D03*
D14*
X144780000Y-84455000D03*
D15*
X144780000Y-86995000D03*
X144780000Y-89535000D03*
X144780000Y-92075000D03*
D16*
X159004000Y-101600000D03*
D17*
X161544000Y-101600000D03*
D18*
X161925000Y-76835000D03*
D19*
X159385000Y-76835000D03*
X156845000Y-76835000D03*
D20*
X159385000Y-84027000D03*
X159385000Y-81327000D03*
X162814000Y-84027000D03*
X162814000Y-81327000D03*
D21*
X152226000Y-89535000D03*
X149526000Y-89535000D03*
X152226000Y-86995000D03*
X149526000Y-86995000D03*
X152226000Y-92075000D03*
X149526000Y-92075000D03*
D13*
X149098000Y-75946000D03*
M02*
