G04 #@! TF.FileFunction,Soldermask,Top*
%FSLAX46Y46*%
G04 Gerber Fmt 4.6, Leading zero omitted, Abs format (unit mm)*
G04 Created by KiCad (PCBNEW 0.201506222247+5806~23~ubuntu14.04.1-product) date Sun 28 Jun 2015 20:13:25 CEST*
%MOMM*%
G01*
G04 APERTURE LIST*
%ADD10C,0.127000*%
G04 APERTURE END LIST*
D10*
X-1187285Y4752186D02*
X-1187285Y5514186D01*
X-933285Y4969900D01*
X-679285Y5514186D01*
X-679285Y4752186D01*
X-207571Y4752186D02*
X-280143Y4788471D01*
X-316428Y4824757D01*
X-352714Y4897329D01*
X-352714Y5115043D01*
X-316428Y5187614D01*
X-280143Y5223900D01*
X-207571Y5260186D01*
X-98714Y5260186D01*
X-26143Y5223900D01*
X10143Y5187614D01*
X46429Y5115043D01*
X46429Y4897329D01*
X10143Y4824757D01*
X-26143Y4788471D01*
X-98714Y4752186D01*
X-207571Y4752186D01*
X264143Y5260186D02*
X554429Y5260186D01*
X373001Y5514186D02*
X373001Y4861043D01*
X409286Y4788471D01*
X481858Y4752186D01*
X554429Y4752186D01*
X917287Y4752186D02*
X844715Y4788471D01*
X808430Y4824757D01*
X772144Y4897329D01*
X772144Y5115043D01*
X808430Y5187614D01*
X844715Y5223900D01*
X917287Y5260186D01*
X1026144Y5260186D01*
X1098715Y5223900D01*
X1135001Y5187614D01*
X1171287Y5115043D01*
X1171287Y4897329D01*
X1135001Y4824757D01*
X1098715Y4788471D01*
X1026144Y4752186D01*
X917287Y4752186D01*
X1497859Y4752186D02*
X1497859Y5260186D01*
X1497859Y5115043D02*
X1534144Y5187614D01*
X1570430Y5223900D01*
X1643001Y5260186D01*
X1715573Y5260186D01*
X-1586429Y3957529D02*
X-1332429Y3957529D01*
X-1223572Y3558386D02*
X-1586429Y3558386D01*
X-1586429Y4320386D01*
X-1223572Y4320386D01*
X-897000Y4066386D02*
X-897000Y3558386D01*
X-897000Y3993814D02*
X-860715Y4030100D01*
X-788143Y4066386D01*
X-679286Y4066386D01*
X-606715Y4030100D01*
X-570429Y3957529D01*
X-570429Y3558386D01*
X119000Y3594671D02*
X46429Y3558386D01*
X-98714Y3558386D01*
X-171286Y3594671D01*
X-207571Y3630957D01*
X-243857Y3703529D01*
X-243857Y3921243D01*
X-207571Y3993814D01*
X-171286Y4030100D01*
X-98714Y4066386D01*
X46429Y4066386D01*
X119000Y4030100D01*
X554429Y3558386D02*
X481857Y3594671D01*
X445572Y3630957D01*
X409286Y3703529D01*
X409286Y3921243D01*
X445572Y3993814D01*
X481857Y4030100D01*
X554429Y4066386D01*
X663286Y4066386D01*
X735857Y4030100D01*
X772143Y3993814D01*
X808429Y3921243D01*
X808429Y3703529D01*
X772143Y3630957D01*
X735857Y3594671D01*
X663286Y3558386D01*
X554429Y3558386D01*
X1461572Y3558386D02*
X1461572Y4320386D01*
X1461572Y3594671D02*
X1389001Y3558386D01*
X1243858Y3558386D01*
X1171286Y3594671D01*
X1135001Y3630957D01*
X1098715Y3703529D01*
X1098715Y3921243D01*
X1135001Y3993814D01*
X1171286Y4030100D01*
X1243858Y4066386D01*
X1389001Y4066386D01*
X1461572Y4030100D01*
X2114715Y3594671D02*
X2042144Y3558386D01*
X1897001Y3558386D01*
X1824430Y3594671D01*
X1788144Y3667243D01*
X1788144Y3957529D01*
X1824430Y4030100D01*
X1897001Y4066386D01*
X2042144Y4066386D01*
X2114715Y4030100D01*
X2151001Y3957529D01*
X2151001Y3884957D01*
X1788144Y3812386D01*
X2477573Y3558386D02*
X2477573Y4066386D01*
X2477573Y3921243D02*
X2513858Y3993814D01*
X2550144Y4030100D01*
X2622715Y4066386D01*
X2695287Y4066386D01*
M02*
