G04 #@! TF.FileFunction,Legend,Top*
%FSLAX46Y46*%
G04 Gerber Fmt 4.6, Leading zero omitted, Abs format (unit mm)*
G04 Created by KiCad (PCBNEW 0.201506222247+5806~23~ubuntu14.04.1-product) date Sun 28 Jun 2015 20:13:25 CEST*
%MOMM*%
G01*
G04 APERTURE LIST*
%ADD10C,0.127000*%
G04 APERTURE END LIST*
D10*
X-9645143Y-3619000D02*
X-9717714Y-3582714D01*
X-9826571Y-3582714D01*
X-9935428Y-3619000D01*
X-10008000Y-3691571D01*
X-10044285Y-3764143D01*
X-10080571Y-3909286D01*
X-10080571Y-4018143D01*
X-10044285Y-4163286D01*
X-10008000Y-4235857D01*
X-9935428Y-4308429D01*
X-9826571Y-4344714D01*
X-9754000Y-4344714D01*
X-9645143Y-4308429D01*
X-9608857Y-4272143D01*
X-9608857Y-4018143D01*
X-9754000Y-4018143D01*
X-9173428Y-4344714D02*
X-9246000Y-4308429D01*
X-9282285Y-4272143D01*
X-9318571Y-4199571D01*
X-9318571Y-3981857D01*
X-9282285Y-3909286D01*
X-9246000Y-3873000D01*
X-9173428Y-3836714D01*
X-9064571Y-3836714D01*
X-8992000Y-3873000D01*
X-8955714Y-3909286D01*
X-8919428Y-3981857D01*
X-8919428Y-4199571D01*
X-8955714Y-4272143D01*
X-8992000Y-4308429D01*
X-9064571Y-4344714D01*
X-9173428Y-4344714D01*
X3354857Y-9119000D02*
X3282286Y-9082714D01*
X3173429Y-9082714D01*
X3064572Y-9119000D01*
X2992000Y-9191571D01*
X2955715Y-9264143D01*
X2919429Y-9409286D01*
X2919429Y-9518143D01*
X2955715Y-9663286D01*
X2992000Y-9735857D01*
X3064572Y-9808429D01*
X3173429Y-9844714D01*
X3246000Y-9844714D01*
X3354857Y-9808429D01*
X3391143Y-9772143D01*
X3391143Y-9518143D01*
X3246000Y-9518143D01*
X3826572Y-9844714D02*
X3754000Y-9808429D01*
X3717715Y-9772143D01*
X3681429Y-9699571D01*
X3681429Y-9481857D01*
X3717715Y-9409286D01*
X3754000Y-9373000D01*
X3826572Y-9336714D01*
X3935429Y-9336714D01*
X4008000Y-9373000D01*
X4044286Y-9409286D01*
X4080572Y-9481857D01*
X4080572Y-9699571D01*
X4044286Y-9772143D01*
X4008000Y-9808429D01*
X3935429Y-9844714D01*
X3826572Y-9844714D01*
X8854857Y4381000D02*
X8782286Y4417286D01*
X8673429Y4417286D01*
X8564572Y4381000D01*
X8492000Y4308429D01*
X8455715Y4235857D01*
X8419429Y4090714D01*
X8419429Y3981857D01*
X8455715Y3836714D01*
X8492000Y3764143D01*
X8564572Y3691571D01*
X8673429Y3655286D01*
X8746000Y3655286D01*
X8854857Y3691571D01*
X8891143Y3727857D01*
X8891143Y3981857D01*
X8746000Y3981857D01*
X9326572Y3655286D02*
X9254000Y3691571D01*
X9217715Y3727857D01*
X9181429Y3800429D01*
X9181429Y4018143D01*
X9217715Y4090714D01*
X9254000Y4127000D01*
X9326572Y4163286D01*
X9435429Y4163286D01*
X9508000Y4127000D01*
X9544286Y4090714D01*
X9580572Y4018143D01*
X9580572Y3800429D01*
X9544286Y3727857D01*
X9508000Y3691571D01*
X9435429Y3655286D01*
X9326572Y3655286D01*
M02*
