G04 #@! TF.FileFunction,Soldermask,Bot*
%FSLAX46Y46*%
G04 Gerber Fmt 4.6, Leading zero omitted, Abs format (unit mm)*
G04 Created by KiCad (PCBNEW 0.201506222247+5806~23~ubuntu14.04.1-product) date Sun 28 Jun 2015 20:13:25 CEST*
%MOMM*%
G01*
G04 APERTURE LIST*
%ADD10C,0.127000*%
%ADD11C,0.300000*%
G04 APERTURE END LIST*
D10*
D11*
X214285Y-5035714D02*
X285714Y-5107143D01*
X500000Y-5178571D01*
X642857Y-5178571D01*
X857142Y-5107143D01*
X1000000Y-4964286D01*
X1071428Y-4821429D01*
X1142857Y-4535714D01*
X1142857Y-4321429D01*
X1071428Y-4035714D01*
X1000000Y-3892857D01*
X857142Y-3750000D01*
X642857Y-3678571D01*
X500000Y-3678571D01*
X285714Y-3750000D01*
X214285Y-3821429D01*
X-428572Y-4392857D02*
X-928572Y-4392857D01*
X-1142858Y-5178571D02*
X-428572Y-5178571D01*
X-428572Y-3678571D01*
X-1142858Y-3678571D01*
X214285Y-5035714D02*
X285714Y-5107143D01*
X500000Y-5178571D01*
X642857Y-5178571D01*
X857142Y-5107143D01*
X1000000Y-4964286D01*
X1071428Y-4821429D01*
X1142857Y-4535714D01*
X1142857Y-4321429D01*
X1071428Y-4035714D01*
X1000000Y-3892857D01*
X857142Y-3750000D01*
X642857Y-3678571D01*
X500000Y-3678571D01*
X285714Y-3750000D01*
X214285Y-3821429D01*
X-428572Y-4392857D02*
X-928572Y-4392857D01*
X-1142858Y-5178571D02*
X-428572Y-5178571D01*
X-428572Y-3678571D01*
X-1142858Y-3678571D01*
M02*
