G04 #@! TF.FileFunction,Paste,Top*
%FSLAX46Y46*%
G04 Gerber Fmt 4.6, Leading zero omitted, Abs format (unit mm)*
G04 Created by KiCad (PCBNEW 0.201506222247+5806~23~ubuntu14.04.1-product) date Tue 30 Jun 2015 21:50:21 CEST*
%MOMM*%
G01*
G04 APERTURE LIST*
%ADD10C,0.100000*%
%ADD11R,1.250000X1.500000*%
%ADD12R,1.300000X1.500000*%
%ADD13R,1.500000X1.300000*%
%ADD14C,2.999740*%
%ADD15R,1.550000X0.600000*%
%ADD16R,1.000000X1.250000*%
%ADD17R,1.000000X1.600000*%
%ADD18R,1.250000X1.000000*%
%ADD19R,1.600000X1.000000*%
%ADD20R,1.270000X0.406400*%
G04 APERTURE END LIST*
D10*
D11*
X153924000Y-86380000D03*
X153924000Y-88880000D03*
D12*
X154686000Y-98124000D03*
X154686000Y-95424000D03*
D13*
X168990000Y-97790000D03*
X166290000Y-97790000D03*
D12*
X156464000Y-88980000D03*
X156464000Y-86280000D03*
D13*
X168990000Y-92710000D03*
X166290000Y-92710000D03*
X166290000Y-95250000D03*
X168990000Y-95250000D03*
D14*
X162560000Y-100330000D03*
D15*
X162974000Y-96647000D03*
X162974000Y-95377000D03*
X162974000Y-94107000D03*
X162974000Y-92837000D03*
X157574000Y-92837000D03*
X157574000Y-94107000D03*
X157574000Y-95377000D03*
X157574000Y-96647000D03*
D16*
X139557000Y-94234000D03*
X137557000Y-94234000D03*
D17*
X141629000Y-93980000D03*
X144629000Y-93980000D03*
D18*
X132715000Y-99076000D03*
X132715000Y-101076000D03*
D19*
X143129000Y-99084000D03*
X143129000Y-102084000D03*
D20*
X135128000Y-96647000D03*
X135128000Y-97282000D03*
X135128000Y-97942400D03*
X135128000Y-98602800D03*
X135128000Y-99237800D03*
X135128000Y-99898200D03*
X135128000Y-100558600D03*
X135128000Y-101193600D03*
X135128000Y-101854000D03*
X135128000Y-102489000D03*
X140462000Y-102489000D03*
X140462000Y-101854000D03*
X140462000Y-101193600D03*
X140462000Y-100558600D03*
X140462000Y-99898200D03*
X140462000Y-99237800D03*
X140462000Y-98602800D03*
X140462000Y-97942400D03*
X140462000Y-97282000D03*
X140462000Y-96647000D03*
M02*
