M48
;DRILL file {KiCad 0.201506222247+5806~23~ubuntu14.04.1-product} date Tue 30 Jun 2015 21:50:26 CEST
;FORMAT={-:-/ absolute / inch / decimal}
FMAT,2
INCH,TZ
T1C0.013
T2C0.024
T3C0.031
T4C0.040
T5C0.118
%
G90
G05
M72
T1
X5.025Y-3.94
X5.025Y-3.99
X5.025Y-4.04
X5.025Y-4.09
X5.025Y-4.14
X5.025Y-4.19
X5.025Y-4.24
X5.075Y-3.94
X5.075Y-3.99
X5.075Y-4.04
X5.075Y-4.09
X5.075Y-4.14
X5.075Y-4.19
X5.075Y-4.24
X5.125Y-3.54
X5.125Y-3.82
X5.125Y-3.94
X5.125Y-3.99
X5.125Y-4.04
X5.125Y-4.09
X5.125Y-4.14
X5.125Y-4.19
X5.125Y-4.24
X5.155Y-3.75
X5.16Y-3.65
X5.175Y-3.49
X5.175Y-3.54
X5.175Y-3.59
X5.175Y-4.04
X5.175Y-4.09
X5.175Y-4.14
X5.175Y-4.19
X5.175Y-4.24
X5.225Y-3.49
X5.225Y-3.54
X5.225Y-3.59
X5.225Y-3.64
X5.225Y-4.04
X5.225Y-4.09
X5.225Y-4.14
X5.225Y-4.19
X5.225Y-4.24
X5.275Y-3.49
X5.275Y-3.54
X5.275Y-3.59
X5.275Y-3.64
X5.275Y-3.69
X5.275Y-4.04
X5.275Y-4.09
X5.275Y-4.14
X5.275Y-4.19
X5.275Y-4.24
X5.325Y-3.64
X5.325Y-3.69
X5.325Y-4.09
X5.375Y-3.64
X5.425Y-3.64
X5.425Y-3.94
X5.425Y-3.99
X5.425Y-4.04
X5.435Y-3.85
X5.465Y-3.82
X5.575Y-3.49
X5.575Y-3.54
X5.575Y-3.59
X5.575Y-4.09
X5.575Y-4.14
X5.575Y-4.19
X5.575Y-4.24
X5.625Y-3.49
X5.625Y-3.54
X5.625Y-3.59
X5.625Y-3.64
X5.625Y-3.79
X5.625Y-3.84
X5.625Y-4.09
X5.625Y-4.14
X5.625Y-4.19
X5.625Y-4.24
X5.675Y-3.49
X5.675Y-3.54
X5.675Y-3.59
X5.675Y-3.64
X5.675Y-3.79
X5.675Y-3.84
X5.675Y-4.09
X5.675Y-4.14
X5.675Y-4.19
X5.675Y-4.24
X6.17Y-3.86
X6.65Y-3.91
X6.66Y-3.59
T2
X5.755Y-3.59
X5.755Y-4.08
X5.765Y-3.55
X5.765Y-3.63
X5.765Y-4.04
X5.765Y-4.12
X5.825Y-3.55
X5.825Y-3.63
X5.825Y-4.04
X5.825Y-4.12
X5.835Y-3.59
X5.835Y-4.08
T3
X6.3031Y-3.4
X6.3031Y-3.5
X6.3976Y-3.5425
X6.6969Y-3.4
X6.6969Y-3.5
X6.7598Y-3.3476
T4
X5.055Y-3.55
X5.055Y-3.65
X5.055Y-3.75
X5.055Y-3.85
X5.365Y-3.55
X5.385Y-4.19
X5.465Y-3.55
X5.485Y-4.19
X5.94Y-3.4
X5.94Y-3.5
X5.95Y-3.78
X5.95Y-3.88
T5
X6.01Y-3.205
X6.635Y-4.125
T0
M30
