G04 #@! TF.FileFunction,Copper,L1,Top,Signal*
%FSLAX46Y46*%
G04 Gerber Fmt 4.6, Leading zero omitted, Abs format (unit mm)*
G04 Created by KiCad (PCBNEW 0.201506222247+5806~23~ubuntu14.04.1-product) date Tue 30 Jun 2015 21:50:21 CEST*
%MOMM*%
G01*
G04 APERTURE LIST*
%ADD10C,0.100000*%
%ADD11R,1.250000X1.500000*%
%ADD12R,2.032000X2.032000*%
%ADD13O,2.032000X2.032000*%
%ADD14R,1.300000X1.500000*%
%ADD15R,1.500000X1.300000*%
%ADD16C,2.999740*%
%ADD17C,1.400000*%
%ADD18R,1.550000X0.600000*%
%ADD19R,1.000000X1.250000*%
%ADD20R,1.000000X1.600000*%
%ADD21R,1.250000X1.000000*%
%ADD22R,1.600000X1.000000*%
%ADD23R,2.032000X1.727200*%
%ADD24O,2.032000X1.727200*%
%ADD25R,1.270000X0.406400*%
%ADD26C,0.685800*%
%ADD27C,0.609600*%
%ADD28C,0.304800*%
%ADD29C,0.152400*%
G04 APERTURE END LIST*
D10*
D11*
X153924000Y-86380000D03*
X153924000Y-88880000D03*
D12*
X150876000Y-86360000D03*
D13*
X150876000Y-88900000D03*
D12*
X151130000Y-96012000D03*
D13*
X151130000Y-98552000D03*
D14*
X154686000Y-98124000D03*
X154686000Y-95424000D03*
D15*
X168990000Y-97790000D03*
X166290000Y-97790000D03*
D14*
X156464000Y-88980000D03*
X156464000Y-86280000D03*
D15*
X168990000Y-92710000D03*
X166290000Y-92710000D03*
X166290000Y-95250000D03*
X168990000Y-95250000D03*
D16*
X162560000Y-100330000D03*
D17*
X170100000Y-88900000D03*
X170100000Y-86360000D03*
X160100000Y-88900000D03*
X160100000Y-86360000D03*
D18*
X162974000Y-96647000D03*
X162974000Y-95377000D03*
X162974000Y-94107000D03*
X162974000Y-92837000D03*
X157574000Y-92837000D03*
X157574000Y-94107000D03*
X157574000Y-95377000D03*
X157574000Y-96647000D03*
D19*
X139557000Y-94234000D03*
X137557000Y-94234000D03*
D20*
X141629000Y-93980000D03*
X144629000Y-93980000D03*
D21*
X132715000Y-99076000D03*
X132715000Y-101076000D03*
D22*
X143129000Y-99084000D03*
X143129000Y-102084000D03*
D12*
X138811000Y-90170000D03*
D13*
X136271000Y-90170000D03*
D23*
X128397000Y-90170000D03*
D24*
X128397000Y-92710000D03*
X128397000Y-95250000D03*
X128397000Y-97790000D03*
D12*
X136779000Y-106426000D03*
D13*
X139319000Y-106426000D03*
D25*
X135128000Y-96647000D03*
X135128000Y-97282000D03*
X135128000Y-97942400D03*
X135128000Y-98602800D03*
X135128000Y-99237800D03*
X135128000Y-99898200D03*
X135128000Y-100558600D03*
X135128000Y-101193600D03*
X135128000Y-101854000D03*
X135128000Y-102489000D03*
X140462000Y-102489000D03*
X140462000Y-101854000D03*
X140462000Y-101193600D03*
X140462000Y-100558600D03*
X140462000Y-99898200D03*
X140462000Y-99237800D03*
X140462000Y-98602800D03*
X140462000Y-97942400D03*
X140462000Y-97282000D03*
X140462000Y-96647000D03*
D26*
X168910000Y-99314000D03*
X169164000Y-91186000D03*
X156718000Y-98044000D03*
X144145000Y-88646000D03*
X144145000Y-89916000D03*
X144145000Y-91186000D03*
X144145000Y-92456000D03*
X142875000Y-92456000D03*
X142875000Y-91186000D03*
X142875000Y-89916000D03*
X142875000Y-88646000D03*
X141605000Y-88646000D03*
X141605000Y-89916000D03*
X141605000Y-91186000D03*
X137795000Y-92456000D03*
X136525000Y-92456000D03*
X135255000Y-92456000D03*
X135255000Y-93726000D03*
X133985000Y-93726000D03*
X133985000Y-92456000D03*
X132715000Y-92456000D03*
X131445000Y-91186000D03*
X132715000Y-91186000D03*
X133985000Y-91186000D03*
X133985000Y-89916000D03*
X132715000Y-89916000D03*
X131445000Y-89916000D03*
X130175000Y-89916000D03*
X131445000Y-88646000D03*
X132715000Y-88646000D03*
X133985000Y-88646000D03*
X144145000Y-96266000D03*
X142875000Y-96266000D03*
X142875000Y-97536000D03*
X144145000Y-97536000D03*
X144145000Y-103886000D03*
X144145000Y-105156000D03*
X144145000Y-106426000D03*
X144145000Y-107696000D03*
X142875000Y-107696000D03*
X142875000Y-106426000D03*
X142875000Y-105156000D03*
X142875000Y-103886000D03*
X141605000Y-103886000D03*
X141605000Y-105156000D03*
X141605000Y-106426000D03*
X141605000Y-107696000D03*
X137795000Y-100076000D03*
X137795000Y-101346000D03*
X137795000Y-102616000D03*
X135255000Y-103886000D03*
X133985000Y-103886000D03*
X133985000Y-102616000D03*
X128905000Y-107696000D03*
X130175000Y-107696000D03*
X131445000Y-107696000D03*
X131445000Y-106426000D03*
X130175000Y-106426000D03*
X128905000Y-106426000D03*
X127635000Y-106426000D03*
X127635000Y-105156000D03*
X128905000Y-105156000D03*
X130175000Y-105156000D03*
X131445000Y-105156000D03*
X131445000Y-103886000D03*
X130175000Y-103886000D03*
X128905000Y-103886000D03*
X127635000Y-103886000D03*
X127635000Y-102616000D03*
X128905000Y-102616000D03*
X128905000Y-101346000D03*
X127635000Y-101346000D03*
X127635000Y-100076000D03*
X128905000Y-100076000D03*
X130175000Y-100076000D03*
X130175000Y-101346000D03*
X130175000Y-102616000D03*
X131445000Y-102616000D03*
X132715000Y-102616000D03*
X132715000Y-103886000D03*
X132715000Y-105156000D03*
X132715000Y-106426000D03*
X132715000Y-107696000D03*
X133985000Y-107696000D03*
X133985000Y-106426000D03*
X133985000Y-105156000D03*
X127635000Y-107696000D03*
X130175000Y-97028000D03*
X131064000Y-92710000D03*
X138811000Y-97028000D03*
X130937000Y-95250000D03*
X138049000Y-97790000D03*
D27*
X153924000Y-86380000D02*
X150896000Y-86380000D01*
X150896000Y-86380000D02*
X150876000Y-86360000D01*
X168990000Y-97790000D02*
X168990000Y-99234000D01*
X168990000Y-99234000D02*
X168910000Y-99314000D01*
X168990000Y-92710000D02*
X168990000Y-91360000D01*
X168990000Y-91360000D02*
X169164000Y-91186000D01*
X168990000Y-97790000D02*
X170180000Y-97790000D01*
X170688000Y-94408000D02*
X168990000Y-92710000D01*
X170688000Y-97282000D02*
X170688000Y-94408000D01*
X170180000Y-97790000D02*
X170688000Y-97282000D01*
X156718000Y-98044000D02*
X157226000Y-98044000D01*
X156638000Y-98124000D02*
X156718000Y-98044000D01*
X154686000Y-98124000D02*
X156638000Y-98124000D01*
X157226000Y-98044000D02*
X157574000Y-97696000D01*
X157574000Y-97696000D02*
X157574000Y-96647000D01*
D28*
X144145000Y-91186000D02*
X144145000Y-89916000D01*
X142875000Y-92456000D02*
X144145000Y-92456000D01*
X142875000Y-89916000D02*
X142875000Y-91186000D01*
X141605000Y-88646000D02*
X142875000Y-88646000D01*
X141605000Y-91186000D02*
X141605000Y-89916000D01*
X136525000Y-92456000D02*
X137795000Y-92456000D01*
X135255000Y-93726000D02*
X135255000Y-92456000D01*
X133985000Y-92456000D02*
X133985000Y-93726000D01*
X131445000Y-91186000D02*
X132715000Y-92456000D01*
X133985000Y-91186000D02*
X132715000Y-91186000D01*
X132715000Y-89916000D02*
X133985000Y-89916000D01*
X130175000Y-89916000D02*
X131445000Y-89916000D01*
X132715000Y-88646000D02*
X131445000Y-88646000D01*
X135509000Y-90170000D02*
X133985000Y-88646000D01*
X136271000Y-90170000D02*
X135509000Y-90170000D01*
X144629000Y-95782000D02*
X144145000Y-96266000D01*
X142875000Y-96266000D02*
X142875000Y-97536000D01*
X144629000Y-93980000D02*
X144629000Y-95782000D01*
X143129000Y-102870000D02*
X144145000Y-103886000D01*
X144145000Y-105156000D02*
X144145000Y-106426000D01*
X144145000Y-107696000D02*
X142875000Y-107696000D01*
X142875000Y-106426000D02*
X142875000Y-105156000D01*
X142875000Y-103886000D02*
X141605000Y-103886000D01*
X141605000Y-105156000D02*
X141605000Y-106426000D01*
X143129000Y-102084000D02*
X143129000Y-102870000D01*
D29*
X137795000Y-102616000D02*
X137795000Y-101346000D01*
X133985000Y-103886000D02*
X135255000Y-103886000D01*
X132715000Y-101346000D02*
X133985000Y-102616000D01*
X132715000Y-101076000D02*
X132715000Y-101346000D01*
X133985000Y-105156000D02*
X133985000Y-103886000D01*
X130175000Y-107696000D02*
X128905000Y-107696000D01*
X131445000Y-106426000D02*
X131445000Y-107696000D01*
X128905000Y-106426000D02*
X130175000Y-106426000D01*
X127635000Y-105156000D02*
X127635000Y-106426000D01*
X130175000Y-105156000D02*
X128905000Y-105156000D01*
X131445000Y-103886000D02*
X131445000Y-105156000D01*
X128905000Y-103886000D02*
X130175000Y-103886000D01*
X127635000Y-102616000D02*
X127635000Y-103886000D01*
X128905000Y-101346000D02*
X128905000Y-102616000D01*
X127635000Y-100076000D02*
X127635000Y-101346000D01*
X130175000Y-100076000D02*
X128905000Y-100076000D01*
X130175000Y-102616000D02*
X130175000Y-101346000D01*
X132715000Y-102616000D02*
X131445000Y-102616000D01*
X132715000Y-105156000D02*
X132715000Y-103886000D01*
X132715000Y-107696000D02*
X132715000Y-106426000D01*
X133985000Y-106426000D02*
X133985000Y-107696000D01*
D27*
X157574000Y-95377000D02*
X154733000Y-95377000D01*
X154733000Y-95377000D02*
X154606000Y-95250000D01*
X154606000Y-95250000D02*
X151892000Y-95250000D01*
X151892000Y-95250000D02*
X151130000Y-96012000D01*
X170100000Y-86360000D02*
X170688000Y-86360000D01*
X170688000Y-86360000D02*
X171704000Y-87376000D01*
X170688000Y-100330000D02*
X164592000Y-100330000D01*
X171704000Y-99314000D02*
X170688000Y-100330000D01*
X171704000Y-87376000D02*
X171704000Y-99314000D01*
X170100000Y-86360000D02*
X170434000Y-86360000D01*
X160655000Y-95377000D02*
X162974000Y-95377000D01*
X160274000Y-95758000D02*
X160655000Y-95377000D01*
X162560000Y-100330000D02*
X164592000Y-100330000D01*
X164592000Y-100330000D02*
X165354000Y-100330000D01*
X166290000Y-99394000D02*
X166290000Y-97790000D01*
X165354000Y-100330000D02*
X166290000Y-99394000D01*
X160274000Y-96774000D02*
X160274000Y-95758000D01*
X162560000Y-100330000D02*
X162560000Y-99060000D01*
X162560000Y-99060000D02*
X160274000Y-96774000D01*
X160020000Y-88980000D02*
X160100000Y-88900000D01*
X156464000Y-88980000D02*
X160020000Y-88980000D01*
X166290000Y-95250000D02*
X165608000Y-95250000D01*
X165608000Y-95250000D02*
X164465000Y-94107000D01*
X164465000Y-94107000D02*
X162974000Y-94107000D01*
X166290000Y-92710000D02*
X166290000Y-95250000D01*
X157574000Y-92837000D02*
X157574000Y-94107000D01*
D28*
X141629000Y-94210000D02*
X141629000Y-93980000D01*
X140462000Y-96647000D02*
X141478000Y-96647000D01*
X142113000Y-94742000D02*
X142113000Y-93980000D01*
X142113000Y-96012000D02*
X142113000Y-94742000D01*
X141478000Y-96647000D02*
X142113000Y-96012000D01*
X142113000Y-93980000D02*
X141629000Y-93980000D01*
D27*
X139557000Y-94234000D02*
X139557000Y-93742000D01*
X139557000Y-93742000D02*
X139573000Y-92710000D01*
X139573000Y-92710000D02*
X139573000Y-90932000D01*
X139573000Y-90932000D02*
X138811000Y-90170000D01*
X141629000Y-93980000D02*
X139811000Y-93980000D01*
X139811000Y-93980000D02*
X139557000Y-94234000D01*
D28*
X139557000Y-95996000D02*
X139557000Y-94234000D01*
X140208000Y-96647000D02*
X139557000Y-95996000D01*
X140462000Y-96647000D02*
X140208000Y-96647000D01*
X140462000Y-95147000D02*
X141629000Y-93980000D01*
X140462000Y-96647000D02*
X140462000Y-95147000D01*
X140462000Y-99237800D02*
X142975200Y-99237800D01*
X142975200Y-99237800D02*
X143129000Y-99084000D01*
X140462000Y-98602800D02*
X142647800Y-98602800D01*
X142647800Y-98602800D02*
X143129000Y-99084000D01*
X135128000Y-99237800D02*
X132876800Y-99237800D01*
X132876800Y-99237800D02*
X132715000Y-99076000D01*
X135128000Y-98602800D02*
X133188200Y-98602800D01*
X133188200Y-98602800D02*
X132715000Y-99076000D01*
X135128000Y-99237800D02*
X140462000Y-99237800D01*
X135128000Y-98602800D02*
X140462000Y-98602800D01*
X132934200Y-98856800D02*
X132715000Y-99076000D01*
X130429000Y-97282000D02*
X135128000Y-97282000D01*
X130175000Y-97028000D02*
X130429000Y-97282000D01*
X138811000Y-97028000D02*
X139065000Y-97282000D01*
X139065000Y-97282000D02*
X140462000Y-97282000D01*
X128397000Y-92710000D02*
X131064000Y-92710000D01*
X138049000Y-97790000D02*
X138201400Y-97942400D01*
X138201400Y-97942400D02*
X140462000Y-97942400D01*
X128397000Y-95250000D02*
X130937000Y-95250000D01*
X128397000Y-97790000D02*
X133477000Y-97790000D01*
X133629400Y-97942400D02*
X135128000Y-97942400D01*
X133477000Y-97790000D02*
X133629400Y-97942400D01*
X128651000Y-97536000D02*
X128397000Y-97790000D01*
X135128000Y-100558600D02*
X135991600Y-100558600D01*
X135991600Y-100558600D02*
X136779000Y-101346000D01*
D27*
X136779000Y-106426000D02*
X136779000Y-101346000D01*
X136779000Y-101346000D02*
X136779000Y-100330000D01*
D28*
X136347200Y-99898200D02*
X136779000Y-100330000D01*
X136347200Y-99898200D02*
X135128000Y-99898200D01*
X139598400Y-100558600D02*
X138811000Y-101346000D01*
X140462000Y-100558600D02*
X139598400Y-100558600D01*
D27*
X138811000Y-101346000D02*
X138811000Y-100330000D01*
X138811000Y-105918000D02*
X138811000Y-101346000D01*
D28*
X139242800Y-99898200D02*
X138811000Y-100330000D01*
X139242800Y-99898200D02*
X140462000Y-99898200D01*
D27*
X138811000Y-105918000D02*
X139319000Y-106426000D01*
D29*
G36*
X172441400Y-102793800D02*
X148741600Y-102793800D01*
X148741600Y-98602800D01*
X149867372Y-98602800D01*
X149809268Y-98812617D01*
X149810066Y-98816645D01*
X150011815Y-99301617D01*
X150383798Y-99672467D01*
X150869383Y-99872736D01*
X151079200Y-99814695D01*
X151079200Y-98602800D01*
X151180800Y-98602800D01*
X151180800Y-99814695D01*
X151390617Y-99872736D01*
X151876202Y-99672467D01*
X152248185Y-99301617D01*
X152426074Y-98874000D01*
X153802921Y-98874000D01*
X153819833Y-98961164D01*
X153870158Y-99037774D01*
X153946129Y-99089056D01*
X154036000Y-99107079D01*
X155336000Y-99107079D01*
X155423164Y-99090167D01*
X155499774Y-99039842D01*
X155551056Y-98963871D01*
X155569079Y-98874000D01*
X155569079Y-98657400D01*
X156638000Y-98657400D01*
X156842123Y-98616797D01*
X156864555Y-98601809D01*
X156923628Y-98577400D01*
X157226000Y-98577400D01*
X157430123Y-98536797D01*
X157603171Y-98421171D01*
X157951171Y-98073171D01*
X158066797Y-97900124D01*
X158107400Y-97696000D01*
X158107400Y-97180079D01*
X158349000Y-97180079D01*
X158436164Y-97163167D01*
X158512774Y-97112842D01*
X158564056Y-97036871D01*
X158582079Y-96947000D01*
X158582079Y-96347000D01*
X158565167Y-96259836D01*
X158514842Y-96183226D01*
X158438871Y-96131944D01*
X158349000Y-96113921D01*
X157575614Y-96113921D01*
X157574000Y-96113600D01*
X157572386Y-96113921D01*
X156799000Y-96113921D01*
X155569079Y-96113921D01*
X155569079Y-95910400D01*
X157574000Y-95910400D01*
X157575614Y-95910079D01*
X158349000Y-95910079D01*
X158436164Y-95893167D01*
X158512774Y-95842842D01*
X158564056Y-95766871D01*
X158582079Y-95677000D01*
X158582079Y-95077000D01*
X158565167Y-94989836D01*
X158514842Y-94913226D01*
X158438871Y-94861944D01*
X158349000Y-94843921D01*
X157575614Y-94843921D01*
X157574000Y-94843600D01*
X155569079Y-94843600D01*
X155569079Y-94674000D01*
X155552167Y-94586836D01*
X155501842Y-94510226D01*
X155425871Y-94458944D01*
X155336000Y-94440921D01*
X154036000Y-94440921D01*
X153948836Y-94457833D01*
X153872226Y-94508158D01*
X153820944Y-94584129D01*
X153802921Y-94674000D01*
X153802921Y-94716600D01*
X151892005Y-94716600D01*
X151892000Y-94716599D01*
X151687877Y-94757203D01*
X151679319Y-94762921D01*
X150114000Y-94762921D01*
X150026836Y-94779833D01*
X149950226Y-94830158D01*
X149898944Y-94906129D01*
X149880921Y-94996000D01*
X149880921Y-97028000D01*
X149897833Y-97115164D01*
X149948158Y-97191774D01*
X150024129Y-97243056D01*
X150114000Y-97261079D01*
X150797092Y-97261079D01*
X150383798Y-97431533D01*
X150011815Y-97802383D01*
X149810066Y-98287355D01*
X149809268Y-98291383D01*
X149867372Y-98501200D01*
X151079200Y-98501200D01*
X151079200Y-98481200D01*
X151180800Y-98481200D01*
X151180800Y-98501200D01*
X152392628Y-98501200D01*
X152450732Y-98291383D01*
X152449934Y-98287355D01*
X152248185Y-97802383D01*
X151876202Y-97431533D01*
X151462908Y-97261079D01*
X152146000Y-97261079D01*
X152233164Y-97244167D01*
X152309774Y-97193842D01*
X152361056Y-97117871D01*
X152379079Y-97028000D01*
X152379079Y-95783400D01*
X153802921Y-95783400D01*
X153802921Y-96174000D01*
X153819833Y-96261164D01*
X153870158Y-96337774D01*
X153946129Y-96389056D01*
X154036000Y-96407079D01*
X155336000Y-96407079D01*
X155423164Y-96390167D01*
X155499774Y-96339842D01*
X155551056Y-96263871D01*
X155569079Y-96174000D01*
X155569079Y-96113921D01*
X156799000Y-96113921D01*
X155569079Y-96113921D01*
X155569079Y-96113921D01*
X156799000Y-96113921D01*
X156711836Y-96130833D01*
X156635226Y-96181158D01*
X156583944Y-96257129D01*
X156565921Y-96347000D01*
X156565921Y-96947000D01*
X156582833Y-97034164D01*
X156633158Y-97110774D01*
X156709129Y-97162056D01*
X156799000Y-97180079D01*
X157040600Y-97180079D01*
X157040600Y-97475058D01*
X157005058Y-97510600D01*
X156923691Y-97510600D01*
X156832177Y-97472600D01*
X156604820Y-97472401D01*
X156394694Y-97559224D01*
X156363263Y-97590600D01*
X155569079Y-97590600D01*
X155569079Y-97374000D01*
X155552167Y-97286836D01*
X155501842Y-97210226D01*
X155425871Y-97158944D01*
X155336000Y-97140921D01*
X154036000Y-97140921D01*
X153948836Y-97157833D01*
X153872226Y-97208158D01*
X153820944Y-97284129D01*
X153802921Y-97374000D01*
X153802921Y-98874000D01*
X152426074Y-98874000D01*
X152449934Y-98816645D01*
X152450732Y-98812617D01*
X152392628Y-98602800D01*
X151180800Y-98602800D01*
X151079200Y-98602800D01*
X151079200Y-98602800D01*
X149867372Y-98602800D01*
X148741600Y-98602800D01*
X148741600Y-92303921D01*
X156799000Y-92303921D01*
X156711836Y-92320833D01*
X156635226Y-92371158D01*
X156583944Y-92447129D01*
X156565921Y-92537000D01*
X156565921Y-93137000D01*
X156582833Y-93224164D01*
X156633158Y-93300774D01*
X156709129Y-93352056D01*
X156799000Y-93370079D01*
X157040600Y-93370079D01*
X157040600Y-93573921D01*
X156799000Y-93573921D01*
X156711836Y-93590833D01*
X156635226Y-93641158D01*
X156583944Y-93717129D01*
X156565921Y-93807000D01*
X156565921Y-94407000D01*
X156582833Y-94494164D01*
X156633158Y-94570774D01*
X156709129Y-94622056D01*
X156799000Y-94640079D01*
X157572386Y-94640079D01*
X157574000Y-94640400D01*
X157575614Y-94640079D01*
X158349000Y-94640079D01*
X158436164Y-94623167D01*
X158512774Y-94572842D01*
X158564056Y-94496871D01*
X158582079Y-94407000D01*
X158582079Y-93807000D01*
X158565167Y-93719836D01*
X158514842Y-93643226D01*
X158438871Y-93591944D01*
X158349000Y-93573921D01*
X158107400Y-93573921D01*
X158107400Y-93370079D01*
X158349000Y-93370079D01*
X158436164Y-93353167D01*
X158512774Y-93302842D01*
X158564056Y-93226871D01*
X158582079Y-93137000D01*
X158582079Y-92887800D01*
X161951350Y-92887800D01*
X161868800Y-92970350D01*
X161868800Y-93202681D01*
X161919070Y-93324043D01*
X162011957Y-93416930D01*
X162133319Y-93467200D01*
X162840650Y-93467200D01*
X162923200Y-93384650D01*
X162923200Y-92887800D01*
X163024800Y-92887800D01*
X163024800Y-93384650D01*
X163107350Y-93467200D01*
X163814681Y-93467200D01*
X163936043Y-93416930D01*
X164028930Y-93324043D01*
X164079200Y-93202681D01*
X164079200Y-92970350D01*
X163996650Y-92887800D01*
X163024800Y-92887800D01*
X162923200Y-92887800D01*
X162923200Y-92887800D01*
X161951350Y-92887800D01*
X158582079Y-92887800D01*
X158582079Y-92537000D01*
X158565167Y-92449836D01*
X158514842Y-92373226D01*
X158438871Y-92321944D01*
X158349000Y-92303921D01*
X157575614Y-92303921D01*
X157574000Y-92303600D01*
X157572386Y-92303921D01*
X156799000Y-92303921D01*
X148741600Y-92303921D01*
X148741600Y-92206800D01*
X162133319Y-92206800D01*
X162011957Y-92257070D01*
X161919070Y-92349957D01*
X161868800Y-92471319D01*
X161868800Y-92703650D01*
X161951350Y-92786200D01*
X162923200Y-92786200D01*
X162923200Y-92289350D01*
X162840650Y-92206800D01*
X163107350Y-92206800D01*
X163024800Y-92289350D01*
X163024800Y-92786200D01*
X163996650Y-92786200D01*
X164079200Y-92703650D01*
X164079200Y-92471319D01*
X164028930Y-92349957D01*
X163936043Y-92257070D01*
X163814681Y-92206800D01*
X163107350Y-92206800D01*
X162840650Y-92206800D01*
X162840650Y-92206800D01*
X162133319Y-92206800D01*
X148741600Y-92206800D01*
X148741600Y-90614401D01*
X169050820Y-90614401D01*
X168840694Y-90701224D01*
X168679789Y-90861849D01*
X168641430Y-90954228D01*
X168612829Y-90982829D01*
X168497203Y-91155877D01*
X168456600Y-91360000D01*
X168456600Y-91826921D01*
X168240000Y-91826921D01*
X168152836Y-91843833D01*
X168076226Y-91894158D01*
X168024944Y-91970129D01*
X168006921Y-92060000D01*
X168006921Y-93360000D01*
X168023833Y-93447164D01*
X168074158Y-93523774D01*
X168150129Y-93575056D01*
X168240000Y-93593079D01*
X169118737Y-93593079D01*
X169795459Y-94269800D01*
X169123350Y-94269800D01*
X169040800Y-94352350D01*
X169040800Y-95199200D01*
X169987650Y-95199200D01*
X170070200Y-95116650D01*
X170070200Y-94544541D01*
X170154600Y-94628941D01*
X170154600Y-97061059D01*
X169973079Y-97242579D01*
X169973079Y-97140000D01*
X169956167Y-97052836D01*
X169905842Y-96976226D01*
X169829871Y-96924944D01*
X169740000Y-96906921D01*
X168240000Y-96906921D01*
X168152836Y-96923833D01*
X168076226Y-96974158D01*
X168024944Y-97050129D01*
X168006921Y-97140000D01*
X168006921Y-98440000D01*
X168023833Y-98527164D01*
X168074158Y-98603774D01*
X168150129Y-98655056D01*
X168240000Y-98673079D01*
X168456600Y-98673079D01*
X168456600Y-98959092D01*
X168425789Y-98989849D01*
X168338600Y-99199823D01*
X168338401Y-99427180D01*
X168425224Y-99637306D01*
X168584241Y-99796600D01*
X166641742Y-99796600D01*
X166667171Y-99771171D01*
X166782797Y-99598123D01*
X166823400Y-99394000D01*
X166823400Y-98673079D01*
X167040000Y-98673079D01*
X167127164Y-98656167D01*
X167203774Y-98605842D01*
X167255056Y-98529871D01*
X167273079Y-98440000D01*
X167273079Y-97140000D01*
X167256167Y-97052836D01*
X167205842Y-96976226D01*
X167129871Y-96924944D01*
X167040000Y-96906921D01*
X165540000Y-96906921D01*
X165452836Y-96923833D01*
X165376226Y-96974158D01*
X165324944Y-97050129D01*
X165306921Y-97140000D01*
X165306921Y-98440000D01*
X165323833Y-98527164D01*
X165374158Y-98603774D01*
X165450129Y-98655056D01*
X165540000Y-98673079D01*
X165756600Y-98673079D01*
X165756600Y-99173058D01*
X165133058Y-99796600D01*
X164209811Y-99796600D01*
X164026180Y-99352179D01*
X163540378Y-98865529D01*
X162905322Y-98601830D01*
X162856129Y-98601787D01*
X160952142Y-96697800D01*
X161951350Y-96697800D01*
X161868800Y-96780350D01*
X161868800Y-97012681D01*
X161919070Y-97134043D01*
X162011957Y-97226930D01*
X162133319Y-97277200D01*
X162840650Y-97277200D01*
X162923200Y-97194650D01*
X162923200Y-96697800D01*
X163024800Y-96697800D01*
X162923200Y-96697800D01*
X162923200Y-96697800D01*
X163024800Y-96697800D01*
X163024800Y-97194650D01*
X163107350Y-97277200D01*
X163814681Y-97277200D01*
X163936043Y-97226930D01*
X164028930Y-97134043D01*
X164079200Y-97012681D01*
X164079200Y-96780350D01*
X163996650Y-96697800D01*
X163024800Y-96697800D01*
X162923200Y-96697800D01*
X162923200Y-96697800D01*
X161951350Y-96697800D01*
X160952142Y-96697800D01*
X160807400Y-96553058D01*
X160807400Y-96016800D01*
X162133319Y-96016800D01*
X162011957Y-96067070D01*
X161919070Y-96159957D01*
X161868800Y-96281319D01*
X161868800Y-96513650D01*
X161951350Y-96596200D01*
X162923200Y-96596200D01*
X162923200Y-96099350D01*
X162840650Y-96016800D01*
X163107350Y-96016800D01*
X163024800Y-96099350D01*
X163024800Y-96596200D01*
X163996650Y-96596200D01*
X164079200Y-96513650D01*
X164079200Y-96281319D01*
X164037204Y-96179930D01*
X168052957Y-96179930D01*
X168174319Y-96230200D01*
X168856650Y-96230200D01*
X168939200Y-96147650D01*
X168939200Y-95300800D01*
X169040800Y-95300800D01*
X169040800Y-96147650D01*
X169123350Y-96230200D01*
X169805681Y-96230200D01*
X169927043Y-96179930D01*
X170019930Y-96087043D01*
X170070200Y-95965681D01*
X170070200Y-95383350D01*
X169987650Y-95300800D01*
X169040800Y-95300800D01*
X168939200Y-95300800D01*
X168939200Y-95300800D01*
X167992350Y-95300800D01*
X167273079Y-95300800D01*
X167273079Y-94600000D01*
X167256167Y-94512836D01*
X167205842Y-94436226D01*
X167129871Y-94384944D01*
X167040000Y-94366921D01*
X166823400Y-94366921D01*
X166823400Y-94269800D01*
X168174319Y-94269800D01*
X168052957Y-94320070D01*
X167960070Y-94412957D01*
X167909800Y-94534319D01*
X167909800Y-95116650D01*
X167992350Y-95199200D01*
X168939200Y-95199200D01*
X168939200Y-94352350D01*
X168856650Y-94269800D01*
X168174319Y-94269800D01*
X166823400Y-94269800D01*
X166823400Y-93593079D01*
X167040000Y-93593079D01*
X167127164Y-93576167D01*
X167203774Y-93525842D01*
X167255056Y-93449871D01*
X167273079Y-93360000D01*
X167273079Y-92060000D01*
X167256167Y-91972836D01*
X167205842Y-91896226D01*
X167129871Y-91844944D01*
X167040000Y-91826921D01*
X165540000Y-91826921D01*
X165452836Y-91843833D01*
X165376226Y-91894158D01*
X165324944Y-91970129D01*
X165306921Y-92060000D01*
X165306921Y-93360000D01*
X165323833Y-93447164D01*
X165374158Y-93523774D01*
X165450129Y-93575056D01*
X165540000Y-93593079D01*
X165756600Y-93593079D01*
X165756600Y-94366921D01*
X165540000Y-94366921D01*
X165489133Y-94376791D01*
X164842171Y-93729829D01*
X164669123Y-93614203D01*
X164465000Y-93573600D01*
X162974000Y-93573600D01*
X162972386Y-93573921D01*
X162199000Y-93573921D01*
X162111836Y-93590833D01*
X162035226Y-93641158D01*
X161983944Y-93717129D01*
X161965921Y-93807000D01*
X161965921Y-94407000D01*
X161982833Y-94494164D01*
X162033158Y-94570774D01*
X162109129Y-94622056D01*
X162199000Y-94640079D01*
X162972386Y-94640079D01*
X162974000Y-94640400D01*
X164244058Y-94640400D01*
X165230829Y-95627171D01*
X165306921Y-95678014D01*
X165306921Y-95900000D01*
X165323833Y-95987164D01*
X165374158Y-96063774D01*
X165450129Y-96115056D01*
X165540000Y-96133079D01*
X167040000Y-96133079D01*
X167127164Y-96116167D01*
X167203774Y-96065842D01*
X167255056Y-95989871D01*
X167273079Y-95900000D01*
X167273079Y-95300800D01*
X167992350Y-95300800D01*
X167273079Y-95300800D01*
X167273079Y-95300800D01*
X167992350Y-95300800D01*
X167909800Y-95383350D01*
X167909800Y-95965681D01*
X167960070Y-96087043D01*
X168052957Y-96179930D01*
X164037204Y-96179930D01*
X164028930Y-96159957D01*
X163936043Y-96067070D01*
X163814681Y-96016800D01*
X163107350Y-96016800D01*
X162840650Y-96016800D01*
X162840650Y-96016800D01*
X162133319Y-96016800D01*
X160807400Y-96016800D01*
X160807400Y-95978942D01*
X160875941Y-95910400D01*
X162974000Y-95910400D01*
X162975614Y-95910079D01*
X163749000Y-95910079D01*
X163836164Y-95893167D01*
X163912774Y-95842842D01*
X163964056Y-95766871D01*
X163982079Y-95677000D01*
X163982079Y-95077000D01*
X163965167Y-94989836D01*
X163914842Y-94913226D01*
X163838871Y-94861944D01*
X163749000Y-94843921D01*
X162975614Y-94843921D01*
X162974000Y-94843600D01*
X160655000Y-94843600D01*
X160450876Y-94884203D01*
X160381563Y-94930516D01*
X160277829Y-94999829D01*
X160277827Y-94999832D01*
X159896829Y-95380829D01*
X159781203Y-95553877D01*
X159740600Y-95758000D01*
X159740600Y-96774000D01*
X159781203Y-96978123D01*
X159896829Y-97151171D01*
X161601496Y-98855838D01*
X161582179Y-98863820D01*
X161095529Y-99349622D01*
X160831830Y-99984678D01*
X160831230Y-100672306D01*
X161093820Y-101307821D01*
X161579622Y-101794471D01*
X162214678Y-102058170D01*
X162902306Y-102058770D01*
X163537821Y-101796180D01*
X164024471Y-101310378D01*
X164210073Y-100863400D01*
X170688000Y-100863400D01*
X170892123Y-100822797D01*
X171065171Y-100707171D01*
X172081171Y-99691171D01*
X172196797Y-99518123D01*
X172237400Y-99314000D01*
X172237400Y-87376000D01*
X172196797Y-87171877D01*
X172081171Y-86998829D01*
X171065171Y-85982829D01*
X170904561Y-85875514D01*
X170887688Y-85834678D01*
X170626696Y-85573231D01*
X170285520Y-85431562D01*
X169916100Y-85431240D01*
X169574678Y-85572312D01*
X160624483Y-85572312D01*
X160285520Y-85431562D01*
X159916100Y-85431240D01*
X159574678Y-85572312D01*
X159313231Y-85833304D01*
X159171562Y-86174480D01*
X159171240Y-86543900D01*
X159312312Y-86885322D01*
X159573304Y-87146769D01*
X159914480Y-87288438D01*
X160283900Y-87288760D01*
X160625322Y-87147688D01*
X160886769Y-86886696D01*
X161028438Y-86545520D01*
X161028760Y-86176100D01*
X160887688Y-85834678D01*
X160626696Y-85573231D01*
X160624483Y-85572312D01*
X169574678Y-85572312D01*
X160624483Y-85572312D01*
X160624483Y-85572312D01*
X169574678Y-85572312D01*
X169313231Y-85833304D01*
X169171562Y-86174480D01*
X169171240Y-86543900D01*
X169312312Y-86885322D01*
X169573304Y-87146769D01*
X169914480Y-87288438D01*
X170283900Y-87288760D01*
X170625322Y-87147688D01*
X170673376Y-87099718D01*
X171170600Y-87596942D01*
X151954553Y-87596942D01*
X151979164Y-87592167D01*
X152055774Y-87541842D01*
X152107056Y-87465871D01*
X152125079Y-87376000D01*
X152125079Y-86913400D01*
X153065921Y-86913400D01*
X153065921Y-87130000D01*
X153082833Y-87217164D01*
X153133158Y-87293774D01*
X153209129Y-87345056D01*
X153299000Y-87363079D01*
X154549000Y-87363079D01*
X154636164Y-87346167D01*
X154712774Y-87295842D01*
X154764056Y-87219871D01*
X154782079Y-87130000D01*
X154782079Y-86330800D01*
X155566350Y-86330800D01*
X155483800Y-86413350D01*
X155483800Y-87095681D01*
X155534070Y-87217043D01*
X155626957Y-87309930D01*
X155748319Y-87360200D01*
X156330650Y-87360200D01*
X156413200Y-87277650D01*
X156413200Y-86330800D01*
X156514800Y-86330800D01*
X156413200Y-86330800D01*
X156413200Y-86330800D01*
X156514800Y-86330800D01*
X156514800Y-87277650D01*
X156597350Y-87360200D01*
X157179681Y-87360200D01*
X157301043Y-87309930D01*
X157393930Y-87217043D01*
X157444200Y-87095681D01*
X157444200Y-86413350D01*
X157361650Y-86330800D01*
X156514800Y-86330800D01*
X156413200Y-86330800D01*
X156413200Y-86330800D01*
X155566350Y-86330800D01*
X154782079Y-86330800D01*
X154782079Y-85630000D01*
X154765167Y-85542836D01*
X154714842Y-85466226D01*
X154638871Y-85414944D01*
X154549000Y-85396921D01*
X153299000Y-85396921D01*
X153211836Y-85413833D01*
X153135226Y-85464158D01*
X153083944Y-85540129D01*
X153065921Y-85630000D01*
X153065921Y-85846600D01*
X152125079Y-85846600D01*
X152125079Y-85344000D01*
X152108167Y-85256836D01*
X152070701Y-85199800D01*
X155748319Y-85199800D01*
X155626957Y-85250070D01*
X155534070Y-85342957D01*
X155483800Y-85464319D01*
X155483800Y-86146650D01*
X155566350Y-86229200D01*
X156413200Y-86229200D01*
X156413200Y-85282350D01*
X156330650Y-85199800D01*
X156597350Y-85199800D01*
X156514800Y-85282350D01*
X156514800Y-86229200D01*
X157361650Y-86229200D01*
X157444200Y-86146650D01*
X157444200Y-85464319D01*
X157393930Y-85342957D01*
X157301043Y-85250070D01*
X157179681Y-85199800D01*
X156597350Y-85199800D01*
X156330650Y-85199800D01*
X156330650Y-85199800D01*
X155748319Y-85199800D01*
X152070701Y-85199800D01*
X152057842Y-85180226D01*
X151981871Y-85128944D01*
X151892000Y-85110921D01*
X149860000Y-85110921D01*
X149772836Y-85127833D01*
X149696226Y-85178158D01*
X149644944Y-85254129D01*
X149626921Y-85344000D01*
X149626921Y-87376000D01*
X149643833Y-87463164D01*
X149694158Y-87539774D01*
X149770129Y-87591056D01*
X149860000Y-87609079D01*
X150543092Y-87609079D01*
X150129798Y-87779533D01*
X149757815Y-88150383D01*
X149556066Y-88635355D01*
X149555268Y-88639383D01*
X149613372Y-88849200D01*
X150825200Y-88849200D01*
X150825200Y-88829200D01*
X150926800Y-88829200D01*
X150926800Y-88849200D01*
X152138628Y-88849200D01*
X152196732Y-88639383D01*
X152195934Y-88635355D01*
X151994185Y-88150383D01*
X151642531Y-87799800D01*
X153233319Y-87799800D01*
X153111957Y-87850070D01*
X153019070Y-87942957D01*
X152968800Y-88064319D01*
X152968800Y-88746650D01*
X153051350Y-88829200D01*
X153873200Y-88829200D01*
X153873200Y-87882350D01*
X153790650Y-87799800D01*
X154057350Y-87799800D01*
X153790650Y-87799800D01*
X153790650Y-87799800D01*
X154057350Y-87799800D01*
X153974800Y-87882350D01*
X153974800Y-88829200D01*
X154796650Y-88829200D01*
X154879200Y-88746650D01*
X154879200Y-88064319D01*
X154828930Y-87942957D01*
X154757683Y-87871710D01*
X169885702Y-87871710D01*
X169524421Y-88021358D01*
X169452503Y-88180661D01*
X170100000Y-88828158D01*
X170747497Y-88180661D01*
X170675579Y-88021358D01*
X170295524Y-87867976D01*
X169885702Y-87871710D01*
X154757683Y-87871710D01*
X154736043Y-87850070D01*
X154614681Y-87799800D01*
X154057350Y-87799800D01*
X153790650Y-87799800D01*
X153790650Y-87799800D01*
X153233319Y-87799800D01*
X151642531Y-87799800D01*
X151622202Y-87779533D01*
X151208908Y-87609079D01*
X151892000Y-87609079D01*
X151954553Y-87596942D01*
X171170600Y-87596942D01*
X151954553Y-87596942D01*
X151954553Y-87596942D01*
X171170600Y-87596942D01*
X171170600Y-94188616D01*
X171116066Y-94107000D01*
X171065171Y-94030829D01*
X171065168Y-94030827D01*
X169973079Y-92938737D01*
X169973079Y-92060000D01*
X169956167Y-91972836D01*
X169905842Y-91896226D01*
X169829871Y-91844944D01*
X169740000Y-91826921D01*
X169523400Y-91826921D01*
X169523400Y-91634745D01*
X169648211Y-91510151D01*
X169735400Y-91300177D01*
X169735599Y-91072820D01*
X169648776Y-90862694D01*
X169488151Y-90701789D01*
X169278177Y-90614600D01*
X169050820Y-90614401D01*
X148741600Y-90614401D01*
X148741600Y-90335608D01*
X161966788Y-90335608D01*
X162143462Y-90512590D01*
X162374415Y-90608491D01*
X162624488Y-90608709D01*
X162855608Y-90513212D01*
X163032590Y-90336538D01*
X163128491Y-90105585D01*
X163128709Y-89855512D01*
X163033212Y-89624392D01*
X163028168Y-89619339D01*
X169452503Y-89619339D01*
X169524421Y-89778642D01*
X169904476Y-89932024D01*
X170314298Y-89928290D01*
X170675579Y-89778642D01*
X170747497Y-89619339D01*
X170100000Y-88971842D01*
X169452503Y-89619339D01*
X163028168Y-89619339D01*
X162856538Y-89447410D01*
X162625585Y-89351509D01*
X162375512Y-89351291D01*
X162144392Y-89446788D01*
X160866641Y-89446788D01*
X160886769Y-89426696D01*
X161028438Y-89085520D01*
X161028760Y-88716100D01*
X160887688Y-88374678D01*
X160837519Y-88324421D01*
X169221358Y-88324421D01*
X169067976Y-88704476D01*
X169071710Y-89114298D01*
X169221358Y-89475579D01*
X169380661Y-89547497D01*
X170028158Y-88900000D01*
X170171842Y-88900000D01*
X170819339Y-89547497D01*
X170978642Y-89475579D01*
X171132024Y-89095524D01*
X171128290Y-88685702D01*
X170978642Y-88324421D01*
X170819339Y-88252503D01*
X170171842Y-88900000D01*
X170028158Y-88900000D01*
X170028158Y-88900000D01*
X169380661Y-88252503D01*
X169221358Y-88324421D01*
X160837519Y-88324421D01*
X160626696Y-88113231D01*
X160285520Y-87971562D01*
X159916100Y-87971240D01*
X159574678Y-88112312D01*
X159313231Y-88373304D01*
X159282796Y-88446600D01*
X157347079Y-88446600D01*
X157347079Y-88230000D01*
X157330167Y-88142836D01*
X157279842Y-88066226D01*
X157203871Y-88014944D01*
X157114000Y-87996921D01*
X155814000Y-87996921D01*
X155726836Y-88013833D01*
X155650226Y-88064158D01*
X155598944Y-88140129D01*
X155580921Y-88230000D01*
X155580921Y-89730000D01*
X155597833Y-89817164D01*
X155648158Y-89893774D01*
X155724129Y-89945056D01*
X155814000Y-89963079D01*
X157114000Y-89963079D01*
X157201164Y-89946167D01*
X157277774Y-89895842D01*
X157329056Y-89819871D01*
X157347079Y-89730000D01*
X157347079Y-89513400D01*
X159400237Y-89513400D01*
X159573304Y-89686769D01*
X159914480Y-89828438D01*
X160283900Y-89828760D01*
X160625322Y-89687688D01*
X160866641Y-89446788D01*
X162144392Y-89446788D01*
X160866641Y-89446788D01*
X160866641Y-89446788D01*
X162144392Y-89446788D01*
X161967410Y-89623462D01*
X161871509Y-89854415D01*
X161871291Y-90104488D01*
X151418479Y-90104488D01*
X151622202Y-90020467D01*
X151994185Y-89649617D01*
X152195934Y-89164645D01*
X152196732Y-89160617D01*
X152138628Y-88950800D01*
X150926800Y-88950800D01*
X150926800Y-90162695D01*
X151136617Y-90220736D01*
X151418479Y-90104488D01*
X161871291Y-90104488D01*
X151418479Y-90104488D01*
X151418479Y-90104488D01*
X161871291Y-90104488D01*
X161966788Y-90335608D01*
X148741600Y-90335608D01*
X148741600Y-88950800D01*
X149613372Y-88950800D01*
X149555268Y-89160617D01*
X149556066Y-89164645D01*
X149757815Y-89649617D01*
X150129798Y-90020467D01*
X150615383Y-90220736D01*
X150825200Y-90162695D01*
X150825200Y-88950800D01*
X149613372Y-88950800D01*
X148741600Y-88950800D01*
X148741600Y-88930800D01*
X153051350Y-88930800D01*
X152968800Y-89013350D01*
X152968800Y-89695681D01*
X153019070Y-89817043D01*
X153111957Y-89909930D01*
X153233319Y-89960200D01*
X153790650Y-89960200D01*
X153873200Y-89877650D01*
X153873200Y-88930800D01*
X153974800Y-88930800D01*
X153873200Y-88930800D01*
X153873200Y-88930800D01*
X153974800Y-88930800D01*
X153974800Y-89877650D01*
X154057350Y-89960200D01*
X154614681Y-89960200D01*
X154736043Y-89909930D01*
X154828930Y-89817043D01*
X154879200Y-89695681D01*
X154879200Y-89013350D01*
X154796650Y-88930800D01*
X153974800Y-88930800D01*
X153873200Y-88930800D01*
X153873200Y-88930800D01*
X153051350Y-88930800D01*
X148741600Y-88930800D01*
X148741600Y-84496788D01*
X171344392Y-84496788D01*
X171167410Y-84673462D01*
X171071509Y-84904415D01*
X171071291Y-85154488D01*
X171166788Y-85385608D01*
X171343462Y-85562590D01*
X171574415Y-85658491D01*
X171824488Y-85658709D01*
X172055608Y-85563212D01*
X172232590Y-85386538D01*
X172328491Y-85155585D01*
X172328709Y-84905512D01*
X172233212Y-84674392D01*
X172056538Y-84497410D01*
X171825585Y-84401509D01*
X171575512Y-84401291D01*
X171344392Y-84496788D01*
X148741600Y-84496788D01*
X148741600Y-83388200D01*
X172441400Y-83388200D01*
X172441400Y-102793800D01*
X172441400Y-102793800D01*
G37*
X172441400Y-102793800D02*
X148741600Y-102793800D01*
X148741600Y-98602800D01*
X149867372Y-98602800D01*
X149809268Y-98812617D01*
X149810066Y-98816645D01*
X150011815Y-99301617D01*
X150383798Y-99672467D01*
X150869383Y-99872736D01*
X151079200Y-99814695D01*
X151079200Y-98602800D01*
X151180800Y-98602800D01*
X151180800Y-99814695D01*
X151390617Y-99872736D01*
X151876202Y-99672467D01*
X152248185Y-99301617D01*
X152426074Y-98874000D01*
X153802921Y-98874000D01*
X153819833Y-98961164D01*
X153870158Y-99037774D01*
X153946129Y-99089056D01*
X154036000Y-99107079D01*
X155336000Y-99107079D01*
X155423164Y-99090167D01*
X155499774Y-99039842D01*
X155551056Y-98963871D01*
X155569079Y-98874000D01*
X155569079Y-98657400D01*
X156638000Y-98657400D01*
X156842123Y-98616797D01*
X156864555Y-98601809D01*
X156923628Y-98577400D01*
X157226000Y-98577400D01*
X157430123Y-98536797D01*
X157603171Y-98421171D01*
X157951171Y-98073171D01*
X158066797Y-97900124D01*
X158107400Y-97696000D01*
X158107400Y-97180079D01*
X158349000Y-97180079D01*
X158436164Y-97163167D01*
X158512774Y-97112842D01*
X158564056Y-97036871D01*
X158582079Y-96947000D01*
X158582079Y-96347000D01*
X158565167Y-96259836D01*
X158514842Y-96183226D01*
X158438871Y-96131944D01*
X158349000Y-96113921D01*
X157575614Y-96113921D01*
X157574000Y-96113600D01*
X157572386Y-96113921D01*
X156799000Y-96113921D01*
X155569079Y-96113921D01*
X155569079Y-95910400D01*
X157574000Y-95910400D01*
X157575614Y-95910079D01*
X158349000Y-95910079D01*
X158436164Y-95893167D01*
X158512774Y-95842842D01*
X158564056Y-95766871D01*
X158582079Y-95677000D01*
X158582079Y-95077000D01*
X158565167Y-94989836D01*
X158514842Y-94913226D01*
X158438871Y-94861944D01*
X158349000Y-94843921D01*
X157575614Y-94843921D01*
X157574000Y-94843600D01*
X155569079Y-94843600D01*
X155569079Y-94674000D01*
X155552167Y-94586836D01*
X155501842Y-94510226D01*
X155425871Y-94458944D01*
X155336000Y-94440921D01*
X154036000Y-94440921D01*
X153948836Y-94457833D01*
X153872226Y-94508158D01*
X153820944Y-94584129D01*
X153802921Y-94674000D01*
X153802921Y-94716600D01*
X151892005Y-94716600D01*
X151892000Y-94716599D01*
X151687877Y-94757203D01*
X151679319Y-94762921D01*
X150114000Y-94762921D01*
X150026836Y-94779833D01*
X149950226Y-94830158D01*
X149898944Y-94906129D01*
X149880921Y-94996000D01*
X149880921Y-97028000D01*
X149897833Y-97115164D01*
X149948158Y-97191774D01*
X150024129Y-97243056D01*
X150114000Y-97261079D01*
X150797092Y-97261079D01*
X150383798Y-97431533D01*
X150011815Y-97802383D01*
X149810066Y-98287355D01*
X149809268Y-98291383D01*
X149867372Y-98501200D01*
X151079200Y-98501200D01*
X151079200Y-98481200D01*
X151180800Y-98481200D01*
X151180800Y-98501200D01*
X152392628Y-98501200D01*
X152450732Y-98291383D01*
X152449934Y-98287355D01*
X152248185Y-97802383D01*
X151876202Y-97431533D01*
X151462908Y-97261079D01*
X152146000Y-97261079D01*
X152233164Y-97244167D01*
X152309774Y-97193842D01*
X152361056Y-97117871D01*
X152379079Y-97028000D01*
X152379079Y-95783400D01*
X153802921Y-95783400D01*
X153802921Y-96174000D01*
X153819833Y-96261164D01*
X153870158Y-96337774D01*
X153946129Y-96389056D01*
X154036000Y-96407079D01*
X155336000Y-96407079D01*
X155423164Y-96390167D01*
X155499774Y-96339842D01*
X155551056Y-96263871D01*
X155569079Y-96174000D01*
X155569079Y-96113921D01*
X156799000Y-96113921D01*
X155569079Y-96113921D01*
X155569079Y-96113921D01*
X156799000Y-96113921D01*
X156711836Y-96130833D01*
X156635226Y-96181158D01*
X156583944Y-96257129D01*
X156565921Y-96347000D01*
X156565921Y-96947000D01*
X156582833Y-97034164D01*
X156633158Y-97110774D01*
X156709129Y-97162056D01*
X156799000Y-97180079D01*
X157040600Y-97180079D01*
X157040600Y-97475058D01*
X157005058Y-97510600D01*
X156923691Y-97510600D01*
X156832177Y-97472600D01*
X156604820Y-97472401D01*
X156394694Y-97559224D01*
X156363263Y-97590600D01*
X155569079Y-97590600D01*
X155569079Y-97374000D01*
X155552167Y-97286836D01*
X155501842Y-97210226D01*
X155425871Y-97158944D01*
X155336000Y-97140921D01*
X154036000Y-97140921D01*
X153948836Y-97157833D01*
X153872226Y-97208158D01*
X153820944Y-97284129D01*
X153802921Y-97374000D01*
X153802921Y-98874000D01*
X152426074Y-98874000D01*
X152449934Y-98816645D01*
X152450732Y-98812617D01*
X152392628Y-98602800D01*
X151180800Y-98602800D01*
X151079200Y-98602800D01*
X151079200Y-98602800D01*
X149867372Y-98602800D01*
X148741600Y-98602800D01*
X148741600Y-92303921D01*
X156799000Y-92303921D01*
X156711836Y-92320833D01*
X156635226Y-92371158D01*
X156583944Y-92447129D01*
X156565921Y-92537000D01*
X156565921Y-93137000D01*
X156582833Y-93224164D01*
X156633158Y-93300774D01*
X156709129Y-93352056D01*
X156799000Y-93370079D01*
X157040600Y-93370079D01*
X157040600Y-93573921D01*
X156799000Y-93573921D01*
X156711836Y-93590833D01*
X156635226Y-93641158D01*
X156583944Y-93717129D01*
X156565921Y-93807000D01*
X156565921Y-94407000D01*
X156582833Y-94494164D01*
X156633158Y-94570774D01*
X156709129Y-94622056D01*
X156799000Y-94640079D01*
X157572386Y-94640079D01*
X157574000Y-94640400D01*
X157575614Y-94640079D01*
X158349000Y-94640079D01*
X158436164Y-94623167D01*
X158512774Y-94572842D01*
X158564056Y-94496871D01*
X158582079Y-94407000D01*
X158582079Y-93807000D01*
X158565167Y-93719836D01*
X158514842Y-93643226D01*
X158438871Y-93591944D01*
X158349000Y-93573921D01*
X158107400Y-93573921D01*
X158107400Y-93370079D01*
X158349000Y-93370079D01*
X158436164Y-93353167D01*
X158512774Y-93302842D01*
X158564056Y-93226871D01*
X158582079Y-93137000D01*
X158582079Y-92887800D01*
X161951350Y-92887800D01*
X161868800Y-92970350D01*
X161868800Y-93202681D01*
X161919070Y-93324043D01*
X162011957Y-93416930D01*
X162133319Y-93467200D01*
X162840650Y-93467200D01*
X162923200Y-93384650D01*
X162923200Y-92887800D01*
X163024800Y-92887800D01*
X163024800Y-93384650D01*
X163107350Y-93467200D01*
X163814681Y-93467200D01*
X163936043Y-93416930D01*
X164028930Y-93324043D01*
X164079200Y-93202681D01*
X164079200Y-92970350D01*
X163996650Y-92887800D01*
X163024800Y-92887800D01*
X162923200Y-92887800D01*
X162923200Y-92887800D01*
X161951350Y-92887800D01*
X158582079Y-92887800D01*
X158582079Y-92537000D01*
X158565167Y-92449836D01*
X158514842Y-92373226D01*
X158438871Y-92321944D01*
X158349000Y-92303921D01*
X157575614Y-92303921D01*
X157574000Y-92303600D01*
X157572386Y-92303921D01*
X156799000Y-92303921D01*
X148741600Y-92303921D01*
X148741600Y-92206800D01*
X162133319Y-92206800D01*
X162011957Y-92257070D01*
X161919070Y-92349957D01*
X161868800Y-92471319D01*
X161868800Y-92703650D01*
X161951350Y-92786200D01*
X162923200Y-92786200D01*
X162923200Y-92289350D01*
X162840650Y-92206800D01*
X163107350Y-92206800D01*
X163024800Y-92289350D01*
X163024800Y-92786200D01*
X163996650Y-92786200D01*
X164079200Y-92703650D01*
X164079200Y-92471319D01*
X164028930Y-92349957D01*
X163936043Y-92257070D01*
X163814681Y-92206800D01*
X163107350Y-92206800D01*
X162840650Y-92206800D01*
X162840650Y-92206800D01*
X162133319Y-92206800D01*
X148741600Y-92206800D01*
X148741600Y-90614401D01*
X169050820Y-90614401D01*
X168840694Y-90701224D01*
X168679789Y-90861849D01*
X168641430Y-90954228D01*
X168612829Y-90982829D01*
X168497203Y-91155877D01*
X168456600Y-91360000D01*
X168456600Y-91826921D01*
X168240000Y-91826921D01*
X168152836Y-91843833D01*
X168076226Y-91894158D01*
X168024944Y-91970129D01*
X168006921Y-92060000D01*
X168006921Y-93360000D01*
X168023833Y-93447164D01*
X168074158Y-93523774D01*
X168150129Y-93575056D01*
X168240000Y-93593079D01*
X169118737Y-93593079D01*
X169795459Y-94269800D01*
X169123350Y-94269800D01*
X169040800Y-94352350D01*
X169040800Y-95199200D01*
X169987650Y-95199200D01*
X170070200Y-95116650D01*
X170070200Y-94544541D01*
X170154600Y-94628941D01*
X170154600Y-97061059D01*
X169973079Y-97242579D01*
X169973079Y-97140000D01*
X169956167Y-97052836D01*
X169905842Y-96976226D01*
X169829871Y-96924944D01*
X169740000Y-96906921D01*
X168240000Y-96906921D01*
X168152836Y-96923833D01*
X168076226Y-96974158D01*
X168024944Y-97050129D01*
X168006921Y-97140000D01*
X168006921Y-98440000D01*
X168023833Y-98527164D01*
X168074158Y-98603774D01*
X168150129Y-98655056D01*
X168240000Y-98673079D01*
X168456600Y-98673079D01*
X168456600Y-98959092D01*
X168425789Y-98989849D01*
X168338600Y-99199823D01*
X168338401Y-99427180D01*
X168425224Y-99637306D01*
X168584241Y-99796600D01*
X166641742Y-99796600D01*
X166667171Y-99771171D01*
X166782797Y-99598123D01*
X166823400Y-99394000D01*
X166823400Y-98673079D01*
X167040000Y-98673079D01*
X167127164Y-98656167D01*
X167203774Y-98605842D01*
X167255056Y-98529871D01*
X167273079Y-98440000D01*
X167273079Y-97140000D01*
X167256167Y-97052836D01*
X167205842Y-96976226D01*
X167129871Y-96924944D01*
X167040000Y-96906921D01*
X165540000Y-96906921D01*
X165452836Y-96923833D01*
X165376226Y-96974158D01*
X165324944Y-97050129D01*
X165306921Y-97140000D01*
X165306921Y-98440000D01*
X165323833Y-98527164D01*
X165374158Y-98603774D01*
X165450129Y-98655056D01*
X165540000Y-98673079D01*
X165756600Y-98673079D01*
X165756600Y-99173058D01*
X165133058Y-99796600D01*
X164209811Y-99796600D01*
X164026180Y-99352179D01*
X163540378Y-98865529D01*
X162905322Y-98601830D01*
X162856129Y-98601787D01*
X160952142Y-96697800D01*
X161951350Y-96697800D01*
X161868800Y-96780350D01*
X161868800Y-97012681D01*
X161919070Y-97134043D01*
X162011957Y-97226930D01*
X162133319Y-97277200D01*
X162840650Y-97277200D01*
X162923200Y-97194650D01*
X162923200Y-96697800D01*
X163024800Y-96697800D01*
X162923200Y-96697800D01*
X162923200Y-96697800D01*
X163024800Y-96697800D01*
X163024800Y-97194650D01*
X163107350Y-97277200D01*
X163814681Y-97277200D01*
X163936043Y-97226930D01*
X164028930Y-97134043D01*
X164079200Y-97012681D01*
X164079200Y-96780350D01*
X163996650Y-96697800D01*
X163024800Y-96697800D01*
X162923200Y-96697800D01*
X162923200Y-96697800D01*
X161951350Y-96697800D01*
X160952142Y-96697800D01*
X160807400Y-96553058D01*
X160807400Y-96016800D01*
X162133319Y-96016800D01*
X162011957Y-96067070D01*
X161919070Y-96159957D01*
X161868800Y-96281319D01*
X161868800Y-96513650D01*
X161951350Y-96596200D01*
X162923200Y-96596200D01*
X162923200Y-96099350D01*
X162840650Y-96016800D01*
X163107350Y-96016800D01*
X163024800Y-96099350D01*
X163024800Y-96596200D01*
X163996650Y-96596200D01*
X164079200Y-96513650D01*
X164079200Y-96281319D01*
X164037204Y-96179930D01*
X168052957Y-96179930D01*
X168174319Y-96230200D01*
X168856650Y-96230200D01*
X168939200Y-96147650D01*
X168939200Y-95300800D01*
X169040800Y-95300800D01*
X169040800Y-96147650D01*
X169123350Y-96230200D01*
X169805681Y-96230200D01*
X169927043Y-96179930D01*
X170019930Y-96087043D01*
X170070200Y-95965681D01*
X170070200Y-95383350D01*
X169987650Y-95300800D01*
X169040800Y-95300800D01*
X168939200Y-95300800D01*
X168939200Y-95300800D01*
X167992350Y-95300800D01*
X167273079Y-95300800D01*
X167273079Y-94600000D01*
X167256167Y-94512836D01*
X167205842Y-94436226D01*
X167129871Y-94384944D01*
X167040000Y-94366921D01*
X166823400Y-94366921D01*
X166823400Y-94269800D01*
X168174319Y-94269800D01*
X168052957Y-94320070D01*
X167960070Y-94412957D01*
X167909800Y-94534319D01*
X167909800Y-95116650D01*
X167992350Y-95199200D01*
X168939200Y-95199200D01*
X168939200Y-94352350D01*
X168856650Y-94269800D01*
X168174319Y-94269800D01*
X166823400Y-94269800D01*
X166823400Y-93593079D01*
X167040000Y-93593079D01*
X167127164Y-93576167D01*
X167203774Y-93525842D01*
X167255056Y-93449871D01*
X167273079Y-93360000D01*
X167273079Y-92060000D01*
X167256167Y-91972836D01*
X167205842Y-91896226D01*
X167129871Y-91844944D01*
X167040000Y-91826921D01*
X165540000Y-91826921D01*
X165452836Y-91843833D01*
X165376226Y-91894158D01*
X165324944Y-91970129D01*
X165306921Y-92060000D01*
X165306921Y-93360000D01*
X165323833Y-93447164D01*
X165374158Y-93523774D01*
X165450129Y-93575056D01*
X165540000Y-93593079D01*
X165756600Y-93593079D01*
X165756600Y-94366921D01*
X165540000Y-94366921D01*
X165489133Y-94376791D01*
X164842171Y-93729829D01*
X164669123Y-93614203D01*
X164465000Y-93573600D01*
X162974000Y-93573600D01*
X162972386Y-93573921D01*
X162199000Y-93573921D01*
X162111836Y-93590833D01*
X162035226Y-93641158D01*
X161983944Y-93717129D01*
X161965921Y-93807000D01*
X161965921Y-94407000D01*
X161982833Y-94494164D01*
X162033158Y-94570774D01*
X162109129Y-94622056D01*
X162199000Y-94640079D01*
X162972386Y-94640079D01*
X162974000Y-94640400D01*
X164244058Y-94640400D01*
X165230829Y-95627171D01*
X165306921Y-95678014D01*
X165306921Y-95900000D01*
X165323833Y-95987164D01*
X165374158Y-96063774D01*
X165450129Y-96115056D01*
X165540000Y-96133079D01*
X167040000Y-96133079D01*
X167127164Y-96116167D01*
X167203774Y-96065842D01*
X167255056Y-95989871D01*
X167273079Y-95900000D01*
X167273079Y-95300800D01*
X167992350Y-95300800D01*
X167273079Y-95300800D01*
X167273079Y-95300800D01*
X167992350Y-95300800D01*
X167909800Y-95383350D01*
X167909800Y-95965681D01*
X167960070Y-96087043D01*
X168052957Y-96179930D01*
X164037204Y-96179930D01*
X164028930Y-96159957D01*
X163936043Y-96067070D01*
X163814681Y-96016800D01*
X163107350Y-96016800D01*
X162840650Y-96016800D01*
X162840650Y-96016800D01*
X162133319Y-96016800D01*
X160807400Y-96016800D01*
X160807400Y-95978942D01*
X160875941Y-95910400D01*
X162974000Y-95910400D01*
X162975614Y-95910079D01*
X163749000Y-95910079D01*
X163836164Y-95893167D01*
X163912774Y-95842842D01*
X163964056Y-95766871D01*
X163982079Y-95677000D01*
X163982079Y-95077000D01*
X163965167Y-94989836D01*
X163914842Y-94913226D01*
X163838871Y-94861944D01*
X163749000Y-94843921D01*
X162975614Y-94843921D01*
X162974000Y-94843600D01*
X160655000Y-94843600D01*
X160450876Y-94884203D01*
X160381563Y-94930516D01*
X160277829Y-94999829D01*
X160277827Y-94999832D01*
X159896829Y-95380829D01*
X159781203Y-95553877D01*
X159740600Y-95758000D01*
X159740600Y-96774000D01*
X159781203Y-96978123D01*
X159896829Y-97151171D01*
X161601496Y-98855838D01*
X161582179Y-98863820D01*
X161095529Y-99349622D01*
X160831830Y-99984678D01*
X160831230Y-100672306D01*
X161093820Y-101307821D01*
X161579622Y-101794471D01*
X162214678Y-102058170D01*
X162902306Y-102058770D01*
X163537821Y-101796180D01*
X164024471Y-101310378D01*
X164210073Y-100863400D01*
X170688000Y-100863400D01*
X170892123Y-100822797D01*
X171065171Y-100707171D01*
X172081171Y-99691171D01*
X172196797Y-99518123D01*
X172237400Y-99314000D01*
X172237400Y-87376000D01*
X172196797Y-87171877D01*
X172081171Y-86998829D01*
X171065171Y-85982829D01*
X170904561Y-85875514D01*
X170887688Y-85834678D01*
X170626696Y-85573231D01*
X170285520Y-85431562D01*
X169916100Y-85431240D01*
X169574678Y-85572312D01*
X160624483Y-85572312D01*
X160285520Y-85431562D01*
X159916100Y-85431240D01*
X159574678Y-85572312D01*
X159313231Y-85833304D01*
X159171562Y-86174480D01*
X159171240Y-86543900D01*
X159312312Y-86885322D01*
X159573304Y-87146769D01*
X159914480Y-87288438D01*
X160283900Y-87288760D01*
X160625322Y-87147688D01*
X160886769Y-86886696D01*
X161028438Y-86545520D01*
X161028760Y-86176100D01*
X160887688Y-85834678D01*
X160626696Y-85573231D01*
X160624483Y-85572312D01*
X169574678Y-85572312D01*
X160624483Y-85572312D01*
X160624483Y-85572312D01*
X169574678Y-85572312D01*
X169313231Y-85833304D01*
X169171562Y-86174480D01*
X169171240Y-86543900D01*
X169312312Y-86885322D01*
X169573304Y-87146769D01*
X169914480Y-87288438D01*
X170283900Y-87288760D01*
X170625322Y-87147688D01*
X170673376Y-87099718D01*
X171170600Y-87596942D01*
X151954553Y-87596942D01*
X151979164Y-87592167D01*
X152055774Y-87541842D01*
X152107056Y-87465871D01*
X152125079Y-87376000D01*
X152125079Y-86913400D01*
X153065921Y-86913400D01*
X153065921Y-87130000D01*
X153082833Y-87217164D01*
X153133158Y-87293774D01*
X153209129Y-87345056D01*
X153299000Y-87363079D01*
X154549000Y-87363079D01*
X154636164Y-87346167D01*
X154712774Y-87295842D01*
X154764056Y-87219871D01*
X154782079Y-87130000D01*
X154782079Y-86330800D01*
X155566350Y-86330800D01*
X155483800Y-86413350D01*
X155483800Y-87095681D01*
X155534070Y-87217043D01*
X155626957Y-87309930D01*
X155748319Y-87360200D01*
X156330650Y-87360200D01*
X156413200Y-87277650D01*
X156413200Y-86330800D01*
X156514800Y-86330800D01*
X156413200Y-86330800D01*
X156413200Y-86330800D01*
X156514800Y-86330800D01*
X156514800Y-87277650D01*
X156597350Y-87360200D01*
X157179681Y-87360200D01*
X157301043Y-87309930D01*
X157393930Y-87217043D01*
X157444200Y-87095681D01*
X157444200Y-86413350D01*
X157361650Y-86330800D01*
X156514800Y-86330800D01*
X156413200Y-86330800D01*
X156413200Y-86330800D01*
X155566350Y-86330800D01*
X154782079Y-86330800D01*
X154782079Y-85630000D01*
X154765167Y-85542836D01*
X154714842Y-85466226D01*
X154638871Y-85414944D01*
X154549000Y-85396921D01*
X153299000Y-85396921D01*
X153211836Y-85413833D01*
X153135226Y-85464158D01*
X153083944Y-85540129D01*
X153065921Y-85630000D01*
X153065921Y-85846600D01*
X152125079Y-85846600D01*
X152125079Y-85344000D01*
X152108167Y-85256836D01*
X152070701Y-85199800D01*
X155748319Y-85199800D01*
X155626957Y-85250070D01*
X155534070Y-85342957D01*
X155483800Y-85464319D01*
X155483800Y-86146650D01*
X155566350Y-86229200D01*
X156413200Y-86229200D01*
X156413200Y-85282350D01*
X156330650Y-85199800D01*
X156597350Y-85199800D01*
X156514800Y-85282350D01*
X156514800Y-86229200D01*
X157361650Y-86229200D01*
X157444200Y-86146650D01*
X157444200Y-85464319D01*
X157393930Y-85342957D01*
X157301043Y-85250070D01*
X157179681Y-85199800D01*
X156597350Y-85199800D01*
X156330650Y-85199800D01*
X156330650Y-85199800D01*
X155748319Y-85199800D01*
X152070701Y-85199800D01*
X152057842Y-85180226D01*
X151981871Y-85128944D01*
X151892000Y-85110921D01*
X149860000Y-85110921D01*
X149772836Y-85127833D01*
X149696226Y-85178158D01*
X149644944Y-85254129D01*
X149626921Y-85344000D01*
X149626921Y-87376000D01*
X149643833Y-87463164D01*
X149694158Y-87539774D01*
X149770129Y-87591056D01*
X149860000Y-87609079D01*
X150543092Y-87609079D01*
X150129798Y-87779533D01*
X149757815Y-88150383D01*
X149556066Y-88635355D01*
X149555268Y-88639383D01*
X149613372Y-88849200D01*
X150825200Y-88849200D01*
X150825200Y-88829200D01*
X150926800Y-88829200D01*
X150926800Y-88849200D01*
X152138628Y-88849200D01*
X152196732Y-88639383D01*
X152195934Y-88635355D01*
X151994185Y-88150383D01*
X151642531Y-87799800D01*
X153233319Y-87799800D01*
X153111957Y-87850070D01*
X153019070Y-87942957D01*
X152968800Y-88064319D01*
X152968800Y-88746650D01*
X153051350Y-88829200D01*
X153873200Y-88829200D01*
X153873200Y-87882350D01*
X153790650Y-87799800D01*
X154057350Y-87799800D01*
X153790650Y-87799800D01*
X153790650Y-87799800D01*
X154057350Y-87799800D01*
X153974800Y-87882350D01*
X153974800Y-88829200D01*
X154796650Y-88829200D01*
X154879200Y-88746650D01*
X154879200Y-88064319D01*
X154828930Y-87942957D01*
X154757683Y-87871710D01*
X169885702Y-87871710D01*
X169524421Y-88021358D01*
X169452503Y-88180661D01*
X170100000Y-88828158D01*
X170747497Y-88180661D01*
X170675579Y-88021358D01*
X170295524Y-87867976D01*
X169885702Y-87871710D01*
X154757683Y-87871710D01*
X154736043Y-87850070D01*
X154614681Y-87799800D01*
X154057350Y-87799800D01*
X153790650Y-87799800D01*
X153790650Y-87799800D01*
X153233319Y-87799800D01*
X151642531Y-87799800D01*
X151622202Y-87779533D01*
X151208908Y-87609079D01*
X151892000Y-87609079D01*
X151954553Y-87596942D01*
X171170600Y-87596942D01*
X151954553Y-87596942D01*
X151954553Y-87596942D01*
X171170600Y-87596942D01*
X171170600Y-94188616D01*
X171116066Y-94107000D01*
X171065171Y-94030829D01*
X171065168Y-94030827D01*
X169973079Y-92938737D01*
X169973079Y-92060000D01*
X169956167Y-91972836D01*
X169905842Y-91896226D01*
X169829871Y-91844944D01*
X169740000Y-91826921D01*
X169523400Y-91826921D01*
X169523400Y-91634745D01*
X169648211Y-91510151D01*
X169735400Y-91300177D01*
X169735599Y-91072820D01*
X169648776Y-90862694D01*
X169488151Y-90701789D01*
X169278177Y-90614600D01*
X169050820Y-90614401D01*
X148741600Y-90614401D01*
X148741600Y-90335608D01*
X161966788Y-90335608D01*
X162143462Y-90512590D01*
X162374415Y-90608491D01*
X162624488Y-90608709D01*
X162855608Y-90513212D01*
X163032590Y-90336538D01*
X163128491Y-90105585D01*
X163128709Y-89855512D01*
X163033212Y-89624392D01*
X163028168Y-89619339D01*
X169452503Y-89619339D01*
X169524421Y-89778642D01*
X169904476Y-89932024D01*
X170314298Y-89928290D01*
X170675579Y-89778642D01*
X170747497Y-89619339D01*
X170100000Y-88971842D01*
X169452503Y-89619339D01*
X163028168Y-89619339D01*
X162856538Y-89447410D01*
X162625585Y-89351509D01*
X162375512Y-89351291D01*
X162144392Y-89446788D01*
X160866641Y-89446788D01*
X160886769Y-89426696D01*
X161028438Y-89085520D01*
X161028760Y-88716100D01*
X160887688Y-88374678D01*
X160837519Y-88324421D01*
X169221358Y-88324421D01*
X169067976Y-88704476D01*
X169071710Y-89114298D01*
X169221358Y-89475579D01*
X169380661Y-89547497D01*
X170028158Y-88900000D01*
X170171842Y-88900000D01*
X170819339Y-89547497D01*
X170978642Y-89475579D01*
X171132024Y-89095524D01*
X171128290Y-88685702D01*
X170978642Y-88324421D01*
X170819339Y-88252503D01*
X170171842Y-88900000D01*
X170028158Y-88900000D01*
X170028158Y-88900000D01*
X169380661Y-88252503D01*
X169221358Y-88324421D01*
X160837519Y-88324421D01*
X160626696Y-88113231D01*
X160285520Y-87971562D01*
X159916100Y-87971240D01*
X159574678Y-88112312D01*
X159313231Y-88373304D01*
X159282796Y-88446600D01*
X157347079Y-88446600D01*
X157347079Y-88230000D01*
X157330167Y-88142836D01*
X157279842Y-88066226D01*
X157203871Y-88014944D01*
X157114000Y-87996921D01*
X155814000Y-87996921D01*
X155726836Y-88013833D01*
X155650226Y-88064158D01*
X155598944Y-88140129D01*
X155580921Y-88230000D01*
X155580921Y-89730000D01*
X155597833Y-89817164D01*
X155648158Y-89893774D01*
X155724129Y-89945056D01*
X155814000Y-89963079D01*
X157114000Y-89963079D01*
X157201164Y-89946167D01*
X157277774Y-89895842D01*
X157329056Y-89819871D01*
X157347079Y-89730000D01*
X157347079Y-89513400D01*
X159400237Y-89513400D01*
X159573304Y-89686769D01*
X159914480Y-89828438D01*
X160283900Y-89828760D01*
X160625322Y-89687688D01*
X160866641Y-89446788D01*
X162144392Y-89446788D01*
X160866641Y-89446788D01*
X160866641Y-89446788D01*
X162144392Y-89446788D01*
X161967410Y-89623462D01*
X161871509Y-89854415D01*
X161871291Y-90104488D01*
X151418479Y-90104488D01*
X151622202Y-90020467D01*
X151994185Y-89649617D01*
X152195934Y-89164645D01*
X152196732Y-89160617D01*
X152138628Y-88950800D01*
X150926800Y-88950800D01*
X150926800Y-90162695D01*
X151136617Y-90220736D01*
X151418479Y-90104488D01*
X161871291Y-90104488D01*
X151418479Y-90104488D01*
X151418479Y-90104488D01*
X161871291Y-90104488D01*
X161966788Y-90335608D01*
X148741600Y-90335608D01*
X148741600Y-88950800D01*
X149613372Y-88950800D01*
X149555268Y-89160617D01*
X149556066Y-89164645D01*
X149757815Y-89649617D01*
X150129798Y-90020467D01*
X150615383Y-90220736D01*
X150825200Y-90162695D01*
X150825200Y-88950800D01*
X149613372Y-88950800D01*
X148741600Y-88950800D01*
X148741600Y-88930800D01*
X153051350Y-88930800D01*
X152968800Y-89013350D01*
X152968800Y-89695681D01*
X153019070Y-89817043D01*
X153111957Y-89909930D01*
X153233319Y-89960200D01*
X153790650Y-89960200D01*
X153873200Y-89877650D01*
X153873200Y-88930800D01*
X153974800Y-88930800D01*
X153873200Y-88930800D01*
X153873200Y-88930800D01*
X153974800Y-88930800D01*
X153974800Y-89877650D01*
X154057350Y-89960200D01*
X154614681Y-89960200D01*
X154736043Y-89909930D01*
X154828930Y-89817043D01*
X154879200Y-89695681D01*
X154879200Y-89013350D01*
X154796650Y-88930800D01*
X153974800Y-88930800D01*
X153873200Y-88930800D01*
X153873200Y-88930800D01*
X153051350Y-88930800D01*
X148741600Y-88930800D01*
X148741600Y-84496788D01*
X171344392Y-84496788D01*
X171167410Y-84673462D01*
X171071509Y-84904415D01*
X171071291Y-85154488D01*
X171166788Y-85385608D01*
X171343462Y-85562590D01*
X171574415Y-85658491D01*
X171824488Y-85658709D01*
X172055608Y-85563212D01*
X172232590Y-85386538D01*
X172328491Y-85155585D01*
X172328709Y-84905512D01*
X172233212Y-84674392D01*
X172056538Y-84497410D01*
X171825585Y-84401509D01*
X171575512Y-84401291D01*
X171344392Y-84496788D01*
X148741600Y-84496788D01*
X148741600Y-83388200D01*
X172441400Y-83388200D01*
X172441400Y-102793800D01*
G36*
X145644400Y-108687400D02*
X144162079Y-108687400D01*
X144162079Y-99584000D01*
X144162079Y-98584000D01*
X144145167Y-98496836D01*
X144094842Y-98420226D01*
X144018871Y-98368944D01*
X143929000Y-98350921D01*
X142934736Y-98350921D01*
X142917208Y-98333392D01*
X142793603Y-98250802D01*
X142647800Y-98221800D01*
X141314797Y-98221800D01*
X141330079Y-98145600D01*
X141330079Y-97739200D01*
X141313167Y-97652036D01*
X141286996Y-97612195D01*
X141312056Y-97575071D01*
X141330079Y-97485200D01*
X141330079Y-97078800D01*
X141320222Y-97028000D01*
X141478000Y-97028000D01*
X141623802Y-96998998D01*
X141623803Y-96998998D01*
X141747408Y-96916408D01*
X142382404Y-96281410D01*
X142382408Y-96281408D01*
X142382408Y-96281407D01*
X142464998Y-96157802D01*
X142494000Y-96012000D01*
X142494001Y-96012000D01*
X142494000Y-96011994D01*
X142494000Y-94742000D01*
X142494000Y-93980000D01*
X142464998Y-93834198D01*
X142382408Y-93710592D01*
X142362079Y-93697008D01*
X142362079Y-93180000D01*
X142345167Y-93092836D01*
X142294842Y-93016226D01*
X142218871Y-92964944D01*
X142129000Y-92946921D01*
X141129000Y-92946921D01*
X141041836Y-92963833D01*
X140965226Y-93014158D01*
X140913944Y-93090129D01*
X140895921Y-93180000D01*
X140895921Y-93446600D01*
X140223744Y-93446600D01*
X140222842Y-93445226D01*
X140146871Y-93393944D01*
X140096018Y-93383745D01*
X140106336Y-92718269D01*
X140105578Y-92714128D01*
X140106400Y-92710000D01*
X140106400Y-90932005D01*
X140106400Y-90932000D01*
X140106401Y-90932000D01*
X140065797Y-90727877D01*
X140060079Y-90719319D01*
X140060079Y-89154000D01*
X140043167Y-89066836D01*
X139992842Y-88990226D01*
X139916871Y-88938944D01*
X139827000Y-88920921D01*
X137795000Y-88920921D01*
X137707836Y-88937833D01*
X137631226Y-88988158D01*
X137579944Y-89064129D01*
X137561921Y-89154000D01*
X137561921Y-91186000D01*
X137578833Y-91273164D01*
X137629158Y-91349774D01*
X137705129Y-91401056D01*
X137795000Y-91419079D01*
X139039600Y-91419079D01*
X139039600Y-92705859D01*
X139029127Y-93381328D01*
X138969836Y-93392833D01*
X138893226Y-93443158D01*
X138841944Y-93519129D01*
X138823921Y-93609000D01*
X138823921Y-94859000D01*
X138840833Y-94946164D01*
X138891158Y-95022774D01*
X138967129Y-95074056D01*
X139057000Y-95092079D01*
X139176000Y-95092079D01*
X139176000Y-95996000D01*
X139205002Y-96141803D01*
X139287592Y-96265408D01*
X139593921Y-96571737D01*
X139593921Y-96850200D01*
X139603777Y-96901000D01*
X139376888Y-96901000D01*
X139295776Y-96704694D01*
X139135151Y-96543789D01*
X138925177Y-96456600D01*
X138697820Y-96456401D01*
X138487694Y-96543224D01*
X138326789Y-96703849D01*
X138239600Y-96913823D01*
X138239401Y-97141180D01*
X138293802Y-97272840D01*
X138163177Y-97218600D01*
X137935820Y-97218401D01*
X137725694Y-97305224D01*
X137564789Y-97465849D01*
X137477600Y-97675823D01*
X137477401Y-97903180D01*
X137564224Y-98113306D01*
X137672529Y-98221800D01*
X135980797Y-98221800D01*
X135996079Y-98145600D01*
X135996079Y-97739200D01*
X135979167Y-97652036D01*
X135952996Y-97612195D01*
X135978056Y-97575071D01*
X135996079Y-97485200D01*
X135996079Y-97078800D01*
X135979167Y-96991636D01*
X135928842Y-96915026D01*
X135852871Y-96863744D01*
X135763000Y-96845721D01*
X134493000Y-96845721D01*
X134405836Y-96862633D01*
X134347429Y-96901000D01*
X131635599Y-96901000D01*
X131635599Y-92596820D01*
X131548776Y-92386694D01*
X131388151Y-92225789D01*
X131178177Y-92138600D01*
X130950820Y-92138401D01*
X130740694Y-92225224D01*
X130636737Y-92329000D01*
X129646079Y-92329000D01*
X129646079Y-91033600D01*
X129646079Y-89306400D01*
X129629167Y-89219236D01*
X129578842Y-89142626D01*
X129502871Y-89091344D01*
X129413000Y-89073321D01*
X127381000Y-89073321D01*
X127293836Y-89090233D01*
X127217226Y-89140558D01*
X127165944Y-89216529D01*
X127147921Y-89306400D01*
X127147921Y-91033600D01*
X127164833Y-91120764D01*
X127215158Y-91197374D01*
X127291129Y-91248656D01*
X127381000Y-91266679D01*
X129413000Y-91266679D01*
X129500164Y-91249767D01*
X129576774Y-91199442D01*
X129628056Y-91123471D01*
X129646079Y-91033600D01*
X129646079Y-92329000D01*
X129590197Y-92329000D01*
X129582844Y-92292033D01*
X129346085Y-91937698D01*
X128991750Y-91700939D01*
X128573783Y-91617800D01*
X128220217Y-91617800D01*
X127802250Y-91700939D01*
X127447915Y-91937698D01*
X127211156Y-92292033D01*
X127128017Y-92710000D01*
X127211156Y-93127967D01*
X127447915Y-93482302D01*
X127802250Y-93719061D01*
X128220217Y-93802200D01*
X128573783Y-93802200D01*
X128991750Y-93719061D01*
X129346085Y-93482302D01*
X129582844Y-93127967D01*
X129590197Y-93091000D01*
X130636817Y-93091000D01*
X130739849Y-93194211D01*
X130949823Y-93281400D01*
X131177180Y-93281599D01*
X131387306Y-93194776D01*
X131548211Y-93034151D01*
X131635400Y-92824177D01*
X131635599Y-92596820D01*
X131635599Y-96901000D01*
X131508599Y-96901000D01*
X131508599Y-95136820D01*
X131421776Y-94926694D01*
X131261151Y-94765789D01*
X131051177Y-94678600D01*
X130823820Y-94678401D01*
X130613694Y-94765224D01*
X130509737Y-94869000D01*
X129590197Y-94869000D01*
X129582844Y-94832033D01*
X129346085Y-94477698D01*
X128991750Y-94240939D01*
X128573783Y-94157800D01*
X128220217Y-94157800D01*
X127802250Y-94240939D01*
X127447915Y-94477698D01*
X127211156Y-94832033D01*
X127128017Y-95250000D01*
X127211156Y-95667967D01*
X127447915Y-96022302D01*
X127802250Y-96259061D01*
X128220217Y-96342200D01*
X128573783Y-96342200D01*
X128991750Y-96259061D01*
X129346085Y-96022302D01*
X129582844Y-95667967D01*
X129590197Y-95631000D01*
X130509817Y-95631000D01*
X130612849Y-95734211D01*
X130822823Y-95821400D01*
X131050180Y-95821599D01*
X131260306Y-95734776D01*
X131421211Y-95574151D01*
X131508400Y-95364177D01*
X131508599Y-95136820D01*
X131508599Y-96901000D01*
X130740888Y-96901000D01*
X130659776Y-96704694D01*
X130499151Y-96543789D01*
X130289177Y-96456600D01*
X130061820Y-96456401D01*
X129851694Y-96543224D01*
X129690789Y-96703849D01*
X129603600Y-96913823D01*
X129603401Y-97141180D01*
X129690224Y-97351306D01*
X129747817Y-97409000D01*
X129590197Y-97409000D01*
X129582844Y-97372033D01*
X129346085Y-97017698D01*
X128991750Y-96780939D01*
X128573783Y-96697800D01*
X128220217Y-96697800D01*
X127802250Y-96780939D01*
X127447915Y-97017698D01*
X127211156Y-97372033D01*
X127128017Y-97790000D01*
X127211156Y-98207967D01*
X127447915Y-98562302D01*
X127802250Y-98799061D01*
X128220217Y-98882200D01*
X128573783Y-98882200D01*
X128991750Y-98799061D01*
X129346085Y-98562302D01*
X129582844Y-98207967D01*
X129590197Y-98171000D01*
X133319184Y-98171000D01*
X133359992Y-98211808D01*
X133374946Y-98221800D01*
X133188205Y-98221800D01*
X133188200Y-98221799D01*
X133042398Y-98250802D01*
X132918792Y-98333392D01*
X132909263Y-98342921D01*
X132090000Y-98342921D01*
X132002836Y-98359833D01*
X131926226Y-98410158D01*
X131874944Y-98486129D01*
X131856921Y-98576000D01*
X131856921Y-99576000D01*
X131873833Y-99663164D01*
X131924158Y-99739774D01*
X132000129Y-99791056D01*
X132090000Y-99809079D01*
X133340000Y-99809079D01*
X133427164Y-99792167D01*
X133503774Y-99741842D01*
X133555056Y-99665871D01*
X133564495Y-99618800D01*
X134275202Y-99618800D01*
X134259921Y-99695000D01*
X134259921Y-100101400D01*
X134276833Y-100188564D01*
X134303003Y-100228404D01*
X134277944Y-100265529D01*
X134259921Y-100355400D01*
X134259921Y-100761800D01*
X134276833Y-100848964D01*
X134327158Y-100925574D01*
X134403129Y-100976856D01*
X134493000Y-100994879D01*
X135763000Y-100994879D01*
X135850164Y-100977967D01*
X135863433Y-100969249D01*
X136245600Y-101351416D01*
X136245600Y-105176921D01*
X135763000Y-105176921D01*
X135675836Y-105193833D01*
X135599226Y-105244158D01*
X135547944Y-105320129D01*
X135529921Y-105410000D01*
X135529921Y-107442000D01*
X135546833Y-107529164D01*
X135597158Y-107605774D01*
X135673129Y-107657056D01*
X135763000Y-107675079D01*
X137795000Y-107675079D01*
X137882164Y-107658167D01*
X137958774Y-107607842D01*
X138010056Y-107531871D01*
X138028079Y-107442000D01*
X138028079Y-105410000D01*
X138011167Y-105322836D01*
X137960842Y-105246226D01*
X137884871Y-105194944D01*
X137795000Y-105176921D01*
X137312400Y-105176921D01*
X137312400Y-101346000D01*
X137312400Y-100330000D01*
X137271797Y-100125877D01*
X137156171Y-99952829D01*
X136983123Y-99837203D01*
X136785760Y-99797944D01*
X136616608Y-99628792D01*
X136601653Y-99618800D01*
X138988346Y-99618800D01*
X138973392Y-99628792D01*
X138973389Y-99628795D01*
X138804239Y-99797944D01*
X138606877Y-99837203D01*
X138433829Y-99952829D01*
X138318203Y-100125877D01*
X138277600Y-100330000D01*
X138277600Y-101346000D01*
X138277600Y-105763007D01*
X138169140Y-105925329D01*
X138074400Y-106401617D01*
X138074400Y-106450383D01*
X138169140Y-106926671D01*
X138438935Y-107330448D01*
X138842712Y-107600243D01*
X139319000Y-107694983D01*
X139795288Y-107600243D01*
X140199065Y-107330448D01*
X140468860Y-106926671D01*
X140563600Y-106450383D01*
X140563600Y-106401617D01*
X140468860Y-105925329D01*
X140199065Y-105521552D01*
X139795288Y-105251757D01*
X139344400Y-105162069D01*
X139344400Y-101351416D01*
X139726281Y-100969534D01*
X139737129Y-100976856D01*
X139827000Y-100994879D01*
X141097000Y-100994879D01*
X141184164Y-100977967D01*
X141260774Y-100927642D01*
X141312056Y-100851671D01*
X141330079Y-100761800D01*
X141330079Y-100355400D01*
X141313167Y-100268236D01*
X141286996Y-100228395D01*
X141312056Y-100191271D01*
X141330079Y-100101400D01*
X141330079Y-99695000D01*
X141315294Y-99618800D01*
X142102673Y-99618800D01*
X142112833Y-99671164D01*
X142163158Y-99747774D01*
X142239129Y-99799056D01*
X142329000Y-99817079D01*
X143929000Y-99817079D01*
X144016164Y-99800167D01*
X144092774Y-99749842D01*
X144144056Y-99673871D01*
X144162079Y-99584000D01*
X144162079Y-108687400D01*
X126135600Y-108687400D01*
X126135600Y-87908600D01*
X145644400Y-87908600D01*
X145644400Y-108687400D01*
X145644400Y-108687400D01*
G37*
X145644400Y-108687400D02*
X144162079Y-108687400D01*
X144162079Y-99584000D01*
X144162079Y-98584000D01*
X144145167Y-98496836D01*
X144094842Y-98420226D01*
X144018871Y-98368944D01*
X143929000Y-98350921D01*
X142934736Y-98350921D01*
X142917208Y-98333392D01*
X142793603Y-98250802D01*
X142647800Y-98221800D01*
X141314797Y-98221800D01*
X141330079Y-98145600D01*
X141330079Y-97739200D01*
X141313167Y-97652036D01*
X141286996Y-97612195D01*
X141312056Y-97575071D01*
X141330079Y-97485200D01*
X141330079Y-97078800D01*
X141320222Y-97028000D01*
X141478000Y-97028000D01*
X141623802Y-96998998D01*
X141623803Y-96998998D01*
X141747408Y-96916408D01*
X142382404Y-96281410D01*
X142382408Y-96281408D01*
X142382408Y-96281407D01*
X142464998Y-96157802D01*
X142494000Y-96012000D01*
X142494001Y-96012000D01*
X142494000Y-96011994D01*
X142494000Y-94742000D01*
X142494000Y-93980000D01*
X142464998Y-93834198D01*
X142382408Y-93710592D01*
X142362079Y-93697008D01*
X142362079Y-93180000D01*
X142345167Y-93092836D01*
X142294842Y-93016226D01*
X142218871Y-92964944D01*
X142129000Y-92946921D01*
X141129000Y-92946921D01*
X141041836Y-92963833D01*
X140965226Y-93014158D01*
X140913944Y-93090129D01*
X140895921Y-93180000D01*
X140895921Y-93446600D01*
X140223744Y-93446600D01*
X140222842Y-93445226D01*
X140146871Y-93393944D01*
X140096018Y-93383745D01*
X140106336Y-92718269D01*
X140105578Y-92714128D01*
X140106400Y-92710000D01*
X140106400Y-90932005D01*
X140106400Y-90932000D01*
X140106401Y-90932000D01*
X140065797Y-90727877D01*
X140060079Y-90719319D01*
X140060079Y-89154000D01*
X140043167Y-89066836D01*
X139992842Y-88990226D01*
X139916871Y-88938944D01*
X139827000Y-88920921D01*
X137795000Y-88920921D01*
X137707836Y-88937833D01*
X137631226Y-88988158D01*
X137579944Y-89064129D01*
X137561921Y-89154000D01*
X137561921Y-91186000D01*
X137578833Y-91273164D01*
X137629158Y-91349774D01*
X137705129Y-91401056D01*
X137795000Y-91419079D01*
X139039600Y-91419079D01*
X139039600Y-92705859D01*
X139029127Y-93381328D01*
X138969836Y-93392833D01*
X138893226Y-93443158D01*
X138841944Y-93519129D01*
X138823921Y-93609000D01*
X138823921Y-94859000D01*
X138840833Y-94946164D01*
X138891158Y-95022774D01*
X138967129Y-95074056D01*
X139057000Y-95092079D01*
X139176000Y-95092079D01*
X139176000Y-95996000D01*
X139205002Y-96141803D01*
X139287592Y-96265408D01*
X139593921Y-96571737D01*
X139593921Y-96850200D01*
X139603777Y-96901000D01*
X139376888Y-96901000D01*
X139295776Y-96704694D01*
X139135151Y-96543789D01*
X138925177Y-96456600D01*
X138697820Y-96456401D01*
X138487694Y-96543224D01*
X138326789Y-96703849D01*
X138239600Y-96913823D01*
X138239401Y-97141180D01*
X138293802Y-97272840D01*
X138163177Y-97218600D01*
X137935820Y-97218401D01*
X137725694Y-97305224D01*
X137564789Y-97465849D01*
X137477600Y-97675823D01*
X137477401Y-97903180D01*
X137564224Y-98113306D01*
X137672529Y-98221800D01*
X135980797Y-98221800D01*
X135996079Y-98145600D01*
X135996079Y-97739200D01*
X135979167Y-97652036D01*
X135952996Y-97612195D01*
X135978056Y-97575071D01*
X135996079Y-97485200D01*
X135996079Y-97078800D01*
X135979167Y-96991636D01*
X135928842Y-96915026D01*
X135852871Y-96863744D01*
X135763000Y-96845721D01*
X134493000Y-96845721D01*
X134405836Y-96862633D01*
X134347429Y-96901000D01*
X131635599Y-96901000D01*
X131635599Y-92596820D01*
X131548776Y-92386694D01*
X131388151Y-92225789D01*
X131178177Y-92138600D01*
X130950820Y-92138401D01*
X130740694Y-92225224D01*
X130636737Y-92329000D01*
X129646079Y-92329000D01*
X129646079Y-91033600D01*
X129646079Y-89306400D01*
X129629167Y-89219236D01*
X129578842Y-89142626D01*
X129502871Y-89091344D01*
X129413000Y-89073321D01*
X127381000Y-89073321D01*
X127293836Y-89090233D01*
X127217226Y-89140558D01*
X127165944Y-89216529D01*
X127147921Y-89306400D01*
X127147921Y-91033600D01*
X127164833Y-91120764D01*
X127215158Y-91197374D01*
X127291129Y-91248656D01*
X127381000Y-91266679D01*
X129413000Y-91266679D01*
X129500164Y-91249767D01*
X129576774Y-91199442D01*
X129628056Y-91123471D01*
X129646079Y-91033600D01*
X129646079Y-92329000D01*
X129590197Y-92329000D01*
X129582844Y-92292033D01*
X129346085Y-91937698D01*
X128991750Y-91700939D01*
X128573783Y-91617800D01*
X128220217Y-91617800D01*
X127802250Y-91700939D01*
X127447915Y-91937698D01*
X127211156Y-92292033D01*
X127128017Y-92710000D01*
X127211156Y-93127967D01*
X127447915Y-93482302D01*
X127802250Y-93719061D01*
X128220217Y-93802200D01*
X128573783Y-93802200D01*
X128991750Y-93719061D01*
X129346085Y-93482302D01*
X129582844Y-93127967D01*
X129590197Y-93091000D01*
X130636817Y-93091000D01*
X130739849Y-93194211D01*
X130949823Y-93281400D01*
X131177180Y-93281599D01*
X131387306Y-93194776D01*
X131548211Y-93034151D01*
X131635400Y-92824177D01*
X131635599Y-92596820D01*
X131635599Y-96901000D01*
X131508599Y-96901000D01*
X131508599Y-95136820D01*
X131421776Y-94926694D01*
X131261151Y-94765789D01*
X131051177Y-94678600D01*
X130823820Y-94678401D01*
X130613694Y-94765224D01*
X130509737Y-94869000D01*
X129590197Y-94869000D01*
X129582844Y-94832033D01*
X129346085Y-94477698D01*
X128991750Y-94240939D01*
X128573783Y-94157800D01*
X128220217Y-94157800D01*
X127802250Y-94240939D01*
X127447915Y-94477698D01*
X127211156Y-94832033D01*
X127128017Y-95250000D01*
X127211156Y-95667967D01*
X127447915Y-96022302D01*
X127802250Y-96259061D01*
X128220217Y-96342200D01*
X128573783Y-96342200D01*
X128991750Y-96259061D01*
X129346085Y-96022302D01*
X129582844Y-95667967D01*
X129590197Y-95631000D01*
X130509817Y-95631000D01*
X130612849Y-95734211D01*
X130822823Y-95821400D01*
X131050180Y-95821599D01*
X131260306Y-95734776D01*
X131421211Y-95574151D01*
X131508400Y-95364177D01*
X131508599Y-95136820D01*
X131508599Y-96901000D01*
X130740888Y-96901000D01*
X130659776Y-96704694D01*
X130499151Y-96543789D01*
X130289177Y-96456600D01*
X130061820Y-96456401D01*
X129851694Y-96543224D01*
X129690789Y-96703849D01*
X129603600Y-96913823D01*
X129603401Y-97141180D01*
X129690224Y-97351306D01*
X129747817Y-97409000D01*
X129590197Y-97409000D01*
X129582844Y-97372033D01*
X129346085Y-97017698D01*
X128991750Y-96780939D01*
X128573783Y-96697800D01*
X128220217Y-96697800D01*
X127802250Y-96780939D01*
X127447915Y-97017698D01*
X127211156Y-97372033D01*
X127128017Y-97790000D01*
X127211156Y-98207967D01*
X127447915Y-98562302D01*
X127802250Y-98799061D01*
X128220217Y-98882200D01*
X128573783Y-98882200D01*
X128991750Y-98799061D01*
X129346085Y-98562302D01*
X129582844Y-98207967D01*
X129590197Y-98171000D01*
X133319184Y-98171000D01*
X133359992Y-98211808D01*
X133374946Y-98221800D01*
X133188205Y-98221800D01*
X133188200Y-98221799D01*
X133042398Y-98250802D01*
X132918792Y-98333392D01*
X132909263Y-98342921D01*
X132090000Y-98342921D01*
X132002836Y-98359833D01*
X131926226Y-98410158D01*
X131874944Y-98486129D01*
X131856921Y-98576000D01*
X131856921Y-99576000D01*
X131873833Y-99663164D01*
X131924158Y-99739774D01*
X132000129Y-99791056D01*
X132090000Y-99809079D01*
X133340000Y-99809079D01*
X133427164Y-99792167D01*
X133503774Y-99741842D01*
X133555056Y-99665871D01*
X133564495Y-99618800D01*
X134275202Y-99618800D01*
X134259921Y-99695000D01*
X134259921Y-100101400D01*
X134276833Y-100188564D01*
X134303003Y-100228404D01*
X134277944Y-100265529D01*
X134259921Y-100355400D01*
X134259921Y-100761800D01*
X134276833Y-100848964D01*
X134327158Y-100925574D01*
X134403129Y-100976856D01*
X134493000Y-100994879D01*
X135763000Y-100994879D01*
X135850164Y-100977967D01*
X135863433Y-100969249D01*
X136245600Y-101351416D01*
X136245600Y-105176921D01*
X135763000Y-105176921D01*
X135675836Y-105193833D01*
X135599226Y-105244158D01*
X135547944Y-105320129D01*
X135529921Y-105410000D01*
X135529921Y-107442000D01*
X135546833Y-107529164D01*
X135597158Y-107605774D01*
X135673129Y-107657056D01*
X135763000Y-107675079D01*
X137795000Y-107675079D01*
X137882164Y-107658167D01*
X137958774Y-107607842D01*
X138010056Y-107531871D01*
X138028079Y-107442000D01*
X138028079Y-105410000D01*
X138011167Y-105322836D01*
X137960842Y-105246226D01*
X137884871Y-105194944D01*
X137795000Y-105176921D01*
X137312400Y-105176921D01*
X137312400Y-101346000D01*
X137312400Y-100330000D01*
X137271797Y-100125877D01*
X137156171Y-99952829D01*
X136983123Y-99837203D01*
X136785760Y-99797944D01*
X136616608Y-99628792D01*
X136601653Y-99618800D01*
X138988346Y-99618800D01*
X138973392Y-99628792D01*
X138973389Y-99628795D01*
X138804239Y-99797944D01*
X138606877Y-99837203D01*
X138433829Y-99952829D01*
X138318203Y-100125877D01*
X138277600Y-100330000D01*
X138277600Y-101346000D01*
X138277600Y-105763007D01*
X138169140Y-105925329D01*
X138074400Y-106401617D01*
X138074400Y-106450383D01*
X138169140Y-106926671D01*
X138438935Y-107330448D01*
X138842712Y-107600243D01*
X139319000Y-107694983D01*
X139795288Y-107600243D01*
X140199065Y-107330448D01*
X140468860Y-106926671D01*
X140563600Y-106450383D01*
X140563600Y-106401617D01*
X140468860Y-105925329D01*
X140199065Y-105521552D01*
X139795288Y-105251757D01*
X139344400Y-105162069D01*
X139344400Y-101351416D01*
X139726281Y-100969534D01*
X139737129Y-100976856D01*
X139827000Y-100994879D01*
X141097000Y-100994879D01*
X141184164Y-100977967D01*
X141260774Y-100927642D01*
X141312056Y-100851671D01*
X141330079Y-100761800D01*
X141330079Y-100355400D01*
X141313167Y-100268236D01*
X141286996Y-100228395D01*
X141312056Y-100191271D01*
X141330079Y-100101400D01*
X141330079Y-99695000D01*
X141315294Y-99618800D01*
X142102673Y-99618800D01*
X142112833Y-99671164D01*
X142163158Y-99747774D01*
X142239129Y-99799056D01*
X142329000Y-99817079D01*
X143929000Y-99817079D01*
X144016164Y-99800167D01*
X144092774Y-99749842D01*
X144144056Y-99673871D01*
X144162079Y-99584000D01*
X144162079Y-108687400D01*
X126135600Y-108687400D01*
X126135600Y-87908600D01*
X145644400Y-87908600D01*
X145644400Y-108687400D01*
M02*
