G04 #@! TF.FileFunction,Soldermask,Top*
%FSLAX46Y46*%
G04 Gerber Fmt 4.6, Leading zero omitted, Abs format (unit mm)*
G04 Created by KiCad (PCBNEW 0.201506222247+5806~23~ubuntu14.04.1-product) date Tue 30 Jun 2015 21:50:21 CEST*
%MOMM*%
G01*
G04 APERTURE LIST*
%ADD10C,0.100000*%
%ADD11C,0.609600*%
%ADD12R,1.250000X1.500000*%
%ADD13R,2.032000X2.032000*%
%ADD14O,2.032000X2.032000*%
%ADD15R,1.300000X1.500000*%
%ADD16R,1.500000X1.300000*%
%ADD17C,2.999740*%
%ADD18C,0.800000*%
%ADD19C,1.400000*%
%ADD20R,1.550000X0.600000*%
%ADD21C,3.000000*%
%ADD22R,1.000000X1.250000*%
%ADD23R,1.000000X1.600000*%
%ADD24R,1.250000X1.000000*%
%ADD25R,1.600000X1.000000*%
%ADD26R,2.032000X1.727200*%
%ADD27O,2.032000X1.727200*%
%ADD28R,1.270000X0.406400*%
G04 APERTURE END LIST*
D10*
D11*
X146431000Y-102616000D03*
X146177000Y-103632000D03*
X146431000Y-104648000D03*
X148209000Y-103632000D03*
X147955000Y-102616000D03*
X147955000Y-104648000D03*
D12*
X153924000Y-86380000D03*
X153924000Y-88880000D03*
D13*
X150876000Y-86360000D03*
D14*
X150876000Y-88900000D03*
D13*
X151130000Y-96012000D03*
D14*
X151130000Y-98552000D03*
D15*
X154686000Y-98124000D03*
X154686000Y-95424000D03*
D16*
X168990000Y-97790000D03*
X166290000Y-97790000D03*
D15*
X156464000Y-88980000D03*
X156464000Y-86280000D03*
D16*
X168990000Y-92710000D03*
X166290000Y-92710000D03*
X166290000Y-95250000D03*
X168990000Y-95250000D03*
D17*
X162560000Y-100330000D03*
D18*
X171700000Y-85030000D03*
X162500000Y-89980000D03*
D19*
X170100000Y-88900000D03*
X170100000Y-86360000D03*
X160100000Y-88900000D03*
X160100000Y-86360000D03*
D20*
X162974000Y-96647000D03*
X162974000Y-95377000D03*
X162974000Y-94107000D03*
X162974000Y-92837000D03*
X157574000Y-92837000D03*
X157574000Y-94107000D03*
X157574000Y-95377000D03*
X157574000Y-96647000D03*
D21*
X152654000Y-81407000D03*
X168529000Y-104775000D03*
D22*
X139557000Y-94234000D03*
X137557000Y-94234000D03*
D23*
X141629000Y-93980000D03*
X144629000Y-93980000D03*
D24*
X132715000Y-99076000D03*
X132715000Y-101076000D03*
D25*
X143129000Y-99084000D03*
X143129000Y-102084000D03*
D13*
X138811000Y-90170000D03*
D14*
X136271000Y-90170000D03*
D26*
X128397000Y-90170000D03*
D27*
X128397000Y-92710000D03*
X128397000Y-95250000D03*
X128397000Y-97790000D03*
D13*
X136779000Y-106426000D03*
D14*
X139319000Y-106426000D03*
D28*
X135128000Y-96647000D03*
X135128000Y-97282000D03*
X135128000Y-97942400D03*
X135128000Y-98602800D03*
X135128000Y-99237800D03*
X135128000Y-99898200D03*
X135128000Y-100558600D03*
X135128000Y-101193600D03*
X135128000Y-101854000D03*
X135128000Y-102489000D03*
X140462000Y-102489000D03*
X140462000Y-101854000D03*
X140462000Y-101193600D03*
X140462000Y-100558600D03*
X140462000Y-99898200D03*
X140462000Y-99237800D03*
X140462000Y-98602800D03*
X140462000Y-97942400D03*
X140462000Y-97282000D03*
X140462000Y-96647000D03*
D11*
X146431000Y-90170000D03*
X146177000Y-91186000D03*
X146431000Y-92202000D03*
X148209000Y-91186000D03*
X147955000Y-90170000D03*
X147955000Y-92202000D03*
M02*
