G04 #@! TF.FileFunction,Copper,L2,Bot,Signal*
%FSLAX46Y46*%
G04 Gerber Fmt 4.6, Leading zero omitted, Abs format (unit mm)*
G04 Created by KiCad (PCBNEW 4.0.1-2.201512121406+6195~38~ubuntu14.04.1-stable) date Tue 19 Apr 2016 08:35:01 PM CEST*
%MOMM*%
G01*
G04 APERTURE LIST*
%ADD10C,0.150000*%
%ADD11R,2.032000X1.727200*%
%ADD12O,2.032000X1.727200*%
%ADD13C,1.400000*%
%ADD14C,0.609600*%
%ADD15C,0.152400*%
G04 APERTURE END LIST*
D10*
D11*
X125476000Y-80010000D03*
D12*
X125476000Y-82550000D03*
X125476000Y-85090000D03*
X125476000Y-87630000D03*
D11*
X144780000Y-80010000D03*
D12*
X144780000Y-82550000D03*
X144780000Y-85090000D03*
X144780000Y-87630000D03*
D13*
X140128000Y-85090000D03*
X140128000Y-82550000D03*
X130128000Y-85090000D03*
X130128000Y-82550000D03*
D14*
X144780000Y-82550000D02*
X144272000Y-82550000D01*
X144272000Y-82550000D02*
X143002000Y-83820000D01*
X143002000Y-83820000D02*
X131398000Y-83820000D01*
X131398000Y-83820000D02*
X130128000Y-85090000D01*
X140128000Y-85090000D02*
X137414000Y-85090000D01*
X127000000Y-85090000D02*
X125476000Y-85090000D01*
X129286000Y-87376000D02*
X127000000Y-85090000D01*
X135128000Y-87376000D02*
X129286000Y-87376000D01*
X137414000Y-85090000D02*
X135128000Y-87376000D01*
D15*
G36*
X147905400Y-92406400D02*
X122223600Y-92406400D01*
X122223600Y-90766331D01*
X134161101Y-90766331D01*
X134423710Y-91401894D01*
X134909548Y-91888581D01*
X135544652Y-92152299D01*
X136232331Y-92152899D01*
X136867894Y-91890290D01*
X137354581Y-91404452D01*
X137618299Y-90769348D01*
X137618899Y-90081669D01*
X137356290Y-89446106D01*
X136870452Y-88959419D01*
X136235348Y-88695701D01*
X135547669Y-88695101D01*
X134912106Y-88957710D01*
X134425419Y-89443548D01*
X134161701Y-90078652D01*
X134161101Y-90766331D01*
X122223600Y-90766331D01*
X122223600Y-87630000D01*
X124207017Y-87630000D01*
X124290156Y-88047967D01*
X124526915Y-88402302D01*
X124881250Y-88639061D01*
X125299217Y-88722200D01*
X125652783Y-88722200D01*
X126070750Y-88639061D01*
X126425085Y-88402302D01*
X126661844Y-88047967D01*
X126744983Y-87630000D01*
X126661844Y-87212033D01*
X126425085Y-86857698D01*
X126070750Y-86620939D01*
X125652783Y-86537800D01*
X125299217Y-86537800D01*
X124881250Y-86620939D01*
X124526915Y-86857698D01*
X124290156Y-87212033D01*
X124207017Y-87630000D01*
X122223600Y-87630000D01*
X122223600Y-85090000D01*
X124207017Y-85090000D01*
X124290156Y-85507967D01*
X124526915Y-85862302D01*
X124881250Y-86099061D01*
X125299217Y-86182200D01*
X125652783Y-86182200D01*
X126070750Y-86099061D01*
X126425085Y-85862302D01*
X126584714Y-85623400D01*
X126779058Y-85623400D01*
X128908829Y-87753171D01*
X129081877Y-87868797D01*
X129286000Y-87909400D01*
X135128000Y-87909400D01*
X135332123Y-87868797D01*
X135505171Y-87753171D01*
X135628342Y-87630000D01*
X143511017Y-87630000D01*
X143594156Y-88047967D01*
X143830915Y-88402302D01*
X144185250Y-88639061D01*
X144603217Y-88722200D01*
X144956783Y-88722200D01*
X145374750Y-88639061D01*
X145729085Y-88402302D01*
X145965844Y-88047967D01*
X146048983Y-87630000D01*
X145965844Y-87212033D01*
X145729085Y-86857698D01*
X145374750Y-86620939D01*
X144956783Y-86537800D01*
X144603217Y-86537800D01*
X144185250Y-86620939D01*
X143830915Y-86857698D01*
X143594156Y-87212033D01*
X143511017Y-87630000D01*
X135628342Y-87630000D01*
X137634942Y-85623400D01*
X139348376Y-85623400D01*
X139601304Y-85876769D01*
X139942480Y-86018438D01*
X140311900Y-86018760D01*
X140653322Y-85877688D01*
X140914769Y-85616696D01*
X141056438Y-85275520D01*
X141056599Y-85090000D01*
X143511017Y-85090000D01*
X143594156Y-85507967D01*
X143830915Y-85862302D01*
X144185250Y-86099061D01*
X144603217Y-86182200D01*
X144956783Y-86182200D01*
X145374750Y-86099061D01*
X145729085Y-85862302D01*
X145965844Y-85507967D01*
X146048983Y-85090000D01*
X145965844Y-84672033D01*
X145729085Y-84317698D01*
X145374750Y-84080939D01*
X144956783Y-83997800D01*
X144603217Y-83997800D01*
X144185250Y-84080939D01*
X143830915Y-84317698D01*
X143594156Y-84672033D01*
X143511017Y-85090000D01*
X141056599Y-85090000D01*
X141056760Y-84906100D01*
X140915688Y-84564678D01*
X140704778Y-84353400D01*
X143002000Y-84353400D01*
X143206123Y-84312797D01*
X143379171Y-84197171D01*
X144084560Y-83491782D01*
X144185250Y-83559061D01*
X144603217Y-83642200D01*
X144956783Y-83642200D01*
X145374750Y-83559061D01*
X145729085Y-83322302D01*
X145965844Y-82967967D01*
X146048983Y-82550000D01*
X145965844Y-82132033D01*
X145729085Y-81777698D01*
X145374750Y-81540939D01*
X144956783Y-81457800D01*
X144603217Y-81457800D01*
X144185250Y-81540939D01*
X143830915Y-81777698D01*
X143594156Y-82132033D01*
X143511017Y-82550000D01*
X143512119Y-82555539D01*
X142781058Y-83286600D01*
X140704499Y-83286600D01*
X140914769Y-83076696D01*
X141056438Y-82735520D01*
X141056760Y-82366100D01*
X140915688Y-82024678D01*
X140654696Y-81763231D01*
X140313520Y-81621562D01*
X139944100Y-81621240D01*
X139602678Y-81762312D01*
X139341231Y-82023304D01*
X139199562Y-82364480D01*
X139199240Y-82733900D01*
X139340312Y-83075322D01*
X139551222Y-83286600D01*
X131398000Y-83286600D01*
X131193876Y-83327203D01*
X131171562Y-83342112D01*
X131066645Y-83237195D01*
X131281990Y-83168650D01*
X131430895Y-82679945D01*
X131381446Y-82171457D01*
X131281990Y-81931350D01*
X131066643Y-81862805D01*
X130379447Y-82550000D01*
X130393590Y-82564142D01*
X130142142Y-82815590D01*
X130128000Y-82801447D01*
X129440805Y-83488643D01*
X129509350Y-83703990D01*
X129998055Y-83852895D01*
X130506543Y-83803446D01*
X130746650Y-83703990D01*
X130815195Y-83488645D01*
X130895104Y-83568554D01*
X130302106Y-84161552D01*
X129944100Y-84161240D01*
X129602678Y-84302312D01*
X129341231Y-84563304D01*
X129199562Y-84904480D01*
X129199240Y-85273900D01*
X129340312Y-85615322D01*
X129601304Y-85876769D01*
X129942480Y-86018438D01*
X130311900Y-86018760D01*
X130653322Y-85877688D01*
X130914769Y-85616696D01*
X131056438Y-85275520D01*
X131056752Y-84915590D01*
X131618942Y-84353400D01*
X139551501Y-84353400D01*
X139347947Y-84556600D01*
X137414000Y-84556600D01*
X137209877Y-84597203D01*
X137036829Y-84712829D01*
X134907058Y-86842600D01*
X129506942Y-86842600D01*
X128958830Y-86294488D01*
X131899291Y-86294488D01*
X131994788Y-86525608D01*
X132171462Y-86702590D01*
X132402415Y-86798491D01*
X132652488Y-86798709D01*
X132883608Y-86703212D01*
X133060590Y-86526538D01*
X133156491Y-86295585D01*
X133156709Y-86045512D01*
X133061212Y-85814392D01*
X132884538Y-85637410D01*
X132653585Y-85541509D01*
X132403512Y-85541291D01*
X132172392Y-85636788D01*
X131995410Y-85813462D01*
X131899509Y-86044415D01*
X131899291Y-86294488D01*
X128958830Y-86294488D01*
X127377171Y-84712829D01*
X127204123Y-84597203D01*
X127000000Y-84556600D01*
X126584714Y-84556600D01*
X126425085Y-84317698D01*
X126070750Y-84080939D01*
X125652783Y-83997800D01*
X125299217Y-83997800D01*
X124881250Y-84080939D01*
X124526915Y-84317698D01*
X124290156Y-84672033D01*
X124207017Y-85090000D01*
X122223600Y-85090000D01*
X122223600Y-82550000D01*
X124207017Y-82550000D01*
X124290156Y-82967967D01*
X124526915Y-83322302D01*
X124881250Y-83559061D01*
X125299217Y-83642200D01*
X125652783Y-83642200D01*
X126070750Y-83559061D01*
X126425085Y-83322302D01*
X126661844Y-82967967D01*
X126744983Y-82550000D01*
X126719136Y-82420055D01*
X128825105Y-82420055D01*
X128874554Y-82928543D01*
X128974010Y-83168650D01*
X129189357Y-83237195D01*
X129876553Y-82550000D01*
X129189357Y-81862805D01*
X128974010Y-81931350D01*
X128825105Y-82420055D01*
X126719136Y-82420055D01*
X126661844Y-82132033D01*
X126425085Y-81777698D01*
X126176139Y-81611357D01*
X129440805Y-81611357D01*
X130128000Y-82298553D01*
X130815195Y-81611357D01*
X130746650Y-81396010D01*
X130577556Y-81344488D01*
X141099291Y-81344488D01*
X141194788Y-81575608D01*
X141371462Y-81752590D01*
X141602415Y-81848491D01*
X141852488Y-81848709D01*
X142083608Y-81753212D01*
X142260590Y-81576538D01*
X142356491Y-81345585D01*
X142356709Y-81095512D01*
X142261212Y-80864392D01*
X142084538Y-80687410D01*
X141853585Y-80591509D01*
X141603512Y-80591291D01*
X141372392Y-80686788D01*
X141195410Y-80863462D01*
X141099509Y-81094415D01*
X141099291Y-81344488D01*
X130577556Y-81344488D01*
X130257945Y-81247105D01*
X129749457Y-81296554D01*
X129509350Y-81396010D01*
X129440805Y-81611357D01*
X126176139Y-81611357D01*
X126070750Y-81540939D01*
X125652783Y-81457800D01*
X125299217Y-81457800D01*
X124881250Y-81540939D01*
X124526915Y-81777698D01*
X124290156Y-82132033D01*
X124207017Y-82550000D01*
X122223600Y-82550000D01*
X122223600Y-80333850D01*
X123875800Y-80333850D01*
X123875800Y-80989804D01*
X123964739Y-81204522D01*
X124129077Y-81368861D01*
X124343795Y-81457800D01*
X125152150Y-81457800D01*
X125298200Y-81311750D01*
X125298200Y-80187800D01*
X125653800Y-80187800D01*
X125653800Y-81311750D01*
X125799850Y-81457800D01*
X126608205Y-81457800D01*
X126822923Y-81368861D01*
X126987261Y-81204522D01*
X127076200Y-80989804D01*
X127076200Y-80333850D01*
X143179800Y-80333850D01*
X143179800Y-80989804D01*
X143268739Y-81204522D01*
X143433077Y-81368861D01*
X143647795Y-81457800D01*
X144456150Y-81457800D01*
X144602200Y-81311750D01*
X144602200Y-80187800D01*
X144957800Y-80187800D01*
X144957800Y-81311750D01*
X145103850Y-81457800D01*
X145912205Y-81457800D01*
X146126923Y-81368861D01*
X146291261Y-81204522D01*
X146380200Y-80989804D01*
X146380200Y-80333850D01*
X146234150Y-80187800D01*
X144957800Y-80187800D01*
X144602200Y-80187800D01*
X143325850Y-80187800D01*
X143179800Y-80333850D01*
X127076200Y-80333850D01*
X126930150Y-80187800D01*
X125653800Y-80187800D01*
X125298200Y-80187800D01*
X124021850Y-80187800D01*
X123875800Y-80333850D01*
X122223600Y-80333850D01*
X122223600Y-79030196D01*
X123875800Y-79030196D01*
X123875800Y-79686150D01*
X124021850Y-79832200D01*
X125298200Y-79832200D01*
X125298200Y-78708250D01*
X125653800Y-78708250D01*
X125653800Y-79832200D01*
X126930150Y-79832200D01*
X127076200Y-79686150D01*
X127076200Y-79030196D01*
X143179800Y-79030196D01*
X143179800Y-79686150D01*
X143325850Y-79832200D01*
X144602200Y-79832200D01*
X144602200Y-78708250D01*
X144957800Y-78708250D01*
X144957800Y-79832200D01*
X146234150Y-79832200D01*
X146380200Y-79686150D01*
X146380200Y-79030196D01*
X146291261Y-78815478D01*
X146126923Y-78651139D01*
X145912205Y-78562200D01*
X145103850Y-78562200D01*
X144957800Y-78708250D01*
X144602200Y-78708250D01*
X144456150Y-78562200D01*
X143647795Y-78562200D01*
X143433077Y-78651139D01*
X143268739Y-78815478D01*
X143179800Y-79030196D01*
X127076200Y-79030196D01*
X126987261Y-78815478D01*
X126822923Y-78651139D01*
X126608205Y-78562200D01*
X125799850Y-78562200D01*
X125653800Y-78708250D01*
X125298200Y-78708250D01*
X125152150Y-78562200D01*
X124343795Y-78562200D01*
X124129077Y-78651139D01*
X123964739Y-78815478D01*
X123875800Y-79030196D01*
X122223600Y-79030196D01*
X122223600Y-77558331D01*
X133653101Y-77558331D01*
X133915710Y-78193894D01*
X134401548Y-78680581D01*
X135036652Y-78944299D01*
X135724331Y-78944899D01*
X136359894Y-78682290D01*
X136846581Y-78196452D01*
X137110299Y-77561348D01*
X137110899Y-76873669D01*
X136848290Y-76238106D01*
X136362452Y-75751419D01*
X135727348Y-75487701D01*
X135039669Y-75487101D01*
X134404106Y-75749710D01*
X133917419Y-76235548D01*
X133653701Y-76870652D01*
X133653101Y-77558331D01*
X122223600Y-77558331D01*
X122223600Y-75233600D01*
X147905400Y-75233600D01*
X147905400Y-92406400D01*
X147905400Y-92406400D01*
G37*
X147905400Y-92406400D02*
X122223600Y-92406400D01*
X122223600Y-90766331D01*
X134161101Y-90766331D01*
X134423710Y-91401894D01*
X134909548Y-91888581D01*
X135544652Y-92152299D01*
X136232331Y-92152899D01*
X136867894Y-91890290D01*
X137354581Y-91404452D01*
X137618299Y-90769348D01*
X137618899Y-90081669D01*
X137356290Y-89446106D01*
X136870452Y-88959419D01*
X136235348Y-88695701D01*
X135547669Y-88695101D01*
X134912106Y-88957710D01*
X134425419Y-89443548D01*
X134161701Y-90078652D01*
X134161101Y-90766331D01*
X122223600Y-90766331D01*
X122223600Y-87630000D01*
X124207017Y-87630000D01*
X124290156Y-88047967D01*
X124526915Y-88402302D01*
X124881250Y-88639061D01*
X125299217Y-88722200D01*
X125652783Y-88722200D01*
X126070750Y-88639061D01*
X126425085Y-88402302D01*
X126661844Y-88047967D01*
X126744983Y-87630000D01*
X126661844Y-87212033D01*
X126425085Y-86857698D01*
X126070750Y-86620939D01*
X125652783Y-86537800D01*
X125299217Y-86537800D01*
X124881250Y-86620939D01*
X124526915Y-86857698D01*
X124290156Y-87212033D01*
X124207017Y-87630000D01*
X122223600Y-87630000D01*
X122223600Y-85090000D01*
X124207017Y-85090000D01*
X124290156Y-85507967D01*
X124526915Y-85862302D01*
X124881250Y-86099061D01*
X125299217Y-86182200D01*
X125652783Y-86182200D01*
X126070750Y-86099061D01*
X126425085Y-85862302D01*
X126584714Y-85623400D01*
X126779058Y-85623400D01*
X128908829Y-87753171D01*
X129081877Y-87868797D01*
X129286000Y-87909400D01*
X135128000Y-87909400D01*
X135332123Y-87868797D01*
X135505171Y-87753171D01*
X135628342Y-87630000D01*
X143511017Y-87630000D01*
X143594156Y-88047967D01*
X143830915Y-88402302D01*
X144185250Y-88639061D01*
X144603217Y-88722200D01*
X144956783Y-88722200D01*
X145374750Y-88639061D01*
X145729085Y-88402302D01*
X145965844Y-88047967D01*
X146048983Y-87630000D01*
X145965844Y-87212033D01*
X145729085Y-86857698D01*
X145374750Y-86620939D01*
X144956783Y-86537800D01*
X144603217Y-86537800D01*
X144185250Y-86620939D01*
X143830915Y-86857698D01*
X143594156Y-87212033D01*
X143511017Y-87630000D01*
X135628342Y-87630000D01*
X137634942Y-85623400D01*
X139348376Y-85623400D01*
X139601304Y-85876769D01*
X139942480Y-86018438D01*
X140311900Y-86018760D01*
X140653322Y-85877688D01*
X140914769Y-85616696D01*
X141056438Y-85275520D01*
X141056599Y-85090000D01*
X143511017Y-85090000D01*
X143594156Y-85507967D01*
X143830915Y-85862302D01*
X144185250Y-86099061D01*
X144603217Y-86182200D01*
X144956783Y-86182200D01*
X145374750Y-86099061D01*
X145729085Y-85862302D01*
X145965844Y-85507967D01*
X146048983Y-85090000D01*
X145965844Y-84672033D01*
X145729085Y-84317698D01*
X145374750Y-84080939D01*
X144956783Y-83997800D01*
X144603217Y-83997800D01*
X144185250Y-84080939D01*
X143830915Y-84317698D01*
X143594156Y-84672033D01*
X143511017Y-85090000D01*
X141056599Y-85090000D01*
X141056760Y-84906100D01*
X140915688Y-84564678D01*
X140704778Y-84353400D01*
X143002000Y-84353400D01*
X143206123Y-84312797D01*
X143379171Y-84197171D01*
X144084560Y-83491782D01*
X144185250Y-83559061D01*
X144603217Y-83642200D01*
X144956783Y-83642200D01*
X145374750Y-83559061D01*
X145729085Y-83322302D01*
X145965844Y-82967967D01*
X146048983Y-82550000D01*
X145965844Y-82132033D01*
X145729085Y-81777698D01*
X145374750Y-81540939D01*
X144956783Y-81457800D01*
X144603217Y-81457800D01*
X144185250Y-81540939D01*
X143830915Y-81777698D01*
X143594156Y-82132033D01*
X143511017Y-82550000D01*
X143512119Y-82555539D01*
X142781058Y-83286600D01*
X140704499Y-83286600D01*
X140914769Y-83076696D01*
X141056438Y-82735520D01*
X141056760Y-82366100D01*
X140915688Y-82024678D01*
X140654696Y-81763231D01*
X140313520Y-81621562D01*
X139944100Y-81621240D01*
X139602678Y-81762312D01*
X139341231Y-82023304D01*
X139199562Y-82364480D01*
X139199240Y-82733900D01*
X139340312Y-83075322D01*
X139551222Y-83286600D01*
X131398000Y-83286600D01*
X131193876Y-83327203D01*
X131171562Y-83342112D01*
X131066645Y-83237195D01*
X131281990Y-83168650D01*
X131430895Y-82679945D01*
X131381446Y-82171457D01*
X131281990Y-81931350D01*
X131066643Y-81862805D01*
X130379447Y-82550000D01*
X130393590Y-82564142D01*
X130142142Y-82815590D01*
X130128000Y-82801447D01*
X129440805Y-83488643D01*
X129509350Y-83703990D01*
X129998055Y-83852895D01*
X130506543Y-83803446D01*
X130746650Y-83703990D01*
X130815195Y-83488645D01*
X130895104Y-83568554D01*
X130302106Y-84161552D01*
X129944100Y-84161240D01*
X129602678Y-84302312D01*
X129341231Y-84563304D01*
X129199562Y-84904480D01*
X129199240Y-85273900D01*
X129340312Y-85615322D01*
X129601304Y-85876769D01*
X129942480Y-86018438D01*
X130311900Y-86018760D01*
X130653322Y-85877688D01*
X130914769Y-85616696D01*
X131056438Y-85275520D01*
X131056752Y-84915590D01*
X131618942Y-84353400D01*
X139551501Y-84353400D01*
X139347947Y-84556600D01*
X137414000Y-84556600D01*
X137209877Y-84597203D01*
X137036829Y-84712829D01*
X134907058Y-86842600D01*
X129506942Y-86842600D01*
X128958830Y-86294488D01*
X131899291Y-86294488D01*
X131994788Y-86525608D01*
X132171462Y-86702590D01*
X132402415Y-86798491D01*
X132652488Y-86798709D01*
X132883608Y-86703212D01*
X133060590Y-86526538D01*
X133156491Y-86295585D01*
X133156709Y-86045512D01*
X133061212Y-85814392D01*
X132884538Y-85637410D01*
X132653585Y-85541509D01*
X132403512Y-85541291D01*
X132172392Y-85636788D01*
X131995410Y-85813462D01*
X131899509Y-86044415D01*
X131899291Y-86294488D01*
X128958830Y-86294488D01*
X127377171Y-84712829D01*
X127204123Y-84597203D01*
X127000000Y-84556600D01*
X126584714Y-84556600D01*
X126425085Y-84317698D01*
X126070750Y-84080939D01*
X125652783Y-83997800D01*
X125299217Y-83997800D01*
X124881250Y-84080939D01*
X124526915Y-84317698D01*
X124290156Y-84672033D01*
X124207017Y-85090000D01*
X122223600Y-85090000D01*
X122223600Y-82550000D01*
X124207017Y-82550000D01*
X124290156Y-82967967D01*
X124526915Y-83322302D01*
X124881250Y-83559061D01*
X125299217Y-83642200D01*
X125652783Y-83642200D01*
X126070750Y-83559061D01*
X126425085Y-83322302D01*
X126661844Y-82967967D01*
X126744983Y-82550000D01*
X126719136Y-82420055D01*
X128825105Y-82420055D01*
X128874554Y-82928543D01*
X128974010Y-83168650D01*
X129189357Y-83237195D01*
X129876553Y-82550000D01*
X129189357Y-81862805D01*
X128974010Y-81931350D01*
X128825105Y-82420055D01*
X126719136Y-82420055D01*
X126661844Y-82132033D01*
X126425085Y-81777698D01*
X126176139Y-81611357D01*
X129440805Y-81611357D01*
X130128000Y-82298553D01*
X130815195Y-81611357D01*
X130746650Y-81396010D01*
X130577556Y-81344488D01*
X141099291Y-81344488D01*
X141194788Y-81575608D01*
X141371462Y-81752590D01*
X141602415Y-81848491D01*
X141852488Y-81848709D01*
X142083608Y-81753212D01*
X142260590Y-81576538D01*
X142356491Y-81345585D01*
X142356709Y-81095512D01*
X142261212Y-80864392D01*
X142084538Y-80687410D01*
X141853585Y-80591509D01*
X141603512Y-80591291D01*
X141372392Y-80686788D01*
X141195410Y-80863462D01*
X141099509Y-81094415D01*
X141099291Y-81344488D01*
X130577556Y-81344488D01*
X130257945Y-81247105D01*
X129749457Y-81296554D01*
X129509350Y-81396010D01*
X129440805Y-81611357D01*
X126176139Y-81611357D01*
X126070750Y-81540939D01*
X125652783Y-81457800D01*
X125299217Y-81457800D01*
X124881250Y-81540939D01*
X124526915Y-81777698D01*
X124290156Y-82132033D01*
X124207017Y-82550000D01*
X122223600Y-82550000D01*
X122223600Y-80333850D01*
X123875800Y-80333850D01*
X123875800Y-80989804D01*
X123964739Y-81204522D01*
X124129077Y-81368861D01*
X124343795Y-81457800D01*
X125152150Y-81457800D01*
X125298200Y-81311750D01*
X125298200Y-80187800D01*
X125653800Y-80187800D01*
X125653800Y-81311750D01*
X125799850Y-81457800D01*
X126608205Y-81457800D01*
X126822923Y-81368861D01*
X126987261Y-81204522D01*
X127076200Y-80989804D01*
X127076200Y-80333850D01*
X143179800Y-80333850D01*
X143179800Y-80989804D01*
X143268739Y-81204522D01*
X143433077Y-81368861D01*
X143647795Y-81457800D01*
X144456150Y-81457800D01*
X144602200Y-81311750D01*
X144602200Y-80187800D01*
X144957800Y-80187800D01*
X144957800Y-81311750D01*
X145103850Y-81457800D01*
X145912205Y-81457800D01*
X146126923Y-81368861D01*
X146291261Y-81204522D01*
X146380200Y-80989804D01*
X146380200Y-80333850D01*
X146234150Y-80187800D01*
X144957800Y-80187800D01*
X144602200Y-80187800D01*
X143325850Y-80187800D01*
X143179800Y-80333850D01*
X127076200Y-80333850D01*
X126930150Y-80187800D01*
X125653800Y-80187800D01*
X125298200Y-80187800D01*
X124021850Y-80187800D01*
X123875800Y-80333850D01*
X122223600Y-80333850D01*
X122223600Y-79030196D01*
X123875800Y-79030196D01*
X123875800Y-79686150D01*
X124021850Y-79832200D01*
X125298200Y-79832200D01*
X125298200Y-78708250D01*
X125653800Y-78708250D01*
X125653800Y-79832200D01*
X126930150Y-79832200D01*
X127076200Y-79686150D01*
X127076200Y-79030196D01*
X143179800Y-79030196D01*
X143179800Y-79686150D01*
X143325850Y-79832200D01*
X144602200Y-79832200D01*
X144602200Y-78708250D01*
X144957800Y-78708250D01*
X144957800Y-79832200D01*
X146234150Y-79832200D01*
X146380200Y-79686150D01*
X146380200Y-79030196D01*
X146291261Y-78815478D01*
X146126923Y-78651139D01*
X145912205Y-78562200D01*
X145103850Y-78562200D01*
X144957800Y-78708250D01*
X144602200Y-78708250D01*
X144456150Y-78562200D01*
X143647795Y-78562200D01*
X143433077Y-78651139D01*
X143268739Y-78815478D01*
X143179800Y-79030196D01*
X127076200Y-79030196D01*
X126987261Y-78815478D01*
X126822923Y-78651139D01*
X126608205Y-78562200D01*
X125799850Y-78562200D01*
X125653800Y-78708250D01*
X125298200Y-78708250D01*
X125152150Y-78562200D01*
X124343795Y-78562200D01*
X124129077Y-78651139D01*
X123964739Y-78815478D01*
X123875800Y-79030196D01*
X122223600Y-79030196D01*
X122223600Y-77558331D01*
X133653101Y-77558331D01*
X133915710Y-78193894D01*
X134401548Y-78680581D01*
X135036652Y-78944299D01*
X135724331Y-78944899D01*
X136359894Y-78682290D01*
X136846581Y-78196452D01*
X137110299Y-77561348D01*
X137110899Y-76873669D01*
X136848290Y-76238106D01*
X136362452Y-75751419D01*
X135727348Y-75487701D01*
X135039669Y-75487101D01*
X134404106Y-75749710D01*
X133917419Y-76235548D01*
X133653701Y-76870652D01*
X133653101Y-77558331D01*
X122223600Y-77558331D01*
X122223600Y-75233600D01*
X147905400Y-75233600D01*
X147905400Y-92406400D01*
M02*
