M48
;DRILL file {KiCad (2015-05-26 BZR 5680)-product} date 2015 June 16, Tuesday 18:31:47
;FORMAT={-:-/ absolute / inch / decimal}
FMAT,2
INCH,TZ
T1C0.013
T2C0.040
%
G90
G05
M72
T1
X5.9Y-3.65
X5.9Y-3.7
X5.9Y-3.75
X5.9Y-3.8
X5.9Y-3.85
X5.9Y-3.9
X5.9Y-3.95
X5.95Y-3.65
X5.95Y-3.7
X5.95Y-3.75
X5.95Y-3.8
X5.95Y-3.85
X5.95Y-3.9
X5.95Y-3.95
X6.Y-3.25
X6.Y-3.53
X6.Y-3.65
X6.Y-3.7
X6.Y-3.75
X6.Y-3.8
X6.Y-3.85
X6.Y-3.9
X6.Y-3.95
X6.03Y-3.46
X6.035Y-3.36
X6.05Y-3.2
X6.05Y-3.25
X6.05Y-3.3
X6.05Y-3.75
X6.05Y-3.8
X6.05Y-3.85
X6.05Y-3.9
X6.05Y-3.95
X6.1Y-3.2
X6.1Y-3.25
X6.1Y-3.3
X6.1Y-3.35
X6.1Y-3.75
X6.1Y-3.8
X6.1Y-3.85
X6.1Y-3.9
X6.1Y-3.95
X6.15Y-3.2
X6.15Y-3.25
X6.15Y-3.3
X6.15Y-3.35
X6.15Y-3.4
X6.15Y-3.75
X6.15Y-3.8
X6.15Y-3.85
X6.15Y-3.9
X6.15Y-3.95
X6.2Y-3.35
X6.2Y-3.4
X6.2Y-3.8
X6.25Y-3.35
X6.3Y-3.35
X6.3Y-3.65
X6.3Y-3.7
X6.3Y-3.75
X6.31Y-3.56
X6.34Y-3.53
X6.45Y-3.2
X6.45Y-3.25
X6.45Y-3.3
X6.45Y-3.8
X6.45Y-3.85
X6.45Y-3.9
X6.45Y-3.95
X6.5Y-3.2
X6.5Y-3.25
X6.5Y-3.3
X6.5Y-3.35
X6.5Y-3.5
X6.5Y-3.55
X6.5Y-3.8
X6.5Y-3.85
X6.5Y-3.9
X6.5Y-3.95
X6.55Y-3.2
X6.55Y-3.25
X6.55Y-3.3
X6.55Y-3.35
X6.55Y-3.5
X6.55Y-3.55
X6.55Y-3.8
X6.55Y-3.85
X6.55Y-3.9
X6.55Y-3.95
T2
X5.93Y-3.26
X5.93Y-3.36
X5.93Y-3.46
X5.93Y-3.56
X6.24Y-3.26
X6.26Y-3.9
X6.34Y-3.26
X6.36Y-3.9
T0
M30
