G04 #@! TF.FileFunction,Legend,Bot*
%FSLAX46Y46*%
G04 Gerber Fmt 4.6, Leading zero omitted, Abs format (unit mm)*
G04 Created by KiCad (PCBNEW (2015-05-26 BZR 5680)-product) date 2015 June 16, Tuesday 18:31:44*
%MOMM*%
G01*
G04 APERTURE LIST*
%ADD10C,0.100000*%
%ADD11C,0.127000*%
%ADD12R,2.032000X2.032000*%
%ADD13O,2.032000X2.032000*%
%ADD14R,2.032000X1.727200*%
%ADD15O,2.032000X1.727200*%
G04 APERTURE END LIST*
D10*
D11*
X158931429Y-84836000D02*
X159004000Y-84799714D01*
X159112857Y-84799714D01*
X159221714Y-84836000D01*
X159294286Y-84908571D01*
X159330571Y-84981143D01*
X159366857Y-85126286D01*
X159366857Y-85235143D01*
X159330571Y-85380286D01*
X159294286Y-85452857D01*
X159221714Y-85525429D01*
X159112857Y-85561714D01*
X159040286Y-85561714D01*
X158931429Y-85525429D01*
X158895143Y-85489143D01*
X158895143Y-85235143D01*
X159040286Y-85235143D01*
X158568571Y-85561714D02*
X158568571Y-84799714D01*
X158133143Y-85561714D01*
X158133143Y-84799714D01*
X157770285Y-85561714D02*
X157770285Y-84799714D01*
X157588857Y-84799714D01*
X157480000Y-84836000D01*
X157407428Y-84908571D01*
X157371143Y-84981143D01*
X157334857Y-85126286D01*
X157334857Y-85235143D01*
X157371143Y-85380286D01*
X157407428Y-85452857D01*
X157480000Y-85525429D01*
X157588857Y-85561714D01*
X157770285Y-85561714D01*
X161979429Y-84672714D02*
X161725429Y-85434714D01*
X161471429Y-84672714D01*
X160890857Y-85398429D02*
X160963428Y-85434714D01*
X161108571Y-85434714D01*
X161181143Y-85398429D01*
X161217428Y-85362143D01*
X161253714Y-85289571D01*
X161253714Y-85071857D01*
X161217428Y-84999286D01*
X161181143Y-84963000D01*
X161108571Y-84926714D01*
X160963428Y-84926714D01*
X160890857Y-84963000D01*
X160237714Y-85398429D02*
X160310285Y-85434714D01*
X160455428Y-85434714D01*
X160528000Y-85398429D01*
X160564285Y-85362143D01*
X160600571Y-85289571D01*
X160600571Y-85071857D01*
X160564285Y-84999286D01*
X160528000Y-84963000D01*
X160455428Y-84926714D01*
X160310285Y-84926714D01*
X160237714Y-84963000D01*
X162106429Y-96356714D02*
X161961286Y-96356714D01*
X161888714Y-96393000D01*
X161816143Y-96465571D01*
X161779857Y-96610714D01*
X161779857Y-96864714D01*
X161816143Y-97009857D01*
X161888714Y-97082429D01*
X161961286Y-97118714D01*
X162106429Y-97118714D01*
X162179000Y-97082429D01*
X162251571Y-97009857D01*
X162287857Y-96864714D01*
X162287857Y-96610714D01*
X162251571Y-96465571D01*
X162179000Y-96393000D01*
X162106429Y-96356714D01*
X161489571Y-96429286D02*
X161453285Y-96393000D01*
X161380714Y-96356714D01*
X161199285Y-96356714D01*
X161126714Y-96393000D01*
X161090428Y-96429286D01*
X161054143Y-96501857D01*
X161054143Y-96574429D01*
X161090428Y-96683286D01*
X161525857Y-97118714D01*
X161054143Y-97118714D01*
X159058429Y-96356714D02*
X158913286Y-96356714D01*
X158840714Y-96393000D01*
X158768143Y-96465571D01*
X158731857Y-96610714D01*
X158731857Y-96864714D01*
X158768143Y-97009857D01*
X158840714Y-97082429D01*
X158913286Y-97118714D01*
X159058429Y-97118714D01*
X159131000Y-97082429D01*
X159203571Y-97009857D01*
X159239857Y-96864714D01*
X159239857Y-96610714D01*
X159203571Y-96465571D01*
X159131000Y-96393000D01*
X159058429Y-96356714D01*
X158006143Y-97118714D02*
X158441571Y-97118714D01*
X158223857Y-97118714D02*
X158223857Y-96356714D01*
X158296428Y-96465571D01*
X158369000Y-96538143D01*
X158441571Y-96574429D01*
X153343429Y-89426143D02*
X153379714Y-89535000D01*
X153379714Y-89716429D01*
X153343429Y-89789000D01*
X153307143Y-89825286D01*
X153234571Y-89861571D01*
X153162000Y-89861571D01*
X153089429Y-89825286D01*
X153053143Y-89789000D01*
X153016857Y-89716429D01*
X152980571Y-89571286D01*
X152944286Y-89498714D01*
X152908000Y-89462429D01*
X152835429Y-89426143D01*
X152762857Y-89426143D01*
X152690286Y-89462429D01*
X152654000Y-89498714D01*
X152617714Y-89571286D01*
X152617714Y-89752714D01*
X152654000Y-89861571D01*
X152617714Y-90079285D02*
X152617714Y-90514714D01*
X153379714Y-90297000D02*
X152617714Y-90297000D01*
X152980571Y-91022714D02*
X153016857Y-91131571D01*
X153053143Y-91167856D01*
X153125714Y-91204142D01*
X153234571Y-91204142D01*
X153307143Y-91167856D01*
X153343429Y-91131571D01*
X153379714Y-91058999D01*
X153379714Y-90768714D01*
X152617714Y-90768714D01*
X152617714Y-91022714D01*
X152654000Y-91095285D01*
X152690286Y-91131571D01*
X152762857Y-91167856D01*
X152835429Y-91167856D01*
X152908000Y-91131571D01*
X152944286Y-91095285D01*
X152980571Y-91022714D01*
X152980571Y-90768714D01*
X153016857Y-91675856D02*
X153379714Y-91675856D01*
X152617714Y-91421856D02*
X153016857Y-91675856D01*
X152617714Y-91929856D01*
X153379714Y-87176429D02*
X152617714Y-87176429D01*
X153379714Y-87539286D02*
X152617714Y-87539286D01*
X153379714Y-87974714D01*
X152617714Y-87974714D01*
X153379714Y-88736714D02*
X153379714Y-88301286D01*
X153379714Y-88519000D02*
X152617714Y-88519000D01*
X152726571Y-88446429D01*
X152799143Y-88373857D01*
X152835429Y-88301286D01*
X152563286Y-86178571D02*
X153325286Y-86178571D01*
X152563286Y-85815714D02*
X153325286Y-85815714D01*
X152563286Y-85380286D01*
X153325286Y-85380286D01*
X153252714Y-85053714D02*
X153289000Y-85017428D01*
X153325286Y-84944857D01*
X153325286Y-84763428D01*
X153289000Y-84690857D01*
X153252714Y-84654571D01*
X153180143Y-84618286D01*
X153107571Y-84618286D01*
X152998714Y-84654571D01*
X152563286Y-85090000D01*
X152563286Y-84618286D01*
X153379714Y-81588429D02*
X152617714Y-81588429D01*
X152617714Y-81878714D01*
X152654000Y-81951286D01*
X152690286Y-81987571D01*
X152762857Y-82023857D01*
X152871714Y-82023857D01*
X152944286Y-81987571D01*
X152980571Y-81951286D01*
X153016857Y-81878714D01*
X153016857Y-81588429D01*
X153379714Y-82350429D02*
X152617714Y-82350429D01*
X153162000Y-82604429D01*
X152617714Y-82858429D01*
X153379714Y-82858429D01*
X152617714Y-83148714D02*
X153379714Y-83330143D01*
X152835429Y-83475286D01*
X153379714Y-83620428D01*
X152617714Y-83801857D01*
%LPC*%
D12*
X161036000Y-82804000D03*
D13*
X158496000Y-82804000D03*
D14*
X150622000Y-82804000D03*
D15*
X150622000Y-85344000D03*
X150622000Y-87884000D03*
X150622000Y-90424000D03*
D12*
X159004000Y-99060000D03*
D13*
X161544000Y-99060000D03*
M02*
