G04 #@! TF.FileFunction,Copper,L2,Bot,Signal*
%FSLAX46Y46*%
G04 Gerber Fmt 4.6, Leading zero omitted, Abs format (unit mm)*
G04 Created by KiCad (PCBNEW (2015-05-26 BZR 5680)-product) date 2015 June 16, Tuesday 18:31:44*
%MOMM*%
G01*
G04 APERTURE LIST*
%ADD10C,0.100000*%
%ADD11R,2.032000X2.032000*%
%ADD12O,2.032000X2.032000*%
%ADD13R,2.032000X1.727200*%
%ADD14O,2.032000X1.727200*%
%ADD15C,0.685800*%
%ADD16C,0.152400*%
%ADD17C,0.304800*%
G04 APERTURE END LIST*
D10*
D11*
X161036000Y-82804000D03*
D12*
X158496000Y-82804000D03*
D13*
X150622000Y-82804000D03*
D14*
X150622000Y-85344000D03*
X150622000Y-87884000D03*
X150622000Y-90424000D03*
D11*
X159004000Y-99060000D03*
D12*
X161544000Y-99060000D03*
D15*
X149860000Y-100330000D03*
X156210000Y-97790000D03*
X156210000Y-99060000D03*
X156210000Y-100330000D03*
X154940000Y-100330000D03*
X154940000Y-99060000D03*
X154940000Y-97790000D03*
X154940000Y-96520000D03*
X154940000Y-95250000D03*
X153670000Y-95250000D03*
X152400000Y-95250000D03*
X152400000Y-93980000D03*
X152400000Y-92710000D03*
X151130000Y-92710000D03*
X149860000Y-92710000D03*
X149860000Y-93980000D03*
X151130000Y-93980000D03*
X151130000Y-95250000D03*
X149860000Y-95250000D03*
X149860000Y-96520000D03*
X151130000Y-96520000D03*
X152400000Y-96520000D03*
X153670000Y-96520000D03*
X153670000Y-97790000D03*
X152400000Y-97790000D03*
X151130000Y-97790000D03*
X149860000Y-97790000D03*
X149860000Y-99060000D03*
X151130000Y-99060000D03*
X152400000Y-99060000D03*
X153670000Y-99060000D03*
X153670000Y-100330000D03*
X152400000Y-100330000D03*
X151130000Y-100330000D03*
X156210000Y-95250000D03*
X156210000Y-96520000D03*
X157480000Y-96520000D03*
X160020000Y-95250000D03*
X160020000Y-93980000D03*
X160020000Y-92710000D03*
X163830000Y-100330000D03*
X163830000Y-99060000D03*
X163830000Y-97790000D03*
X163830000Y-96520000D03*
X165100000Y-96520000D03*
X165100000Y-97790000D03*
X165100000Y-99060000D03*
X165100000Y-100330000D03*
X166370000Y-100330000D03*
X166370000Y-99060000D03*
X166370000Y-97790000D03*
X166370000Y-96520000D03*
X166370000Y-90170000D03*
X165100000Y-90170000D03*
X165100000Y-88900000D03*
X166370000Y-88900000D03*
X156210000Y-81280000D03*
X154940000Y-81280000D03*
X153670000Y-81280000D03*
X152400000Y-82550000D03*
X153670000Y-82550000D03*
X154940000Y-82550000D03*
X156210000Y-82550000D03*
X156210000Y-83820000D03*
X154940000Y-83820000D03*
X153670000Y-83820000D03*
X154940000Y-85090000D03*
X156210000Y-85090000D03*
X156210000Y-86360000D03*
X157480000Y-86360000D03*
X157480000Y-85090000D03*
X158750000Y-85090000D03*
X160020000Y-85090000D03*
X163830000Y-83820000D03*
X163830000Y-82550000D03*
X163830000Y-81280000D03*
X165100000Y-81280000D03*
X165100000Y-82550000D03*
X165100000Y-83820000D03*
X165100000Y-85090000D03*
X166370000Y-85090000D03*
X166370000Y-83820000D03*
X166370000Y-82550000D03*
X166370000Y-81280000D03*
X152400000Y-89662000D03*
X161036000Y-89662000D03*
X153289000Y-85344000D03*
X160274000Y-90424000D03*
X153162000Y-87884000D03*
D16*
X156210000Y-97790000D02*
X156210000Y-99060000D01*
X156210000Y-100330000D02*
X154940000Y-100330000D01*
X154940000Y-99060000D02*
X154940000Y-97790000D01*
X154940000Y-96520000D02*
X154940000Y-95250000D01*
X153670000Y-95250000D02*
X152400000Y-95250000D01*
X152400000Y-93980000D02*
X152400000Y-92710000D01*
X151130000Y-92710000D02*
X149860000Y-92710000D01*
X149860000Y-93980000D02*
X151130000Y-93980000D01*
X151130000Y-95250000D02*
X149860000Y-95250000D01*
X149860000Y-96520000D02*
X151130000Y-96520000D01*
X152400000Y-96520000D02*
X153670000Y-96520000D01*
X153670000Y-97790000D02*
X152400000Y-97790000D01*
X151130000Y-97790000D02*
X149860000Y-97790000D01*
X149860000Y-99060000D02*
X151130000Y-99060000D01*
X152400000Y-99060000D02*
X153670000Y-99060000D01*
X153670000Y-100330000D02*
X152400000Y-100330000D01*
X149860000Y-100330000D02*
X151130000Y-100330000D01*
X156210000Y-95250000D02*
X156210000Y-96520000D01*
X157480000Y-96520000D02*
X158750000Y-95250000D01*
X158750000Y-95250000D02*
X160020000Y-95250000D01*
X160020000Y-93980000D02*
X160020000Y-92710000D01*
D17*
X163830000Y-99060000D02*
X163830000Y-100330000D01*
X163830000Y-96520000D02*
X163830000Y-97790000D01*
X165100000Y-97790000D02*
X165100000Y-96520000D01*
X165100000Y-100330000D02*
X165100000Y-99060000D01*
X166370000Y-99060000D02*
X166370000Y-100330000D01*
X166370000Y-96520000D02*
X166370000Y-97790000D01*
X165100000Y-90170000D02*
X166370000Y-90170000D01*
X166370000Y-88900000D02*
X165100000Y-88900000D01*
X156210000Y-81280000D02*
X154940000Y-81280000D01*
X153670000Y-81280000D02*
X152400000Y-82550000D01*
X153670000Y-82550000D02*
X154940000Y-82550000D01*
X156210000Y-82550000D02*
X156210000Y-83820000D01*
X154940000Y-83820000D02*
X153670000Y-83820000D01*
X154940000Y-85090000D02*
X156210000Y-85090000D01*
X156210000Y-86360000D02*
X157480000Y-86360000D01*
X157480000Y-85090000D02*
X158750000Y-85090000D01*
X160020000Y-85090000D02*
X162560000Y-85090000D01*
X162560000Y-85090000D02*
X163830000Y-83820000D01*
X163830000Y-82550000D02*
X163830000Y-81280000D01*
X165100000Y-81280000D02*
X165100000Y-82550000D01*
X165100000Y-83820000D02*
X165100000Y-85090000D01*
X166370000Y-85090000D02*
X166370000Y-83820000D01*
X166370000Y-82550000D02*
X166370000Y-81280000D01*
X150622000Y-82804000D02*
X151384000Y-82804000D01*
X151384000Y-82804000D02*
X152400000Y-83820000D01*
X152400000Y-83820000D02*
X152400000Y-89662000D01*
X157607000Y-89662000D02*
X161036000Y-89662000D01*
X153289000Y-85344000D02*
X157607000Y-89662000D01*
X155702000Y-90424000D02*
X160274000Y-90424000D01*
X153162000Y-87884000D02*
X155702000Y-90424000D01*
D16*
G36*
X167869400Y-101321400D02*
X162788600Y-101321400D01*
X162788600Y-99084383D01*
X162788600Y-99035617D01*
X162693860Y-98559329D01*
X162424065Y-98155552D01*
X162285079Y-98062684D01*
X162285079Y-83820000D01*
X162285079Y-81788000D01*
X162268167Y-81700836D01*
X162217842Y-81624226D01*
X162141871Y-81572944D01*
X162052000Y-81554921D01*
X160020000Y-81554921D01*
X159932836Y-81571833D01*
X159856226Y-81622158D01*
X159804944Y-81698129D01*
X159786921Y-81788000D01*
X159786921Y-83820000D01*
X159803833Y-83907164D01*
X159854158Y-83983774D01*
X159930129Y-84035056D01*
X160020000Y-84053079D01*
X162052000Y-84053079D01*
X162139164Y-84036167D01*
X162215774Y-83985842D01*
X162267056Y-83909871D01*
X162285079Y-83820000D01*
X162285079Y-98062684D01*
X162020288Y-97885757D01*
X161607599Y-97803667D01*
X161607599Y-89548820D01*
X161520776Y-89338694D01*
X161360151Y-89177789D01*
X161150177Y-89090600D01*
X160922820Y-89090401D01*
X160712694Y-89177224D01*
X160608737Y-89281000D01*
X157764816Y-89281000D01*
X153860471Y-85376655D01*
X153860599Y-85230820D01*
X153773776Y-85020694D01*
X153613151Y-84859789D01*
X153403177Y-84772600D01*
X153175820Y-84772401D01*
X152965694Y-84859224D01*
X152804789Y-85019849D01*
X152781000Y-85077139D01*
X152781000Y-83820000D01*
X152751998Y-83674198D01*
X152751998Y-83674197D01*
X152669408Y-83550592D01*
X151871079Y-82752263D01*
X151871079Y-81940400D01*
X151854167Y-81853236D01*
X151803842Y-81776626D01*
X151727871Y-81725344D01*
X151638000Y-81707321D01*
X149606000Y-81707321D01*
X149518836Y-81724233D01*
X149442226Y-81774558D01*
X149390944Y-81850529D01*
X149372921Y-81940400D01*
X149372921Y-83667600D01*
X149389833Y-83754764D01*
X149440158Y-83831374D01*
X149516129Y-83882656D01*
X149606000Y-83900679D01*
X151638000Y-83900679D01*
X151725164Y-83883767D01*
X151801774Y-83833442D01*
X151831132Y-83789948D01*
X152019000Y-83977816D01*
X152019000Y-89234817D01*
X151915789Y-89337849D01*
X151890983Y-89397588D01*
X151890983Y-87884000D01*
X151890983Y-85344000D01*
X151807844Y-84926033D01*
X151571085Y-84571698D01*
X151216750Y-84334939D01*
X150798783Y-84251800D01*
X150445217Y-84251800D01*
X150027250Y-84334939D01*
X149672915Y-84571698D01*
X149436156Y-84926033D01*
X149353017Y-85344000D01*
X149436156Y-85761967D01*
X149672915Y-86116302D01*
X150027250Y-86353061D01*
X150445217Y-86436200D01*
X150798783Y-86436200D01*
X151216750Y-86353061D01*
X151571085Y-86116302D01*
X151807844Y-85761967D01*
X151890983Y-85344000D01*
X151890983Y-87884000D01*
X151807844Y-87466033D01*
X151571085Y-87111698D01*
X151216750Y-86874939D01*
X150798783Y-86791800D01*
X150445217Y-86791800D01*
X150027250Y-86874939D01*
X149672915Y-87111698D01*
X149436156Y-87466033D01*
X149353017Y-87884000D01*
X149436156Y-88301967D01*
X149672915Y-88656302D01*
X150027250Y-88893061D01*
X150445217Y-88976200D01*
X150798783Y-88976200D01*
X151216750Y-88893061D01*
X151571085Y-88656302D01*
X151807844Y-88301967D01*
X151890983Y-87884000D01*
X151890983Y-89397588D01*
X151828600Y-89547823D01*
X151828401Y-89775180D01*
X151915224Y-89985306D01*
X152075849Y-90146211D01*
X152285823Y-90233400D01*
X152513180Y-90233599D01*
X152723306Y-90146776D01*
X152884211Y-89986151D01*
X152971400Y-89776177D01*
X152971599Y-89548820D01*
X152884776Y-89338694D01*
X152781000Y-89234737D01*
X152781000Y-88311262D01*
X152837849Y-88368211D01*
X153047823Y-88455400D01*
X153194712Y-88455528D01*
X155432589Y-90693404D01*
X155432592Y-90693408D01*
X155556197Y-90775997D01*
X155556198Y-90775998D01*
X155702000Y-90805000D01*
X159846817Y-90805000D01*
X159949849Y-90908211D01*
X160159823Y-90995400D01*
X160387180Y-90995599D01*
X160597306Y-90908776D01*
X160758211Y-90748151D01*
X160845400Y-90538177D01*
X160845599Y-90310820D01*
X160791197Y-90179159D01*
X160921823Y-90233400D01*
X161149180Y-90233599D01*
X161359306Y-90146776D01*
X161520211Y-89986151D01*
X161607400Y-89776177D01*
X161607599Y-89548820D01*
X161607599Y-97803667D01*
X161544000Y-97791017D01*
X161067712Y-97885757D01*
X160663935Y-98155552D01*
X160394140Y-98559329D01*
X160299400Y-99035617D01*
X160299400Y-99084383D01*
X160394140Y-99560671D01*
X160663935Y-99964448D01*
X161067712Y-100234243D01*
X161544000Y-100328983D01*
X162020288Y-100234243D01*
X162424065Y-99964448D01*
X162693860Y-99560671D01*
X162788600Y-99084383D01*
X162788600Y-101321400D01*
X160253079Y-101321400D01*
X160253079Y-100076000D01*
X160253079Y-98044000D01*
X160236167Y-97956836D01*
X160185842Y-97880226D01*
X160109871Y-97828944D01*
X160020000Y-97810921D01*
X157988000Y-97810921D01*
X157900836Y-97827833D01*
X157824226Y-97878158D01*
X157772944Y-97954129D01*
X157754921Y-98044000D01*
X157754921Y-100076000D01*
X157771833Y-100163164D01*
X157822158Y-100239774D01*
X157898129Y-100291056D01*
X157988000Y-100309079D01*
X160020000Y-100309079D01*
X160107164Y-100292167D01*
X160183774Y-100241842D01*
X160235056Y-100165871D01*
X160253079Y-100076000D01*
X160253079Y-101321400D01*
X151890983Y-101321400D01*
X151890983Y-90424000D01*
X151807844Y-90006033D01*
X151571085Y-89651698D01*
X151216750Y-89414939D01*
X150798783Y-89331800D01*
X150445217Y-89331800D01*
X150027250Y-89414939D01*
X149672915Y-89651698D01*
X149436156Y-90006033D01*
X149353017Y-90424000D01*
X149436156Y-90841967D01*
X149672915Y-91196302D01*
X150027250Y-91433061D01*
X150445217Y-91516200D01*
X150798783Y-91516200D01*
X151216750Y-91433061D01*
X151571085Y-91196302D01*
X151807844Y-90841967D01*
X151890983Y-90424000D01*
X151890983Y-101321400D01*
X148360600Y-101321400D01*
X148360600Y-80542600D01*
X167869400Y-80542600D01*
X167869400Y-101321400D01*
X167869400Y-101321400D01*
G37*
X167869400Y-101321400D02*
X162788600Y-101321400D01*
X162788600Y-99084383D01*
X162788600Y-99035617D01*
X162693860Y-98559329D01*
X162424065Y-98155552D01*
X162285079Y-98062684D01*
X162285079Y-83820000D01*
X162285079Y-81788000D01*
X162268167Y-81700836D01*
X162217842Y-81624226D01*
X162141871Y-81572944D01*
X162052000Y-81554921D01*
X160020000Y-81554921D01*
X159932836Y-81571833D01*
X159856226Y-81622158D01*
X159804944Y-81698129D01*
X159786921Y-81788000D01*
X159786921Y-83820000D01*
X159803833Y-83907164D01*
X159854158Y-83983774D01*
X159930129Y-84035056D01*
X160020000Y-84053079D01*
X162052000Y-84053079D01*
X162139164Y-84036167D01*
X162215774Y-83985842D01*
X162267056Y-83909871D01*
X162285079Y-83820000D01*
X162285079Y-98062684D01*
X162020288Y-97885757D01*
X161607599Y-97803667D01*
X161607599Y-89548820D01*
X161520776Y-89338694D01*
X161360151Y-89177789D01*
X161150177Y-89090600D01*
X160922820Y-89090401D01*
X160712694Y-89177224D01*
X160608737Y-89281000D01*
X157764816Y-89281000D01*
X153860471Y-85376655D01*
X153860599Y-85230820D01*
X153773776Y-85020694D01*
X153613151Y-84859789D01*
X153403177Y-84772600D01*
X153175820Y-84772401D01*
X152965694Y-84859224D01*
X152804789Y-85019849D01*
X152781000Y-85077139D01*
X152781000Y-83820000D01*
X152751998Y-83674198D01*
X152751998Y-83674197D01*
X152669408Y-83550592D01*
X151871079Y-82752263D01*
X151871079Y-81940400D01*
X151854167Y-81853236D01*
X151803842Y-81776626D01*
X151727871Y-81725344D01*
X151638000Y-81707321D01*
X149606000Y-81707321D01*
X149518836Y-81724233D01*
X149442226Y-81774558D01*
X149390944Y-81850529D01*
X149372921Y-81940400D01*
X149372921Y-83667600D01*
X149389833Y-83754764D01*
X149440158Y-83831374D01*
X149516129Y-83882656D01*
X149606000Y-83900679D01*
X151638000Y-83900679D01*
X151725164Y-83883767D01*
X151801774Y-83833442D01*
X151831132Y-83789948D01*
X152019000Y-83977816D01*
X152019000Y-89234817D01*
X151915789Y-89337849D01*
X151890983Y-89397588D01*
X151890983Y-87884000D01*
X151890983Y-85344000D01*
X151807844Y-84926033D01*
X151571085Y-84571698D01*
X151216750Y-84334939D01*
X150798783Y-84251800D01*
X150445217Y-84251800D01*
X150027250Y-84334939D01*
X149672915Y-84571698D01*
X149436156Y-84926033D01*
X149353017Y-85344000D01*
X149436156Y-85761967D01*
X149672915Y-86116302D01*
X150027250Y-86353061D01*
X150445217Y-86436200D01*
X150798783Y-86436200D01*
X151216750Y-86353061D01*
X151571085Y-86116302D01*
X151807844Y-85761967D01*
X151890983Y-85344000D01*
X151890983Y-87884000D01*
X151807844Y-87466033D01*
X151571085Y-87111698D01*
X151216750Y-86874939D01*
X150798783Y-86791800D01*
X150445217Y-86791800D01*
X150027250Y-86874939D01*
X149672915Y-87111698D01*
X149436156Y-87466033D01*
X149353017Y-87884000D01*
X149436156Y-88301967D01*
X149672915Y-88656302D01*
X150027250Y-88893061D01*
X150445217Y-88976200D01*
X150798783Y-88976200D01*
X151216750Y-88893061D01*
X151571085Y-88656302D01*
X151807844Y-88301967D01*
X151890983Y-87884000D01*
X151890983Y-89397588D01*
X151828600Y-89547823D01*
X151828401Y-89775180D01*
X151915224Y-89985306D01*
X152075849Y-90146211D01*
X152285823Y-90233400D01*
X152513180Y-90233599D01*
X152723306Y-90146776D01*
X152884211Y-89986151D01*
X152971400Y-89776177D01*
X152971599Y-89548820D01*
X152884776Y-89338694D01*
X152781000Y-89234737D01*
X152781000Y-88311262D01*
X152837849Y-88368211D01*
X153047823Y-88455400D01*
X153194712Y-88455528D01*
X155432589Y-90693404D01*
X155432592Y-90693408D01*
X155556197Y-90775997D01*
X155556198Y-90775998D01*
X155702000Y-90805000D01*
X159846817Y-90805000D01*
X159949849Y-90908211D01*
X160159823Y-90995400D01*
X160387180Y-90995599D01*
X160597306Y-90908776D01*
X160758211Y-90748151D01*
X160845400Y-90538177D01*
X160845599Y-90310820D01*
X160791197Y-90179159D01*
X160921823Y-90233400D01*
X161149180Y-90233599D01*
X161359306Y-90146776D01*
X161520211Y-89986151D01*
X161607400Y-89776177D01*
X161607599Y-89548820D01*
X161607599Y-97803667D01*
X161544000Y-97791017D01*
X161067712Y-97885757D01*
X160663935Y-98155552D01*
X160394140Y-98559329D01*
X160299400Y-99035617D01*
X160299400Y-99084383D01*
X160394140Y-99560671D01*
X160663935Y-99964448D01*
X161067712Y-100234243D01*
X161544000Y-100328983D01*
X162020288Y-100234243D01*
X162424065Y-99964448D01*
X162693860Y-99560671D01*
X162788600Y-99084383D01*
X162788600Y-101321400D01*
X160253079Y-101321400D01*
X160253079Y-100076000D01*
X160253079Y-98044000D01*
X160236167Y-97956836D01*
X160185842Y-97880226D01*
X160109871Y-97828944D01*
X160020000Y-97810921D01*
X157988000Y-97810921D01*
X157900836Y-97827833D01*
X157824226Y-97878158D01*
X157772944Y-97954129D01*
X157754921Y-98044000D01*
X157754921Y-100076000D01*
X157771833Y-100163164D01*
X157822158Y-100239774D01*
X157898129Y-100291056D01*
X157988000Y-100309079D01*
X160020000Y-100309079D01*
X160107164Y-100292167D01*
X160183774Y-100241842D01*
X160235056Y-100165871D01*
X160253079Y-100076000D01*
X160253079Y-101321400D01*
X151890983Y-101321400D01*
X151890983Y-90424000D01*
X151807844Y-90006033D01*
X151571085Y-89651698D01*
X151216750Y-89414939D01*
X150798783Y-89331800D01*
X150445217Y-89331800D01*
X150027250Y-89414939D01*
X149672915Y-89651698D01*
X149436156Y-90006033D01*
X149353017Y-90424000D01*
X149436156Y-90841967D01*
X149672915Y-91196302D01*
X150027250Y-91433061D01*
X150445217Y-91516200D01*
X150798783Y-91516200D01*
X151216750Y-91433061D01*
X151571085Y-91196302D01*
X151807844Y-90841967D01*
X151890983Y-90424000D01*
X151890983Y-101321400D01*
X148360600Y-101321400D01*
X148360600Y-80542600D01*
X167869400Y-80542600D01*
X167869400Y-101321400D01*
M02*
