G04 #@! TF.FileFunction,Copper,L1,Top,Signal*
%FSLAX46Y46*%
G04 Gerber Fmt 4.6, Leading zero omitted, Abs format (unit mm)*
G04 Created by KiCad (PCBNEW (2015-05-26 BZR 5680)-product) date 2015 June 16, Tuesday 18:31:44*
%MOMM*%
G01*
G04 APERTURE LIST*
%ADD10C,0.100000*%
%ADD11R,1.000000X1.250000*%
%ADD12R,1.000000X1.600000*%
%ADD13R,1.250000X1.000000*%
%ADD14R,1.600000X1.000000*%
%ADD15R,2.032000X2.032000*%
%ADD16O,2.032000X2.032000*%
%ADD17R,2.032000X1.727200*%
%ADD18O,2.032000X1.727200*%
%ADD19R,1.270000X0.406400*%
%ADD20C,0.685800*%
%ADD21C,0.304800*%
%ADD22C,0.609600*%
%ADD23C,0.152400*%
G04 APERTURE END LIST*
D10*
D11*
X161782000Y-86868000D03*
X159782000Y-86868000D03*
D12*
X163854000Y-86614000D03*
X166854000Y-86614000D03*
D13*
X154940000Y-91710000D03*
X154940000Y-93710000D03*
D14*
X165354000Y-91718000D03*
X165354000Y-94718000D03*
D15*
X161036000Y-82804000D03*
D16*
X158496000Y-82804000D03*
D17*
X150622000Y-82804000D03*
D18*
X150622000Y-85344000D03*
X150622000Y-87884000D03*
X150622000Y-90424000D03*
D15*
X159004000Y-99060000D03*
D16*
X161544000Y-99060000D03*
D19*
X157353000Y-89281000D03*
X157353000Y-89916000D03*
X157353000Y-90576400D03*
X157353000Y-91236800D03*
X157353000Y-91871800D03*
X157353000Y-92532200D03*
X157353000Y-93192600D03*
X157353000Y-93827600D03*
X157353000Y-94488000D03*
X157353000Y-95123000D03*
X162687000Y-95123000D03*
X162687000Y-94488000D03*
X162687000Y-93827600D03*
X162687000Y-93192600D03*
X162687000Y-92532200D03*
X162687000Y-91871800D03*
X162687000Y-91236800D03*
X162687000Y-90576400D03*
X162687000Y-89916000D03*
X162687000Y-89281000D03*
D20*
X149860000Y-100330000D03*
X156210000Y-97790000D03*
X156210000Y-99060000D03*
X156210000Y-100330000D03*
X154940000Y-100330000D03*
X154940000Y-99060000D03*
X154940000Y-97790000D03*
X154940000Y-96520000D03*
X154940000Y-95250000D03*
X153670000Y-95250000D03*
X152400000Y-95250000D03*
X152400000Y-93980000D03*
X152400000Y-92710000D03*
X151130000Y-92710000D03*
X149860000Y-92710000D03*
X149860000Y-93980000D03*
X151130000Y-93980000D03*
X151130000Y-95250000D03*
X149860000Y-95250000D03*
X149860000Y-96520000D03*
X151130000Y-96520000D03*
X152400000Y-96520000D03*
X153670000Y-96520000D03*
X153670000Y-97790000D03*
X152400000Y-97790000D03*
X151130000Y-97790000D03*
X149860000Y-97790000D03*
X149860000Y-99060000D03*
X151130000Y-99060000D03*
X152400000Y-99060000D03*
X153670000Y-99060000D03*
X153670000Y-100330000D03*
X152400000Y-100330000D03*
X151130000Y-100330000D03*
X156210000Y-95250000D03*
X156210000Y-96520000D03*
X157480000Y-96520000D03*
X160020000Y-95250000D03*
X160020000Y-93980000D03*
X160020000Y-92710000D03*
X163830000Y-100330000D03*
X163830000Y-99060000D03*
X163830000Y-97790000D03*
X163830000Y-96520000D03*
X165100000Y-96520000D03*
X165100000Y-97790000D03*
X165100000Y-99060000D03*
X165100000Y-100330000D03*
X166370000Y-100330000D03*
X166370000Y-99060000D03*
X166370000Y-97790000D03*
X166370000Y-96520000D03*
X166370000Y-90170000D03*
X165100000Y-90170000D03*
X165100000Y-88900000D03*
X166370000Y-88900000D03*
X156210000Y-81280000D03*
X154940000Y-81280000D03*
X153670000Y-81280000D03*
X152400000Y-82550000D03*
X153670000Y-82550000D03*
X154940000Y-82550000D03*
X156210000Y-82550000D03*
X156210000Y-83820000D03*
X154940000Y-83820000D03*
X153670000Y-83820000D03*
X154940000Y-85090000D03*
X156210000Y-85090000D03*
X156210000Y-86360000D03*
X157480000Y-86360000D03*
X157480000Y-85090000D03*
X158750000Y-85090000D03*
X160020000Y-85090000D03*
X163830000Y-83820000D03*
X163830000Y-82550000D03*
X163830000Y-81280000D03*
X165100000Y-81280000D03*
X165100000Y-82550000D03*
X165100000Y-83820000D03*
X165100000Y-85090000D03*
X166370000Y-85090000D03*
X166370000Y-83820000D03*
X166370000Y-82550000D03*
X166370000Y-81280000D03*
X152400000Y-89662000D03*
X161036000Y-89662000D03*
X153289000Y-85344000D03*
X160274000Y-90424000D03*
X153162000Y-87884000D03*
D21*
X162687000Y-89281000D02*
X162687000Y-87781000D01*
X162687000Y-87781000D02*
X163854000Y-86614000D01*
X162687000Y-89281000D02*
X162433000Y-89281000D01*
X162433000Y-89281000D02*
X161782000Y-88630000D01*
X161782000Y-88630000D02*
X161782000Y-86868000D01*
D22*
X162036000Y-86614000D02*
X161782000Y-86868000D01*
X163854000Y-86614000D02*
X162036000Y-86614000D01*
X161798000Y-83566000D02*
X161036000Y-82804000D01*
X161798000Y-85344000D02*
X161798000Y-83566000D01*
X161782000Y-86376000D02*
X161798000Y-85344000D01*
X161782000Y-86868000D02*
X161782000Y-86376000D01*
D21*
X164338000Y-86614000D02*
X163854000Y-86614000D01*
X163703000Y-89281000D02*
X164338000Y-88646000D01*
X164338000Y-88646000D02*
X164338000Y-87376000D01*
X164338000Y-87376000D02*
X164338000Y-86614000D01*
X162687000Y-89281000D02*
X163703000Y-89281000D01*
X163854000Y-86844000D02*
X163854000Y-86614000D01*
D23*
X156210000Y-99060000D02*
X156210000Y-100330000D01*
X154940000Y-100330000D02*
X154940000Y-99060000D01*
X154940000Y-97790000D02*
X154940000Y-96520000D01*
X154940000Y-95250000D02*
X153670000Y-95250000D01*
X152400000Y-95250000D02*
X152400000Y-93980000D01*
X152400000Y-92710000D02*
X151130000Y-92710000D01*
X149860000Y-92710000D02*
X149860000Y-93980000D01*
X151130000Y-93980000D02*
X151130000Y-95250000D01*
X149860000Y-95250000D02*
X149860000Y-96520000D01*
X151130000Y-96520000D02*
X152400000Y-96520000D01*
X153670000Y-96520000D02*
X153670000Y-97790000D01*
X152400000Y-97790000D02*
X151130000Y-97790000D01*
X149860000Y-97790000D02*
X149860000Y-99060000D01*
X151130000Y-99060000D02*
X152400000Y-99060000D01*
X153670000Y-99060000D02*
X153670000Y-100330000D01*
X152400000Y-100330000D02*
X151130000Y-100330000D01*
X156210000Y-97790000D02*
X156210000Y-96520000D01*
X154940000Y-93710000D02*
X154940000Y-93980000D01*
X154940000Y-93980000D02*
X156210000Y-95250000D01*
X156210000Y-96520000D02*
X157480000Y-96520000D01*
X160020000Y-95250000D02*
X160020000Y-93980000D01*
D21*
X165354000Y-94718000D02*
X165354000Y-95504000D01*
X163830000Y-97790000D02*
X163830000Y-99060000D01*
X165100000Y-96520000D02*
X163830000Y-96520000D01*
X165100000Y-99060000D02*
X165100000Y-97790000D01*
X166370000Y-100330000D02*
X165100000Y-100330000D01*
X166370000Y-97790000D02*
X166370000Y-99060000D01*
X165354000Y-95504000D02*
X166370000Y-96520000D01*
X166854000Y-86614000D02*
X166854000Y-88416000D01*
X165100000Y-88900000D02*
X165100000Y-90170000D01*
X166854000Y-88416000D02*
X166370000Y-88900000D01*
X158496000Y-82804000D02*
X157734000Y-82804000D01*
X157734000Y-82804000D02*
X156210000Y-81280000D01*
X154940000Y-81280000D02*
X153670000Y-81280000D01*
X152400000Y-82550000D02*
X153670000Y-82550000D01*
X154940000Y-82550000D02*
X156210000Y-82550000D01*
X156210000Y-83820000D02*
X154940000Y-83820000D01*
X153670000Y-83820000D02*
X154940000Y-85090000D01*
X156210000Y-85090000D02*
X156210000Y-86360000D01*
X157480000Y-86360000D02*
X157480000Y-85090000D01*
X158750000Y-85090000D02*
X160020000Y-85090000D01*
X163830000Y-83820000D02*
X163830000Y-82550000D01*
X163830000Y-81280000D02*
X165100000Y-81280000D01*
X165100000Y-82550000D02*
X165100000Y-83820000D01*
X165100000Y-85090000D02*
X166370000Y-85090000D01*
X166370000Y-83820000D02*
X166370000Y-82550000D01*
X155159200Y-91490800D02*
X154940000Y-91710000D01*
X157353000Y-91236800D02*
X162687000Y-91236800D01*
X157353000Y-91871800D02*
X162687000Y-91871800D01*
X155413200Y-91236800D02*
X154940000Y-91710000D01*
X157353000Y-91236800D02*
X155413200Y-91236800D01*
X155101800Y-91871800D02*
X154940000Y-91710000D01*
X157353000Y-91871800D02*
X155101800Y-91871800D01*
X164872800Y-91236800D02*
X165354000Y-91718000D01*
X162687000Y-91236800D02*
X164872800Y-91236800D01*
X165200200Y-91871800D02*
X165354000Y-91718000D01*
X162687000Y-91871800D02*
X165200200Y-91871800D01*
X152400000Y-89662000D02*
X152654000Y-89916000D01*
X152654000Y-89916000D02*
X157353000Y-89916000D01*
X150622000Y-85344000D02*
X153289000Y-85344000D01*
X161290000Y-89916000D02*
X162687000Y-89916000D01*
X161036000Y-89662000D02*
X161290000Y-89916000D01*
X150622000Y-87884000D02*
X153162000Y-87884000D01*
X160426400Y-90576400D02*
X162687000Y-90576400D01*
X160274000Y-90424000D02*
X160426400Y-90576400D01*
X150876000Y-90170000D02*
X150622000Y-90424000D01*
X155702000Y-90424000D02*
X155854400Y-90576400D01*
X155854400Y-90576400D02*
X157353000Y-90576400D01*
X150622000Y-90424000D02*
X155702000Y-90424000D01*
X158572200Y-92532200D02*
X157353000Y-92532200D01*
X158572200Y-92532200D02*
X159004000Y-92964000D01*
D22*
X159004000Y-93980000D02*
X159004000Y-92964000D01*
X159004000Y-99060000D02*
X159004000Y-93980000D01*
D21*
X158216600Y-93192600D02*
X159004000Y-93980000D01*
X157353000Y-93192600D02*
X158216600Y-93192600D01*
D22*
X161036000Y-98552000D02*
X161544000Y-99060000D01*
D21*
X161467800Y-92532200D02*
X162687000Y-92532200D01*
X161467800Y-92532200D02*
X161036000Y-92964000D01*
D22*
X161036000Y-98552000D02*
X161036000Y-93980000D01*
X161036000Y-93980000D02*
X161036000Y-92964000D01*
D21*
X162687000Y-93192600D02*
X161823400Y-93192600D01*
X161823400Y-93192600D02*
X161036000Y-93980000D01*
D23*
G36*
X167869400Y-101321400D02*
X166387079Y-101321400D01*
X166387079Y-92218000D01*
X166387079Y-91218000D01*
X166370167Y-91130836D01*
X166319842Y-91054226D01*
X166243871Y-91002944D01*
X166154000Y-90984921D01*
X165159736Y-90984921D01*
X165142208Y-90967392D01*
X165018603Y-90884802D01*
X164872800Y-90855800D01*
X163539797Y-90855800D01*
X163555079Y-90779600D01*
X163555079Y-90373200D01*
X163538167Y-90286036D01*
X163511996Y-90246195D01*
X163537056Y-90209071D01*
X163555079Y-90119200D01*
X163555079Y-89712800D01*
X163545222Y-89662000D01*
X163703000Y-89662000D01*
X163848802Y-89632998D01*
X163848803Y-89632998D01*
X163972408Y-89550408D01*
X164607404Y-88915410D01*
X164607408Y-88915408D01*
X164607408Y-88915407D01*
X164689998Y-88791802D01*
X164719000Y-88646000D01*
X164719001Y-88646000D01*
X164719000Y-88645994D01*
X164719000Y-87376000D01*
X164719000Y-86614000D01*
X164689998Y-86468198D01*
X164607408Y-86344592D01*
X164587079Y-86331008D01*
X164587079Y-85814000D01*
X164570167Y-85726836D01*
X164519842Y-85650226D01*
X164443871Y-85598944D01*
X164354000Y-85580921D01*
X163354000Y-85580921D01*
X163266836Y-85597833D01*
X163190226Y-85648158D01*
X163138944Y-85724129D01*
X163120921Y-85814000D01*
X163120921Y-86080600D01*
X162448744Y-86080600D01*
X162447842Y-86079226D01*
X162371871Y-86027944D01*
X162321018Y-86017745D01*
X162331336Y-85352269D01*
X162330578Y-85348128D01*
X162331400Y-85344000D01*
X162331400Y-83566005D01*
X162331400Y-83566000D01*
X162331401Y-83566000D01*
X162290797Y-83361877D01*
X162285079Y-83353319D01*
X162285079Y-81788000D01*
X162268167Y-81700836D01*
X162217842Y-81624226D01*
X162141871Y-81572944D01*
X162052000Y-81554921D01*
X160020000Y-81554921D01*
X159932836Y-81571833D01*
X159856226Y-81622158D01*
X159804944Y-81698129D01*
X159786921Y-81788000D01*
X159786921Y-83820000D01*
X159803833Y-83907164D01*
X159854158Y-83983774D01*
X159930129Y-84035056D01*
X160020000Y-84053079D01*
X161264600Y-84053079D01*
X161264600Y-85339859D01*
X161254127Y-86015328D01*
X161194836Y-86026833D01*
X161118226Y-86077158D01*
X161066944Y-86153129D01*
X161048921Y-86243000D01*
X161048921Y-87493000D01*
X161065833Y-87580164D01*
X161116158Y-87656774D01*
X161192129Y-87708056D01*
X161282000Y-87726079D01*
X161401000Y-87726079D01*
X161401000Y-88630000D01*
X161430002Y-88775803D01*
X161512592Y-88899408D01*
X161818921Y-89205737D01*
X161818921Y-89484200D01*
X161828777Y-89535000D01*
X161601888Y-89535000D01*
X161520776Y-89338694D01*
X161360151Y-89177789D01*
X161150177Y-89090600D01*
X160922820Y-89090401D01*
X160712694Y-89177224D01*
X160551789Y-89337849D01*
X160464600Y-89547823D01*
X160464401Y-89775180D01*
X160518802Y-89906840D01*
X160388177Y-89852600D01*
X160160820Y-89852401D01*
X159950694Y-89939224D01*
X159789789Y-90099849D01*
X159702600Y-90309823D01*
X159702401Y-90537180D01*
X159789224Y-90747306D01*
X159897529Y-90855800D01*
X158205797Y-90855800D01*
X158221079Y-90779600D01*
X158221079Y-90373200D01*
X158204167Y-90286036D01*
X158177996Y-90246195D01*
X158203056Y-90209071D01*
X158221079Y-90119200D01*
X158221079Y-89712800D01*
X158204167Y-89625636D01*
X158153842Y-89549026D01*
X158077871Y-89497744D01*
X157988000Y-89479721D01*
X156718000Y-89479721D01*
X156630836Y-89496633D01*
X156572429Y-89535000D01*
X153860599Y-89535000D01*
X153860599Y-85230820D01*
X153773776Y-85020694D01*
X153613151Y-84859789D01*
X153403177Y-84772600D01*
X153175820Y-84772401D01*
X152965694Y-84859224D01*
X152861737Y-84963000D01*
X151871079Y-84963000D01*
X151871079Y-83667600D01*
X151871079Y-81940400D01*
X151854167Y-81853236D01*
X151803842Y-81776626D01*
X151727871Y-81725344D01*
X151638000Y-81707321D01*
X149606000Y-81707321D01*
X149518836Y-81724233D01*
X149442226Y-81774558D01*
X149390944Y-81850529D01*
X149372921Y-81940400D01*
X149372921Y-83667600D01*
X149389833Y-83754764D01*
X149440158Y-83831374D01*
X149516129Y-83882656D01*
X149606000Y-83900679D01*
X151638000Y-83900679D01*
X151725164Y-83883767D01*
X151801774Y-83833442D01*
X151853056Y-83757471D01*
X151871079Y-83667600D01*
X151871079Y-84963000D01*
X151815197Y-84963000D01*
X151807844Y-84926033D01*
X151571085Y-84571698D01*
X151216750Y-84334939D01*
X150798783Y-84251800D01*
X150445217Y-84251800D01*
X150027250Y-84334939D01*
X149672915Y-84571698D01*
X149436156Y-84926033D01*
X149353017Y-85344000D01*
X149436156Y-85761967D01*
X149672915Y-86116302D01*
X150027250Y-86353061D01*
X150445217Y-86436200D01*
X150798783Y-86436200D01*
X151216750Y-86353061D01*
X151571085Y-86116302D01*
X151807844Y-85761967D01*
X151815197Y-85725000D01*
X152861817Y-85725000D01*
X152964849Y-85828211D01*
X153174823Y-85915400D01*
X153402180Y-85915599D01*
X153612306Y-85828776D01*
X153773211Y-85668151D01*
X153860400Y-85458177D01*
X153860599Y-85230820D01*
X153860599Y-89535000D01*
X153733599Y-89535000D01*
X153733599Y-87770820D01*
X153646776Y-87560694D01*
X153486151Y-87399789D01*
X153276177Y-87312600D01*
X153048820Y-87312401D01*
X152838694Y-87399224D01*
X152734737Y-87503000D01*
X151815197Y-87503000D01*
X151807844Y-87466033D01*
X151571085Y-87111698D01*
X151216750Y-86874939D01*
X150798783Y-86791800D01*
X150445217Y-86791800D01*
X150027250Y-86874939D01*
X149672915Y-87111698D01*
X149436156Y-87466033D01*
X149353017Y-87884000D01*
X149436156Y-88301967D01*
X149672915Y-88656302D01*
X150027250Y-88893061D01*
X150445217Y-88976200D01*
X150798783Y-88976200D01*
X151216750Y-88893061D01*
X151571085Y-88656302D01*
X151807844Y-88301967D01*
X151815197Y-88265000D01*
X152734817Y-88265000D01*
X152837849Y-88368211D01*
X153047823Y-88455400D01*
X153275180Y-88455599D01*
X153485306Y-88368776D01*
X153646211Y-88208151D01*
X153733400Y-87998177D01*
X153733599Y-87770820D01*
X153733599Y-89535000D01*
X152965888Y-89535000D01*
X152884776Y-89338694D01*
X152724151Y-89177789D01*
X152514177Y-89090600D01*
X152286820Y-89090401D01*
X152076694Y-89177224D01*
X151915789Y-89337849D01*
X151828600Y-89547823D01*
X151828401Y-89775180D01*
X151915224Y-89985306D01*
X151972817Y-90043000D01*
X151815197Y-90043000D01*
X151807844Y-90006033D01*
X151571085Y-89651698D01*
X151216750Y-89414939D01*
X150798783Y-89331800D01*
X150445217Y-89331800D01*
X150027250Y-89414939D01*
X149672915Y-89651698D01*
X149436156Y-90006033D01*
X149353017Y-90424000D01*
X149436156Y-90841967D01*
X149672915Y-91196302D01*
X150027250Y-91433061D01*
X150445217Y-91516200D01*
X150798783Y-91516200D01*
X151216750Y-91433061D01*
X151571085Y-91196302D01*
X151807844Y-90841967D01*
X151815197Y-90805000D01*
X155544184Y-90805000D01*
X155584992Y-90845808D01*
X155599946Y-90855800D01*
X155413205Y-90855800D01*
X155413200Y-90855799D01*
X155267398Y-90884802D01*
X155143792Y-90967392D01*
X155134263Y-90976921D01*
X154315000Y-90976921D01*
X154227836Y-90993833D01*
X154151226Y-91044158D01*
X154099944Y-91120129D01*
X154081921Y-91210000D01*
X154081921Y-92210000D01*
X154098833Y-92297164D01*
X154149158Y-92373774D01*
X154225129Y-92425056D01*
X154315000Y-92443079D01*
X155565000Y-92443079D01*
X155652164Y-92426167D01*
X155728774Y-92375842D01*
X155780056Y-92299871D01*
X155789495Y-92252800D01*
X156500202Y-92252800D01*
X156484921Y-92329000D01*
X156484921Y-92735400D01*
X156501833Y-92822564D01*
X156528003Y-92862404D01*
X156502944Y-92899529D01*
X156484921Y-92989400D01*
X156484921Y-93395800D01*
X156501833Y-93482964D01*
X156552158Y-93559574D01*
X156628129Y-93610856D01*
X156718000Y-93628879D01*
X157988000Y-93628879D01*
X158075164Y-93611967D01*
X158088433Y-93603249D01*
X158470600Y-93985416D01*
X158470600Y-97810921D01*
X157988000Y-97810921D01*
X157900836Y-97827833D01*
X157824226Y-97878158D01*
X157772944Y-97954129D01*
X157754921Y-98044000D01*
X157754921Y-100076000D01*
X157771833Y-100163164D01*
X157822158Y-100239774D01*
X157898129Y-100291056D01*
X157988000Y-100309079D01*
X160020000Y-100309079D01*
X160107164Y-100292167D01*
X160183774Y-100241842D01*
X160235056Y-100165871D01*
X160253079Y-100076000D01*
X160253079Y-98044000D01*
X160236167Y-97956836D01*
X160185842Y-97880226D01*
X160109871Y-97828944D01*
X160020000Y-97810921D01*
X159537400Y-97810921D01*
X159537400Y-93980000D01*
X159537400Y-92964000D01*
X159496797Y-92759877D01*
X159381171Y-92586829D01*
X159208123Y-92471203D01*
X159010760Y-92431944D01*
X158841608Y-92262792D01*
X158826653Y-92252800D01*
X161213346Y-92252800D01*
X161198392Y-92262792D01*
X161198389Y-92262795D01*
X161029239Y-92431944D01*
X160831877Y-92471203D01*
X160658829Y-92586829D01*
X160543203Y-92759877D01*
X160502600Y-92964000D01*
X160502600Y-93980000D01*
X160502600Y-98397007D01*
X160394140Y-98559329D01*
X160299400Y-99035617D01*
X160299400Y-99084383D01*
X160394140Y-99560671D01*
X160663935Y-99964448D01*
X161067712Y-100234243D01*
X161544000Y-100328983D01*
X162020288Y-100234243D01*
X162424065Y-99964448D01*
X162693860Y-99560671D01*
X162788600Y-99084383D01*
X162788600Y-99035617D01*
X162693860Y-98559329D01*
X162424065Y-98155552D01*
X162020288Y-97885757D01*
X161569400Y-97796069D01*
X161569400Y-93985416D01*
X161951281Y-93603534D01*
X161962129Y-93610856D01*
X162052000Y-93628879D01*
X163322000Y-93628879D01*
X163409164Y-93611967D01*
X163485774Y-93561642D01*
X163537056Y-93485671D01*
X163555079Y-93395800D01*
X163555079Y-92989400D01*
X163538167Y-92902236D01*
X163511996Y-92862395D01*
X163537056Y-92825271D01*
X163555079Y-92735400D01*
X163555079Y-92329000D01*
X163540294Y-92252800D01*
X164327673Y-92252800D01*
X164337833Y-92305164D01*
X164388158Y-92381774D01*
X164464129Y-92433056D01*
X164554000Y-92451079D01*
X166154000Y-92451079D01*
X166241164Y-92434167D01*
X166317774Y-92383842D01*
X166369056Y-92307871D01*
X166387079Y-92218000D01*
X166387079Y-101321400D01*
X148360600Y-101321400D01*
X148360600Y-80542600D01*
X167869400Y-80542600D01*
X167869400Y-101321400D01*
X167869400Y-101321400D01*
G37*
X167869400Y-101321400D02*
X166387079Y-101321400D01*
X166387079Y-92218000D01*
X166387079Y-91218000D01*
X166370167Y-91130836D01*
X166319842Y-91054226D01*
X166243871Y-91002944D01*
X166154000Y-90984921D01*
X165159736Y-90984921D01*
X165142208Y-90967392D01*
X165018603Y-90884802D01*
X164872800Y-90855800D01*
X163539797Y-90855800D01*
X163555079Y-90779600D01*
X163555079Y-90373200D01*
X163538167Y-90286036D01*
X163511996Y-90246195D01*
X163537056Y-90209071D01*
X163555079Y-90119200D01*
X163555079Y-89712800D01*
X163545222Y-89662000D01*
X163703000Y-89662000D01*
X163848802Y-89632998D01*
X163848803Y-89632998D01*
X163972408Y-89550408D01*
X164607404Y-88915410D01*
X164607408Y-88915408D01*
X164607408Y-88915407D01*
X164689998Y-88791802D01*
X164719000Y-88646000D01*
X164719001Y-88646000D01*
X164719000Y-88645994D01*
X164719000Y-87376000D01*
X164719000Y-86614000D01*
X164689998Y-86468198D01*
X164607408Y-86344592D01*
X164587079Y-86331008D01*
X164587079Y-85814000D01*
X164570167Y-85726836D01*
X164519842Y-85650226D01*
X164443871Y-85598944D01*
X164354000Y-85580921D01*
X163354000Y-85580921D01*
X163266836Y-85597833D01*
X163190226Y-85648158D01*
X163138944Y-85724129D01*
X163120921Y-85814000D01*
X163120921Y-86080600D01*
X162448744Y-86080600D01*
X162447842Y-86079226D01*
X162371871Y-86027944D01*
X162321018Y-86017745D01*
X162331336Y-85352269D01*
X162330578Y-85348128D01*
X162331400Y-85344000D01*
X162331400Y-83566005D01*
X162331400Y-83566000D01*
X162331401Y-83566000D01*
X162290797Y-83361877D01*
X162285079Y-83353319D01*
X162285079Y-81788000D01*
X162268167Y-81700836D01*
X162217842Y-81624226D01*
X162141871Y-81572944D01*
X162052000Y-81554921D01*
X160020000Y-81554921D01*
X159932836Y-81571833D01*
X159856226Y-81622158D01*
X159804944Y-81698129D01*
X159786921Y-81788000D01*
X159786921Y-83820000D01*
X159803833Y-83907164D01*
X159854158Y-83983774D01*
X159930129Y-84035056D01*
X160020000Y-84053079D01*
X161264600Y-84053079D01*
X161264600Y-85339859D01*
X161254127Y-86015328D01*
X161194836Y-86026833D01*
X161118226Y-86077158D01*
X161066944Y-86153129D01*
X161048921Y-86243000D01*
X161048921Y-87493000D01*
X161065833Y-87580164D01*
X161116158Y-87656774D01*
X161192129Y-87708056D01*
X161282000Y-87726079D01*
X161401000Y-87726079D01*
X161401000Y-88630000D01*
X161430002Y-88775803D01*
X161512592Y-88899408D01*
X161818921Y-89205737D01*
X161818921Y-89484200D01*
X161828777Y-89535000D01*
X161601888Y-89535000D01*
X161520776Y-89338694D01*
X161360151Y-89177789D01*
X161150177Y-89090600D01*
X160922820Y-89090401D01*
X160712694Y-89177224D01*
X160551789Y-89337849D01*
X160464600Y-89547823D01*
X160464401Y-89775180D01*
X160518802Y-89906840D01*
X160388177Y-89852600D01*
X160160820Y-89852401D01*
X159950694Y-89939224D01*
X159789789Y-90099849D01*
X159702600Y-90309823D01*
X159702401Y-90537180D01*
X159789224Y-90747306D01*
X159897529Y-90855800D01*
X158205797Y-90855800D01*
X158221079Y-90779600D01*
X158221079Y-90373200D01*
X158204167Y-90286036D01*
X158177996Y-90246195D01*
X158203056Y-90209071D01*
X158221079Y-90119200D01*
X158221079Y-89712800D01*
X158204167Y-89625636D01*
X158153842Y-89549026D01*
X158077871Y-89497744D01*
X157988000Y-89479721D01*
X156718000Y-89479721D01*
X156630836Y-89496633D01*
X156572429Y-89535000D01*
X153860599Y-89535000D01*
X153860599Y-85230820D01*
X153773776Y-85020694D01*
X153613151Y-84859789D01*
X153403177Y-84772600D01*
X153175820Y-84772401D01*
X152965694Y-84859224D01*
X152861737Y-84963000D01*
X151871079Y-84963000D01*
X151871079Y-83667600D01*
X151871079Y-81940400D01*
X151854167Y-81853236D01*
X151803842Y-81776626D01*
X151727871Y-81725344D01*
X151638000Y-81707321D01*
X149606000Y-81707321D01*
X149518836Y-81724233D01*
X149442226Y-81774558D01*
X149390944Y-81850529D01*
X149372921Y-81940400D01*
X149372921Y-83667600D01*
X149389833Y-83754764D01*
X149440158Y-83831374D01*
X149516129Y-83882656D01*
X149606000Y-83900679D01*
X151638000Y-83900679D01*
X151725164Y-83883767D01*
X151801774Y-83833442D01*
X151853056Y-83757471D01*
X151871079Y-83667600D01*
X151871079Y-84963000D01*
X151815197Y-84963000D01*
X151807844Y-84926033D01*
X151571085Y-84571698D01*
X151216750Y-84334939D01*
X150798783Y-84251800D01*
X150445217Y-84251800D01*
X150027250Y-84334939D01*
X149672915Y-84571698D01*
X149436156Y-84926033D01*
X149353017Y-85344000D01*
X149436156Y-85761967D01*
X149672915Y-86116302D01*
X150027250Y-86353061D01*
X150445217Y-86436200D01*
X150798783Y-86436200D01*
X151216750Y-86353061D01*
X151571085Y-86116302D01*
X151807844Y-85761967D01*
X151815197Y-85725000D01*
X152861817Y-85725000D01*
X152964849Y-85828211D01*
X153174823Y-85915400D01*
X153402180Y-85915599D01*
X153612306Y-85828776D01*
X153773211Y-85668151D01*
X153860400Y-85458177D01*
X153860599Y-85230820D01*
X153860599Y-89535000D01*
X153733599Y-89535000D01*
X153733599Y-87770820D01*
X153646776Y-87560694D01*
X153486151Y-87399789D01*
X153276177Y-87312600D01*
X153048820Y-87312401D01*
X152838694Y-87399224D01*
X152734737Y-87503000D01*
X151815197Y-87503000D01*
X151807844Y-87466033D01*
X151571085Y-87111698D01*
X151216750Y-86874939D01*
X150798783Y-86791800D01*
X150445217Y-86791800D01*
X150027250Y-86874939D01*
X149672915Y-87111698D01*
X149436156Y-87466033D01*
X149353017Y-87884000D01*
X149436156Y-88301967D01*
X149672915Y-88656302D01*
X150027250Y-88893061D01*
X150445217Y-88976200D01*
X150798783Y-88976200D01*
X151216750Y-88893061D01*
X151571085Y-88656302D01*
X151807844Y-88301967D01*
X151815197Y-88265000D01*
X152734817Y-88265000D01*
X152837849Y-88368211D01*
X153047823Y-88455400D01*
X153275180Y-88455599D01*
X153485306Y-88368776D01*
X153646211Y-88208151D01*
X153733400Y-87998177D01*
X153733599Y-87770820D01*
X153733599Y-89535000D01*
X152965888Y-89535000D01*
X152884776Y-89338694D01*
X152724151Y-89177789D01*
X152514177Y-89090600D01*
X152286820Y-89090401D01*
X152076694Y-89177224D01*
X151915789Y-89337849D01*
X151828600Y-89547823D01*
X151828401Y-89775180D01*
X151915224Y-89985306D01*
X151972817Y-90043000D01*
X151815197Y-90043000D01*
X151807844Y-90006033D01*
X151571085Y-89651698D01*
X151216750Y-89414939D01*
X150798783Y-89331800D01*
X150445217Y-89331800D01*
X150027250Y-89414939D01*
X149672915Y-89651698D01*
X149436156Y-90006033D01*
X149353017Y-90424000D01*
X149436156Y-90841967D01*
X149672915Y-91196302D01*
X150027250Y-91433061D01*
X150445217Y-91516200D01*
X150798783Y-91516200D01*
X151216750Y-91433061D01*
X151571085Y-91196302D01*
X151807844Y-90841967D01*
X151815197Y-90805000D01*
X155544184Y-90805000D01*
X155584992Y-90845808D01*
X155599946Y-90855800D01*
X155413205Y-90855800D01*
X155413200Y-90855799D01*
X155267398Y-90884802D01*
X155143792Y-90967392D01*
X155134263Y-90976921D01*
X154315000Y-90976921D01*
X154227836Y-90993833D01*
X154151226Y-91044158D01*
X154099944Y-91120129D01*
X154081921Y-91210000D01*
X154081921Y-92210000D01*
X154098833Y-92297164D01*
X154149158Y-92373774D01*
X154225129Y-92425056D01*
X154315000Y-92443079D01*
X155565000Y-92443079D01*
X155652164Y-92426167D01*
X155728774Y-92375842D01*
X155780056Y-92299871D01*
X155789495Y-92252800D01*
X156500202Y-92252800D01*
X156484921Y-92329000D01*
X156484921Y-92735400D01*
X156501833Y-92822564D01*
X156528003Y-92862404D01*
X156502944Y-92899529D01*
X156484921Y-92989400D01*
X156484921Y-93395800D01*
X156501833Y-93482964D01*
X156552158Y-93559574D01*
X156628129Y-93610856D01*
X156718000Y-93628879D01*
X157988000Y-93628879D01*
X158075164Y-93611967D01*
X158088433Y-93603249D01*
X158470600Y-93985416D01*
X158470600Y-97810921D01*
X157988000Y-97810921D01*
X157900836Y-97827833D01*
X157824226Y-97878158D01*
X157772944Y-97954129D01*
X157754921Y-98044000D01*
X157754921Y-100076000D01*
X157771833Y-100163164D01*
X157822158Y-100239774D01*
X157898129Y-100291056D01*
X157988000Y-100309079D01*
X160020000Y-100309079D01*
X160107164Y-100292167D01*
X160183774Y-100241842D01*
X160235056Y-100165871D01*
X160253079Y-100076000D01*
X160253079Y-98044000D01*
X160236167Y-97956836D01*
X160185842Y-97880226D01*
X160109871Y-97828944D01*
X160020000Y-97810921D01*
X159537400Y-97810921D01*
X159537400Y-93980000D01*
X159537400Y-92964000D01*
X159496797Y-92759877D01*
X159381171Y-92586829D01*
X159208123Y-92471203D01*
X159010760Y-92431944D01*
X158841608Y-92262792D01*
X158826653Y-92252800D01*
X161213346Y-92252800D01*
X161198392Y-92262792D01*
X161198389Y-92262795D01*
X161029239Y-92431944D01*
X160831877Y-92471203D01*
X160658829Y-92586829D01*
X160543203Y-92759877D01*
X160502600Y-92964000D01*
X160502600Y-93980000D01*
X160502600Y-98397007D01*
X160394140Y-98559329D01*
X160299400Y-99035617D01*
X160299400Y-99084383D01*
X160394140Y-99560671D01*
X160663935Y-99964448D01*
X161067712Y-100234243D01*
X161544000Y-100328983D01*
X162020288Y-100234243D01*
X162424065Y-99964448D01*
X162693860Y-99560671D01*
X162788600Y-99084383D01*
X162788600Y-99035617D01*
X162693860Y-98559329D01*
X162424065Y-98155552D01*
X162020288Y-97885757D01*
X161569400Y-97796069D01*
X161569400Y-93985416D01*
X161951281Y-93603534D01*
X161962129Y-93610856D01*
X162052000Y-93628879D01*
X163322000Y-93628879D01*
X163409164Y-93611967D01*
X163485774Y-93561642D01*
X163537056Y-93485671D01*
X163555079Y-93395800D01*
X163555079Y-92989400D01*
X163538167Y-92902236D01*
X163511996Y-92862395D01*
X163537056Y-92825271D01*
X163555079Y-92735400D01*
X163555079Y-92329000D01*
X163540294Y-92252800D01*
X164327673Y-92252800D01*
X164337833Y-92305164D01*
X164388158Y-92381774D01*
X164464129Y-92433056D01*
X164554000Y-92451079D01*
X166154000Y-92451079D01*
X166241164Y-92434167D01*
X166317774Y-92383842D01*
X166369056Y-92307871D01*
X166387079Y-92218000D01*
X166387079Y-101321400D01*
X148360600Y-101321400D01*
X148360600Y-80542600D01*
X167869400Y-80542600D01*
X167869400Y-101321400D01*
M02*
