G04 #@! TF.FileFunction,Copper,L2,Bot,Signal*
%FSLAX46Y46*%
G04 Gerber Fmt 4.6, Leading zero omitted, Abs format (unit mm)*
G04 Created by KiCad (PCBNEW 4.0.1-2.201512121406+6195~38~ubuntu14.04.1-stable) date Thu 21 Apr 2016 07:43:07 PM CEST*
%MOMM*%
G01*
G04 APERTURE LIST*
%ADD10C,0.127000*%
%ADD11R,2.032000X2.032000*%
%ADD12O,2.032000X2.032000*%
%ADD13R,2.235200X2.235200*%
%ADD14R,2.032000X1.727200*%
%ADD15O,2.032000X1.727200*%
%ADD16C,0.685800*%
%ADD17C,0.152400*%
G04 APERTURE END LIST*
D10*
D11*
X150876000Y-86360000D03*
D12*
X150876000Y-88900000D03*
D11*
X151130000Y-96012000D03*
D12*
X151130000Y-98552000D03*
D13*
X162600000Y-100200000D03*
D14*
X168275000Y-81407000D03*
D15*
X168275000Y-83947000D03*
X168275000Y-86487000D03*
X168275000Y-89027000D03*
D16*
X168910000Y-99314000D03*
X169164000Y-91186000D03*
X156718000Y-98044000D03*
D17*
G36*
X172441400Y-106020400D02*
X148741600Y-106020400D01*
X148741600Y-103212331D01*
X167562101Y-103212331D01*
X167824710Y-103847894D01*
X168310548Y-104334581D01*
X168945652Y-104598299D01*
X169633331Y-104598899D01*
X170268894Y-104336290D01*
X170755581Y-103850452D01*
X171019299Y-103215348D01*
X171019899Y-102527669D01*
X170757290Y-101892106D01*
X170271452Y-101405419D01*
X169636348Y-101141701D01*
X168948669Y-101141101D01*
X168313106Y-101403710D01*
X167826419Y-101889548D01*
X167562701Y-102524652D01*
X167562101Y-103212331D01*
X148741600Y-103212331D01*
X148741600Y-98552000D01*
X149861017Y-98552000D01*
X149955757Y-99028288D01*
X150225552Y-99432065D01*
X150629329Y-99701860D01*
X151105617Y-99796600D01*
X151154383Y-99796600D01*
X151630671Y-99701860D01*
X152034448Y-99432065D01*
X152268086Y-99082400D01*
X161249322Y-99082400D01*
X161249322Y-101317600D01*
X161265262Y-101402314D01*
X161315328Y-101480118D01*
X161391720Y-101532315D01*
X161482400Y-101550678D01*
X163717600Y-101550678D01*
X163802314Y-101534738D01*
X163880118Y-101484672D01*
X163932315Y-101408280D01*
X163950678Y-101317600D01*
X163950678Y-99082400D01*
X163934738Y-98997686D01*
X163884672Y-98919882D01*
X163808280Y-98867685D01*
X163717600Y-98849322D01*
X161482400Y-98849322D01*
X161397686Y-98865262D01*
X161319882Y-98915328D01*
X161267685Y-98991720D01*
X161249322Y-99082400D01*
X152268086Y-99082400D01*
X152304243Y-99028288D01*
X152398983Y-98552000D01*
X152304243Y-98075712D01*
X152034448Y-97671935D01*
X151630671Y-97402140D01*
X151154383Y-97307400D01*
X151105617Y-97307400D01*
X150629329Y-97402140D01*
X150225552Y-97671935D01*
X149955757Y-98075712D01*
X149861017Y-98552000D01*
X148741600Y-98552000D01*
X148741600Y-94996000D01*
X149880922Y-94996000D01*
X149880922Y-97028000D01*
X149896862Y-97112714D01*
X149946928Y-97190518D01*
X150023320Y-97242715D01*
X150114000Y-97261078D01*
X152146000Y-97261078D01*
X152230714Y-97245138D01*
X152308518Y-97195072D01*
X152360715Y-97118680D01*
X152379078Y-97028000D01*
X152379078Y-94996000D01*
X152363138Y-94911286D01*
X152313072Y-94833482D01*
X152236680Y-94781285D01*
X152146000Y-94762922D01*
X150114000Y-94762922D01*
X150029286Y-94778862D01*
X149951482Y-94828928D01*
X149899285Y-94905320D01*
X149880922Y-94996000D01*
X148741600Y-94996000D01*
X148741600Y-86493350D01*
X149529800Y-86493350D01*
X149529800Y-87441681D01*
X149580070Y-87563043D01*
X149672957Y-87655930D01*
X149794319Y-87706200D01*
X150596229Y-87706200D01*
X150375329Y-87750140D01*
X149971552Y-88019935D01*
X149701757Y-88423712D01*
X149607017Y-88900000D01*
X149701757Y-89376288D01*
X149971552Y-89780065D01*
X150375329Y-90049860D01*
X150851617Y-90144600D01*
X150900383Y-90144600D01*
X151376671Y-90049860D01*
X151780448Y-89780065D01*
X152050243Y-89376288D01*
X152119721Y-89027000D01*
X167006017Y-89027000D01*
X167089156Y-89444967D01*
X167325915Y-89799302D01*
X167680250Y-90036061D01*
X168098217Y-90119200D01*
X168451783Y-90119200D01*
X168869750Y-90036061D01*
X169224085Y-89799302D01*
X169460844Y-89444967D01*
X169543983Y-89027000D01*
X169460844Y-88609033D01*
X169224085Y-88254698D01*
X168869750Y-88017939D01*
X168451783Y-87934800D01*
X168098217Y-87934800D01*
X167680250Y-88017939D01*
X167325915Y-88254698D01*
X167089156Y-88609033D01*
X167006017Y-89027000D01*
X152119721Y-89027000D01*
X152144983Y-88900000D01*
X152050243Y-88423712D01*
X151780448Y-88019935D01*
X151376671Y-87750140D01*
X151155771Y-87706200D01*
X151957681Y-87706200D01*
X152079043Y-87655930D01*
X152171930Y-87563043D01*
X152222200Y-87441681D01*
X152222200Y-86493350D01*
X152215850Y-86487000D01*
X167006017Y-86487000D01*
X167089156Y-86904967D01*
X167325915Y-87259302D01*
X167680250Y-87496061D01*
X168098217Y-87579200D01*
X168451783Y-87579200D01*
X168869750Y-87496061D01*
X169224085Y-87259302D01*
X169460844Y-86904967D01*
X169543983Y-86487000D01*
X169460844Y-86069033D01*
X169224085Y-85714698D01*
X168869750Y-85477939D01*
X168451783Y-85394800D01*
X168098217Y-85394800D01*
X167680250Y-85477939D01*
X167325915Y-85714698D01*
X167089156Y-86069033D01*
X167006017Y-86487000D01*
X152215850Y-86487000D01*
X152139650Y-86410800D01*
X150926800Y-86410800D01*
X150926800Y-86430800D01*
X150825200Y-86430800D01*
X150825200Y-86410800D01*
X149612350Y-86410800D01*
X149529800Y-86493350D01*
X148741600Y-86493350D01*
X148741600Y-85278319D01*
X149529800Y-85278319D01*
X149529800Y-86226650D01*
X149612350Y-86309200D01*
X150825200Y-86309200D01*
X150825200Y-85096350D01*
X150926800Y-85096350D01*
X150926800Y-86309200D01*
X152139650Y-86309200D01*
X152222200Y-86226650D01*
X152222200Y-85278319D01*
X152171930Y-85156957D01*
X152079043Y-85064070D01*
X151957681Y-85013800D01*
X151009350Y-85013800D01*
X150926800Y-85096350D01*
X150825200Y-85096350D01*
X150742650Y-85013800D01*
X149794319Y-85013800D01*
X149672957Y-85064070D01*
X149580070Y-85156957D01*
X149529800Y-85278319D01*
X148741600Y-85278319D01*
X148741600Y-83947000D01*
X167006017Y-83947000D01*
X167089156Y-84364967D01*
X167325915Y-84719302D01*
X167680250Y-84956061D01*
X168098217Y-85039200D01*
X168451783Y-85039200D01*
X168869750Y-84956061D01*
X169224085Y-84719302D01*
X169460844Y-84364967D01*
X169543983Y-83947000D01*
X169460844Y-83529033D01*
X169224085Y-83174698D01*
X168869750Y-82937939D01*
X168451783Y-82854800D01*
X168098217Y-82854800D01*
X167680250Y-82937939D01*
X167325915Y-83174698D01*
X167089156Y-83529033D01*
X167006017Y-83947000D01*
X148741600Y-83947000D01*
X148741600Y-81876331D01*
X150036101Y-81876331D01*
X150298710Y-82511894D01*
X150784548Y-82998581D01*
X151419652Y-83262299D01*
X152107331Y-83262899D01*
X152742894Y-83000290D01*
X153229581Y-82514452D01*
X153493299Y-81879348D01*
X153493594Y-81540350D01*
X166928800Y-81540350D01*
X166928800Y-82336281D01*
X166979070Y-82457643D01*
X167071957Y-82550530D01*
X167193319Y-82600800D01*
X168141650Y-82600800D01*
X168224200Y-82518250D01*
X168224200Y-81457800D01*
X168325800Y-81457800D01*
X168325800Y-82518250D01*
X168408350Y-82600800D01*
X169356681Y-82600800D01*
X169478043Y-82550530D01*
X169570930Y-82457643D01*
X169621200Y-82336281D01*
X169621200Y-81540350D01*
X169538650Y-81457800D01*
X168325800Y-81457800D01*
X168224200Y-81457800D01*
X167011350Y-81457800D01*
X166928800Y-81540350D01*
X153493594Y-81540350D01*
X153493899Y-81191669D01*
X153231290Y-80556106D01*
X153153040Y-80477719D01*
X166928800Y-80477719D01*
X166928800Y-81273650D01*
X167011350Y-81356200D01*
X168224200Y-81356200D01*
X168224200Y-80295750D01*
X168325800Y-80295750D01*
X168325800Y-81356200D01*
X169538650Y-81356200D01*
X169621200Y-81273650D01*
X169621200Y-80477719D01*
X169570930Y-80356357D01*
X169478043Y-80263470D01*
X169356681Y-80213200D01*
X168408350Y-80213200D01*
X168325800Y-80295750D01*
X168224200Y-80295750D01*
X168141650Y-80213200D01*
X167193319Y-80213200D01*
X167071957Y-80263470D01*
X166979070Y-80356357D01*
X166928800Y-80477719D01*
X153153040Y-80477719D01*
X152745452Y-80069419D01*
X152110348Y-79805701D01*
X151422669Y-79805101D01*
X150787106Y-80067710D01*
X150300419Y-80553548D01*
X150036701Y-81188652D01*
X150036101Y-81876331D01*
X148741600Y-81876331D01*
X148741600Y-78510600D01*
X172441400Y-78510600D01*
X172441400Y-106020400D01*
X172441400Y-106020400D01*
G37*
X172441400Y-106020400D02*
X148741600Y-106020400D01*
X148741600Y-103212331D01*
X167562101Y-103212331D01*
X167824710Y-103847894D01*
X168310548Y-104334581D01*
X168945652Y-104598299D01*
X169633331Y-104598899D01*
X170268894Y-104336290D01*
X170755581Y-103850452D01*
X171019299Y-103215348D01*
X171019899Y-102527669D01*
X170757290Y-101892106D01*
X170271452Y-101405419D01*
X169636348Y-101141701D01*
X168948669Y-101141101D01*
X168313106Y-101403710D01*
X167826419Y-101889548D01*
X167562701Y-102524652D01*
X167562101Y-103212331D01*
X148741600Y-103212331D01*
X148741600Y-98552000D01*
X149861017Y-98552000D01*
X149955757Y-99028288D01*
X150225552Y-99432065D01*
X150629329Y-99701860D01*
X151105617Y-99796600D01*
X151154383Y-99796600D01*
X151630671Y-99701860D01*
X152034448Y-99432065D01*
X152268086Y-99082400D01*
X161249322Y-99082400D01*
X161249322Y-101317600D01*
X161265262Y-101402314D01*
X161315328Y-101480118D01*
X161391720Y-101532315D01*
X161482400Y-101550678D01*
X163717600Y-101550678D01*
X163802314Y-101534738D01*
X163880118Y-101484672D01*
X163932315Y-101408280D01*
X163950678Y-101317600D01*
X163950678Y-99082400D01*
X163934738Y-98997686D01*
X163884672Y-98919882D01*
X163808280Y-98867685D01*
X163717600Y-98849322D01*
X161482400Y-98849322D01*
X161397686Y-98865262D01*
X161319882Y-98915328D01*
X161267685Y-98991720D01*
X161249322Y-99082400D01*
X152268086Y-99082400D01*
X152304243Y-99028288D01*
X152398983Y-98552000D01*
X152304243Y-98075712D01*
X152034448Y-97671935D01*
X151630671Y-97402140D01*
X151154383Y-97307400D01*
X151105617Y-97307400D01*
X150629329Y-97402140D01*
X150225552Y-97671935D01*
X149955757Y-98075712D01*
X149861017Y-98552000D01*
X148741600Y-98552000D01*
X148741600Y-94996000D01*
X149880922Y-94996000D01*
X149880922Y-97028000D01*
X149896862Y-97112714D01*
X149946928Y-97190518D01*
X150023320Y-97242715D01*
X150114000Y-97261078D01*
X152146000Y-97261078D01*
X152230714Y-97245138D01*
X152308518Y-97195072D01*
X152360715Y-97118680D01*
X152379078Y-97028000D01*
X152379078Y-94996000D01*
X152363138Y-94911286D01*
X152313072Y-94833482D01*
X152236680Y-94781285D01*
X152146000Y-94762922D01*
X150114000Y-94762922D01*
X150029286Y-94778862D01*
X149951482Y-94828928D01*
X149899285Y-94905320D01*
X149880922Y-94996000D01*
X148741600Y-94996000D01*
X148741600Y-86493350D01*
X149529800Y-86493350D01*
X149529800Y-87441681D01*
X149580070Y-87563043D01*
X149672957Y-87655930D01*
X149794319Y-87706200D01*
X150596229Y-87706200D01*
X150375329Y-87750140D01*
X149971552Y-88019935D01*
X149701757Y-88423712D01*
X149607017Y-88900000D01*
X149701757Y-89376288D01*
X149971552Y-89780065D01*
X150375329Y-90049860D01*
X150851617Y-90144600D01*
X150900383Y-90144600D01*
X151376671Y-90049860D01*
X151780448Y-89780065D01*
X152050243Y-89376288D01*
X152119721Y-89027000D01*
X167006017Y-89027000D01*
X167089156Y-89444967D01*
X167325915Y-89799302D01*
X167680250Y-90036061D01*
X168098217Y-90119200D01*
X168451783Y-90119200D01*
X168869750Y-90036061D01*
X169224085Y-89799302D01*
X169460844Y-89444967D01*
X169543983Y-89027000D01*
X169460844Y-88609033D01*
X169224085Y-88254698D01*
X168869750Y-88017939D01*
X168451783Y-87934800D01*
X168098217Y-87934800D01*
X167680250Y-88017939D01*
X167325915Y-88254698D01*
X167089156Y-88609033D01*
X167006017Y-89027000D01*
X152119721Y-89027000D01*
X152144983Y-88900000D01*
X152050243Y-88423712D01*
X151780448Y-88019935D01*
X151376671Y-87750140D01*
X151155771Y-87706200D01*
X151957681Y-87706200D01*
X152079043Y-87655930D01*
X152171930Y-87563043D01*
X152222200Y-87441681D01*
X152222200Y-86493350D01*
X152215850Y-86487000D01*
X167006017Y-86487000D01*
X167089156Y-86904967D01*
X167325915Y-87259302D01*
X167680250Y-87496061D01*
X168098217Y-87579200D01*
X168451783Y-87579200D01*
X168869750Y-87496061D01*
X169224085Y-87259302D01*
X169460844Y-86904967D01*
X169543983Y-86487000D01*
X169460844Y-86069033D01*
X169224085Y-85714698D01*
X168869750Y-85477939D01*
X168451783Y-85394800D01*
X168098217Y-85394800D01*
X167680250Y-85477939D01*
X167325915Y-85714698D01*
X167089156Y-86069033D01*
X167006017Y-86487000D01*
X152215850Y-86487000D01*
X152139650Y-86410800D01*
X150926800Y-86410800D01*
X150926800Y-86430800D01*
X150825200Y-86430800D01*
X150825200Y-86410800D01*
X149612350Y-86410800D01*
X149529800Y-86493350D01*
X148741600Y-86493350D01*
X148741600Y-85278319D01*
X149529800Y-85278319D01*
X149529800Y-86226650D01*
X149612350Y-86309200D01*
X150825200Y-86309200D01*
X150825200Y-85096350D01*
X150926800Y-85096350D01*
X150926800Y-86309200D01*
X152139650Y-86309200D01*
X152222200Y-86226650D01*
X152222200Y-85278319D01*
X152171930Y-85156957D01*
X152079043Y-85064070D01*
X151957681Y-85013800D01*
X151009350Y-85013800D01*
X150926800Y-85096350D01*
X150825200Y-85096350D01*
X150742650Y-85013800D01*
X149794319Y-85013800D01*
X149672957Y-85064070D01*
X149580070Y-85156957D01*
X149529800Y-85278319D01*
X148741600Y-85278319D01*
X148741600Y-83947000D01*
X167006017Y-83947000D01*
X167089156Y-84364967D01*
X167325915Y-84719302D01*
X167680250Y-84956061D01*
X168098217Y-85039200D01*
X168451783Y-85039200D01*
X168869750Y-84956061D01*
X169224085Y-84719302D01*
X169460844Y-84364967D01*
X169543983Y-83947000D01*
X169460844Y-83529033D01*
X169224085Y-83174698D01*
X168869750Y-82937939D01*
X168451783Y-82854800D01*
X168098217Y-82854800D01*
X167680250Y-82937939D01*
X167325915Y-83174698D01*
X167089156Y-83529033D01*
X167006017Y-83947000D01*
X148741600Y-83947000D01*
X148741600Y-81876331D01*
X150036101Y-81876331D01*
X150298710Y-82511894D01*
X150784548Y-82998581D01*
X151419652Y-83262299D01*
X152107331Y-83262899D01*
X152742894Y-83000290D01*
X153229581Y-82514452D01*
X153493299Y-81879348D01*
X153493594Y-81540350D01*
X166928800Y-81540350D01*
X166928800Y-82336281D01*
X166979070Y-82457643D01*
X167071957Y-82550530D01*
X167193319Y-82600800D01*
X168141650Y-82600800D01*
X168224200Y-82518250D01*
X168224200Y-81457800D01*
X168325800Y-81457800D01*
X168325800Y-82518250D01*
X168408350Y-82600800D01*
X169356681Y-82600800D01*
X169478043Y-82550530D01*
X169570930Y-82457643D01*
X169621200Y-82336281D01*
X169621200Y-81540350D01*
X169538650Y-81457800D01*
X168325800Y-81457800D01*
X168224200Y-81457800D01*
X167011350Y-81457800D01*
X166928800Y-81540350D01*
X153493594Y-81540350D01*
X153493899Y-81191669D01*
X153231290Y-80556106D01*
X153153040Y-80477719D01*
X166928800Y-80477719D01*
X166928800Y-81273650D01*
X167011350Y-81356200D01*
X168224200Y-81356200D01*
X168224200Y-80295750D01*
X168325800Y-80295750D01*
X168325800Y-81356200D01*
X169538650Y-81356200D01*
X169621200Y-81273650D01*
X169621200Y-80477719D01*
X169570930Y-80356357D01*
X169478043Y-80263470D01*
X169356681Y-80213200D01*
X168408350Y-80213200D01*
X168325800Y-80295750D01*
X168224200Y-80295750D01*
X168141650Y-80213200D01*
X167193319Y-80213200D01*
X167071957Y-80263470D01*
X166979070Y-80356357D01*
X166928800Y-80477719D01*
X153153040Y-80477719D01*
X152745452Y-80069419D01*
X152110348Y-79805701D01*
X151422669Y-79805101D01*
X150787106Y-80067710D01*
X150300419Y-80553548D01*
X150036701Y-81188652D01*
X150036101Y-81876331D01*
X148741600Y-81876331D01*
X148741600Y-78510600D01*
X172441400Y-78510600D01*
X172441400Y-106020400D01*
M02*
