G04 #@! TF.FileFunction,Copper,L1,Top,Signal*
%FSLAX46Y46*%
G04 Gerber Fmt 4.6, Leading zero omitted, Abs format (unit mm)*
G04 Created by KiCad (PCBNEW 4.0.1-2.201512121406+6195~38~ubuntu14.04.1-stable) date Thu 21 Apr 2016 07:43:07 PM CEST*
%MOMM*%
G01*
G04 APERTURE LIST*
%ADD10C,0.127000*%
%ADD11R,1.250000X1.500000*%
%ADD12R,2.032000X2.032000*%
%ADD13O,2.032000X2.032000*%
%ADD14R,1.300000X1.500000*%
%ADD15R,1.500000X1.300000*%
%ADD16R,1.550000X0.600000*%
%ADD17R,2.235200X2.235200*%
%ADD18R,2.032000X1.727200*%
%ADD19O,2.032000X1.727200*%
%ADD20C,0.685800*%
%ADD21C,0.609600*%
%ADD22C,0.152400*%
G04 APERTURE END LIST*
D10*
D11*
X153924000Y-86380000D03*
X153924000Y-88880000D03*
D12*
X150876000Y-86360000D03*
D13*
X150876000Y-88900000D03*
D12*
X151130000Y-96012000D03*
D13*
X151130000Y-98552000D03*
D14*
X154686000Y-98124000D03*
X154686000Y-95424000D03*
D15*
X168990000Y-97790000D03*
X166290000Y-97790000D03*
D14*
X156464000Y-88980000D03*
X156464000Y-86280000D03*
D15*
X168990000Y-92710000D03*
X166290000Y-92710000D03*
X166290000Y-95250000D03*
X168990000Y-95250000D03*
D16*
X162974000Y-96647000D03*
X162974000Y-95377000D03*
X162974000Y-94107000D03*
X162974000Y-92837000D03*
X157574000Y-92837000D03*
X157574000Y-94107000D03*
X157574000Y-95377000D03*
X157574000Y-96647000D03*
D17*
X162600000Y-100200000D03*
D18*
X168275000Y-81407000D03*
D19*
X168275000Y-83947000D03*
X168275000Y-86487000D03*
X168275000Y-89027000D03*
D20*
X168910000Y-99314000D03*
X169164000Y-91186000D03*
X156718000Y-98044000D03*
D21*
X153924000Y-86380000D02*
X150896000Y-86380000D01*
X150896000Y-86380000D02*
X150876000Y-86360000D01*
X168990000Y-97790000D02*
X168990000Y-99234000D01*
X168990000Y-99234000D02*
X168910000Y-99314000D01*
X168990000Y-92710000D02*
X168990000Y-91360000D01*
X168990000Y-91360000D02*
X169164000Y-91186000D01*
X168990000Y-97790000D02*
X170180000Y-97790000D01*
X170688000Y-94408000D02*
X168990000Y-92710000D01*
X170688000Y-97282000D02*
X170688000Y-94408000D01*
X170180000Y-97790000D02*
X170688000Y-97282000D01*
X156718000Y-98044000D02*
X157226000Y-98044000D01*
X156638000Y-98124000D02*
X156718000Y-98044000D01*
X154686000Y-98124000D02*
X156638000Y-98124000D01*
X157574000Y-97696000D02*
X157574000Y-96647000D01*
X157226000Y-98044000D02*
X157574000Y-97696000D01*
X157574000Y-95377000D02*
X154733000Y-95377000D01*
X154733000Y-95377000D02*
X154606000Y-95250000D01*
X154606000Y-95250000D02*
X151892000Y-95250000D01*
X151892000Y-95250000D02*
X151130000Y-96012000D01*
X171577000Y-90297000D02*
X171577000Y-88011000D01*
X165354000Y-100330000D02*
X170307000Y-100330000D01*
X171577000Y-99060000D02*
X170307000Y-100330000D01*
X171577000Y-90297000D02*
X171577000Y-99060000D01*
X170053000Y-86487000D02*
X168275000Y-86487000D01*
X171577000Y-88011000D02*
X170053000Y-86487000D01*
X164592000Y-100330000D02*
X165354000Y-100330000D01*
X165354000Y-100330000D02*
X166290000Y-99394000D01*
X162560000Y-100330000D02*
X162560000Y-99060000D01*
X162560000Y-99060000D02*
X160274000Y-96774000D01*
X160655000Y-95377000D02*
X162974000Y-95377000D01*
X160274000Y-95758000D02*
X160655000Y-95377000D01*
X160274000Y-96774000D02*
X160274000Y-95758000D01*
X162560000Y-100330000D02*
X164592000Y-100330000D01*
X166290000Y-99394000D02*
X166290000Y-97790000D01*
X168275000Y-83947000D02*
X164084000Y-83947000D01*
X159051000Y-88980000D02*
X156464000Y-88980000D01*
X164084000Y-83947000D02*
X159051000Y-88980000D01*
X166290000Y-95250000D02*
X165608000Y-95250000D01*
X165608000Y-95250000D02*
X164465000Y-94107000D01*
X164465000Y-94107000D02*
X162974000Y-94107000D01*
X166290000Y-92710000D02*
X166290000Y-95250000D01*
X157574000Y-92837000D02*
X157574000Y-94107000D01*
D22*
G36*
X172441400Y-106020400D02*
X148741600Y-106020400D01*
X148741600Y-103212331D01*
X167562101Y-103212331D01*
X167824710Y-103847894D01*
X168310548Y-104334581D01*
X168945652Y-104598299D01*
X169633331Y-104598899D01*
X170268894Y-104336290D01*
X170755581Y-103850452D01*
X171019299Y-103215348D01*
X171019899Y-102527669D01*
X170757290Y-101892106D01*
X170271452Y-101405419D01*
X169636348Y-101141701D01*
X168948669Y-101141101D01*
X168313106Y-101403710D01*
X167826419Y-101889548D01*
X167562701Y-102524652D01*
X167562101Y-103212331D01*
X148741600Y-103212331D01*
X148741600Y-98812617D01*
X149809268Y-98812617D01*
X149810066Y-98816645D01*
X150011815Y-99301617D01*
X150383798Y-99672467D01*
X150869383Y-99872736D01*
X151079200Y-99814695D01*
X151079200Y-98602800D01*
X151180800Y-98602800D01*
X151180800Y-99814695D01*
X151390617Y-99872736D01*
X151876202Y-99672467D01*
X152248185Y-99301617D01*
X152449934Y-98816645D01*
X152450732Y-98812617D01*
X152392628Y-98602800D01*
X151180800Y-98602800D01*
X151079200Y-98602800D01*
X149867372Y-98602800D01*
X149809268Y-98812617D01*
X148741600Y-98812617D01*
X148741600Y-98291383D01*
X149809268Y-98291383D01*
X149867372Y-98501200D01*
X151079200Y-98501200D01*
X151079200Y-98481200D01*
X151180800Y-98481200D01*
X151180800Y-98501200D01*
X152392628Y-98501200D01*
X152450732Y-98291383D01*
X152449934Y-98287355D01*
X152248185Y-97802383D01*
X151876202Y-97431533D01*
X151736704Y-97374000D01*
X153802922Y-97374000D01*
X153802922Y-98874000D01*
X153818862Y-98958714D01*
X153868928Y-99036518D01*
X153945320Y-99088715D01*
X154036000Y-99107078D01*
X155336000Y-99107078D01*
X155420714Y-99091138D01*
X155498518Y-99041072D01*
X155550715Y-98964680D01*
X155569078Y-98874000D01*
X155569078Y-98657400D01*
X156638000Y-98657400D01*
X156842123Y-98616797D01*
X156864555Y-98601809D01*
X156923628Y-98577400D01*
X157226000Y-98577400D01*
X157430123Y-98536797D01*
X157603171Y-98421171D01*
X157951171Y-98073171D01*
X158066797Y-97900124D01*
X158107400Y-97696000D01*
X158107400Y-97180078D01*
X158349000Y-97180078D01*
X158433714Y-97164138D01*
X158511518Y-97114072D01*
X158563715Y-97037680D01*
X158582078Y-96947000D01*
X158582078Y-96347000D01*
X158566138Y-96262286D01*
X158516072Y-96184482D01*
X158439680Y-96132285D01*
X158349000Y-96113922D01*
X157575619Y-96113922D01*
X157574000Y-96113600D01*
X157572381Y-96113922D01*
X156799000Y-96113922D01*
X156714286Y-96129862D01*
X156636482Y-96179928D01*
X156584285Y-96256320D01*
X156565922Y-96347000D01*
X156565922Y-96947000D01*
X156581862Y-97031714D01*
X156631928Y-97109518D01*
X156708320Y-97161715D01*
X156799000Y-97180078D01*
X157040600Y-97180078D01*
X157040600Y-97475058D01*
X157005058Y-97510600D01*
X156923691Y-97510600D01*
X156832177Y-97472600D01*
X156604820Y-97472401D01*
X156394694Y-97559224D01*
X156363263Y-97590600D01*
X155569078Y-97590600D01*
X155569078Y-97374000D01*
X155553138Y-97289286D01*
X155503072Y-97211482D01*
X155426680Y-97159285D01*
X155336000Y-97140922D01*
X154036000Y-97140922D01*
X153951286Y-97156862D01*
X153873482Y-97206928D01*
X153821285Y-97283320D01*
X153802922Y-97374000D01*
X151736704Y-97374000D01*
X151462906Y-97261078D01*
X152146000Y-97261078D01*
X152230714Y-97245138D01*
X152308518Y-97195072D01*
X152360715Y-97118680D01*
X152379078Y-97028000D01*
X152379078Y-95783400D01*
X153802922Y-95783400D01*
X153802922Y-96174000D01*
X153818862Y-96258714D01*
X153868928Y-96336518D01*
X153945320Y-96388715D01*
X154036000Y-96407078D01*
X155336000Y-96407078D01*
X155420714Y-96391138D01*
X155498518Y-96341072D01*
X155550715Y-96264680D01*
X155569078Y-96174000D01*
X155569078Y-95910400D01*
X157574000Y-95910400D01*
X157575619Y-95910078D01*
X158349000Y-95910078D01*
X158433714Y-95894138D01*
X158511518Y-95844072D01*
X158563715Y-95767680D01*
X158565675Y-95758000D01*
X159740600Y-95758000D01*
X159740600Y-96774000D01*
X159781203Y-96978123D01*
X159896829Y-97151171D01*
X161594980Y-98849322D01*
X161482400Y-98849322D01*
X161397686Y-98865262D01*
X161319882Y-98915328D01*
X161267685Y-98991720D01*
X161249322Y-99082400D01*
X161249322Y-101317600D01*
X161265262Y-101402314D01*
X161315328Y-101480118D01*
X161391720Y-101532315D01*
X161482400Y-101550678D01*
X163717600Y-101550678D01*
X163802314Y-101534738D01*
X163880118Y-101484672D01*
X163932315Y-101408280D01*
X163950678Y-101317600D01*
X163950678Y-100863400D01*
X170307000Y-100863400D01*
X170511123Y-100822797D01*
X170684171Y-100707171D01*
X171954171Y-99437171D01*
X172069797Y-99264124D01*
X172110400Y-99060000D01*
X172110400Y-88011000D01*
X172069797Y-87806877D01*
X172069797Y-87806876D01*
X172023484Y-87737563D01*
X171954171Y-87633829D01*
X171954168Y-87633827D01*
X170430171Y-86109829D01*
X170257123Y-85994203D01*
X170053000Y-85953600D01*
X169383714Y-85953600D01*
X169224085Y-85714698D01*
X168869750Y-85477939D01*
X168451783Y-85394800D01*
X168098217Y-85394800D01*
X167680250Y-85477939D01*
X167325915Y-85714698D01*
X167089156Y-86069033D01*
X167006017Y-86487000D01*
X167089156Y-86904967D01*
X167325915Y-87259302D01*
X167680250Y-87496061D01*
X168098217Y-87579200D01*
X168451783Y-87579200D01*
X168869750Y-87496061D01*
X169224085Y-87259302D01*
X169383714Y-87020400D01*
X169832058Y-87020400D01*
X171043600Y-88231941D01*
X171043600Y-94009259D01*
X169973078Y-92938736D01*
X169973078Y-92060000D01*
X169957138Y-91975286D01*
X169907072Y-91897482D01*
X169830680Y-91845285D01*
X169740000Y-91826922D01*
X169523400Y-91826922D01*
X169523400Y-91634745D01*
X169648211Y-91510151D01*
X169735400Y-91300177D01*
X169735599Y-91072820D01*
X169648776Y-90862694D01*
X169488151Y-90701789D01*
X169278177Y-90614600D01*
X169050820Y-90614401D01*
X168840694Y-90701224D01*
X168679789Y-90861849D01*
X168641430Y-90954228D01*
X168612829Y-90982829D01*
X168497203Y-91155877D01*
X168456600Y-91360000D01*
X168456600Y-91826922D01*
X168240000Y-91826922D01*
X168155286Y-91842862D01*
X168077482Y-91892928D01*
X168025285Y-91969320D01*
X168006922Y-92060000D01*
X168006922Y-93360000D01*
X168022862Y-93444714D01*
X168072928Y-93522518D01*
X168149320Y-93574715D01*
X168240000Y-93593078D01*
X169118736Y-93593078D01*
X169795459Y-94269800D01*
X169123350Y-94269800D01*
X169040800Y-94352350D01*
X169040800Y-95199200D01*
X169987650Y-95199200D01*
X170070200Y-95116650D01*
X170070200Y-94544541D01*
X170154600Y-94628941D01*
X170154600Y-97061059D01*
X169973078Y-97242580D01*
X169973078Y-97140000D01*
X169957138Y-97055286D01*
X169907072Y-96977482D01*
X169830680Y-96925285D01*
X169740000Y-96906922D01*
X168240000Y-96906922D01*
X168155286Y-96922862D01*
X168077482Y-96972928D01*
X168025285Y-97049320D01*
X168006922Y-97140000D01*
X168006922Y-98440000D01*
X168022862Y-98524714D01*
X168072928Y-98602518D01*
X168149320Y-98654715D01*
X168240000Y-98673078D01*
X168456600Y-98673078D01*
X168456600Y-98959092D01*
X168425789Y-98989849D01*
X168338600Y-99199823D01*
X168338401Y-99427180D01*
X168425224Y-99637306D01*
X168584241Y-99796600D01*
X166641742Y-99796600D01*
X166667171Y-99771171D01*
X166782797Y-99598123D01*
X166823400Y-99394000D01*
X166823400Y-98673078D01*
X167040000Y-98673078D01*
X167124714Y-98657138D01*
X167202518Y-98607072D01*
X167254715Y-98530680D01*
X167273078Y-98440000D01*
X167273078Y-97140000D01*
X167257138Y-97055286D01*
X167207072Y-96977482D01*
X167130680Y-96925285D01*
X167040000Y-96906922D01*
X165540000Y-96906922D01*
X165455286Y-96922862D01*
X165377482Y-96972928D01*
X165325285Y-97049320D01*
X165306922Y-97140000D01*
X165306922Y-98440000D01*
X165322862Y-98524714D01*
X165372928Y-98602518D01*
X165449320Y-98654715D01*
X165540000Y-98673078D01*
X165756600Y-98673078D01*
X165756600Y-99173058D01*
X165133058Y-99796600D01*
X163950678Y-99796600D01*
X163950678Y-99082400D01*
X163934738Y-98997686D01*
X163884672Y-98919882D01*
X163808280Y-98867685D01*
X163717600Y-98849322D01*
X163048417Y-98849322D01*
X162937171Y-98682829D01*
X161034692Y-96780350D01*
X161868800Y-96780350D01*
X161868800Y-97012681D01*
X161919070Y-97134043D01*
X162011957Y-97226930D01*
X162133319Y-97277200D01*
X162840650Y-97277200D01*
X162923200Y-97194650D01*
X162923200Y-96697800D01*
X163024800Y-96697800D01*
X163024800Y-97194650D01*
X163107350Y-97277200D01*
X163814681Y-97277200D01*
X163936043Y-97226930D01*
X164028930Y-97134043D01*
X164079200Y-97012681D01*
X164079200Y-96780350D01*
X163996650Y-96697800D01*
X163024800Y-96697800D01*
X162923200Y-96697800D01*
X161951350Y-96697800D01*
X161868800Y-96780350D01*
X161034692Y-96780350D01*
X160807400Y-96553058D01*
X160807400Y-96281319D01*
X161868800Y-96281319D01*
X161868800Y-96513650D01*
X161951350Y-96596200D01*
X162923200Y-96596200D01*
X162923200Y-96099350D01*
X163024800Y-96099350D01*
X163024800Y-96596200D01*
X163996650Y-96596200D01*
X164079200Y-96513650D01*
X164079200Y-96281319D01*
X164028930Y-96159957D01*
X163936043Y-96067070D01*
X163814681Y-96016800D01*
X163107350Y-96016800D01*
X163024800Y-96099350D01*
X162923200Y-96099350D01*
X162840650Y-96016800D01*
X162133319Y-96016800D01*
X162011957Y-96067070D01*
X161919070Y-96159957D01*
X161868800Y-96281319D01*
X160807400Y-96281319D01*
X160807400Y-95978942D01*
X160875941Y-95910400D01*
X162974000Y-95910400D01*
X162975619Y-95910078D01*
X163749000Y-95910078D01*
X163833714Y-95894138D01*
X163911518Y-95844072D01*
X163963715Y-95767680D01*
X163982078Y-95677000D01*
X163982078Y-95077000D01*
X163966138Y-94992286D01*
X163916072Y-94914482D01*
X163839680Y-94862285D01*
X163749000Y-94843922D01*
X162975619Y-94843922D01*
X162974000Y-94843600D01*
X160655000Y-94843600D01*
X160450876Y-94884203D01*
X160412376Y-94909928D01*
X160277829Y-94999829D01*
X160277827Y-94999832D01*
X159896829Y-95380829D01*
X159781203Y-95553877D01*
X159740600Y-95758000D01*
X158565675Y-95758000D01*
X158582078Y-95677000D01*
X158582078Y-95077000D01*
X158566138Y-94992286D01*
X158516072Y-94914482D01*
X158439680Y-94862285D01*
X158349000Y-94843922D01*
X157575619Y-94843922D01*
X157574000Y-94843600D01*
X155569078Y-94843600D01*
X155569078Y-94674000D01*
X155553138Y-94589286D01*
X155503072Y-94511482D01*
X155426680Y-94459285D01*
X155336000Y-94440922D01*
X154036000Y-94440922D01*
X153951286Y-94456862D01*
X153873482Y-94506928D01*
X153821285Y-94583320D01*
X153802922Y-94674000D01*
X153802922Y-94716600D01*
X151892005Y-94716600D01*
X151892000Y-94716599D01*
X151687877Y-94757203D01*
X151679318Y-94762922D01*
X150114000Y-94762922D01*
X150029286Y-94778862D01*
X149951482Y-94828928D01*
X149899285Y-94905320D01*
X149880922Y-94996000D01*
X149880922Y-97028000D01*
X149896862Y-97112714D01*
X149946928Y-97190518D01*
X150023320Y-97242715D01*
X150114000Y-97261078D01*
X150797094Y-97261078D01*
X150383798Y-97431533D01*
X150011815Y-97802383D01*
X149810066Y-98287355D01*
X149809268Y-98291383D01*
X148741600Y-98291383D01*
X148741600Y-92537000D01*
X156565922Y-92537000D01*
X156565922Y-93137000D01*
X156581862Y-93221714D01*
X156631928Y-93299518D01*
X156708320Y-93351715D01*
X156799000Y-93370078D01*
X157040600Y-93370078D01*
X157040600Y-93573922D01*
X156799000Y-93573922D01*
X156714286Y-93589862D01*
X156636482Y-93639928D01*
X156584285Y-93716320D01*
X156565922Y-93807000D01*
X156565922Y-94407000D01*
X156581862Y-94491714D01*
X156631928Y-94569518D01*
X156708320Y-94621715D01*
X156799000Y-94640078D01*
X157572381Y-94640078D01*
X157574000Y-94640400D01*
X157575619Y-94640078D01*
X158349000Y-94640078D01*
X158433714Y-94624138D01*
X158511518Y-94574072D01*
X158563715Y-94497680D01*
X158582078Y-94407000D01*
X158582078Y-93807000D01*
X161965922Y-93807000D01*
X161965922Y-94407000D01*
X161981862Y-94491714D01*
X162031928Y-94569518D01*
X162108320Y-94621715D01*
X162199000Y-94640078D01*
X162972381Y-94640078D01*
X162974000Y-94640400D01*
X164244058Y-94640400D01*
X165230829Y-95627171D01*
X165306922Y-95678014D01*
X165306922Y-95900000D01*
X165322862Y-95984714D01*
X165372928Y-96062518D01*
X165449320Y-96114715D01*
X165540000Y-96133078D01*
X167040000Y-96133078D01*
X167124714Y-96117138D01*
X167202518Y-96067072D01*
X167254715Y-95990680D01*
X167273078Y-95900000D01*
X167273078Y-95383350D01*
X167909800Y-95383350D01*
X167909800Y-95965681D01*
X167960070Y-96087043D01*
X168052957Y-96179930D01*
X168174319Y-96230200D01*
X168856650Y-96230200D01*
X168939200Y-96147650D01*
X168939200Y-95300800D01*
X169040800Y-95300800D01*
X169040800Y-96147650D01*
X169123350Y-96230200D01*
X169805681Y-96230200D01*
X169927043Y-96179930D01*
X170019930Y-96087043D01*
X170070200Y-95965681D01*
X170070200Y-95383350D01*
X169987650Y-95300800D01*
X169040800Y-95300800D01*
X168939200Y-95300800D01*
X167992350Y-95300800D01*
X167909800Y-95383350D01*
X167273078Y-95383350D01*
X167273078Y-94600000D01*
X167260720Y-94534319D01*
X167909800Y-94534319D01*
X167909800Y-95116650D01*
X167992350Y-95199200D01*
X168939200Y-95199200D01*
X168939200Y-94352350D01*
X168856650Y-94269800D01*
X168174319Y-94269800D01*
X168052957Y-94320070D01*
X167960070Y-94412957D01*
X167909800Y-94534319D01*
X167260720Y-94534319D01*
X167257138Y-94515286D01*
X167207072Y-94437482D01*
X167130680Y-94385285D01*
X167040000Y-94366922D01*
X166823400Y-94366922D01*
X166823400Y-93593078D01*
X167040000Y-93593078D01*
X167124714Y-93577138D01*
X167202518Y-93527072D01*
X167254715Y-93450680D01*
X167273078Y-93360000D01*
X167273078Y-92060000D01*
X167257138Y-91975286D01*
X167207072Y-91897482D01*
X167130680Y-91845285D01*
X167040000Y-91826922D01*
X165540000Y-91826922D01*
X165455286Y-91842862D01*
X165377482Y-91892928D01*
X165325285Y-91969320D01*
X165306922Y-92060000D01*
X165306922Y-93360000D01*
X165322862Y-93444714D01*
X165372928Y-93522518D01*
X165449320Y-93574715D01*
X165540000Y-93593078D01*
X165756600Y-93593078D01*
X165756600Y-94366922D01*
X165540000Y-94366922D01*
X165488882Y-94376540D01*
X164842171Y-93729829D01*
X164669123Y-93614203D01*
X164465000Y-93573600D01*
X162974000Y-93573600D01*
X162972381Y-93573922D01*
X162199000Y-93573922D01*
X162114286Y-93589862D01*
X162036482Y-93639928D01*
X161984285Y-93716320D01*
X161965922Y-93807000D01*
X158582078Y-93807000D01*
X158566138Y-93722286D01*
X158516072Y-93644482D01*
X158439680Y-93592285D01*
X158349000Y-93573922D01*
X158107400Y-93573922D01*
X158107400Y-93370078D01*
X158349000Y-93370078D01*
X158433714Y-93354138D01*
X158511518Y-93304072D01*
X158563715Y-93227680D01*
X158582078Y-93137000D01*
X158582078Y-92970350D01*
X161868800Y-92970350D01*
X161868800Y-93202681D01*
X161919070Y-93324043D01*
X162011957Y-93416930D01*
X162133319Y-93467200D01*
X162840650Y-93467200D01*
X162923200Y-93384650D01*
X162923200Y-92887800D01*
X163024800Y-92887800D01*
X163024800Y-93384650D01*
X163107350Y-93467200D01*
X163814681Y-93467200D01*
X163936043Y-93416930D01*
X164028930Y-93324043D01*
X164079200Y-93202681D01*
X164079200Y-92970350D01*
X163996650Y-92887800D01*
X163024800Y-92887800D01*
X162923200Y-92887800D01*
X161951350Y-92887800D01*
X161868800Y-92970350D01*
X158582078Y-92970350D01*
X158582078Y-92537000D01*
X158569720Y-92471319D01*
X161868800Y-92471319D01*
X161868800Y-92703650D01*
X161951350Y-92786200D01*
X162923200Y-92786200D01*
X162923200Y-92289350D01*
X163024800Y-92289350D01*
X163024800Y-92786200D01*
X163996650Y-92786200D01*
X164079200Y-92703650D01*
X164079200Y-92471319D01*
X164028930Y-92349957D01*
X163936043Y-92257070D01*
X163814681Y-92206800D01*
X163107350Y-92206800D01*
X163024800Y-92289350D01*
X162923200Y-92289350D01*
X162840650Y-92206800D01*
X162133319Y-92206800D01*
X162011957Y-92257070D01*
X161919070Y-92349957D01*
X161868800Y-92471319D01*
X158569720Y-92471319D01*
X158566138Y-92452286D01*
X158516072Y-92374482D01*
X158439680Y-92322285D01*
X158349000Y-92303922D01*
X157575619Y-92303922D01*
X157574000Y-92303600D01*
X157572381Y-92303922D01*
X156799000Y-92303922D01*
X156714286Y-92319862D01*
X156636482Y-92369928D01*
X156584285Y-92446320D01*
X156565922Y-92537000D01*
X148741600Y-92537000D01*
X148741600Y-89160617D01*
X149555268Y-89160617D01*
X149556066Y-89164645D01*
X149757815Y-89649617D01*
X150129798Y-90020467D01*
X150615383Y-90220736D01*
X150825200Y-90162695D01*
X150825200Y-88950800D01*
X150926800Y-88950800D01*
X150926800Y-90162695D01*
X151136617Y-90220736D01*
X151622202Y-90020467D01*
X151994185Y-89649617D01*
X152195934Y-89164645D01*
X152196732Y-89160617D01*
X152155950Y-89013350D01*
X152968800Y-89013350D01*
X152968800Y-89695681D01*
X153019070Y-89817043D01*
X153111957Y-89909930D01*
X153233319Y-89960200D01*
X153790650Y-89960200D01*
X153873200Y-89877650D01*
X153873200Y-88930800D01*
X153974800Y-88930800D01*
X153974800Y-89877650D01*
X154057350Y-89960200D01*
X154614681Y-89960200D01*
X154736043Y-89909930D01*
X154828930Y-89817043D01*
X154879200Y-89695681D01*
X154879200Y-89013350D01*
X154796650Y-88930800D01*
X153974800Y-88930800D01*
X153873200Y-88930800D01*
X153051350Y-88930800D01*
X152968800Y-89013350D01*
X152155950Y-89013350D01*
X152138628Y-88950800D01*
X150926800Y-88950800D01*
X150825200Y-88950800D01*
X149613372Y-88950800D01*
X149555268Y-89160617D01*
X148741600Y-89160617D01*
X148741600Y-88639383D01*
X149555268Y-88639383D01*
X149613372Y-88849200D01*
X150825200Y-88849200D01*
X150825200Y-88829200D01*
X150926800Y-88829200D01*
X150926800Y-88849200D01*
X152138628Y-88849200D01*
X152196732Y-88639383D01*
X152195934Y-88635355D01*
X151994185Y-88150383D01*
X151907859Y-88064319D01*
X152968800Y-88064319D01*
X152968800Y-88746650D01*
X153051350Y-88829200D01*
X153873200Y-88829200D01*
X153873200Y-87882350D01*
X153974800Y-87882350D01*
X153974800Y-88829200D01*
X154796650Y-88829200D01*
X154879200Y-88746650D01*
X154879200Y-88230000D01*
X155580922Y-88230000D01*
X155580922Y-89730000D01*
X155596862Y-89814714D01*
X155646928Y-89892518D01*
X155723320Y-89944715D01*
X155814000Y-89963078D01*
X157114000Y-89963078D01*
X157198714Y-89947138D01*
X157276518Y-89897072D01*
X157328715Y-89820680D01*
X157347078Y-89730000D01*
X157347078Y-89513400D01*
X159051000Y-89513400D01*
X159255123Y-89472797D01*
X159428171Y-89357171D01*
X159521585Y-89263757D01*
X166952512Y-89263757D01*
X167000232Y-89436914D01*
X167242535Y-89835223D01*
X167618819Y-90110487D01*
X168071800Y-90220800D01*
X168224200Y-90220800D01*
X168224200Y-89077800D01*
X168325800Y-89077800D01*
X168325800Y-90220800D01*
X168478200Y-90220800D01*
X168931181Y-90110487D01*
X169307465Y-89835223D01*
X169549768Y-89436914D01*
X169597488Y-89263757D01*
X169537488Y-89077800D01*
X168325800Y-89077800D01*
X168224200Y-89077800D01*
X167012512Y-89077800D01*
X166952512Y-89263757D01*
X159521585Y-89263757D01*
X159995099Y-88790243D01*
X166952512Y-88790243D01*
X167012512Y-88976200D01*
X168224200Y-88976200D01*
X168224200Y-87833200D01*
X168325800Y-87833200D01*
X168325800Y-88976200D01*
X169537488Y-88976200D01*
X169597488Y-88790243D01*
X169549768Y-88617086D01*
X169307465Y-88218777D01*
X168931181Y-87943513D01*
X168478200Y-87833200D01*
X168325800Y-87833200D01*
X168224200Y-87833200D01*
X168071800Y-87833200D01*
X167618819Y-87943513D01*
X167242535Y-88218777D01*
X167000232Y-88617086D01*
X166952512Y-88790243D01*
X159995099Y-88790243D01*
X164304942Y-84480400D01*
X167166286Y-84480400D01*
X167325915Y-84719302D01*
X167680250Y-84956061D01*
X168098217Y-85039200D01*
X168451783Y-85039200D01*
X168869750Y-84956061D01*
X169224085Y-84719302D01*
X169460844Y-84364967D01*
X169543983Y-83947000D01*
X169460844Y-83529033D01*
X169224085Y-83174698D01*
X168869750Y-82937939D01*
X168451783Y-82854800D01*
X168098217Y-82854800D01*
X167680250Y-82937939D01*
X167325915Y-83174698D01*
X167166286Y-83413600D01*
X164084000Y-83413600D01*
X163879877Y-83454203D01*
X163706829Y-83569829D01*
X158830058Y-88446600D01*
X157347078Y-88446600D01*
X157347078Y-88230000D01*
X157331138Y-88145286D01*
X157281072Y-88067482D01*
X157204680Y-88015285D01*
X157114000Y-87996922D01*
X155814000Y-87996922D01*
X155729286Y-88012862D01*
X155651482Y-88062928D01*
X155599285Y-88139320D01*
X155580922Y-88230000D01*
X154879200Y-88230000D01*
X154879200Y-88064319D01*
X154828930Y-87942957D01*
X154736043Y-87850070D01*
X154614681Y-87799800D01*
X154057350Y-87799800D01*
X153974800Y-87882350D01*
X153873200Y-87882350D01*
X153790650Y-87799800D01*
X153233319Y-87799800D01*
X153111957Y-87850070D01*
X153019070Y-87942957D01*
X152968800Y-88064319D01*
X151907859Y-88064319D01*
X151622202Y-87779533D01*
X151208906Y-87609078D01*
X151892000Y-87609078D01*
X151976714Y-87593138D01*
X152054518Y-87543072D01*
X152106715Y-87466680D01*
X152125078Y-87376000D01*
X152125078Y-86913400D01*
X153065922Y-86913400D01*
X153065922Y-87130000D01*
X153081862Y-87214714D01*
X153131928Y-87292518D01*
X153208320Y-87344715D01*
X153299000Y-87363078D01*
X154549000Y-87363078D01*
X154633714Y-87347138D01*
X154711518Y-87297072D01*
X154763715Y-87220680D01*
X154782078Y-87130000D01*
X154782078Y-86413350D01*
X155483800Y-86413350D01*
X155483800Y-87095681D01*
X155534070Y-87217043D01*
X155626957Y-87309930D01*
X155748319Y-87360200D01*
X156330650Y-87360200D01*
X156413200Y-87277650D01*
X156413200Y-86330800D01*
X156514800Y-86330800D01*
X156514800Y-87277650D01*
X156597350Y-87360200D01*
X157179681Y-87360200D01*
X157301043Y-87309930D01*
X157393930Y-87217043D01*
X157444200Y-87095681D01*
X157444200Y-86413350D01*
X157361650Y-86330800D01*
X156514800Y-86330800D01*
X156413200Y-86330800D01*
X155566350Y-86330800D01*
X155483800Y-86413350D01*
X154782078Y-86413350D01*
X154782078Y-85630000D01*
X154766138Y-85545286D01*
X154716072Y-85467482D01*
X154711443Y-85464319D01*
X155483800Y-85464319D01*
X155483800Y-86146650D01*
X155566350Y-86229200D01*
X156413200Y-86229200D01*
X156413200Y-85282350D01*
X156514800Y-85282350D01*
X156514800Y-86229200D01*
X157361650Y-86229200D01*
X157444200Y-86146650D01*
X157444200Y-85464319D01*
X157393930Y-85342957D01*
X157301043Y-85250070D01*
X157179681Y-85199800D01*
X156597350Y-85199800D01*
X156514800Y-85282350D01*
X156413200Y-85282350D01*
X156330650Y-85199800D01*
X155748319Y-85199800D01*
X155626957Y-85250070D01*
X155534070Y-85342957D01*
X155483800Y-85464319D01*
X154711443Y-85464319D01*
X154639680Y-85415285D01*
X154549000Y-85396922D01*
X153299000Y-85396922D01*
X153214286Y-85412862D01*
X153136482Y-85462928D01*
X153084285Y-85539320D01*
X153065922Y-85630000D01*
X153065922Y-85846600D01*
X152125078Y-85846600D01*
X152125078Y-85344000D01*
X152109138Y-85259286D01*
X152059072Y-85181482D01*
X151982680Y-85129285D01*
X151892000Y-85110922D01*
X149860000Y-85110922D01*
X149775286Y-85126862D01*
X149697482Y-85176928D01*
X149645285Y-85253320D01*
X149626922Y-85344000D01*
X149626922Y-87376000D01*
X149642862Y-87460714D01*
X149692928Y-87538518D01*
X149769320Y-87590715D01*
X149860000Y-87609078D01*
X150543094Y-87609078D01*
X150129798Y-87779533D01*
X149757815Y-88150383D01*
X149556066Y-88635355D01*
X149555268Y-88639383D01*
X148741600Y-88639383D01*
X148741600Y-81876331D01*
X150036101Y-81876331D01*
X150298710Y-82511894D01*
X150784548Y-82998581D01*
X151419652Y-83262299D01*
X152107331Y-83262899D01*
X152742894Y-83000290D01*
X153229581Y-82514452D01*
X153493299Y-81879348D01*
X153493899Y-81191669D01*
X153231290Y-80556106D01*
X153218607Y-80543400D01*
X167025922Y-80543400D01*
X167025922Y-82270600D01*
X167041862Y-82355314D01*
X167091928Y-82433118D01*
X167168320Y-82485315D01*
X167259000Y-82503678D01*
X169291000Y-82503678D01*
X169375714Y-82487738D01*
X169453518Y-82437672D01*
X169505715Y-82361280D01*
X169524078Y-82270600D01*
X169524078Y-80543400D01*
X169508138Y-80458686D01*
X169458072Y-80380882D01*
X169381680Y-80328685D01*
X169291000Y-80310322D01*
X167259000Y-80310322D01*
X167174286Y-80326262D01*
X167096482Y-80376328D01*
X167044285Y-80452720D01*
X167025922Y-80543400D01*
X153218607Y-80543400D01*
X152745452Y-80069419D01*
X152110348Y-79805701D01*
X151422669Y-79805101D01*
X150787106Y-80067710D01*
X150300419Y-80553548D01*
X150036701Y-81188652D01*
X150036101Y-81876331D01*
X148741600Y-81876331D01*
X148741600Y-78510600D01*
X172441400Y-78510600D01*
X172441400Y-106020400D01*
X172441400Y-106020400D01*
G37*
X172441400Y-106020400D02*
X148741600Y-106020400D01*
X148741600Y-103212331D01*
X167562101Y-103212331D01*
X167824710Y-103847894D01*
X168310548Y-104334581D01*
X168945652Y-104598299D01*
X169633331Y-104598899D01*
X170268894Y-104336290D01*
X170755581Y-103850452D01*
X171019299Y-103215348D01*
X171019899Y-102527669D01*
X170757290Y-101892106D01*
X170271452Y-101405419D01*
X169636348Y-101141701D01*
X168948669Y-101141101D01*
X168313106Y-101403710D01*
X167826419Y-101889548D01*
X167562701Y-102524652D01*
X167562101Y-103212331D01*
X148741600Y-103212331D01*
X148741600Y-98812617D01*
X149809268Y-98812617D01*
X149810066Y-98816645D01*
X150011815Y-99301617D01*
X150383798Y-99672467D01*
X150869383Y-99872736D01*
X151079200Y-99814695D01*
X151079200Y-98602800D01*
X151180800Y-98602800D01*
X151180800Y-99814695D01*
X151390617Y-99872736D01*
X151876202Y-99672467D01*
X152248185Y-99301617D01*
X152449934Y-98816645D01*
X152450732Y-98812617D01*
X152392628Y-98602800D01*
X151180800Y-98602800D01*
X151079200Y-98602800D01*
X149867372Y-98602800D01*
X149809268Y-98812617D01*
X148741600Y-98812617D01*
X148741600Y-98291383D01*
X149809268Y-98291383D01*
X149867372Y-98501200D01*
X151079200Y-98501200D01*
X151079200Y-98481200D01*
X151180800Y-98481200D01*
X151180800Y-98501200D01*
X152392628Y-98501200D01*
X152450732Y-98291383D01*
X152449934Y-98287355D01*
X152248185Y-97802383D01*
X151876202Y-97431533D01*
X151736704Y-97374000D01*
X153802922Y-97374000D01*
X153802922Y-98874000D01*
X153818862Y-98958714D01*
X153868928Y-99036518D01*
X153945320Y-99088715D01*
X154036000Y-99107078D01*
X155336000Y-99107078D01*
X155420714Y-99091138D01*
X155498518Y-99041072D01*
X155550715Y-98964680D01*
X155569078Y-98874000D01*
X155569078Y-98657400D01*
X156638000Y-98657400D01*
X156842123Y-98616797D01*
X156864555Y-98601809D01*
X156923628Y-98577400D01*
X157226000Y-98577400D01*
X157430123Y-98536797D01*
X157603171Y-98421171D01*
X157951171Y-98073171D01*
X158066797Y-97900124D01*
X158107400Y-97696000D01*
X158107400Y-97180078D01*
X158349000Y-97180078D01*
X158433714Y-97164138D01*
X158511518Y-97114072D01*
X158563715Y-97037680D01*
X158582078Y-96947000D01*
X158582078Y-96347000D01*
X158566138Y-96262286D01*
X158516072Y-96184482D01*
X158439680Y-96132285D01*
X158349000Y-96113922D01*
X157575619Y-96113922D01*
X157574000Y-96113600D01*
X157572381Y-96113922D01*
X156799000Y-96113922D01*
X156714286Y-96129862D01*
X156636482Y-96179928D01*
X156584285Y-96256320D01*
X156565922Y-96347000D01*
X156565922Y-96947000D01*
X156581862Y-97031714D01*
X156631928Y-97109518D01*
X156708320Y-97161715D01*
X156799000Y-97180078D01*
X157040600Y-97180078D01*
X157040600Y-97475058D01*
X157005058Y-97510600D01*
X156923691Y-97510600D01*
X156832177Y-97472600D01*
X156604820Y-97472401D01*
X156394694Y-97559224D01*
X156363263Y-97590600D01*
X155569078Y-97590600D01*
X155569078Y-97374000D01*
X155553138Y-97289286D01*
X155503072Y-97211482D01*
X155426680Y-97159285D01*
X155336000Y-97140922D01*
X154036000Y-97140922D01*
X153951286Y-97156862D01*
X153873482Y-97206928D01*
X153821285Y-97283320D01*
X153802922Y-97374000D01*
X151736704Y-97374000D01*
X151462906Y-97261078D01*
X152146000Y-97261078D01*
X152230714Y-97245138D01*
X152308518Y-97195072D01*
X152360715Y-97118680D01*
X152379078Y-97028000D01*
X152379078Y-95783400D01*
X153802922Y-95783400D01*
X153802922Y-96174000D01*
X153818862Y-96258714D01*
X153868928Y-96336518D01*
X153945320Y-96388715D01*
X154036000Y-96407078D01*
X155336000Y-96407078D01*
X155420714Y-96391138D01*
X155498518Y-96341072D01*
X155550715Y-96264680D01*
X155569078Y-96174000D01*
X155569078Y-95910400D01*
X157574000Y-95910400D01*
X157575619Y-95910078D01*
X158349000Y-95910078D01*
X158433714Y-95894138D01*
X158511518Y-95844072D01*
X158563715Y-95767680D01*
X158565675Y-95758000D01*
X159740600Y-95758000D01*
X159740600Y-96774000D01*
X159781203Y-96978123D01*
X159896829Y-97151171D01*
X161594980Y-98849322D01*
X161482400Y-98849322D01*
X161397686Y-98865262D01*
X161319882Y-98915328D01*
X161267685Y-98991720D01*
X161249322Y-99082400D01*
X161249322Y-101317600D01*
X161265262Y-101402314D01*
X161315328Y-101480118D01*
X161391720Y-101532315D01*
X161482400Y-101550678D01*
X163717600Y-101550678D01*
X163802314Y-101534738D01*
X163880118Y-101484672D01*
X163932315Y-101408280D01*
X163950678Y-101317600D01*
X163950678Y-100863400D01*
X170307000Y-100863400D01*
X170511123Y-100822797D01*
X170684171Y-100707171D01*
X171954171Y-99437171D01*
X172069797Y-99264124D01*
X172110400Y-99060000D01*
X172110400Y-88011000D01*
X172069797Y-87806877D01*
X172069797Y-87806876D01*
X172023484Y-87737563D01*
X171954171Y-87633829D01*
X171954168Y-87633827D01*
X170430171Y-86109829D01*
X170257123Y-85994203D01*
X170053000Y-85953600D01*
X169383714Y-85953600D01*
X169224085Y-85714698D01*
X168869750Y-85477939D01*
X168451783Y-85394800D01*
X168098217Y-85394800D01*
X167680250Y-85477939D01*
X167325915Y-85714698D01*
X167089156Y-86069033D01*
X167006017Y-86487000D01*
X167089156Y-86904967D01*
X167325915Y-87259302D01*
X167680250Y-87496061D01*
X168098217Y-87579200D01*
X168451783Y-87579200D01*
X168869750Y-87496061D01*
X169224085Y-87259302D01*
X169383714Y-87020400D01*
X169832058Y-87020400D01*
X171043600Y-88231941D01*
X171043600Y-94009259D01*
X169973078Y-92938736D01*
X169973078Y-92060000D01*
X169957138Y-91975286D01*
X169907072Y-91897482D01*
X169830680Y-91845285D01*
X169740000Y-91826922D01*
X169523400Y-91826922D01*
X169523400Y-91634745D01*
X169648211Y-91510151D01*
X169735400Y-91300177D01*
X169735599Y-91072820D01*
X169648776Y-90862694D01*
X169488151Y-90701789D01*
X169278177Y-90614600D01*
X169050820Y-90614401D01*
X168840694Y-90701224D01*
X168679789Y-90861849D01*
X168641430Y-90954228D01*
X168612829Y-90982829D01*
X168497203Y-91155877D01*
X168456600Y-91360000D01*
X168456600Y-91826922D01*
X168240000Y-91826922D01*
X168155286Y-91842862D01*
X168077482Y-91892928D01*
X168025285Y-91969320D01*
X168006922Y-92060000D01*
X168006922Y-93360000D01*
X168022862Y-93444714D01*
X168072928Y-93522518D01*
X168149320Y-93574715D01*
X168240000Y-93593078D01*
X169118736Y-93593078D01*
X169795459Y-94269800D01*
X169123350Y-94269800D01*
X169040800Y-94352350D01*
X169040800Y-95199200D01*
X169987650Y-95199200D01*
X170070200Y-95116650D01*
X170070200Y-94544541D01*
X170154600Y-94628941D01*
X170154600Y-97061059D01*
X169973078Y-97242580D01*
X169973078Y-97140000D01*
X169957138Y-97055286D01*
X169907072Y-96977482D01*
X169830680Y-96925285D01*
X169740000Y-96906922D01*
X168240000Y-96906922D01*
X168155286Y-96922862D01*
X168077482Y-96972928D01*
X168025285Y-97049320D01*
X168006922Y-97140000D01*
X168006922Y-98440000D01*
X168022862Y-98524714D01*
X168072928Y-98602518D01*
X168149320Y-98654715D01*
X168240000Y-98673078D01*
X168456600Y-98673078D01*
X168456600Y-98959092D01*
X168425789Y-98989849D01*
X168338600Y-99199823D01*
X168338401Y-99427180D01*
X168425224Y-99637306D01*
X168584241Y-99796600D01*
X166641742Y-99796600D01*
X166667171Y-99771171D01*
X166782797Y-99598123D01*
X166823400Y-99394000D01*
X166823400Y-98673078D01*
X167040000Y-98673078D01*
X167124714Y-98657138D01*
X167202518Y-98607072D01*
X167254715Y-98530680D01*
X167273078Y-98440000D01*
X167273078Y-97140000D01*
X167257138Y-97055286D01*
X167207072Y-96977482D01*
X167130680Y-96925285D01*
X167040000Y-96906922D01*
X165540000Y-96906922D01*
X165455286Y-96922862D01*
X165377482Y-96972928D01*
X165325285Y-97049320D01*
X165306922Y-97140000D01*
X165306922Y-98440000D01*
X165322862Y-98524714D01*
X165372928Y-98602518D01*
X165449320Y-98654715D01*
X165540000Y-98673078D01*
X165756600Y-98673078D01*
X165756600Y-99173058D01*
X165133058Y-99796600D01*
X163950678Y-99796600D01*
X163950678Y-99082400D01*
X163934738Y-98997686D01*
X163884672Y-98919882D01*
X163808280Y-98867685D01*
X163717600Y-98849322D01*
X163048417Y-98849322D01*
X162937171Y-98682829D01*
X161034692Y-96780350D01*
X161868800Y-96780350D01*
X161868800Y-97012681D01*
X161919070Y-97134043D01*
X162011957Y-97226930D01*
X162133319Y-97277200D01*
X162840650Y-97277200D01*
X162923200Y-97194650D01*
X162923200Y-96697800D01*
X163024800Y-96697800D01*
X163024800Y-97194650D01*
X163107350Y-97277200D01*
X163814681Y-97277200D01*
X163936043Y-97226930D01*
X164028930Y-97134043D01*
X164079200Y-97012681D01*
X164079200Y-96780350D01*
X163996650Y-96697800D01*
X163024800Y-96697800D01*
X162923200Y-96697800D01*
X161951350Y-96697800D01*
X161868800Y-96780350D01*
X161034692Y-96780350D01*
X160807400Y-96553058D01*
X160807400Y-96281319D01*
X161868800Y-96281319D01*
X161868800Y-96513650D01*
X161951350Y-96596200D01*
X162923200Y-96596200D01*
X162923200Y-96099350D01*
X163024800Y-96099350D01*
X163024800Y-96596200D01*
X163996650Y-96596200D01*
X164079200Y-96513650D01*
X164079200Y-96281319D01*
X164028930Y-96159957D01*
X163936043Y-96067070D01*
X163814681Y-96016800D01*
X163107350Y-96016800D01*
X163024800Y-96099350D01*
X162923200Y-96099350D01*
X162840650Y-96016800D01*
X162133319Y-96016800D01*
X162011957Y-96067070D01*
X161919070Y-96159957D01*
X161868800Y-96281319D01*
X160807400Y-96281319D01*
X160807400Y-95978942D01*
X160875941Y-95910400D01*
X162974000Y-95910400D01*
X162975619Y-95910078D01*
X163749000Y-95910078D01*
X163833714Y-95894138D01*
X163911518Y-95844072D01*
X163963715Y-95767680D01*
X163982078Y-95677000D01*
X163982078Y-95077000D01*
X163966138Y-94992286D01*
X163916072Y-94914482D01*
X163839680Y-94862285D01*
X163749000Y-94843922D01*
X162975619Y-94843922D01*
X162974000Y-94843600D01*
X160655000Y-94843600D01*
X160450876Y-94884203D01*
X160412376Y-94909928D01*
X160277829Y-94999829D01*
X160277827Y-94999832D01*
X159896829Y-95380829D01*
X159781203Y-95553877D01*
X159740600Y-95758000D01*
X158565675Y-95758000D01*
X158582078Y-95677000D01*
X158582078Y-95077000D01*
X158566138Y-94992286D01*
X158516072Y-94914482D01*
X158439680Y-94862285D01*
X158349000Y-94843922D01*
X157575619Y-94843922D01*
X157574000Y-94843600D01*
X155569078Y-94843600D01*
X155569078Y-94674000D01*
X155553138Y-94589286D01*
X155503072Y-94511482D01*
X155426680Y-94459285D01*
X155336000Y-94440922D01*
X154036000Y-94440922D01*
X153951286Y-94456862D01*
X153873482Y-94506928D01*
X153821285Y-94583320D01*
X153802922Y-94674000D01*
X153802922Y-94716600D01*
X151892005Y-94716600D01*
X151892000Y-94716599D01*
X151687877Y-94757203D01*
X151679318Y-94762922D01*
X150114000Y-94762922D01*
X150029286Y-94778862D01*
X149951482Y-94828928D01*
X149899285Y-94905320D01*
X149880922Y-94996000D01*
X149880922Y-97028000D01*
X149896862Y-97112714D01*
X149946928Y-97190518D01*
X150023320Y-97242715D01*
X150114000Y-97261078D01*
X150797094Y-97261078D01*
X150383798Y-97431533D01*
X150011815Y-97802383D01*
X149810066Y-98287355D01*
X149809268Y-98291383D01*
X148741600Y-98291383D01*
X148741600Y-92537000D01*
X156565922Y-92537000D01*
X156565922Y-93137000D01*
X156581862Y-93221714D01*
X156631928Y-93299518D01*
X156708320Y-93351715D01*
X156799000Y-93370078D01*
X157040600Y-93370078D01*
X157040600Y-93573922D01*
X156799000Y-93573922D01*
X156714286Y-93589862D01*
X156636482Y-93639928D01*
X156584285Y-93716320D01*
X156565922Y-93807000D01*
X156565922Y-94407000D01*
X156581862Y-94491714D01*
X156631928Y-94569518D01*
X156708320Y-94621715D01*
X156799000Y-94640078D01*
X157572381Y-94640078D01*
X157574000Y-94640400D01*
X157575619Y-94640078D01*
X158349000Y-94640078D01*
X158433714Y-94624138D01*
X158511518Y-94574072D01*
X158563715Y-94497680D01*
X158582078Y-94407000D01*
X158582078Y-93807000D01*
X161965922Y-93807000D01*
X161965922Y-94407000D01*
X161981862Y-94491714D01*
X162031928Y-94569518D01*
X162108320Y-94621715D01*
X162199000Y-94640078D01*
X162972381Y-94640078D01*
X162974000Y-94640400D01*
X164244058Y-94640400D01*
X165230829Y-95627171D01*
X165306922Y-95678014D01*
X165306922Y-95900000D01*
X165322862Y-95984714D01*
X165372928Y-96062518D01*
X165449320Y-96114715D01*
X165540000Y-96133078D01*
X167040000Y-96133078D01*
X167124714Y-96117138D01*
X167202518Y-96067072D01*
X167254715Y-95990680D01*
X167273078Y-95900000D01*
X167273078Y-95383350D01*
X167909800Y-95383350D01*
X167909800Y-95965681D01*
X167960070Y-96087043D01*
X168052957Y-96179930D01*
X168174319Y-96230200D01*
X168856650Y-96230200D01*
X168939200Y-96147650D01*
X168939200Y-95300800D01*
X169040800Y-95300800D01*
X169040800Y-96147650D01*
X169123350Y-96230200D01*
X169805681Y-96230200D01*
X169927043Y-96179930D01*
X170019930Y-96087043D01*
X170070200Y-95965681D01*
X170070200Y-95383350D01*
X169987650Y-95300800D01*
X169040800Y-95300800D01*
X168939200Y-95300800D01*
X167992350Y-95300800D01*
X167909800Y-95383350D01*
X167273078Y-95383350D01*
X167273078Y-94600000D01*
X167260720Y-94534319D01*
X167909800Y-94534319D01*
X167909800Y-95116650D01*
X167992350Y-95199200D01*
X168939200Y-95199200D01*
X168939200Y-94352350D01*
X168856650Y-94269800D01*
X168174319Y-94269800D01*
X168052957Y-94320070D01*
X167960070Y-94412957D01*
X167909800Y-94534319D01*
X167260720Y-94534319D01*
X167257138Y-94515286D01*
X167207072Y-94437482D01*
X167130680Y-94385285D01*
X167040000Y-94366922D01*
X166823400Y-94366922D01*
X166823400Y-93593078D01*
X167040000Y-93593078D01*
X167124714Y-93577138D01*
X167202518Y-93527072D01*
X167254715Y-93450680D01*
X167273078Y-93360000D01*
X167273078Y-92060000D01*
X167257138Y-91975286D01*
X167207072Y-91897482D01*
X167130680Y-91845285D01*
X167040000Y-91826922D01*
X165540000Y-91826922D01*
X165455286Y-91842862D01*
X165377482Y-91892928D01*
X165325285Y-91969320D01*
X165306922Y-92060000D01*
X165306922Y-93360000D01*
X165322862Y-93444714D01*
X165372928Y-93522518D01*
X165449320Y-93574715D01*
X165540000Y-93593078D01*
X165756600Y-93593078D01*
X165756600Y-94366922D01*
X165540000Y-94366922D01*
X165488882Y-94376540D01*
X164842171Y-93729829D01*
X164669123Y-93614203D01*
X164465000Y-93573600D01*
X162974000Y-93573600D01*
X162972381Y-93573922D01*
X162199000Y-93573922D01*
X162114286Y-93589862D01*
X162036482Y-93639928D01*
X161984285Y-93716320D01*
X161965922Y-93807000D01*
X158582078Y-93807000D01*
X158566138Y-93722286D01*
X158516072Y-93644482D01*
X158439680Y-93592285D01*
X158349000Y-93573922D01*
X158107400Y-93573922D01*
X158107400Y-93370078D01*
X158349000Y-93370078D01*
X158433714Y-93354138D01*
X158511518Y-93304072D01*
X158563715Y-93227680D01*
X158582078Y-93137000D01*
X158582078Y-92970350D01*
X161868800Y-92970350D01*
X161868800Y-93202681D01*
X161919070Y-93324043D01*
X162011957Y-93416930D01*
X162133319Y-93467200D01*
X162840650Y-93467200D01*
X162923200Y-93384650D01*
X162923200Y-92887800D01*
X163024800Y-92887800D01*
X163024800Y-93384650D01*
X163107350Y-93467200D01*
X163814681Y-93467200D01*
X163936043Y-93416930D01*
X164028930Y-93324043D01*
X164079200Y-93202681D01*
X164079200Y-92970350D01*
X163996650Y-92887800D01*
X163024800Y-92887800D01*
X162923200Y-92887800D01*
X161951350Y-92887800D01*
X161868800Y-92970350D01*
X158582078Y-92970350D01*
X158582078Y-92537000D01*
X158569720Y-92471319D01*
X161868800Y-92471319D01*
X161868800Y-92703650D01*
X161951350Y-92786200D01*
X162923200Y-92786200D01*
X162923200Y-92289350D01*
X163024800Y-92289350D01*
X163024800Y-92786200D01*
X163996650Y-92786200D01*
X164079200Y-92703650D01*
X164079200Y-92471319D01*
X164028930Y-92349957D01*
X163936043Y-92257070D01*
X163814681Y-92206800D01*
X163107350Y-92206800D01*
X163024800Y-92289350D01*
X162923200Y-92289350D01*
X162840650Y-92206800D01*
X162133319Y-92206800D01*
X162011957Y-92257070D01*
X161919070Y-92349957D01*
X161868800Y-92471319D01*
X158569720Y-92471319D01*
X158566138Y-92452286D01*
X158516072Y-92374482D01*
X158439680Y-92322285D01*
X158349000Y-92303922D01*
X157575619Y-92303922D01*
X157574000Y-92303600D01*
X157572381Y-92303922D01*
X156799000Y-92303922D01*
X156714286Y-92319862D01*
X156636482Y-92369928D01*
X156584285Y-92446320D01*
X156565922Y-92537000D01*
X148741600Y-92537000D01*
X148741600Y-89160617D01*
X149555268Y-89160617D01*
X149556066Y-89164645D01*
X149757815Y-89649617D01*
X150129798Y-90020467D01*
X150615383Y-90220736D01*
X150825200Y-90162695D01*
X150825200Y-88950800D01*
X150926800Y-88950800D01*
X150926800Y-90162695D01*
X151136617Y-90220736D01*
X151622202Y-90020467D01*
X151994185Y-89649617D01*
X152195934Y-89164645D01*
X152196732Y-89160617D01*
X152155950Y-89013350D01*
X152968800Y-89013350D01*
X152968800Y-89695681D01*
X153019070Y-89817043D01*
X153111957Y-89909930D01*
X153233319Y-89960200D01*
X153790650Y-89960200D01*
X153873200Y-89877650D01*
X153873200Y-88930800D01*
X153974800Y-88930800D01*
X153974800Y-89877650D01*
X154057350Y-89960200D01*
X154614681Y-89960200D01*
X154736043Y-89909930D01*
X154828930Y-89817043D01*
X154879200Y-89695681D01*
X154879200Y-89013350D01*
X154796650Y-88930800D01*
X153974800Y-88930800D01*
X153873200Y-88930800D01*
X153051350Y-88930800D01*
X152968800Y-89013350D01*
X152155950Y-89013350D01*
X152138628Y-88950800D01*
X150926800Y-88950800D01*
X150825200Y-88950800D01*
X149613372Y-88950800D01*
X149555268Y-89160617D01*
X148741600Y-89160617D01*
X148741600Y-88639383D01*
X149555268Y-88639383D01*
X149613372Y-88849200D01*
X150825200Y-88849200D01*
X150825200Y-88829200D01*
X150926800Y-88829200D01*
X150926800Y-88849200D01*
X152138628Y-88849200D01*
X152196732Y-88639383D01*
X152195934Y-88635355D01*
X151994185Y-88150383D01*
X151907859Y-88064319D01*
X152968800Y-88064319D01*
X152968800Y-88746650D01*
X153051350Y-88829200D01*
X153873200Y-88829200D01*
X153873200Y-87882350D01*
X153974800Y-87882350D01*
X153974800Y-88829200D01*
X154796650Y-88829200D01*
X154879200Y-88746650D01*
X154879200Y-88230000D01*
X155580922Y-88230000D01*
X155580922Y-89730000D01*
X155596862Y-89814714D01*
X155646928Y-89892518D01*
X155723320Y-89944715D01*
X155814000Y-89963078D01*
X157114000Y-89963078D01*
X157198714Y-89947138D01*
X157276518Y-89897072D01*
X157328715Y-89820680D01*
X157347078Y-89730000D01*
X157347078Y-89513400D01*
X159051000Y-89513400D01*
X159255123Y-89472797D01*
X159428171Y-89357171D01*
X159521585Y-89263757D01*
X166952512Y-89263757D01*
X167000232Y-89436914D01*
X167242535Y-89835223D01*
X167618819Y-90110487D01*
X168071800Y-90220800D01*
X168224200Y-90220800D01*
X168224200Y-89077800D01*
X168325800Y-89077800D01*
X168325800Y-90220800D01*
X168478200Y-90220800D01*
X168931181Y-90110487D01*
X169307465Y-89835223D01*
X169549768Y-89436914D01*
X169597488Y-89263757D01*
X169537488Y-89077800D01*
X168325800Y-89077800D01*
X168224200Y-89077800D01*
X167012512Y-89077800D01*
X166952512Y-89263757D01*
X159521585Y-89263757D01*
X159995099Y-88790243D01*
X166952512Y-88790243D01*
X167012512Y-88976200D01*
X168224200Y-88976200D01*
X168224200Y-87833200D01*
X168325800Y-87833200D01*
X168325800Y-88976200D01*
X169537488Y-88976200D01*
X169597488Y-88790243D01*
X169549768Y-88617086D01*
X169307465Y-88218777D01*
X168931181Y-87943513D01*
X168478200Y-87833200D01*
X168325800Y-87833200D01*
X168224200Y-87833200D01*
X168071800Y-87833200D01*
X167618819Y-87943513D01*
X167242535Y-88218777D01*
X167000232Y-88617086D01*
X166952512Y-88790243D01*
X159995099Y-88790243D01*
X164304942Y-84480400D01*
X167166286Y-84480400D01*
X167325915Y-84719302D01*
X167680250Y-84956061D01*
X168098217Y-85039200D01*
X168451783Y-85039200D01*
X168869750Y-84956061D01*
X169224085Y-84719302D01*
X169460844Y-84364967D01*
X169543983Y-83947000D01*
X169460844Y-83529033D01*
X169224085Y-83174698D01*
X168869750Y-82937939D01*
X168451783Y-82854800D01*
X168098217Y-82854800D01*
X167680250Y-82937939D01*
X167325915Y-83174698D01*
X167166286Y-83413600D01*
X164084000Y-83413600D01*
X163879877Y-83454203D01*
X163706829Y-83569829D01*
X158830058Y-88446600D01*
X157347078Y-88446600D01*
X157347078Y-88230000D01*
X157331138Y-88145286D01*
X157281072Y-88067482D01*
X157204680Y-88015285D01*
X157114000Y-87996922D01*
X155814000Y-87996922D01*
X155729286Y-88012862D01*
X155651482Y-88062928D01*
X155599285Y-88139320D01*
X155580922Y-88230000D01*
X154879200Y-88230000D01*
X154879200Y-88064319D01*
X154828930Y-87942957D01*
X154736043Y-87850070D01*
X154614681Y-87799800D01*
X154057350Y-87799800D01*
X153974800Y-87882350D01*
X153873200Y-87882350D01*
X153790650Y-87799800D01*
X153233319Y-87799800D01*
X153111957Y-87850070D01*
X153019070Y-87942957D01*
X152968800Y-88064319D01*
X151907859Y-88064319D01*
X151622202Y-87779533D01*
X151208906Y-87609078D01*
X151892000Y-87609078D01*
X151976714Y-87593138D01*
X152054518Y-87543072D01*
X152106715Y-87466680D01*
X152125078Y-87376000D01*
X152125078Y-86913400D01*
X153065922Y-86913400D01*
X153065922Y-87130000D01*
X153081862Y-87214714D01*
X153131928Y-87292518D01*
X153208320Y-87344715D01*
X153299000Y-87363078D01*
X154549000Y-87363078D01*
X154633714Y-87347138D01*
X154711518Y-87297072D01*
X154763715Y-87220680D01*
X154782078Y-87130000D01*
X154782078Y-86413350D01*
X155483800Y-86413350D01*
X155483800Y-87095681D01*
X155534070Y-87217043D01*
X155626957Y-87309930D01*
X155748319Y-87360200D01*
X156330650Y-87360200D01*
X156413200Y-87277650D01*
X156413200Y-86330800D01*
X156514800Y-86330800D01*
X156514800Y-87277650D01*
X156597350Y-87360200D01*
X157179681Y-87360200D01*
X157301043Y-87309930D01*
X157393930Y-87217043D01*
X157444200Y-87095681D01*
X157444200Y-86413350D01*
X157361650Y-86330800D01*
X156514800Y-86330800D01*
X156413200Y-86330800D01*
X155566350Y-86330800D01*
X155483800Y-86413350D01*
X154782078Y-86413350D01*
X154782078Y-85630000D01*
X154766138Y-85545286D01*
X154716072Y-85467482D01*
X154711443Y-85464319D01*
X155483800Y-85464319D01*
X155483800Y-86146650D01*
X155566350Y-86229200D01*
X156413200Y-86229200D01*
X156413200Y-85282350D01*
X156514800Y-85282350D01*
X156514800Y-86229200D01*
X157361650Y-86229200D01*
X157444200Y-86146650D01*
X157444200Y-85464319D01*
X157393930Y-85342957D01*
X157301043Y-85250070D01*
X157179681Y-85199800D01*
X156597350Y-85199800D01*
X156514800Y-85282350D01*
X156413200Y-85282350D01*
X156330650Y-85199800D01*
X155748319Y-85199800D01*
X155626957Y-85250070D01*
X155534070Y-85342957D01*
X155483800Y-85464319D01*
X154711443Y-85464319D01*
X154639680Y-85415285D01*
X154549000Y-85396922D01*
X153299000Y-85396922D01*
X153214286Y-85412862D01*
X153136482Y-85462928D01*
X153084285Y-85539320D01*
X153065922Y-85630000D01*
X153065922Y-85846600D01*
X152125078Y-85846600D01*
X152125078Y-85344000D01*
X152109138Y-85259286D01*
X152059072Y-85181482D01*
X151982680Y-85129285D01*
X151892000Y-85110922D01*
X149860000Y-85110922D01*
X149775286Y-85126862D01*
X149697482Y-85176928D01*
X149645285Y-85253320D01*
X149626922Y-85344000D01*
X149626922Y-87376000D01*
X149642862Y-87460714D01*
X149692928Y-87538518D01*
X149769320Y-87590715D01*
X149860000Y-87609078D01*
X150543094Y-87609078D01*
X150129798Y-87779533D01*
X149757815Y-88150383D01*
X149556066Y-88635355D01*
X149555268Y-88639383D01*
X148741600Y-88639383D01*
X148741600Y-81876331D01*
X150036101Y-81876331D01*
X150298710Y-82511894D01*
X150784548Y-82998581D01*
X151419652Y-83262299D01*
X152107331Y-83262899D01*
X152742894Y-83000290D01*
X153229581Y-82514452D01*
X153493299Y-81879348D01*
X153493899Y-81191669D01*
X153231290Y-80556106D01*
X153218607Y-80543400D01*
X167025922Y-80543400D01*
X167025922Y-82270600D01*
X167041862Y-82355314D01*
X167091928Y-82433118D01*
X167168320Y-82485315D01*
X167259000Y-82503678D01*
X169291000Y-82503678D01*
X169375714Y-82487738D01*
X169453518Y-82437672D01*
X169505715Y-82361280D01*
X169524078Y-82270600D01*
X169524078Y-80543400D01*
X169508138Y-80458686D01*
X169458072Y-80380882D01*
X169381680Y-80328685D01*
X169291000Y-80310322D01*
X167259000Y-80310322D01*
X167174286Y-80326262D01*
X167096482Y-80376328D01*
X167044285Y-80452720D01*
X167025922Y-80543400D01*
X153218607Y-80543400D01*
X152745452Y-80069419D01*
X152110348Y-79805701D01*
X151422669Y-79805101D01*
X150787106Y-80067710D01*
X150300419Y-80553548D01*
X150036701Y-81188652D01*
X150036101Y-81876331D01*
X148741600Y-81876331D01*
X148741600Y-78510600D01*
X172441400Y-78510600D01*
X172441400Y-106020400D01*
M02*
