<?xml version="1.0" encoding="UTF-8" standalone="no"?>
<svg
   xmlns:dc="http://purl.org/dc/elements/1.1/"
   xmlns:cc="http://creativecommons.org/ns#"
   xmlns:rdf="http://www.w3.org/1999/02/22-rdf-syntax-ns#"
   xmlns:svg="http://www.w3.org/2000/svg"
   xmlns="http://www.w3.org/2000/svg"
   xmlns:sodipodi="http://sodipodi.sourceforge.net/DTD/sodipodi-0.dtd"
   xmlns:inkscape="http://www.inkscape.org/namespaces/inkscape"
   width="43.9985598325317mm"
   height="43.99855983253169mm"
   viewBox="0 0 43.9985598325317 43.99855983253169"
   version="1.1"
   id="svg3031"
   inkscape:version="0.48.5 r10040"
   sodipodi:docname="EncoderWheel-Rev6.svg">
  <metadata
     id="metadata3040">
    <rdf:RDF>
      <cc:Work
         rdf:about="">
        <dc:format>image/svg+xml</dc:format>
        <dc:type
           rdf:resource="http://purl.org/dc/dcmitype/StillImage" />
      </cc:Work>
    </rdf:RDF>
  </metadata>
  <defs
     id="defs3038" />
  <sodipodi:namedview
     pagecolor="#ffffff"
     bordercolor="#666666"
     borderopacity="1"
     objecttolerance="10"
     gridtolerance="10"
     guidetolerance="10"
     inkscape:pageopacity="0"
     inkscape:pageshadow="2"
     inkscape:window-width="1539"
     inkscape:window-height="938"
     id="namedview3036"
     showgrid="false"
     inkscape:zoom="6.0551478"
     inkscape:cx="50.5396"
     inkscape:cy="57.44859"
     inkscape:window-x="0"
     inkscape:window-y="0"
     inkscape:window-maximized="0"
     inkscape:current-layer="svg3031" />
  <desc
     id="desc3033">Output from Flights of Ideas SVG Sketchup Plugin</desc>
  <path
     id="face0-cut"
     style="fill:none;stroke:#FF0000;stroke-width:0.01;stroke-miterlimit:4;stroke-dasharray:none;stroke-linejoin:round;stroke-linecap:round"
     d="M 22.130739001532575,10.0 L 21.502565052780497,10.009564559161126 L 20.875752564943006,10.051992094721177 L 20.252019587480063,10.127166315754295 L 19.63307572912774,10.23488117494591 L 19.020617471979527,10.374841433354158 L 18.416323521546826,10.546663469639249 L 17.821850205543793,10.749876331542934 L 17.238826934008273,10.983923026735894 L 16.668851733202096,11.24816204949498 L 16.11348686553217,11.541869139025856 L 15.574254547497848,11.864239264611427 L 15.052632777401287,12.214388832145147 L 14.550051284256824,12.591358106001 L 14.067887609003167,12.994113839602164 L 13.607463328759405,13.421552107478039 L 13.170040434473968,13.872501331047259 L 12.756817871895214,14.345725489833109 L 12.368928255344422,14.839927509309753 L 12.007434763298678,15.353752816093397 L 11.673328224292575,15.885793050733685 L 11.367524401126076,16.434589927929125 L 11.090861480822303,16.99863923358575 L 10.84409777721521,17.576394947763323 L 10.627909652464055,18.166273482208588 L 10.442889663191727,18.766658020860604 L 10.289544936328229,19.37590295143113 L 10.168295779111054,19.992338375913572 L 10.079474527052188,20.61427468765732 L 10.023324633029643,21.24000720246216 L 10.0,21.867820830999122 L 10.009564559161127,22.4959947797512 L 10.051992094721186,23.1228072675887 L 10.127166315754298,23.74654024505164 L 10.23488117494591,24.365484103403954 L 10.37484143335416,24.97794236055217 L 10.546663469639256,25.582236310984868 L 10.749876331542938,26.176709626987897 L 10.983923026735903,26.759732898523428 L 11.24816204949499,27.329708099329597 L 11.54186913902586,27.885072966999527 L 11.864239264611435,28.42430528503385 L 12.214388832145152,28.945927055130404 L 12.591358106001005,29.44850854827487 L 12.994113839602171,29.93067222352853 L 13.421552107478046,30.39109650377229 L 13.872501331047264,30.82851939805773 L 14.34572548983311,31.24174196063648 L 14.839927509309764,31.629631577187272 L 15.353752816093397,31.99112506923301 L 15.885793050733685,32.325231608239115 L 16.43458992792913,32.63103543140562 L 16.998639233585752,32.90769835170939 L 17.576394947763323,33.154462055316486 L 18.166273482208595,33.37065018006764 L 18.76665802086061,33.55567016933997 L 19.375902951431137,33.709014896203456 L 19.992338375913576,33.83026405342064 L 20.61427468765733,33.91908530547951 L 21.24000720246216,33.97523519950205 L 21.86782083099913,33.99855983253169 L 22.49599477975121,33.98899527337056 L 23.122807267588698,33.94656773781051 L 23.746540245051644,33.871393516777395 L 24.365484103403965,33.76367865758578 L 24.97794236055217,33.623718399177534 L 25.58223631098488,33.45189636289244 L 26.176709626987908,33.24868350098875 L 26.759732898523424,33.01463680579579 L 27.329708099329604,32.7503977830367 L 27.88507296699953,32.456690693505834 L 28.42430528503385,32.13432056792026 L 28.94592705513041,31.784171000386547 L 29.448508548274873,31.40720172653069 L 29.93067222352853,31.004445992929526 L 30.391096503772296,30.57700772505365 L 30.828519398057733,30.126058501484433 L 31.24174196063648,29.652834342698586 L 31.62963157718728,29.158632323221934 L 31.99112506923302,28.644807016438293 L 32.32523160823912,28.112766781798012 L 32.63103543140563,27.563969904602565 L 32.9076983517094,26.999920598945945 L 33.154462055316486,26.42216488476837 L 33.37065018006764,25.83228635032311 L 33.555670169339976,25.231901811671094 L 33.70901489620347,24.62265688110056 L 33.83026405342065,24.006221456618125 L 33.91908530547951,23.384285144874372 L 33.97523519950205,22.758552630069538 L 33.9985598325317,22.13073900153257 L 33.98899527337058,21.50256505278049 L 33.94656773781052,20.875752564942996 L 33.8713935167774,20.252019587480056 L 33.763678657585785,19.633075729127732 L 33.62371839917755,19.02061747197953 L 33.451896362892455,18.416323521546822 L 33.24868350098876,17.82185020554379 L 33.0146368057958,17.23882693400827 L 32.75039778303672,16.668851733202096 L 32.45669069350585,16.11348686553217 L 32.13432056792027,15.574254547497851 L 31.784171000386554,15.052632777401286 L 31.4072017265307,14.550051284256822 L 31.004445992929536,14.067887609003165 L 30.577007725053658,13.607463328759398 L 30.12605850148444,13.170040434473961 L 29.652834342698593,12.75681787189521 L 29.15863232322194,12.368928255344418 L 28.644807016438303,12.007434763298678 L 28.11276678179802,11.673328224292572 L 27.563969904602576,11.36752440112607 L 26.999920598945955,11.090861480822293 L 26.42216488476838,10.844097777215206 L 25.832286350323116,10.627909652464052 L 25.2319018116711,10.442889663191721 L 24.62265688110057,10.28954493632823 L 24.00622145661813,10.16829577911105 L 23.384285144874383,10.079474527052183 L 22.758552630069545,10.023324633029638 L 22.130739001532575,10.0 M 19.91847440492915,20.12571421846104 L 19.958072279658904,20.099279916265843 L 24.040487552872797,20.099279916265843 L 24.080085427602555,20.12571421846104 L 24.17528860834537,20.2371828213263 L 24.264527500515705,20.35348120984692 L 24.34755750651304,20.474290618223765 L 24.424151046862278,20.599279916265843 L 24.49409818399328,20.728106516995112 L 24.557207197665132,20.860417315653603 L 24.613305110458015,20.995849657539004 L 24.66223816189228,21.13403233201599 L 24.703872229875245,21.27458658997879 L 24.73809319832051,21.417127181976117 L 24.764807269932238,21.561263414153196 L 24.783941223297013,21.706600219116414 L 24.79544261357866,21.8527392387856 L 24.799279916265853,21.99927991626584 L 24.79544261357866,22.145820593746087 L 24.78394122329702,22.291959613415273 L 24.764807269932238,22.43729641837849 L 24.738093198320506,22.58143265055557 L 24.703872229875245,22.723973242552905 L 24.662238161892283,22.864527500515702 L 24.613305110458015,23.002710174992686 L 24.557207197665136,23.138142516878084 L 24.49409818399328,23.270453315536578 L 24.424151046862285,23.399279916265847 L 24.347557506513034,23.52426921430792 L 24.264527500515705,23.64507862268477 L 24.175288608345372,23.76137701120539 L 24.080085427602555,23.87284561407065 L 24.040487552872797,23.899279916265847 L 19.958072279658904,23.899279916265847 L 19.91847440492915,23.87284561407065 L 19.823271224186335,23.761377011205393 L 19.734032332016,23.64507862268477 L 19.651002326018666,23.52426921430792 L 19.574408785669426,23.399279916265847 L 19.504461648538424,23.270453315536578 L 19.44135263486657,23.138142516878084 L 19.38525472207369,23.002710174992686 L 19.33632167063942,22.864527500515702 L 19.29468760265646,22.723973242552905 L 19.2604666342112,22.581432650555577 L 19.233752562599467,22.437296418378494 L 19.214618609234684,22.291959613415273 L 19.203117218953043,22.145820593746087 L 19.19927991626585,21.999279916265845 L 19.203117218953047,21.852739238785603 L 19.214618609234687,21.706600219116417 L 19.233752562599467,21.561263414153196 L 19.2604666342112,21.41712718197612 L 19.29468760265646,21.27458658997879 L 19.33632167063942,21.13403233201599 L 19.38525472207369,20.995849657539004 L 19.44135263486657,20.860417315653606 L 19.504461648538424,20.728106516995112 L 19.574408785669426,20.599279916265843 L 19.651002326018663,20.474290618223772 L 19.734032332016,20.35348120984692 L 19.823271224186335,20.2371828213263 L 19.91847440492915,20.12571421846104 M 24.216490666942374,31.23994891516761 L 23.582384006441195,28.873430640759388 L 24.06534691958573,28.744021118208128 L 24.699453580086907,31.11053939261635 L 24.216490666942374,31.23994891516761 M 26.532602169074305,30.351224385212678 L 25.307602169074308,28.229462145940797 L 25.740614870966525,27.9794621459408 L 26.965614870966522,30.101224385212678 L 26.532602169074305,30.351224385212678 M 12.758610917364095,24.216490666942363 L 15.125129191772311,23.58238400644119 L 15.254538714323571,24.065346919585714 L 12.888020439915355,24.699453580086896 L 12.758610917364095,24.216490666942363 M 15.105231190591867,28.539775251346555 L 16.837642804498913,26.807363637439508 L 17.191196195092182,27.16091702803278 L 15.458784581185139,28.893328641939828 L 15.105231190591867,28.539775251346555 M 21.749279916265856,31.49893712377497 L 21.749279916265856,29.048937123774962 L 22.249279916265856,29.048937123774962 L 22.249279916265856,31.498937123774965 L 21.749279916265856,31.49893712377497 M 17.032944961565196,30.101224385212678 L 18.2579449615652,27.9794621459408 L 18.690957663457418,28.2294621459408 L 17.465957663457417,30.351224385212678 L 17.032944961565196,30.101224385212678 M 19.2991062524448,31.110539392616356 L 19.933212912945976,28.74402111820813 L 20.416175826090512,28.87343064075939 L 19.782069165589338,31.239948915167616 L 19.2991062524448,31.110539392616356 M 13.647335447319026,26.53260216907429 L 15.76909768659091,25.307602169074286 L 16.019097686590907,25.74061487096651 L 13.897335447319026,26.965614870966508 L 13.647335447319026,26.53260216907429 M 12.888020439915344,19.299106252444794 L 15.25453871432356,19.93321291294597 L 15.125129191772299,20.4161758260905 L 12.758610917364079,19.782069165589327 L 12.888020439915344,19.299106252444794 M 12.499622708756727,21.74927991626585 L 14.949622708756731,21.74927991626585 L 14.949622708756728,22.24927991626584 L 12.499622708756725,22.24927991626584 L 12.499622708756727,21.74927991626585 M 13.897335447319012,17.03294496156517 L 16.019097686590897,18.25794496156518 L 15.769097686590893,18.690957663457397 L 13.647335447319016,17.465957663457395 L 13.897335447319012,17.03294496156517 M 15.458784581185135,15.105231190591855 L 17.191196195092175,16.837642804498895 L 16.837642804498905,17.191196195092168 L 15.10523119059186,15.458784581185128 L 15.458784581185135,15.105231190591855 M 17.4659576634574,13.647335447319014 L 18.6909576634574,15.769097686590893 L 18.25794496156518,16.01909768659089 L 17.03294496156518,13.897335447319016 L 17.4659576634574,13.647335447319014 M 24.699453580086907,12.888020439915342 L 24.06534691958573,15.254538714323566 L 23.582384006441195,15.125129191772302 L 24.216490666942374,12.758610917364082 L 24.699453580086907,12.888020439915342 M 28.893328641939846,15.458784581185133 L 27.1609170280328,17.191196195092175 L 26.807363637439526,16.837642804498905 L 28.53977525134657,15.105231190591859 L 28.893328641939846,15.458784581185133 M 22.249279916265856,12.499622708756739 L 22.249279916265856,14.949622708756744 L 21.749279916265852,14.949622708756744 L 21.749279916265856,12.499622708756739 L 22.249279916265856,12.499622708756739 M 19.78206916558934,12.758610917364082 L 20.41617582609052,15.125129191772302 L 19.933212912945983,15.254538714323566 L 19.29910625244481,12.888020439915342 L 19.78206916558934,12.758610917364082 M 26.965614870966522,13.897335447319008 L 25.740614870966525,16.019097686590886 L 25.307602169074308,15.769097686590886 L 26.532602169074305,13.647335447319008 L 26.965614870966522,13.897335447319008 M 31.49893712377496,22.24927991626584 L 29.04893712377496,22.24927991626584 L 29.04893712377496,21.74927991626584 L 31.498937123774965,21.749279916265838 L 31.49893712377496,22.24927991626584 M 31.11053939261634,24.69945358008691 L 28.744021118208117,24.06534691958573 L 28.87343064075938,23.582384006441192 L 31.239948915167602,24.21649066694237 L 31.11053939261634,24.69945358008691 M 31.239948915167624,19.782069165589334 L 28.873430640759402,20.41617582609051 L 28.744021118208146,19.933212912945976 L 31.110539392616364,19.2991062524448 L 31.239948915167624,19.782069165589334 M 30.101224385212664,26.965614870966508 L 27.979462145940794,25.74061487096651 L 28.22946214594079,25.307602169074286 L 30.351224385212667,26.53260216907429 L 30.101224385212664,26.965614870966508 M 30.351224385212678,17.465957663457395 L 28.2294621459408,18.690957663457397 L 27.9794621459408,18.257944961565173 L 30.101224385212678,17.03294496156517 L 30.351224385212678,17.465957663457395 M 28.53977525134655,28.893328641939835 L 26.807363637439515,27.16091702803279 L 27.16091702803278,26.80736363743952 L 28.893328641939828,28.539775251346565 L 28.53977525134655,28.893328641939835 " />
</svg>
