<?xml version="1.0" encoding="UTF-8" standalone="no"?>
<svg
   xmlns:dc="http://purl.org/dc/elements/1.1/"
   xmlns:cc="http://creativecommons.org/ns#"
   xmlns:rdf="http://www.w3.org/1999/02/22-rdf-syntax-ns#"
   xmlns:svg="http://www.w3.org/2000/svg"
   xmlns="http://www.w3.org/2000/svg"
   xmlns:sodipodi="http://sodipodi.sourceforge.net/DTD/sodipodi-0.dtd"
   xmlns:inkscape="http://www.inkscape.org/namespaces/inkscape"
   width="43.9985598325317mm"
   height="43.99855983253169mm"
   viewBox="0 0 43.9985598325317 43.99855983253169"
   version="1.1"
   id="svg2"
   inkscape:version="0.91 r13725"
   sodipodi:docname="EncoderWheel-Rev4b.svg">
  <metadata
     id="metadata14">
    <rdf:RDF>
      <cc:Work
         rdf:about="">
        <dc:format>image/svg+xml</dc:format>
        <dc:type
           rdf:resource="http://purl.org/dc/dcmitype/StillImage" />
      </cc:Work>
    </rdf:RDF>
  </metadata>
  <defs
     id="defs12" />
  <sodipodi:namedview
     pagecolor="#ffffff"
     bordercolor="#666666"
     borderopacity="1"
     objecttolerance="10"
     gridtolerance="10"
     guidetolerance="10"
     inkscape:pageopacity="0"
     inkscape:pageshadow="2"
     inkscape:window-width="1661"
     inkscape:window-height="982"
     id="namedview10"
     showgrid="false"
     inkscape:zoom="6.0551479"
     inkscape:cx="75.258288"
     inkscape:cy="84.878512"
     inkscape:window-x="0"
     inkscape:window-y="0"
     inkscape:window-maximized="0"
     inkscape:current-layer="svg2" />
  <desc
     id="desc4">Output from Flights of Ideas SVG Sketchup Plugin</desc>
  <path
     id="face0-cut"
     style="fill:none;stroke:#ff0000;stroke-width:0.01;stroke-miterlimit:4;stroke-dasharray:none;stroke-linejoin:round;stroke-linecap:round"
     d="M 22.13073900153257,10.0 L 21.502565052780493,10.009564559161126 L 20.875752564943,10.051992094721177 L 20.252019587480056,10.127166315754295 L 19.633075729127732,10.23488117494591 L 19.02061747197952,10.374841433354158 L 18.416323521546822,10.546663469639249 L 17.82185020554379,10.749876331542934 L 17.238826934008266,10.983923026735894 L 16.66885173320209,11.24816204949498 L 16.113486865532167,11.541869139025856 L 15.57425454749784,11.864239264611427 L 15.052632777401282,12.214388832145147 L 14.55005128425682,12.591358106001 L 14.067887609003161,12.994113839602164 L 13.607463328759398,13.421552107478039 L 13.170040434473963,13.872501331047259 L 12.756817871895208,14.345725489833109 L 12.368928255344416,14.839927509309753 L 12.007434763298672,15.353752816093397 L 11.673328224292568,15.885793050733685 L 11.367524401126067,16.434589927929125 L 11.090861480822298,16.99863923358575 L 10.844097777215204,17.576394947763323 L 10.62790965246405,18.166273482208588 L 10.442889663191721,18.766658020860604 L 10.289544936328229,19.375902951431137 L 10.168295779111043,19.992338375913565 L 10.079474527052183,20.61427468765732 L 10.02332463302964,21.24000720246216 L 10.0,21.867820830999126 L 10.009564559161122,22.4959947797512 L 10.05199209472118,23.1228072675887 L 10.127166315754293,23.74654024505164 L 10.234881174945903,24.365484103403954 L 10.374841433354149,24.97794236055217 L 10.546663469639247,25.582236310984868 L 10.749876331542929,26.176709626987897 L 10.983923026735898,26.759732898523428 L 11.248162049494976,27.329708099329594 L 11.541869139025852,27.885072966999527 L 11.86423926461143,28.424305285033846 L 12.214388832145147,28.945927055130404 L 12.591358106001,29.44850854827487 L 12.994113839602166,29.93067222352853 L 13.421552107478036,30.39109650377229 L 13.872501331047257,30.82851939805773 L 14.3457254898331,31.241741960636478 L 14.839927509309758,31.629631577187272 L 15.353752816093394,31.99112506923301 L 15.885793050733675,32.32523160823911 L 16.43458992792912,32.63103543140562 L 16.99863923358574,32.90769835170939 L 17.576394947763312,33.154462055316486 L 18.16627348220858,33.37065018006764 L 18.766658020860604,33.55567016933997 L 19.375902951431122,33.709014896203456 L 19.99233837591357,33.83026405342064 L 20.614274687657325,33.91908530547951 L 21.240007202462156,33.97523519950205 L 21.867820830999122,33.99855983253169 L 22.4959947797512,33.98899527337056 L 23.122807267588694,33.94656773781051 L 23.74654024505164,33.871393516777395 L 24.365484103403958,33.76367865758578 L 24.977942360552163,33.623718399177534 L 25.582236310984875,33.45189636289244 L 26.1767096269879,33.248683500988754 L 26.75973289852342,33.01463680579579 L 27.3297080993296,32.7503977830367 L 27.885072966999527,32.456690693505834 L 28.424305285033846,32.13432056792026 L 28.945927055130408,31.784171000386547 L 29.44850854827487,31.40720172653069 L 29.930672223528525,31.004445992929526 L 30.391096503772292,30.57700772505365 L 30.82851939805773,30.126058501484433 L 31.241741960636478,29.652834342698586 L 31.629631577187276,29.158632323221934 L 31.991125069233018,28.644807016438293 L 32.32523160823912,28.112766781798012 L 32.63103543140562,27.56396990460257 L 32.9076983517094,26.999920598945945 L 33.154462055316486,26.422164884768375 L 33.37065018006764,25.83228635032311 L 33.555670169339976,25.231901811671094 L 33.70901489620347,24.62265688110056 L 33.83026405342064,24.00622145661812 L 33.91908530547951,23.384285144874372 L 33.97523519950205,22.758552630069538 L 33.9985598325317,22.13073900153257 L 33.98899527337057,21.50256505278049 L 33.94656773781051,20.875752564942996 L 33.8713935167774,20.252019587480056 L 33.763678657585785,19.633075729127732 L 33.62371839917754,19.02061747197953 L 33.45189636289245,18.416323521546822 L 33.24868350098876,17.82185020554379 L 33.0146368057958,17.23882693400827 L 32.75039778303671,16.668851733202096 L 32.45669069350584,16.11348686553217 L 32.13432056792027,15.57425454749785 L 31.78417100038655,15.052632777401286 L 31.407201726530698,14.550051284256822 L 31.004445992929533,14.067887609003165 L 30.577007725053654,13.607463328759398 L 30.126058501484437,13.170040434473961 L 29.65283434269859,12.75681787189521 L 29.158632323221937,12.368928255344418 L 28.6448070164383,12.007434763298678 L 28.112766781798015,11.673328224292572 L 27.563969904602573,11.36752440112607 L 26.999920598945952,11.090861480822293 L 26.422164884768378,10.844097777215206 L 25.83228635032311,10.627909652464052 L 25.231901811671094,10.442889663191721 L 24.622656881100568,10.28954493632823 L 24.006221456618125,10.16829577911105 L 23.384285144874376,10.079474527052183 L 22.75855263006954,10.023324633029638 L 22.13073900153257,10.0 M 19.9580722796589,20.099279916265843 L 24.040487552872793,20.099279916265843 L 24.209486151265637,20.319523177666 L 24.424151046862274,20.599279916265843 L 24.49927991626585,20.78065705170571 L 24.703872229875238,21.27458658997879 L 24.799279916265846,21.99927991626584 L 24.703872229875238,22.723973242552905 L 24.49927991626585,23.217902780825984 L 24.424151046862274,23.399279916265847 L 24.209486151265644,23.679036654865687 L 24.040487552872793,23.899279916265847 L 19.9580722796589,23.899279916265847 L 19.789073681266053,23.679036654865687 L 19.57440878566942,23.399279916265847 L 19.49927991626584,23.21790278082598 L 19.294687602656456,22.723973242552905 L 19.199279916265848,21.999279916265845 L 19.294687602656456,21.27458658997879 L 19.499279916265845,20.78065705170571 L 19.574408785669416,20.59927991626585 L 19.789073681266053,20.319523177666007 L 19.9580722796589,20.099279916265843 M 24.57449840895863,16.555250867013054 L 27.07449840895863,12.225123848090862 L 27.94052381274307,12.725123848090862 L 25.440523812743066,17.055250867013054 L 24.57449840895863,16.555250867013054 M 16.074841201449473,31.27708899733789 L 18.574841201449473,26.946961978415697 L 19.440866605233907,27.446961978415697 L 16.94086660523391,31.777088997337888 L 16.074841201449473,31.27708899733789 M 10.999622708756712,21.49927991626588 L 15.99962270875671,21.499279916265884 L 15.999622708756714,22.499279916265884 L 10.999622708756714,22.499279916265884 L 10.999622708756712,21.49927991626588 M 26.951499075859658,18.572221707018876 L 31.281626094781856,16.072221707018876 L 31.781626094781853,16.93824711080331 L 27.451499075859658,19.43824711080331 L 26.951499075859658,18.572221707018876 M 21.50747002660686,32.99631762934439 L 21.507470026606867,27.996317629344386 L 22.50747002660686,27.996317629344386 L 22.50747002660686,32.99631762934439 L 21.50747002660686,32.99631762934439 M 12.229660945534816,27.071878914528 L 16.559787964457,24.571878914528 L 17.059787964457,25.437904318312437 L 12.729660945534807,27.937904318312434 L 12.229660945534816,27.071878914528 M 21.50747002660687,15.997003214326089 L 21.507470026606875,10.997003214326087 L 22.50747002660687,10.997003214326087 L 22.507470026606867,15.997003214326089 L 21.50747002660687,15.997003214326089 M 27.443308965518636,24.574498408958625 L 31.773435984440823,27.074498408958622 L 31.273435984440827,27.94052381274306 L 26.943308965518636,25.440523812743063 L 27.443308965518636,24.574498408958625 M 12.721470835193811,16.074841201449466 L 17.051597854116004,18.574841201449466 L 16.551597854116004,19.440866605233907 L 12.221470835193811,16.9408666052339 L 12.721470835193811,16.074841201449466 M 16.932464014403475,12.223297341642366 L 19.43246401440348,16.55342436056456 L 18.566438610619038,17.05342436056456 L 16.066438610619038,12.723297341642365 L 16.932464014403475,12.223297341642366 M 27.998937123774976,21.499279916265877 L 32.99893712377497,21.499279916265877 L 32.99893712377498,22.499279916265877 L 27.998937123774976,22.499279916265877 L 27.998937123774976,21.499279916265877 M 25.432121221912595,26.945135471967166 L 27.932121221912602,31.275262490889357 L 27.066095818128165,31.775262490889357 L 24.56609581812816,27.445135471967166 L 25.432121221912595,26.945135471967166 " />
  <path
     id="face0-interior"
     style="fill:none;stroke:#ff0000;stroke-width:0.01;stroke-miterlimit:4;stroke-dasharray:none;stroke-linejoin:round;stroke-linecap:round"
     d="M 22.13073900153257,10.0 M 21.502565052780493,10.009564559161126 M 20.875752564943,10.051992094721177 M 20.252019587480056,10.127166315754295 M 19.633075729127732,10.23488117494591 M 19.02061747197952,10.374841433354158 M 18.416323521546822,10.546663469639249 M 17.82185020554379,10.749876331542934 M 17.238826934008266,10.983923026735894 M 16.66885173320209,11.24816204949498 M 16.113486865532167,11.541869139025856 M 15.57425454749784,11.864239264611427 M 15.052632777401282,12.214388832145147 M 14.55005128425682,12.591358106001 M 14.067887609003161,12.994113839602164 M 13.607463328759398,13.421552107478039 M 13.170040434473963,13.872501331047259 M 12.756817871895208,14.345725489833109 M 12.368928255344416,14.839927509309753 M 12.007434763298672,15.353752816093397 M 11.673328224292568,15.885793050733685 M 11.367524401126067,16.434589927929125 M 11.090861480822298,16.99863923358575 M 10.844097777215204,17.576394947763323 M 10.62790965246405,18.166273482208588 M 10.442889663191721,18.766658020860604 M 10.289544936328229,19.375902951431137 M 10.168295779111043,19.992338375913565 M 10.079474527052183,20.61427468765732 M 10.02332463302964,21.24000720246216 M 10.0,21.867820830999126 M 10.009564559161122,22.4959947797512 M 10.05199209472118,23.1228072675887 M 10.127166315754293,23.74654024505164 M 10.234881174945903,24.365484103403954 M 10.374841433354149,24.97794236055217 M 10.546663469639247,25.582236310984868 M 10.749876331542929,26.176709626987897 M 10.983923026735898,26.759732898523428 M 11.248162049494976,27.329708099329594 M 11.541869139025852,27.885072966999527 M 11.86423926461143,28.424305285033846 M 12.214388832145147,28.945927055130404 M 12.591358106001,29.44850854827487 M 12.994113839602166,29.93067222352853 M 13.421552107478036,30.39109650377229 M 13.872501331047257,30.82851939805773 M 14.3457254898331,31.241741960636478 M 14.839927509309758,31.629631577187272 M 15.353752816093394,31.99112506923301 M 15.885793050733675,32.32523160823911 M 16.43458992792912,32.63103543140562 M 16.99863923358574,32.90769835170939 M 17.576394947763312,33.154462055316486 M 18.16627348220858,33.37065018006764 M 18.766658020860604,33.55567016933997 M 19.375902951431122,33.709014896203456 M 19.99233837591357,33.83026405342064 M 20.614274687657325,33.91908530547951 M 21.240007202462156,33.97523519950205 M 21.867820830999122,33.99855983253169 M 22.4959947797512,33.98899527337056 M 23.122807267588694,33.94656773781051 M 23.74654024505164,33.871393516777395 M 24.365484103403958,33.76367865758578 M 24.977942360552163,33.623718399177534 M 25.582236310984875,33.45189636289244 M 26.1767096269879,33.248683500988754 M 26.75973289852342,33.01463680579579 M 27.3297080993296,32.7503977830367 M 27.885072966999527,32.456690693505834 M 28.424305285033846,32.13432056792026 M 28.945927055130408,31.784171000386547 M 29.44850854827487,31.40720172653069 M 29.930672223528525,31.004445992929526 M 30.391096503772292,30.57700772505365 M 30.82851939805773,30.126058501484433 M 31.241741960636478,29.652834342698586 M 31.629631577187276,29.158632323221934 M 31.991125069233018,28.644807016438293 M 32.32523160823912,28.112766781798012 M 32.63103543140562,27.56396990460257 M 32.9076983517094,26.999920598945945 M 33.154462055316486,26.422164884768375 M 33.37065018006764,25.83228635032311 M 33.555670169339976,25.231901811671094 M 33.70901489620347,24.62265688110056 M 33.83026405342064,24.00622145661812 M 33.91908530547951,23.384285144874372 M 33.97523519950205,22.758552630069538 M 33.9985598325317,22.13073900153257 M 33.98899527337057,21.50256505278049 M 33.94656773781051,20.875752564942996 M 33.8713935167774,20.252019587480056 M 33.763678657585785,19.633075729127732 M 33.62371839917754,19.02061747197953 M 33.45189636289245,18.416323521546822 M 33.24868350098876,17.82185020554379 M 33.0146368057958,17.23882693400827 M 32.75039778303671,16.668851733202096 M 32.45669069350584,16.11348686553217 M 32.13432056792027,15.57425454749785 M 31.78417100038655,15.052632777401286 M 31.407201726530698,14.550051284256822 M 31.004445992929533,14.067887609003165 M 30.577007725053654,13.607463328759398 M 30.126058501484437,13.170040434473961 M 29.65283434269859,12.75681787189521 M 29.158632323221937,12.368928255344418 M 28.6448070164383,12.007434763298678 M 28.112766781798015,11.673328224292572 M 27.563969904602573,11.36752440112607 M 26.999920598945952,11.090861480822293 M 26.422164884768378,10.844097777215206 M 25.83228635032311,10.627909652464052 M 25.231901811671094,10.442889663191721 M 24.622656881100568,10.28954493632823 M 24.006221456618125,10.16829577911105 M 23.384285144874376,10.079474527052183 M 22.75855263006954,10.023324633029638 M 19.9580722796589,20.099279916265843 M 24.040487552872793,20.099279916265843 M 24.209486151265637,20.319523177666 M 24.424151046862274,20.599279916265843 M 24.49927991626585,20.78065705170571 M 24.703872229875238,21.27458658997879 M 24.799279916265846,21.99927991626584 M 24.703872229875238,22.723973242552905 M 24.49927991626585,23.217902780825984 M 24.424151046862274,23.399279916265847 M 24.209486151265644,23.679036654865687 M 24.040487552872793,23.899279916265847 M 19.9580722796589,23.899279916265847 M 19.789073681266053,23.679036654865687 M 19.57440878566942,23.399279916265847 M 19.49927991626584,23.21790278082598 M 19.294687602656456,22.723973242552905 M 19.199279916265848,21.999279916265845 M 19.294687602656456,21.27458658997879 M 19.499279916265845,20.78065705170571 M 19.574408785669416,20.59927991626585 M 19.789073681266053,20.319523177666007 M 24.57449840895863,16.555250867013054 M 27.07449840895863,12.225123848090862 M 27.94052381274307,12.725123848090862 M 25.440523812743066,17.055250867013054 M 16.074841201449473,31.27708899733789 M 18.574841201449473,26.946961978415697 M 19.440866605233907,27.446961978415697 M 16.94086660523391,31.777088997337888 M 10.999622708756712,21.49927991626588 M 15.99962270875671,21.499279916265884 M 15.999622708756714,22.499279916265884 M 10.999622708756714,22.499279916265884 M 26.951499075859658,18.572221707018876 M 31.281626094781856,16.072221707018876 M 31.781626094781853,16.93824711080331 M 27.451499075859658,19.43824711080331 M 21.50747002660686,32.99631762934439 M 21.507470026606867,27.996317629344386 M 22.50747002660686,27.996317629344386 M 22.50747002660686,32.99631762934439 M 12.229660945534816,27.071878914528 M 16.559787964457,24.571878914528 M 17.059787964457,25.437904318312437 M 12.729660945534807,27.937904318312434 M 21.50747002660687,15.997003214326089 M 21.507470026606875,10.997003214326087 M 22.50747002660687,10.997003214326087 M 22.507470026606867,15.997003214326089 M 27.443308965518636,24.574498408958625 M 31.773435984440823,27.074498408958622 M 31.273435984440827,27.94052381274306 M 26.943308965518636,25.440523812743063 M 12.721470835193811,16.074841201449466 M 17.051597854116004,18.574841201449466 M 16.551597854116004,19.440866605233907 M 12.221470835193811,16.9408666052339 M 16.932464014403475,12.223297341642366 M 19.43246401440348,16.55342436056456 M 18.566438610619038,17.05342436056456 M 16.066438610619038,12.723297341642365 M 27.998937123774976,21.499279916265877 M 32.99893712377497,21.499279916265877 M 32.99893712377498,22.499279916265877 M 27.998937123774976,22.499279916265877 M 25.432121221912595,26.945135471967166 M 27.932121221912602,31.275262490889357 M 27.066095818128165,31.775262490889357 M 24.56609581812816,27.445135471967166 " />
  <path
     id="path8"
     style="fill:none;stroke:#ff0000;stroke-width:0.01;stroke-miterlimit:4;stroke-dasharray:none;stroke-linejoin:round;stroke-linecap:round"
     d="M 22.13073900153257,10.0 M 21.502565052780493,10.009564559161126 M 20.875752564943,10.051992094721177 M 20.252019587480056,10.127166315754295 M 19.633075729127732,10.23488117494591 M 19.02061747197952,10.374841433354158 M 18.416323521546822,10.546663469639249 M 17.82185020554379,10.749876331542934 M 17.238826934008266,10.983923026735894 M 16.66885173320209,11.24816204949498 M 16.113486865532167,11.541869139025856 M 15.57425454749784,11.864239264611427 M 15.052632777401282,12.214388832145147 M 14.55005128425682,12.591358106001 M 14.067887609003161,12.994113839602164 M 13.607463328759398,13.421552107478039 M 13.170040434473963,13.872501331047259 M 12.756817871895208,14.345725489833109 M 12.368928255344416,14.839927509309753 M 12.007434763298672,15.353752816093397 M 11.673328224292568,15.885793050733685 M 11.367524401126067,16.434589927929125 M 11.090861480822298,16.99863923358575 M 10.844097777215204,17.576394947763323 M 10.62790965246405,18.166273482208588 M 10.442889663191721,18.766658020860604 M 10.289544936328229,19.375902951431137 M 10.168295779111043,19.992338375913565 M 10.079474527052183,20.61427468765732 M 10.02332463302964,21.24000720246216 M 10.0,21.867820830999126 M 10.009564559161122,22.4959947797512 M 10.05199209472118,23.1228072675887 M 10.127166315754293,23.74654024505164 M 10.234881174945903,24.365484103403954 M 10.374841433354149,24.97794236055217 M 10.546663469639247,25.582236310984868 M 10.749876331542929,26.176709626987897 M 10.983923026735898,26.759732898523428 M 11.248162049494976,27.329708099329594 M 11.541869139025852,27.885072966999527 M 11.86423926461143,28.424305285033846 M 12.214388832145147,28.945927055130404 M 12.591358106001,29.44850854827487 M 12.994113839602166,29.93067222352853 M 13.421552107478036,30.39109650377229 M 13.872501331047257,30.82851939805773 M 14.3457254898331,31.241741960636478 M 14.839927509309758,31.629631577187272 M 15.353752816093394,31.99112506923301 M 15.885793050733675,32.32523160823911 M 16.43458992792912,32.63103543140562 M 16.99863923358574,32.90769835170939 M 17.576394947763312,33.154462055316486 M 18.16627348220858,33.37065018006764 M 18.766658020860604,33.55567016933997 M 19.375902951431122,33.709014896203456 M 19.99233837591357,33.83026405342064 M 20.614274687657325,33.91908530547951 M 21.240007202462156,33.97523519950205 M 21.867820830999122,33.99855983253169 M 22.4959947797512,33.98899527337056 M 23.122807267588694,33.94656773781051 M 23.74654024505164,33.871393516777395 M 24.365484103403958,33.76367865758578 M 24.977942360552163,33.623718399177534 M 25.582236310984875,33.45189636289244 M 26.1767096269879,33.248683500988754 M 26.75973289852342,33.01463680579579 M 27.3297080993296,32.7503977830367 M 27.885072966999527,32.456690693505834 M 28.424305285033846,32.13432056792026 M 28.945927055130408,31.784171000386547 M 29.44850854827487,31.40720172653069 M 29.930672223528525,31.004445992929526 M 30.391096503772292,30.57700772505365 M 30.82851939805773,30.126058501484433 M 31.241741960636478,29.652834342698586 M 31.629631577187276,29.158632323221934 M 31.991125069233018,28.644807016438293 M 32.32523160823912,28.112766781798012 M 32.63103543140562,27.56396990460257 M 32.9076983517094,26.999920598945945 M 33.154462055316486,26.422164884768375 M 33.37065018006764,25.83228635032311 M 33.555670169339976,25.231901811671094 M 33.70901489620347,24.62265688110056 M 33.83026405342064,24.00622145661812 M 33.91908530547951,23.384285144874372 M 33.97523519950205,22.758552630069538 M 33.9985598325317,22.13073900153257 M 33.98899527337057,21.50256505278049 M 33.94656773781051,20.875752564942996 M 33.8713935167774,20.252019587480056 M 33.763678657585785,19.633075729127732 M 33.62371839917754,19.02061747197953 M 33.45189636289245,18.416323521546822 M 33.24868350098876,17.82185020554379 M 33.0146368057958,17.23882693400827 M 32.75039778303671,16.668851733202096 M 32.45669069350584,16.11348686553217 M 32.13432056792027,15.57425454749785 M 31.78417100038655,15.052632777401286 M 31.407201726530698,14.550051284256822 M 31.004445992929533,14.067887609003165 M 30.577007725053654,13.607463328759398 M 30.126058501484437,13.170040434473961 M 29.65283434269859,12.75681787189521 M 29.158632323221937,12.368928255344418 M 28.6448070164383,12.007434763298678 M 28.112766781798015,11.673328224292572 M 27.563969904602573,11.36752440112607 M 26.999920598945952,11.090861480822293 M 26.422164884768378,10.844097777215206 M 25.83228635032311,10.627909652464052 M 25.231901811671094,10.442889663191721 M 24.622656881100568,10.28954493632823 M 24.006221456618125,10.16829577911105 M 23.384285144874376,10.079474527052183 M 22.75855263006954,10.023324633029638 M 19.9580722796589,20.099279916265843 M 24.040487552872793,20.099279916265843 M 24.209486151265637,20.319523177666 M 24.424151046862274,20.599279916265843 M 24.49927991626585,20.78065705170571 M 24.703872229875238,21.27458658997879 M 24.799279916265846,21.99927991626584 M 24.703872229875238,22.723973242552905 M 24.49927991626585,23.217902780825984 M 24.424151046862274,23.399279916265847 M 24.209486151265644,23.679036654865687 M 24.040487552872793,23.899279916265847 M 19.9580722796589,23.899279916265847 M 19.789073681266053,23.679036654865687 M 19.57440878566942,23.399279916265847 M 19.49927991626584,23.21790278082598 M 19.294687602656456,22.723973242552905 M 19.199279916265848,21.999279916265845 M 19.294687602656456,21.27458658997879 M 19.499279916265845,20.78065705170571 M 19.574408785669416,20.59927991626585 M 19.789073681266053,20.319523177666007 M 24.57449840895863,16.555250867013054 M 27.07449840895863,12.225123848090862 M 27.94052381274307,12.725123848090862 M 25.440523812743066,17.055250867013054 M 16.074841201449473,31.27708899733789 M 18.574841201449473,26.946961978415697 M 19.440866605233907,27.446961978415697 M 16.94086660523391,31.777088997337888 M 10.999622708756712,21.49927991626588 M 15.99962270875671,21.499279916265884 M 15.999622708756714,22.499279916265884 M 10.999622708756714,22.499279916265884 M 26.951499075859658,18.572221707018876 M 31.281626094781856,16.072221707018876 M 31.781626094781853,16.93824711080331 M 27.451499075859658,19.43824711080331 M 21.50747002660686,32.99631762934439 M 21.507470026606867,27.996317629344386 M 22.50747002660686,27.996317629344386 M 22.50747002660686,32.99631762934439 M 12.229660945534816,27.071878914528 M 16.559787964457,24.571878914528 M 17.059787964457,25.437904318312437 M 12.729660945534807,27.937904318312434 M 21.50747002660687,15.997003214326089 M 21.507470026606875,10.997003214326087 M 22.50747002660687,10.997003214326087 M 22.507470026606867,15.997003214326089 M 27.443308965518636,24.574498408958625 M 31.773435984440823,27.074498408958622 M 31.273435984440827,27.94052381274306 M 26.943308965518636,25.440523812743063 M 12.721470835193811,16.074841201449466 M 17.051597854116004,18.574841201449466 M 16.551597854116004,19.440866605233907 M 12.221470835193811,16.9408666052339 M 16.932464014403475,12.223297341642366 M 19.43246401440348,16.55342436056456 M 18.566438610619038,17.05342436056456 M 16.066438610619038,12.723297341642365 M 27.998937123774976,21.499279916265877 M 32.99893712377497,21.499279916265877 M 32.99893712377498,22.499279916265877 M 27.998937123774976,22.499279916265877 M 25.432121221912595,26.945135471967166 M 27.932121221912602,31.275262490889357 M 27.066095818128165,31.775262490889357 M 24.56609581812816,27.445135471967166 " />
</svg>
