<?xml version="1.0" encoding="UTF-8" standalone="no"?>
<svg
   xmlns:dc="http://purl.org/dc/elements/1.1/"
   xmlns:cc="http://creativecommons.org/ns#"
   xmlns:rdf="http://www.w3.org/1999/02/22-rdf-syntax-ns#"
   xmlns:svg="http://www.w3.org/2000/svg"
   xmlns="http://www.w3.org/2000/svg"
   xmlns:sodipodi="http://sodipodi.sourceforge.net/DTD/sodipodi-0.dtd"
   xmlns:inkscape="http://www.inkscape.org/namespaces/inkscape"
   width="43.9985598325317mm"
   height="43.99855983253169mm"
   viewBox="0 0 43.9985598325317 43.99855983253169"
   version="1.1"
   id="svg2"
   inkscape:version="0.48.5 r10040"
   sodipodi:docname="WheelV5.svg">
  <metadata
     id="metadata14">
    <rdf:RDF>
      <cc:Work
         rdf:about="">
        <dc:format>image/svg+xml</dc:format>
        <dc:type
           rdf:resource="http://purl.org/dc/dcmitype/StillImage" />
      </cc:Work>
    </rdf:RDF>
  </metadata>
  <defs
     id="defs12" />
  <sodipodi:namedview
     pagecolor="#ffffff"
     bordercolor="#666666"
     borderopacity="1"
     objecttolerance="10"
     gridtolerance="10"
     guidetolerance="10"
     inkscape:pageopacity="0"
     inkscape:pageshadow="2"
     inkscape:window-width="1355"
     inkscape:window-height="940"
     id="namedview10"
     showgrid="false"
     inkscape:zoom="6.0551478"
     inkscape:cx="58.084144"
     inkscape:cy="82.323195"
     inkscape:window-x="0"
     inkscape:window-y="0"
     inkscape:window-maximized="0"
     inkscape:current-layer="svg2" />
  <desc
     id="desc4">Output from Flights of Ideas SVG Sketchup Plugin</desc>
  <path
     id="face0-cut"
     style="fill:none;stroke:#ff0000;stroke-width:0.01;stroke-miterlimit:4;stroke-dasharray:none;stroke-linejoin:round;stroke-linecap:round"
     d="M 22.130739001532575,10.0 L 21.502565052780497,10.009564559161126 L 20.875752564943006,10.051992094721177 L 20.252019587480063,10.127166315754295 L 19.63307572912774,10.23488117494591 L 19.020617471979527,10.374841433354158 L 18.416323521546826,10.546663469639249 L 17.821850205543793,10.749876331542934 L 17.238826934008273,10.983923026735894 L 16.668851733202096,11.24816204949498 L 16.11348686553217,11.541869139025856 L 15.574254547497848,11.864239264611427 L 15.052632777401287,12.214388832145147 L 14.550051284256824,12.591358106001 L 14.067887609003167,12.994113839602164 L 13.607463328759405,13.421552107478039 L 13.170040434473968,13.872501331047259 L 12.756817871895214,14.345725489833109 L 12.368928255344422,14.839927509309753 L 12.007434763298678,15.353752816093397 L 11.673328224292575,15.885793050733685 L 11.367524401126076,16.434589927929125 L 11.090861480822303,16.99863923358575 L 10.84409777721521,17.576394947763323 L 10.627909652464055,18.166273482208588 L 10.442889663191727,18.766658020860604 L 10.289544936328229,19.37590295143113 L 10.168295779111054,19.992338375913572 L 10.079474527052188,20.61427468765732 L 10.023324633029643,21.24000720246216 L 10.0,21.867820830999122 L 10.009564559161127,22.4959947797512 L 10.051992094721186,23.1228072675887 L 10.127166315754298,23.74654024505164 L 10.23488117494591,24.365484103403954 L 10.37484143335416,24.97794236055217 L 10.546663469639256,25.582236310984868 L 10.749876331542938,26.176709626987897 L 10.983923026735903,26.759732898523428 L 11.24816204949499,27.329708099329597 L 11.54186913902586,27.885072966999527 L 11.864239264611435,28.42430528503385 L 12.214388832145152,28.945927055130404 L 12.591358106001005,29.44850854827487 L 12.994113839602171,29.93067222352853 L 13.421552107478046,30.39109650377229 L 13.872501331047264,30.82851939805773 L 14.34572548983311,31.24174196063648 L 14.839927509309764,31.629631577187272 L 15.353752816093397,31.99112506923301 L 15.885793050733685,32.325231608239115 L 16.43458992792913,32.63103543140562 L 16.998639233585752,32.90769835170939 L 17.576394947763323,33.154462055316486 L 18.166273482208595,33.37065018006764 L 18.76665802086061,33.55567016933997 L 19.375902951431137,33.709014896203456 L 19.992338375913576,33.83026405342064 L 20.61427468765733,33.91908530547951 L 21.24000720246216,33.97523519950205 L 21.86782083099913,33.99855983253169 L 22.49599477975121,33.98899527337056 L 23.122807267588698,33.94656773781051 L 23.746540245051644,33.871393516777395 L 24.365484103403965,33.76367865758578 L 24.97794236055217,33.623718399177534 L 25.58223631098488,33.45189636289244 L 26.176709626987908,33.24868350098875 L 26.759732898523424,33.01463680579579 L 27.329708099329604,32.7503977830367 L 27.88507296699953,32.456690693505834 L 28.42430528503385,32.13432056792026 L 28.94592705513041,31.784171000386547 L 29.448508548274873,31.40720172653069 L 29.93067222352853,31.004445992929526 L 30.391096503772296,30.57700772505365 L 30.828519398057733,30.126058501484433 L 31.24174196063648,29.652834342698586 L 31.62963157718728,29.158632323221934 L 31.99112506923302,28.644807016438293 L 32.32523160823912,28.112766781798012 L 32.63103543140563,27.563969904602565 L 32.9076983517094,26.999920598945945 L 33.154462055316486,26.42216488476837 L 33.37065018006764,25.83228635032311 L 33.555670169339976,25.231901811671094 L 33.70901489620347,24.62265688110056 L 33.83026405342065,24.006221456618125 L 33.91908530547951,23.384285144874372 L 33.97523519950205,22.758552630069538 L 33.9985598325317,22.13073900153257 L 33.98899527337058,21.50256505278049 L 33.94656773781052,20.875752564942996 L 33.8713935167774,20.252019587480056 L 33.763678657585785,19.633075729127732 L 33.62371839917755,19.02061747197953 L 33.451896362892455,18.416323521546822 L 33.24868350098876,17.82185020554379 L 33.0146368057958,17.23882693400827 L 32.75039778303672,16.668851733202096 L 32.45669069350585,16.11348686553217 L 32.13432056792027,15.574254547497851 L 31.784171000386554,15.052632777401286 L 31.4072017265307,14.550051284256822 L 31.004445992929536,14.067887609003165 L 30.577007725053658,13.607463328759398 L 30.12605850148444,13.170040434473961 L 29.652834342698593,12.75681787189521 L 29.15863232322194,12.368928255344418 L 28.644807016438303,12.007434763298678 L 28.11276678179802,11.673328224292572 L 27.563969904602576,11.36752440112607 L 26.999920598945955,11.090861480822293 L 26.42216488476838,10.844097777215206 L 25.832286350323116,10.627909652464052 L 25.2319018116711,10.442889663191721 L 24.62265688110057,10.28954493632823 L 24.00622145661813,10.16829577911105 L 23.384285144874383,10.079474527052183 L 22.758552630069545,10.023324633029638 L 22.130739001532575,10.0 M 19.958072279658904,20.099279916265843 L 24.040487552872797,20.099279916265843 L 24.209486151265644,20.319523177666 L 24.424151046862278,20.599279916265843 L 24.499279916265856,20.78065705170571 L 24.703872229875245,21.27458658997878 L 24.799279916265853,21.99927991626584 L 24.703872229875245,22.723973242552905 L 24.499279916265852,23.217902780825984 L 24.424151046862285,23.399279916265847 L 24.209486151265647,23.679036654865687 L 24.040487552872797,23.899279916265847 L 19.958072279658904,23.899279916265847 L 19.789073681266057,23.679036654865687 L 19.574408785669426,23.399279916265847 L 19.49927991626585,23.21790278082598 L 19.29468760265646,22.723973242552905 L 19.19927991626585,21.999279916265845 L 19.29468760265646,21.27458658997879 L 19.49927991626585,20.78065705170571 L 19.57440878566942,20.59927991626585 L 19.789073681266057,20.319523177666007 L 19.958072279658904,20.099279916265843 M 15.635561276481734,14.928454495295242 L 17.36797289038878,16.66086610920229 L 16.66086610920224,17.367972890388835 L 14.928454495295188,15.63556127648179 L 15.635561276481734,14.928454495295242 M 12.499622708756728,21.499279916265884 L 14.949622708756728,21.499279916265884 L 14.949622708756731,22.499279916265884 L 12.499622708756727,22.49927991626588 L 12.499622708756728,21.499279916265884 M 22.499279916265806,12.49962270875672 L 22.499279916265802,14.949622708756726 L 21.499279916265806,14.949622708756724 L 21.499279916265806,12.49962270875672 L 22.499279916265806,12.49962270875672 M 20.023550622161558,12.693906156088431 L 20.657657282662733,15.060424430496653 L 19.691731456373667,15.319243475599173 L 19.057624795872492,12.952725201190951 L 20.023550622161558,12.693906156088431 M 12.95272520119094,19.057624795872556 L 15.319243475599162,19.691731456373738 L 15.060424430496642,20.657657282662804 L 12.69390615608842,20.023550622161622 L 12.95272520119094,19.057624795872556 M 24.940935036659134,12.95272520119094 L 24.306828376157956,15.319243475599162 L 23.34090254986889,15.060424430496642 L 23.975009210370068,12.69390615608842 L 24.940935036659134,12.95272520119094 M 17.682464014403475,13.52233544731902 L 18.90746401440348,15.644097686590898 L 18.04143861061904,16.144097686590897 L 16.816438610619038,14.02233544731902 L 17.682464014403475,13.52233544731902 M 14.022335447318987,16.8164386106191 L 16.144097686590868,18.041438610619103 L 15.644097686590868,18.907464014403544 L 13.522335447318989,17.68246401440354 L 14.022335447318987,16.8164386106191 M 23.975009210370143,31.304653676443255 L 23.340902549868968,28.938135402035034 L 24.306828376158034,28.67931635693251 L 24.940935036659212,31.045834631340735 L 23.975009210370143,31.304653676443255 M 21.49927991626589,31.49893712377497 L 21.499279916265895,29.048937123774962 L 22.49927991626589,29.04893712377497 L 22.49927991626589,31.498937123774965 L 21.49927991626589,31.49893712377497 M 16.816438610619098,29.976224385212706 L 18.041438610619103,27.854462145940822 L 18.907464014403544,28.354462145940825 L 17.682464014403532,30.4762243852127 L 16.816438610619098,29.976224385212706 M 31.498937123774986,22.499279916265806 L 29.048937123774984,22.499279916265806 L 29.048937123774984,21.499279916265813 L 31.49893712377499,21.49927991626581 L 31.498937123774986,22.499279916265806 M 28.362998556049966,29.070105337236452 L 26.630586942142923,27.3376937233294 L 27.33769372332947,26.630586942142855 L 29.070105337236516,28.362998556049902 L 28.362998556049966,29.070105337236452 M 31.04583463134077,24.940935036659134 L 28.679316356932553,24.30682837615796 L 28.938135402035073,23.34090254986889 L 31.304653676443298,23.975009210370064 L 31.04583463134077,24.940935036659134 M 31.304653676443245,20.02355062216155 L 28.938135402035023,20.657657282662726 L 28.679316356932503,19.69173145637366 L 31.045834631340725,19.057624795872485 L 31.304653676443245,20.02355062216155 M 30.47622438521267,17.682464014403465 L 28.354462145940794,18.907464014403466 L 27.854462145940797,18.041438610619025 L 29.976224385212674,16.81643861061903 L 30.47622438521267,17.682464014403465 M 14.928454495295233,28.36299855604996 L 16.660866109202274,26.630586942142912 L 17.36797289038882,27.337693723329462 L 15.635561276481779,29.07010533723651 L 14.928454495295233,28.36299855604996 M 29.07010533723646,15.635561276481727 L 27.337693723329412,17.367972890388767 L 26.63058694214287,16.66086610920222 L 28.36299855604991,14.92845449529518 L 29.07010533723646,15.635561276481727 M 29.976224385212713,27.18212122191258 L 27.85446214594084,25.95712122191258 L 28.35446214594084,25.091095818128146 L 30.476224385212713,26.316095818128144 L 29.976224385212713,27.18212122191258 M 12.693906156088467,23.97500921037014 L 15.060424430496685,23.34090254986896 L 15.319243475599206,24.30682837615803 L 12.952725201190983,24.940935036659205 L 12.693906156088467,23.97500921037014 M 19.057624795872567,31.04583463134075 L 19.691731456373745,28.679316356932528 L 20.65765728266281,28.938135402035048 L 20.02355062216163,31.30465367644327 L 19.057624795872567,31.04583463134075 M 13.522335447319028,26.31609581812823 L 15.644097686590905,25.09109581812823 L 16.144097686590904,25.957121221912665 L 14.022335447319026,27.182121221912666 L 13.522335447319028,26.31609581812823 M 27.182121221912595,14.022335447318987 L 25.957121221912594,16.144097686590865 L 25.091095818128156,15.644097686590865 L 26.316095818128158,13.522335447318987 L 27.182121221912595,14.022335447318987 M 26.316095818128225,30.47622438521266 L 25.091095818128224,28.354462145940783 L 25.957121221912665,27.854462145940783 L 27.18212122191266,29.976224385212664 L 26.316095818128225,30.47622438521266 " />
  <path
     id="face0-interior"
     style="fill:none;stroke:#ff0000;stroke-width:0.01;stroke-miterlimit:4;stroke-dasharray:none;stroke-linejoin:round;stroke-linecap:round"
     d="M 22.130739001532575,10.0 M 21.502565052780497,10.009564559161126 M 20.875752564943006,10.051992094721177 M 20.252019587480063,10.127166315754295 M 19.63307572912774,10.23488117494591 M 19.020617471979527,10.374841433354158 M 18.416323521546826,10.546663469639249 M 17.821850205543793,10.749876331542934 M 17.238826934008273,10.983923026735894 M 16.668851733202096,11.24816204949498 M 16.11348686553217,11.541869139025856 M 15.574254547497848,11.864239264611427 M 15.052632777401287,12.214388832145147 M 14.550051284256824,12.591358106001 M 14.067887609003167,12.994113839602164 M 13.607463328759405,13.421552107478039 M 13.170040434473968,13.872501331047259 M 12.756817871895214,14.345725489833109 M 12.368928255344422,14.839927509309753 M 12.007434763298678,15.353752816093397 M 11.673328224292575,15.885793050733685 M 11.367524401126076,16.434589927929125 M 11.090861480822303,16.99863923358575 M 10.84409777721521,17.576394947763323 M 10.627909652464055,18.166273482208588 M 10.442889663191727,18.766658020860604 M 10.289544936328229,19.37590295143113 M 10.168295779111054,19.992338375913572 M 10.079474527052188,20.61427468765732 M 10.023324633029643,21.24000720246216 M 10.0,21.867820830999122 M 10.009564559161127,22.4959947797512 M 10.051992094721186,23.1228072675887 M 10.127166315754298,23.74654024505164 M 10.23488117494591,24.365484103403954 M 10.37484143335416,24.97794236055217 M 10.546663469639256,25.582236310984868 M 10.749876331542938,26.176709626987897 M 10.983923026735903,26.759732898523428 M 11.24816204949499,27.329708099329597 M 11.54186913902586,27.885072966999527 M 11.864239264611435,28.42430528503385 M 12.214388832145152,28.945927055130404 M 12.591358106001005,29.44850854827487 M 12.994113839602171,29.93067222352853 M 13.421552107478046,30.39109650377229 M 13.872501331047264,30.82851939805773 M 14.34572548983311,31.24174196063648 M 14.839927509309764,31.629631577187272 M 15.353752816093397,31.99112506923301 M 15.885793050733685,32.325231608239115 M 16.43458992792913,32.63103543140562 M 16.998639233585752,32.90769835170939 M 17.576394947763323,33.154462055316486 M 18.166273482208595,33.37065018006764 M 18.76665802086061,33.55567016933997 M 19.375902951431137,33.709014896203456 M 19.992338375913576,33.83026405342064 M 20.61427468765733,33.91908530547951 M 21.24000720246216,33.97523519950205 M 21.86782083099913,33.99855983253169 M 22.49599477975121,33.98899527337056 M 23.122807267588698,33.94656773781051 M 23.746540245051644,33.871393516777395 M 24.365484103403965,33.76367865758578 M 24.97794236055217,33.623718399177534 M 25.58223631098488,33.45189636289244 M 26.176709626987908,33.24868350098875 M 26.759732898523424,33.01463680579579 M 27.329708099329604,32.7503977830367 M 27.88507296699953,32.456690693505834 M 28.42430528503385,32.13432056792026 M 28.94592705513041,31.784171000386547 M 29.448508548274873,31.40720172653069 M 29.93067222352853,31.004445992929526 M 30.391096503772296,30.57700772505365 M 30.828519398057733,30.126058501484433 M 31.24174196063648,29.652834342698586 M 31.62963157718728,29.158632323221934 M 31.99112506923302,28.644807016438293 M 32.32523160823912,28.112766781798012 M 32.63103543140563,27.563969904602565 M 32.9076983517094,26.999920598945945 M 33.154462055316486,26.42216488476837 M 33.37065018006764,25.83228635032311 M 33.555670169339976,25.231901811671094 M 33.70901489620347,24.62265688110056 M 33.83026405342065,24.006221456618125 M 33.91908530547951,23.384285144874372 M 33.97523519950205,22.758552630069538 M 33.9985598325317,22.13073900153257 M 33.98899527337058,21.50256505278049 M 33.94656773781052,20.875752564942996 M 33.8713935167774,20.252019587480056 M 33.763678657585785,19.633075729127732 M 33.62371839917755,19.02061747197953 M 33.451896362892455,18.416323521546822 M 33.24868350098876,17.82185020554379 M 33.0146368057958,17.23882693400827 M 32.75039778303672,16.668851733202096 M 32.45669069350585,16.11348686553217 M 32.13432056792027,15.574254547497851 M 31.784171000386554,15.052632777401286 M 31.4072017265307,14.550051284256822 M 31.004445992929536,14.067887609003165 M 30.577007725053658,13.607463328759398 M 30.12605850148444,13.170040434473961 M 29.652834342698593,12.75681787189521 M 29.15863232322194,12.368928255344418 M 28.644807016438303,12.007434763298678 M 28.11276678179802,11.673328224292572 M 27.563969904602576,11.36752440112607 M 26.999920598945955,11.090861480822293 M 26.42216488476838,10.844097777215206 M 25.832286350323116,10.627909652464052 M 25.2319018116711,10.442889663191721 M 24.62265688110057,10.28954493632823 M 24.00622145661813,10.16829577911105 M 23.384285144874383,10.079474527052183 M 22.758552630069545,10.023324633029638 M 19.958072279658904,20.099279916265843 M 24.040487552872797,20.099279916265843 M 24.209486151265644,20.319523177666 M 24.424151046862278,20.599279916265843 M 24.499279916265856,20.78065705170571 M 24.703872229875245,21.27458658997878 M 24.799279916265853,21.99927991626584 M 24.703872229875245,22.723973242552905 M 24.499279916265852,23.217902780825984 M 24.424151046862285,23.399279916265847 M 24.209486151265647,23.679036654865687 M 24.040487552872797,23.899279916265847 M 19.958072279658904,23.899279916265847 M 19.789073681266057,23.679036654865687 M 19.574408785669426,23.399279916265847 M 19.49927991626585,23.21790278082598 M 19.29468760265646,22.723973242552905 M 19.19927991626585,21.999279916265845 M 19.29468760265646,21.27458658997879 M 19.49927991626585,20.78065705170571 M 19.57440878566942,20.59927991626585 M 19.789073681266057,20.319523177666007 M 15.635561276481734,14.928454495295242 M 17.36797289038878,16.66086610920229 M 16.66086610920224,17.367972890388835 M 14.928454495295188,15.63556127648179 M 12.499622708756728,21.499279916265884 M 14.949622708756728,21.499279916265884 M 14.949622708756731,22.499279916265884 M 12.499622708756727,22.49927991626588 M 22.499279916265806,12.49962270875672 M 22.499279916265802,14.949622708756726 M 21.499279916265806,14.949622708756724 M 21.499279916265806,12.49962270875672 M 20.023550622161558,12.693906156088431 M 20.657657282662733,15.060424430496653 M 19.691731456373667,15.319243475599173 M 19.057624795872492,12.952725201190951 M 12.95272520119094,19.057624795872556 M 15.319243475599162,19.691731456373738 M 15.060424430496642,20.657657282662804 M 12.69390615608842,20.023550622161622 M 24.940935036659134,12.95272520119094 M 24.306828376157956,15.319243475599162 M 23.34090254986889,15.060424430496642 M 23.975009210370068,12.69390615608842 M 17.682464014403475,13.52233544731902 M 18.90746401440348,15.644097686590898 M 18.04143861061904,16.144097686590897 M 16.816438610619038,14.02233544731902 M 14.022335447318987,16.8164386106191 M 16.144097686590868,18.041438610619103 M 15.644097686590868,18.907464014403544 M 13.522335447318989,17.68246401440354 M 23.975009210370143,31.304653676443255 M 23.340902549868968,28.938135402035034 M 24.306828376158034,28.67931635693251 M 24.940935036659212,31.045834631340735 M 21.49927991626589,31.49893712377497 M 21.499279916265895,29.048937123774962 M 22.49927991626589,29.04893712377497 M 22.49927991626589,31.498937123774965 M 16.816438610619098,29.976224385212706 M 18.041438610619103,27.854462145940822 M 18.907464014403544,28.354462145940825 M 17.682464014403532,30.4762243852127 M 31.498937123774986,22.499279916265806 M 29.048937123774984,22.499279916265806 M 29.048937123774984,21.499279916265813 M 31.49893712377499,21.49927991626581 M 28.362998556049966,29.070105337236452 M 26.630586942142923,27.3376937233294 M 27.33769372332947,26.630586942142855 M 29.070105337236516,28.362998556049902 M 31.04583463134077,24.940935036659134 M 28.679316356932553,24.30682837615796 M 28.938135402035073,23.34090254986889 M 31.304653676443298,23.975009210370064 M 31.304653676443245,20.02355062216155 M 28.938135402035023,20.657657282662726 M 28.679316356932503,19.69173145637366 M 31.045834631340725,19.057624795872485 M 30.47622438521267,17.682464014403465 M 28.354462145940794,18.907464014403466 M 27.854462145940797,18.041438610619025 M 29.976224385212674,16.81643861061903 M 14.928454495295233,28.36299855604996 M 16.660866109202274,26.630586942142912 M 17.36797289038882,27.337693723329462 M 15.635561276481779,29.07010533723651 M 29.07010533723646,15.635561276481727 M 27.337693723329412,17.367972890388767 M 26.63058694214287,16.66086610920222 M 28.36299855604991,14.92845449529518 M 29.976224385212713,27.18212122191258 M 27.85446214594084,25.95712122191258 M 28.35446214594084,25.091095818128146 M 30.476224385212713,26.316095818128144 M 12.693906156088467,23.97500921037014 M 15.060424430496685,23.34090254986896 M 15.319243475599206,24.30682837615803 M 12.952725201190983,24.940935036659205 M 19.057624795872567,31.04583463134075 M 19.691731456373745,28.679316356932528 M 20.65765728266281,28.938135402035048 M 20.02355062216163,31.30465367644327 M 13.522335447319028,26.31609581812823 M 15.644097686590905,25.09109581812823 M 16.144097686590904,25.957121221912665 M 14.022335447319026,27.182121221912666 M 27.182121221912595,14.022335447318987 M 25.957121221912594,16.144097686590865 M 25.091095818128156,15.644097686590865 M 26.316095818128158,13.522335447318987 M 26.316095818128225,30.47622438521266 M 25.091095818128224,28.354462145940783 M 25.957121221912665,27.854462145940783 M 27.18212122191266,29.976224385212664 " />
  <path
     id="path8"
     style="fill:none;stroke:#ff0000;stroke-width:0.01;stroke-miterlimit:4;stroke-dasharray:none;stroke-linejoin:round;stroke-linecap:round"
     d="M 22.130739001532575,10.0 M 21.502565052780497,10.009564559161126 M 20.875752564943006,10.051992094721177 M 20.252019587480063,10.127166315754295 M 19.63307572912774,10.23488117494591 M 19.020617471979527,10.374841433354158 M 18.416323521546826,10.546663469639249 M 17.821850205543793,10.749876331542934 M 17.238826934008273,10.983923026735894 M 16.668851733202096,11.24816204949498 M 16.11348686553217,11.541869139025856 M 15.574254547497848,11.864239264611427 M 15.052632777401287,12.214388832145147 M 14.550051284256824,12.591358106001 M 14.067887609003167,12.994113839602164 M 13.607463328759405,13.421552107478039 M 13.170040434473968,13.872501331047259 M 12.756817871895214,14.345725489833109 M 12.368928255344422,14.839927509309753 M 12.007434763298678,15.353752816093397 M 11.673328224292575,15.885793050733685 M 11.367524401126076,16.434589927929125 M 11.090861480822303,16.99863923358575 M 10.84409777721521,17.576394947763323 M 10.627909652464055,18.166273482208588 M 10.442889663191727,18.766658020860604 M 10.289544936328229,19.37590295143113 M 10.168295779111054,19.992338375913572 M 10.079474527052188,20.61427468765732 M 10.023324633029643,21.24000720246216 M 10.0,21.867820830999122 M 10.009564559161127,22.4959947797512 M 10.051992094721186,23.1228072675887 M 10.127166315754298,23.74654024505164 M 10.23488117494591,24.365484103403954 M 10.37484143335416,24.97794236055217 M 10.546663469639256,25.582236310984868 M 10.749876331542938,26.176709626987897 M 10.983923026735903,26.759732898523428 M 11.24816204949499,27.329708099329597 M 11.54186913902586,27.885072966999527 M 11.864239264611435,28.42430528503385 M 12.214388832145152,28.945927055130404 M 12.591358106001005,29.44850854827487 M 12.994113839602171,29.93067222352853 M 13.421552107478046,30.39109650377229 M 13.872501331047264,30.82851939805773 M 14.34572548983311,31.24174196063648 M 14.839927509309764,31.629631577187272 M 15.353752816093397,31.99112506923301 M 15.885793050733685,32.325231608239115 M 16.43458992792913,32.63103543140562 M 16.998639233585752,32.90769835170939 M 17.576394947763323,33.154462055316486 M 18.166273482208595,33.37065018006764 M 18.76665802086061,33.55567016933997 M 19.375902951431137,33.709014896203456 M 19.992338375913576,33.83026405342064 M 20.61427468765733,33.91908530547951 M 21.24000720246216,33.97523519950205 M 21.86782083099913,33.99855983253169 M 22.49599477975121,33.98899527337056 M 23.122807267588698,33.94656773781051 M 23.746540245051644,33.871393516777395 M 24.365484103403965,33.76367865758578 M 24.97794236055217,33.623718399177534 M 25.58223631098488,33.45189636289244 M 26.176709626987908,33.24868350098875 M 26.759732898523424,33.01463680579579 M 27.329708099329604,32.7503977830367 M 27.88507296699953,32.456690693505834 M 28.42430528503385,32.13432056792026 M 28.94592705513041,31.784171000386547 M 29.448508548274873,31.40720172653069 M 29.93067222352853,31.004445992929526 M 30.391096503772296,30.57700772505365 M 30.828519398057733,30.126058501484433 M 31.24174196063648,29.652834342698586 M 31.62963157718728,29.158632323221934 M 31.99112506923302,28.644807016438293 M 32.32523160823912,28.112766781798012 M 32.63103543140563,27.563969904602565 M 32.9076983517094,26.999920598945945 M 33.154462055316486,26.42216488476837 M 33.37065018006764,25.83228635032311 M 33.555670169339976,25.231901811671094 M 33.70901489620347,24.62265688110056 M 33.83026405342065,24.006221456618125 M 33.91908530547951,23.384285144874372 M 33.97523519950205,22.758552630069538 M 33.9985598325317,22.13073900153257 M 33.98899527337058,21.50256505278049 M 33.94656773781052,20.875752564942996 M 33.8713935167774,20.252019587480056 M 33.763678657585785,19.633075729127732 M 33.62371839917755,19.02061747197953 M 33.451896362892455,18.416323521546822 M 33.24868350098876,17.82185020554379 M 33.0146368057958,17.23882693400827 M 32.75039778303672,16.668851733202096 M 32.45669069350585,16.11348686553217 M 32.13432056792027,15.574254547497851 M 31.784171000386554,15.052632777401286 M 31.4072017265307,14.550051284256822 M 31.004445992929536,14.067887609003165 M 30.577007725053658,13.607463328759398 M 30.12605850148444,13.170040434473961 M 29.652834342698593,12.75681787189521 M 29.15863232322194,12.368928255344418 M 28.644807016438303,12.007434763298678 M 28.11276678179802,11.673328224292572 M 27.563969904602576,11.36752440112607 M 26.999920598945955,11.090861480822293 M 26.42216488476838,10.844097777215206 M 25.832286350323116,10.627909652464052 M 25.2319018116711,10.442889663191721 M 24.62265688110057,10.28954493632823 M 24.00622145661813,10.16829577911105 M 23.384285144874383,10.079474527052183 M 22.758552630069545,10.023324633029638 M 19.958072279658904,20.099279916265843 M 24.040487552872797,20.099279916265843 M 24.209486151265644,20.319523177666 M 24.424151046862278,20.599279916265843 M 24.499279916265856,20.78065705170571 M 24.703872229875245,21.27458658997878 M 24.799279916265853,21.99927991626584 M 24.703872229875245,22.723973242552905 M 24.499279916265852,23.217902780825984 M 24.424151046862285,23.399279916265847 M 24.209486151265647,23.679036654865687 M 24.040487552872797,23.899279916265847 M 19.958072279658904,23.899279916265847 M 19.789073681266057,23.679036654865687 M 19.574408785669426,23.399279916265847 M 19.49927991626585,23.21790278082598 M 19.29468760265646,22.723973242552905 M 19.19927991626585,21.999279916265845 M 19.29468760265646,21.27458658997879 M 19.49927991626585,20.78065705170571 M 19.57440878566942,20.59927991626585 M 19.789073681266057,20.319523177666007 M 15.635561276481734,14.928454495295242 M 17.36797289038878,16.66086610920229 M 16.66086610920224,17.367972890388835 M 14.928454495295188,15.63556127648179 M 12.499622708756728,21.499279916265884 M 14.949622708756728,21.499279916265884 M 14.949622708756731,22.499279916265884 M 12.499622708756727,22.49927991626588 M 22.499279916265806,12.49962270875672 M 22.499279916265802,14.949622708756726 M 21.499279916265806,14.949622708756724 M 21.499279916265806,12.49962270875672 M 20.023550622161558,12.693906156088431 M 20.657657282662733,15.060424430496653 M 19.691731456373667,15.319243475599173 M 19.057624795872492,12.952725201190951 M 12.95272520119094,19.057624795872556 M 15.319243475599162,19.691731456373738 M 15.060424430496642,20.657657282662804 M 12.69390615608842,20.023550622161622 M 24.940935036659134,12.95272520119094 M 24.306828376157956,15.319243475599162 M 23.34090254986889,15.060424430496642 M 23.975009210370068,12.69390615608842 M 17.682464014403475,13.52233544731902 M 18.90746401440348,15.644097686590898 M 18.04143861061904,16.144097686590897 M 16.816438610619038,14.02233544731902 M 14.022335447318987,16.8164386106191 M 16.144097686590868,18.041438610619103 M 15.644097686590868,18.907464014403544 M 13.522335447318989,17.68246401440354 M 23.975009210370143,31.304653676443255 M 23.340902549868968,28.938135402035034 M 24.306828376158034,28.67931635693251 M 24.940935036659212,31.045834631340735 M 21.49927991626589,31.49893712377497 M 21.499279916265895,29.048937123774962 M 22.49927991626589,29.04893712377497 M 22.49927991626589,31.498937123774965 M 16.816438610619098,29.976224385212706 M 18.041438610619103,27.854462145940822 M 18.907464014403544,28.354462145940825 M 17.682464014403532,30.4762243852127 M 31.498937123774986,22.499279916265806 M 29.048937123774984,22.499279916265806 M 29.048937123774984,21.499279916265813 M 31.49893712377499,21.49927991626581 M 28.362998556049966,29.070105337236452 M 26.630586942142923,27.3376937233294 M 27.33769372332947,26.630586942142855 M 29.070105337236516,28.362998556049902 M 31.04583463134077,24.940935036659134 M 28.679316356932553,24.30682837615796 M 28.938135402035073,23.34090254986889 M 31.304653676443298,23.975009210370064 M 31.304653676443245,20.02355062216155 M 28.938135402035023,20.657657282662726 M 28.679316356932503,19.69173145637366 M 31.045834631340725,19.057624795872485 M 30.47622438521267,17.682464014403465 M 28.354462145940794,18.907464014403466 M 27.854462145940797,18.041438610619025 M 29.976224385212674,16.81643861061903 M 14.928454495295233,28.36299855604996 M 16.660866109202274,26.630586942142912 M 17.36797289038882,27.337693723329462 M 15.635561276481779,29.07010533723651 M 29.07010533723646,15.635561276481727 M 27.337693723329412,17.367972890388767 M 26.63058694214287,16.66086610920222 M 28.36299855604991,14.92845449529518 M 29.976224385212713,27.18212122191258 M 27.85446214594084,25.95712122191258 M 28.35446214594084,25.091095818128146 M 30.476224385212713,26.316095818128144 M 12.693906156088467,23.97500921037014 M 15.060424430496685,23.34090254986896 M 15.319243475599206,24.30682837615803 M 12.952725201190983,24.940935036659205 M 19.057624795872567,31.04583463134075 M 19.691731456373745,28.679316356932528 M 20.65765728266281,28.938135402035048 M 20.02355062216163,31.30465367644327 M 13.522335447319028,26.31609581812823 M 15.644097686590905,25.09109581812823 M 16.144097686590904,25.957121221912665 M 14.022335447319026,27.182121221912666 M 27.182121221912595,14.022335447318987 M 25.957121221912594,16.144097686590865 M 25.091095818128156,15.644097686590865 M 26.316095818128158,13.522335447318987 M 26.316095818128225,30.47622438521266 M 25.091095818128224,28.354462145940783 M 25.957121221912665,27.854462145940783 M 27.18212122191266,29.976224385212664 " />
</svg>
