<?xml version="1.0" standalone="no"?>
<!DOCTYPE svg PUBLIC "-//W3C//DTD SVG 1.1//EN" "http://www.w3.org/Graphics/SVG/1.1/DTD/svg11.dtd">
<svg width="43.9985598325317mm" height="43.99855983253169mm"
 viewBox="0 0 43.9985598325317 43.99855983253169"
 xmlns="http://www.w3.org/2000/svg" version="1.1"
 xmlns:xlink="http://www.w3.org/1999/xlink">
<desc>Output from Flights of Ideas SVG Sketchup Plugin</desc>

  <path id="face0-cut"
 style="fill:none;stroke:#FF0000;stroke-width:0.01;stroke-miterlimit:4;stroke-dasharray:none;stroke-linejoin:round;stroke-linecap:round"
        d="M 22.13073900153257,10.0 L 21.502565052780493,10.009564559161126 L 20.875752564943,10.051992094721177 L 20.252019587480056,10.127166315754295 L 19.633075729127732,10.23488117494591 L 19.02061747197952,10.374841433354158 L 18.416323521546822,10.546663469639249 L 17.82185020554379,10.749876331542934 L 17.238826934008266,10.983923026735894 L 16.66885173320209,11.24816204949498 L 16.113486865532167,11.541869139025856 L 15.57425454749784,11.864239264611427 L 15.052632777401282,12.214388832145147 L 14.55005128425682,12.591358106001 L 14.067887609003161,12.994113839602164 L 13.607463328759398,13.421552107478039 L 13.170040434473963,13.872501331047259 L 12.756817871895208,14.345725489833109 L 12.368928255344416,14.839927509309753 L 12.007434763298672,15.353752816093397 L 11.673328224292568,15.885793050733685 L 11.367524401126067,16.434589927929125 L 11.090861480822298,16.99863923358575 L 10.844097777215204,17.576394947763323 L 10.62790965246405,18.166273482208588 L 10.442889663191721,18.766658020860604 L 10.289544936328229,19.375902951431137 L 10.168295779111043,19.992338375913565 L 10.079474527052183,20.61427468765732 L 10.02332463302964,21.24000720246216 L 10.0,21.867820830999126 L 10.009564559161122,22.4959947797512 L 10.05199209472118,23.1228072675887 L 10.127166315754293,23.74654024505164 L 10.234881174945903,24.365484103403954 L 10.374841433354149,24.97794236055217 L 10.546663469639247,25.582236310984868 L 10.749876331542929,26.176709626987897 L 10.983923026735898,26.759732898523428 L 11.248162049494976,27.329708099329594 L 11.541869139025852,27.885072966999527 L 11.86423926461143,28.424305285033846 L 12.214388832145147,28.945927055130404 L 12.591358106001,29.44850854827487 L 12.994113839602166,29.93067222352853 L 13.421552107478036,30.39109650377229 L 13.872501331047257,30.82851939805773 L 14.3457254898331,31.241741960636478 L 14.839927509309758,31.629631577187272 L 15.353752816093394,31.99112506923301 L 15.885793050733675,32.32523160823911 L 16.43458992792912,32.63103543140562 L 16.99863923358574,32.90769835170939 L 17.576394947763312,33.154462055316486 L 18.16627348220858,33.37065018006764 L 18.766658020860604,33.55567016933997 L 19.375902951431122,33.709014896203456 L 19.99233837591357,33.83026405342064 L 20.614274687657325,33.91908530547951 L 21.240007202462156,33.97523519950205 L 21.867820830999122,33.99855983253169 L 22.4959947797512,33.98899527337056 L 23.122807267588694,33.94656773781051 L 23.74654024505164,33.871393516777395 L 24.365484103403958,33.76367865758578 L 24.977942360552163,33.623718399177534 L 25.582236310984875,33.45189636289244 L 26.1767096269879,33.248683500988754 L 26.75973289852342,33.01463680579579 L 27.3297080993296,32.7503977830367 L 27.885072966999527,32.456690693505834 L 28.424305285033846,32.13432056792026 L 28.945927055130408,31.784171000386547 L 29.44850854827487,31.40720172653069 L 29.930672223528525,31.004445992929526 L 30.391096503772292,30.57700772505365 L 30.82851939805773,30.126058501484433 L 31.241741960636478,29.652834342698586 L 31.629631577187276,29.158632323221934 L 31.991125069233018,28.644807016438293 L 32.32523160823912,28.112766781798012 L 32.63103543140562,27.56396990460257 L 32.9076983517094,26.999920598945945 L 33.154462055316486,26.422164884768375 L 33.37065018006764,25.83228635032311 L 33.555670169339976,25.231901811671094 L 33.70901489620347,24.62265688110056 L 33.83026405342064,24.00622145661812 L 33.91908530547951,23.384285144874372 L 33.97523519950205,22.758552630069538 L 33.9985598325317,22.13073900153257 L 33.98899527337057,21.50256505278049 L 33.94656773781051,20.875752564942996 L 33.8713935167774,20.252019587480056 L 33.763678657585785,19.633075729127732 L 33.62371839917754,19.02061747197953 L 33.45189636289245,18.416323521546822 L 33.24868350098876,17.82185020554379 L 33.0146368057958,17.23882693400827 L 32.75039778303671,16.668851733202096 L 32.45669069350584,16.11348686553217 L 32.13432056792027,15.57425454749785 L 31.78417100038655,15.052632777401286 L 31.407201726530698,14.550051284256822 L 31.004445992929533,14.067887609003165 L 30.577007725053654,13.607463328759398 L 30.126058501484437,13.170040434473961 L 29.65283434269859,12.75681787189521 L 29.158632323221937,12.368928255344418 L 28.6448070164383,12.007434763298678 L 28.112766781798015,11.673328224292572 L 27.563969904602573,11.36752440112607 L 26.999920598945952,11.090861480822293 L 26.422164884768378,10.844097777215206 L 25.83228635032311,10.627909652464052 L 25.231901811671094,10.442889663191721 L 24.622656881100568,10.28954493632823 L 24.006221456618125,10.16829577911105 L 23.384285144874376,10.079474527052183 L 22.75855263006954,10.023324633029638 L 22.13073900153257,10.0 M 19.9580722796589,20.099279916265843 L 24.040487552872793,20.099279916265843 L 24.209486151265637,20.319523177666 L 24.424151046862274,20.599279916265843 L 24.49927991626585,20.78065705170571 L 24.703872229875238,21.27458658997879 L 24.799279916265846,21.99927991626584 L 24.703872229875238,22.723973242552905 L 24.49927991626585,23.217902780825984 L 24.424151046862274,23.399279916265847 L 24.209486151265644,23.679036654865687 L 24.040487552872793,23.899279916265847 L 19.9580722796589,23.899279916265847 L 19.789073681266053,23.679036654865687 L 19.57440878566942,23.399279916265847 L 19.49927991626584,23.21790278082598 L 19.294687602656456,22.723973242552905 L 19.199279916265848,21.999279916265845 L 19.294687602656456,21.27458658997879 L 19.499279916265845,20.78065705170571 L 19.574408785669416,20.59927991626585 L 19.789073681266053,20.319523177666007 L 19.9580722796589,20.099279916265843 M 12.499622708756721,21.499279916265884 L 14.949622708756724,21.499279916265884 L 14.949622708756724,22.499279916265884 L 12.49962270875672,22.49927991626588 L 12.499622708756721,21.499279916265884 M 22.4992799162658,12.49962270875672 L 22.4992799162658,14.949622708756726 L 21.4992799162658,14.949622708756724 L 21.4992799162658,12.49962270875672 L 22.4992799162658,12.49962270875672 M 17.68246401440347,13.52233544731902 L 18.907464014403473,15.644097686590897 L 18.041438610619036,16.144097686590897 L 16.81643861061903,14.02233544731902 L 17.68246401440347,13.52233544731902 M 14.022335447318984,16.8164386106191 L 16.14409768659086,18.041438610619103 L 15.644097686590863,18.907464014403544 L 13.522335447318987,17.682464014403543 L 14.022335447318984,16.8164386106191 M 21.499279916265888,31.49893712377497 L 21.49927991626589,29.048937123774962 L 22.499279916265884,29.04893712377497 L 22.499279916265884,31.498937123774965 L 21.499279916265888,31.49893712377497 M 16.816438610619095,29.976224385212706 L 18.041438610619096,27.854462145940822 L 18.90746401440353,28.354462145940822 L 17.68246401440353,30.4762243852127 L 16.816438610619095,29.976224385212706 M 31.498937123774983,22.499279916265813 L 29.04893712377498,22.499279916265813 L 29.04893712377498,21.499279916265813 L 31.498937123774983,21.49927991626581 L 31.498937123774983,22.499279916265813 M 30.47622438521267,17.682464014403465 L 28.35446214594079,18.907464014403466 L 27.854462145940794,18.041438610619025 L 29.97622438521267,16.81643861061903 L 30.47622438521267,17.682464014403465 M 29.97622438521271,27.182121221912578 L 27.854462145940836,25.95712122191258 L 28.354462145940836,25.091095818128146 L 30.47622438521271,26.316095818128144 L 29.97622438521271,27.182121221912578 M 13.522335447319016,26.316095818128225 L 15.644097686590897,25.09109581812823 L 16.144097686590897,25.957121221912665 L 14.02233544731902,27.182121221912666 L 13.522335447319016,26.316095818128225 M 27.182121221912592,14.022335447318987 L 25.957121221912587,16.144097686590865 L 25.091095818128153,15.644097686590865 L 26.316095818128154,13.522335447318987 L 27.182121221912592,14.022335447318987 M 26.316095818128222,30.47622438521266 L 25.091095818128217,28.354462145940783 L 25.95712122191265,27.854462145940783 L 27.182121221912656,29.976224385212664 L 26.316095818128222,30.47622438521266 "
  />
</svg>
