<?xml version="1.0" encoding="UTF-8" standalone="no"?>
<svg
   xmlns:dc="http://purl.org/dc/elements/1.1/"
   xmlns:cc="http://creativecommons.org/ns#"
   xmlns:rdf="http://www.w3.org/1999/02/22-rdf-syntax-ns#"
   xmlns:svg="http://www.w3.org/2000/svg"
   xmlns="http://www.w3.org/2000/svg"
   xmlns:sodipodi="http://sodipodi.sourceforge.net/DTD/sodipodi-0.dtd"
   xmlns:inkscape="http://www.inkscape.org/namespaces/inkscape"
   width="43.9985598325317mm"
   height="43.99855983253169mm"
   viewBox="0 0 43.9985598325317 43.99855983253169"
   version="1.1"
   id="svg2"
   inkscape:version="0.48.5 r10040"
   sodipodi:docname="wheelV4.svg">
  <metadata
     id="metadata14">
    <rdf:RDF>
      <cc:Work
         rdf:about="">
        <dc:format>image/svg+xml</dc:format>
        <dc:type
           rdf:resource="http://purl.org/dc/dcmitype/StillImage" />
      </cc:Work>
    </rdf:RDF>
  </metadata>
  <defs
     id="defs12" />
  <sodipodi:namedview
     pagecolor="#ffffff"
     bordercolor="#666666"
     borderopacity="1"
     objecttolerance="10"
     gridtolerance="10"
     guidetolerance="10"
     inkscape:pageopacity="0"
     inkscape:pageshadow="2"
     inkscape:window-width="1587"
     inkscape:window-height="856"
     id="namedview10"
     showgrid="false"
     inkscape:zoom="5.6568543"
     inkscape:cx="60.216312"
     inkscape:cy="80.785859"
     inkscape:window-x="0"
     inkscape:window-y="0"
     inkscape:window-maximized="0"
     inkscape:current-layer="svg2" />
  <desc
     id="desc4">Output from Flights of Ideas SVG Sketchup Plugin</desc>
  <path
     id="face0-cut"
     style="fill:none;stroke:#ff0000;stroke-width:0.01;stroke-miterlimit:4;stroke-dasharray:none;stroke-linejoin:round;stroke-linecap:round"
     d="M 22.130739001532575,10.0 L 21.502565052780497,10.009564559161126 L 20.875752564943006,10.051992094721177 L 20.252019587480063,10.127166315754295 L 19.63307572912774,10.23488117494591 L 19.020617471979527,10.374841433354158 L 18.416323521546826,10.546663469639249 L 17.821850205543793,10.749876331542934 L 17.238826934008273,10.983923026735894 L 16.668851733202096,11.24816204949498 L 16.11348686553217,11.541869139025856 L 15.574254547497848,11.864239264611427 L 15.052632777401287,12.214388832145147 L 14.550051284256824,12.591358106001 L 14.067887609003167,12.994113839602164 L 13.607463328759405,13.421552107478039 L 13.170040434473968,13.872501331047259 L 12.756817871895214,14.345725489833109 L 12.368928255344422,14.839927509309753 L 12.007434763298678,15.353752816093397 L 11.673328224292575,15.885793050733685 L 11.367524401126076,16.434589927929125 L 11.090861480822303,16.99863923358575 L 10.84409777721521,17.576394947763323 L 10.627909652464055,18.166273482208588 L 10.442889663191727,18.766658020860604 L 10.289544936328229,19.37590295143113 L 10.168295779111054,19.992338375913572 L 10.079474527052188,20.61427468765732 L 10.023324633029643,21.24000720246216 L 10.0,21.867820830999122 L 10.009564559161127,22.4959947797512 L 10.051992094721186,23.1228072675887 L 10.127166315754298,23.74654024505164 L 10.23488117494591,24.365484103403954 L 10.37484143335416,24.97794236055217 L 10.546663469639256,25.582236310984868 L 10.749876331542938,26.176709626987897 L 10.983923026735903,26.759732898523428 L 11.24816204949499,27.329708099329597 L 11.54186913902586,27.885072966999527 L 11.864239264611435,28.42430528503385 L 12.214388832145152,28.945927055130404 L 12.591358106001005,29.44850854827487 L 12.994113839602171,29.93067222352853 L 13.421552107478046,30.39109650377229 L 13.872501331047264,30.82851939805773 L 14.34572548983311,31.24174196063648 L 14.839927509309764,31.629631577187272 L 15.353752816093397,31.99112506923301 L 15.885793050733685,32.325231608239115 L 16.43458992792913,32.63103543140562 L 16.998639233585752,32.90769835170939 L 17.576394947763323,33.154462055316486 L 18.166273482208595,33.37065018006764 L 18.76665802086061,33.55567016933997 L 19.375902951431137,33.709014896203456 L 19.992338375913576,33.83026405342064 L 20.61427468765733,33.91908530547951 L 21.24000720246216,33.97523519950205 L 21.86782083099913,33.99855983253169 L 22.49599477975121,33.98899527337056 L 23.122807267588698,33.94656773781051 L 23.746540245051644,33.871393516777395 L 24.365484103403965,33.76367865758578 L 24.97794236055217,33.623718399177534 L 25.58223631098488,33.45189636289244 L 26.176709626987908,33.24868350098875 L 26.759732898523424,33.01463680579579 L 27.329708099329604,32.7503977830367 L 27.88507296699953,32.456690693505834 L 28.42430528503385,32.13432056792026 L 28.94592705513041,31.784171000386547 L 29.448508548274873,31.40720172653069 L 29.93067222352853,31.004445992929526 L 30.391096503772296,30.57700772505365 L 30.828519398057733,30.126058501484433 L 31.24174196063648,29.652834342698586 L 31.62963157718728,29.158632323221934 L 31.99112506923302,28.644807016438293 L 32.32523160823912,28.112766781798012 L 32.63103543140563,27.563969904602565 L 32.9076983517094,26.999920598945945 L 33.154462055316486,26.42216488476837 L 33.37065018006764,25.83228635032311 L 33.555670169339976,25.231901811671094 L 33.70901489620347,24.62265688110056 L 33.83026405342065,24.006221456618125 L 33.91908530547951,23.384285144874372 L 33.97523519950205,22.758552630069538 L 33.9985598325317,22.13073900153257 L 33.98899527337058,21.50256505278049 L 33.94656773781052,20.875752564942996 L 33.8713935167774,20.252019587480056 L 33.763678657585785,19.633075729127732 L 33.62371839917755,19.02061747197953 L 33.451896362892455,18.416323521546822 L 33.24868350098876,17.82185020554379 L 33.0146368057958,17.23882693400827 L 32.75039778303672,16.668851733202096 L 32.45669069350585,16.11348686553217 L 32.13432056792027,15.574254547497851 L 31.784171000386554,15.052632777401286 L 31.4072017265307,14.550051284256822 L 31.004445992929536,14.067887609003165 L 30.577007725053658,13.607463328759398 L 30.12605850148444,13.170040434473961 L 29.652834342698593,12.75681787189521 L 29.15863232322194,12.368928255344418 L 28.644807016438303,12.007434763298678 L 28.11276678179802,11.673328224292572 L 27.563969904602576,11.36752440112607 L 26.999920598945955,11.090861480822293 L 26.42216488476838,10.844097777215206 L 25.832286350323116,10.627909652464052 L 25.2319018116711,10.442889663191721 L 24.62265688110057,10.28954493632823 L 24.00622145661813,10.16829577911105 L 23.384285144874383,10.079474527052183 L 22.758552630069545,10.023324633029638 L 22.130739001532575,10.0 M 19.958072279658904,20.099279916265843 L 24.040487552872797,20.099279916265843 L 24.209486151265644,20.319523177666 L 24.424151046862278,20.599279916265843 L 24.499279916265856,20.78065705170571 L 24.703872229875245,21.27458658997878 L 24.799279916265853,21.99927991626584 L 24.703872229875245,22.723973242552905 L 24.499279916265852,23.217902780825984 L 24.424151046862285,23.399279916265847 L 24.209486151265647,23.679036654865687 L 24.040487552872797,23.899279916265847 L 19.958072279658904,23.899279916265847 L 19.789073681266057,23.679036654865687 L 19.574408785669426,23.399279916265847 L 19.49927991626585,23.21790278082598 L 19.29468760265646,22.723973242552905 L 19.19927991626585,21.999279916265845 L 19.29468760265646,21.27458658997879 L 19.49927991626585,20.78065705170571 L 19.57440878566942,20.59927991626585 L 19.789073681266057,20.319523177666007 L 19.958072279658904,20.099279916265843 M 24.574498408958632,16.555250867013054 L 27.074498408958632,12.225123848090862 L 27.940523812743074,12.725123848090862 L 25.440523812743074,17.055250867013054 L 24.574498408958632,16.555250867013054 M 11.503836461757341,18.66939622821878 L 16.333465593202682,19.96349145373138 L 16.074646548100166,20.929417280020452 L 11.24501741665482,19.635322054507846 L 11.503836461757341,18.66939622821878 M 25.89576836673301,17.407267249733753 L 29.431302272665743,13.871733343801015 L 30.13840905385229,14.578840124987563 L 26.60287514791955,18.114374030920295 L 25.89576836673301,17.407267249733753 M 27.923913284431517,23.06914255251131 L 32.75354241587686,24.363237778023915 L 32.49472337077434,25.32916360431298 L 27.665094239328997,24.035068378800375 L 27.923913284431517,23.06914255251131 M 16.074841201449477,31.27708899733789 L 18.57484120144948,26.946961978415697 L 19.440866605233918,27.446961978415697 L 16.940866605233914,31.777088997337888 L 16.074841201449477,31.27708899733789 M 13.875437868351337,29.427597748115392 L 17.41097177428408,25.892063842182658 L 18.118078555470625,26.599170623369208 L 14.582544649537885,30.134704529301942 L 13.875437868351337,29.427597748115392 M 10.999622708756718,21.499279916265884 L 15.999622708756716,21.499279916265884 L 15.999622708756721,22.499279916265884 L 10.999622708756714,22.499279916265877 L 10.999622708756718,21.499279916265884 M 26.95149907585966,18.572221707018876 L 31.28162609478186,16.072221707018876 L 31.781626094781856,16.938247110803314 L 27.45149907585966,19.43824711080331 L 26.95149907585966,18.572221707018876 M 21.507470026606867,32.99631762934439 L 21.50747002660687,27.996317629344386 L 22.50747002660687,27.996317629344386 L 22.507470026606864,32.99631762934439 L 21.507470026606867,32.99631762934439 M 12.229660945534821,27.071878914528 L 16.559787964457012,24.571878914528 L 17.05978796445701,25.437904318312437 L 12.729660945534812,27.937904318312434 L 12.229660945534821,27.071878914528 M 21.507470026606878,15.997003214326089 L 21.507470026606878,10.997003214326087 L 22.507470026606875,10.997003214326087 L 22.507470026606875,15.997003214326089 L 21.507470026606878,15.997003214326089 M 19.635322054507782,11.245017416654841 L 20.929417280020388,16.074646548100183 L 19.963491453731322,16.333465593202703 L 18.66939622821872,11.503836461757363 L 19.635322054507782,11.245017416654841 M 27.443308965518643,24.574498408958625 L 31.77343598444083,27.074498408958622 L 31.27343598444083,27.94052381274306 L 26.94330896551864,25.440523812743063 L 27.443308965518643,24.574498408958625 M 20.92941728002039,27.923913284431517 L 19.635322054507782,32.753542415876865 L 18.669396228218716,32.49472337077434 L 19.963491453731322,27.665094239328997 L 20.92941728002039,27.923913284431517 M 12.721470835193816,16.074841201449466 L 17.051597854116007,18.574841201449466 L 16.55159785411601,19.440866605233907 L 12.221470835193816,16.9408666052339 L 12.721470835193816,16.074841201449466 M 16.93246401440348,12.223297341642366 L 19.432464014403482,16.55342436056456 L 18.566438610619045,17.05342436056456 L 16.06643861061904,12.723297341642365 L 16.93246401440348,12.223297341642366 M 27.998937123774983,21.499279916265877 L 32.99893712377498,21.499279916265877 L 32.99893712377498,22.499279916265873 L 27.99893712377498,22.499279916265877 L 27.998937123774983,21.499279916265877 M 14.574901104701926,13.867794323515405 L 18.110435010634664,17.403328229448142 L 17.403328229448114,18.11043501063469 L 13.86779432351538,14.574901104701954 L 14.574901104701926,13.867794323515405 M 24.035068378800325,27.665094239329 L 25.329163604312928,32.49472337077435 L 24.36323777802386,32.753542415876865 L 23.06914255251126,27.923913284431528 L 24.035068378800325,27.665094239329 M 25.432121221912602,26.945135471967166 L 27.932121221912606,31.275262490889357 L 27.06609581812817,31.775262490889357 L 24.56609581812817,27.445135471967166 L 25.432121221912602,26.945135471967166 M 26.595231603083544,25.888124821897044 L 30.13076550901628,29.42365872782978 L 29.423658727829732,30.130765509016328 L 25.888124821897,26.59523160308359 L 26.595231603083544,25.888124821897044 M 25.329163604312917,11.503836461757329 L 24.035068378800315,16.33346559320267 L 23.06914255251125,16.07464654810015 L 24.36323777802385,11.24501741665481 L 25.329163604312917,11.503836461757329 M 11.245017416654836,24.36323777802392 L 16.074646548100176,23.06914255251132 L 16.3334655932027,24.035068378800386 L 11.503836461757357,25.329163604312996 L 11.245017416654836,24.36323777802392 M 27.665094239329015,19.963491453731375 L 32.49472337077435,18.669396228218776 L 32.75354241587688,19.635322054507842 L 27.923913284431535,20.92941728002044 L 27.665094239329015,19.963491453731375 " />
  <path
     id="face0-interior"
     style="fill:none;stroke:#ff0000;stroke-width:0.01;stroke-miterlimit:4;stroke-dasharray:none;stroke-linejoin:round;stroke-linecap:round"
     d="M 22.130739001532575,10.0 M 21.502565052780497,10.009564559161126 M 20.875752564943006,10.051992094721177 M 20.252019587480063,10.127166315754295 M 19.63307572912774,10.23488117494591 M 19.020617471979527,10.374841433354158 M 18.416323521546826,10.546663469639249 M 17.821850205543793,10.749876331542934 M 17.238826934008273,10.983923026735894 M 16.668851733202096,11.24816204949498 M 16.11348686553217,11.541869139025856 M 15.574254547497848,11.864239264611427 M 15.052632777401287,12.214388832145147 M 14.550051284256824,12.591358106001 M 14.067887609003167,12.994113839602164 M 13.607463328759405,13.421552107478039 M 13.170040434473968,13.872501331047259 M 12.756817871895214,14.345725489833109 M 12.368928255344422,14.839927509309753 M 12.007434763298678,15.353752816093397 M 11.673328224292575,15.885793050733685 M 11.367524401126076,16.434589927929125 M 11.090861480822303,16.99863923358575 M 10.84409777721521,17.576394947763323 M 10.627909652464055,18.166273482208588 M 10.442889663191727,18.766658020860604 M 10.289544936328229,19.37590295143113 M 10.168295779111054,19.992338375913572 M 10.079474527052188,20.61427468765732 M 10.023324633029643,21.24000720246216 M 10.0,21.867820830999122 M 10.009564559161127,22.4959947797512 M 10.051992094721186,23.1228072675887 M 10.127166315754298,23.74654024505164 M 10.23488117494591,24.365484103403954 M 10.37484143335416,24.97794236055217 M 10.546663469639256,25.582236310984868 M 10.749876331542938,26.176709626987897 M 10.983923026735903,26.759732898523428 M 11.24816204949499,27.329708099329597 M 11.54186913902586,27.885072966999527 M 11.864239264611435,28.42430528503385 M 12.214388832145152,28.945927055130404 M 12.591358106001005,29.44850854827487 M 12.994113839602171,29.93067222352853 M 13.421552107478046,30.39109650377229 M 13.872501331047264,30.82851939805773 M 14.34572548983311,31.24174196063648 M 14.839927509309764,31.629631577187272 M 15.353752816093397,31.99112506923301 M 15.885793050733685,32.325231608239115 M 16.43458992792913,32.63103543140562 M 16.998639233585752,32.90769835170939 M 17.576394947763323,33.154462055316486 M 18.166273482208595,33.37065018006764 M 18.76665802086061,33.55567016933997 M 19.375902951431137,33.709014896203456 M 19.992338375913576,33.83026405342064 M 20.61427468765733,33.91908530547951 M 21.24000720246216,33.97523519950205 M 21.86782083099913,33.99855983253169 M 22.49599477975121,33.98899527337056 M 23.122807267588698,33.94656773781051 M 23.746540245051644,33.871393516777395 M 24.365484103403965,33.76367865758578 M 24.97794236055217,33.623718399177534 M 25.58223631098488,33.45189636289244 M 26.176709626987908,33.24868350098875 M 26.759732898523424,33.01463680579579 M 27.329708099329604,32.7503977830367 M 27.88507296699953,32.456690693505834 M 28.42430528503385,32.13432056792026 M 28.94592705513041,31.784171000386547 M 29.448508548274873,31.40720172653069 M 29.93067222352853,31.004445992929526 M 30.391096503772296,30.57700772505365 M 30.828519398057733,30.126058501484433 M 31.24174196063648,29.652834342698586 M 31.62963157718728,29.158632323221934 M 31.99112506923302,28.644807016438293 M 32.32523160823912,28.112766781798012 M 32.63103543140563,27.563969904602565 M 32.9076983517094,26.999920598945945 M 33.154462055316486,26.42216488476837 M 33.37065018006764,25.83228635032311 M 33.555670169339976,25.231901811671094 M 33.70901489620347,24.62265688110056 M 33.83026405342065,24.006221456618125 M 33.91908530547951,23.384285144874372 M 33.97523519950205,22.758552630069538 M 33.9985598325317,22.13073900153257 M 33.98899527337058,21.50256505278049 M 33.94656773781052,20.875752564942996 M 33.8713935167774,20.252019587480056 M 33.763678657585785,19.633075729127732 M 33.62371839917755,19.02061747197953 M 33.451896362892455,18.416323521546822 M 33.24868350098876,17.82185020554379 M 33.0146368057958,17.23882693400827 M 32.75039778303672,16.668851733202096 M 32.45669069350585,16.11348686553217 M 32.13432056792027,15.574254547497851 M 31.784171000386554,15.052632777401286 M 31.4072017265307,14.550051284256822 M 31.004445992929536,14.067887609003165 M 30.577007725053658,13.607463328759398 M 30.12605850148444,13.170040434473961 M 29.652834342698593,12.75681787189521 M 29.15863232322194,12.368928255344418 M 28.644807016438303,12.007434763298678 M 28.11276678179802,11.673328224292572 M 27.563969904602576,11.36752440112607 M 26.999920598945955,11.090861480822293 M 26.42216488476838,10.844097777215206 M 25.832286350323116,10.627909652464052 M 25.2319018116711,10.442889663191721 M 24.62265688110057,10.28954493632823 M 24.00622145661813,10.16829577911105 M 23.384285144874383,10.079474527052183 M 22.758552630069545,10.023324633029638 M 19.958072279658904,20.099279916265843 M 24.040487552872797,20.099279916265843 M 24.209486151265644,20.319523177666 M 24.424151046862278,20.599279916265843 M 24.499279916265856,20.78065705170571 M 24.703872229875245,21.27458658997878 M 24.799279916265853,21.99927991626584 M 24.703872229875245,22.723973242552905 M 24.499279916265852,23.217902780825984 M 24.424151046862285,23.399279916265847 M 24.209486151265647,23.679036654865687 M 24.040487552872797,23.899279916265847 M 19.958072279658904,23.899279916265847 M 19.789073681266057,23.679036654865687 M 19.574408785669426,23.399279916265847 M 19.49927991626585,23.21790278082598 M 19.29468760265646,22.723973242552905 M 19.19927991626585,21.999279916265845 M 19.29468760265646,21.27458658997879 M 19.49927991626585,20.78065705170571 M 19.57440878566942,20.59927991626585 M 19.789073681266057,20.319523177666007 M 24.574498408958632,16.555250867013054 M 27.074498408958632,12.225123848090862 M 27.940523812743074,12.725123848090862 M 25.440523812743074,17.055250867013054 M 11.503836461757341,18.66939622821878 M 16.333465593202682,19.96349145373138 M 16.074646548100166,20.929417280020452 M 11.24501741665482,19.635322054507846 M 25.89576836673301,17.407267249733753 M 29.431302272665743,13.871733343801015 M 30.13840905385229,14.578840124987563 M 26.60287514791955,18.114374030920295 M 27.923913284431517,23.06914255251131 M 32.75354241587686,24.363237778023915 M 32.49472337077434,25.32916360431298 M 27.665094239328997,24.035068378800375 M 16.074841201449477,31.27708899733789 M 18.57484120144948,26.946961978415697 M 19.440866605233918,27.446961978415697 M 16.940866605233914,31.777088997337888 M 13.875437868351337,29.427597748115392 M 17.41097177428408,25.892063842182658 M 18.118078555470625,26.599170623369208 M 14.582544649537885,30.134704529301942 M 10.999622708756718,21.499279916265884 M 15.999622708756716,21.499279916265884 M 15.999622708756721,22.499279916265884 M 10.999622708756714,22.499279916265877 M 26.95149907585966,18.572221707018876 M 31.28162609478186,16.072221707018876 M 31.781626094781856,16.938247110803314 M 27.45149907585966,19.43824711080331 M 21.507470026606867,32.99631762934439 M 21.50747002660687,27.996317629344386 M 22.50747002660687,27.996317629344386 M 22.507470026606864,32.99631762934439 M 12.229660945534821,27.071878914528 M 16.559787964457012,24.571878914528 M 17.05978796445701,25.437904318312437 M 12.729660945534812,27.937904318312434 M 21.507470026606878,15.997003214326089 M 21.507470026606878,10.997003214326087 M 22.507470026606875,10.997003214326087 M 22.507470026606875,15.997003214326089 M 19.635322054507782,11.245017416654841 M 20.929417280020388,16.074646548100183 M 19.963491453731322,16.333465593202703 M 18.66939622821872,11.503836461757363 M 27.443308965518643,24.574498408958625 M 31.77343598444083,27.074498408958622 M 31.27343598444083,27.94052381274306 M 26.94330896551864,25.440523812743063 M 20.92941728002039,27.923913284431517 M 19.635322054507782,32.753542415876865 M 18.669396228218716,32.49472337077434 M 19.963491453731322,27.665094239328997 M 12.721470835193816,16.074841201449466 M 17.051597854116007,18.574841201449466 M 16.55159785411601,19.440866605233907 M 12.221470835193816,16.9408666052339 M 16.93246401440348,12.223297341642366 M 19.432464014403482,16.55342436056456 M 18.566438610619045,17.05342436056456 M 16.06643861061904,12.723297341642365 M 27.998937123774983,21.499279916265877 M 32.99893712377498,21.499279916265877 M 32.99893712377498,22.499279916265873 M 27.99893712377498,22.499279916265877 M 14.574901104701926,13.867794323515405 M 18.110435010634664,17.403328229448142 M 17.403328229448114,18.11043501063469 M 13.86779432351538,14.574901104701954 M 24.035068378800325,27.665094239329 M 25.329163604312928,32.49472337077435 M 24.36323777802386,32.753542415876865 M 23.06914255251126,27.923913284431528 M 25.432121221912602,26.945135471967166 M 27.932121221912606,31.275262490889357 M 27.06609581812817,31.775262490889357 M 24.56609581812817,27.445135471967166 M 26.595231603083544,25.888124821897044 M 30.13076550901628,29.42365872782978 M 29.423658727829732,30.130765509016328 M 25.888124821897,26.59523160308359 M 25.329163604312917,11.503836461757329 M 24.035068378800315,16.33346559320267 M 23.06914255251125,16.07464654810015 M 24.36323777802385,11.24501741665481 M 11.245017416654836,24.36323777802392 M 16.074646548100176,23.06914255251132 M 16.3334655932027,24.035068378800386 M 11.503836461757357,25.329163604312996 M 27.665094239329015,19.963491453731375 M 32.49472337077435,18.669396228218776 M 32.75354241587688,19.635322054507842 M 27.923913284431535,20.92941728002044 " />
  <path
     id="path8"
     style="fill:none;stroke:#ff0000;stroke-width:0.01;stroke-miterlimit:4;stroke-dasharray:none;stroke-linejoin:round;stroke-linecap:round"
     d="M 22.130739001532575,10.0 M 21.502565052780497,10.009564559161126 M 20.875752564943006,10.051992094721177 M 20.252019587480063,10.127166315754295 M 19.63307572912774,10.23488117494591 M 19.020617471979527,10.374841433354158 M 18.416323521546826,10.546663469639249 M 17.821850205543793,10.749876331542934 M 17.238826934008273,10.983923026735894 M 16.668851733202096,11.24816204949498 M 16.11348686553217,11.541869139025856 M 15.574254547497848,11.864239264611427 M 15.052632777401287,12.214388832145147 M 14.550051284256824,12.591358106001 M 14.067887609003167,12.994113839602164 M 13.607463328759405,13.421552107478039 M 13.170040434473968,13.872501331047259 M 12.756817871895214,14.345725489833109 M 12.368928255344422,14.839927509309753 M 12.007434763298678,15.353752816093397 M 11.673328224292575,15.885793050733685 M 11.367524401126076,16.434589927929125 M 11.090861480822303,16.99863923358575 M 10.84409777721521,17.576394947763323 M 10.627909652464055,18.166273482208588 M 10.442889663191727,18.766658020860604 M 10.289544936328229,19.37590295143113 M 10.168295779111054,19.992338375913572 M 10.079474527052188,20.61427468765732 M 10.023324633029643,21.24000720246216 M 10.0,21.867820830999122 M 10.009564559161127,22.4959947797512 M 10.051992094721186,23.1228072675887 M 10.127166315754298,23.74654024505164 M 10.23488117494591,24.365484103403954 M 10.37484143335416,24.97794236055217 M 10.546663469639256,25.582236310984868 M 10.749876331542938,26.176709626987897 M 10.983923026735903,26.759732898523428 M 11.24816204949499,27.329708099329597 M 11.54186913902586,27.885072966999527 M 11.864239264611435,28.42430528503385 M 12.214388832145152,28.945927055130404 M 12.591358106001005,29.44850854827487 M 12.994113839602171,29.93067222352853 M 13.421552107478046,30.39109650377229 M 13.872501331047264,30.82851939805773 M 14.34572548983311,31.24174196063648 M 14.839927509309764,31.629631577187272 M 15.353752816093397,31.99112506923301 M 15.885793050733685,32.325231608239115 M 16.43458992792913,32.63103543140562 M 16.998639233585752,32.90769835170939 M 17.576394947763323,33.154462055316486 M 18.166273482208595,33.37065018006764 M 18.76665802086061,33.55567016933997 M 19.375902951431137,33.709014896203456 M 19.992338375913576,33.83026405342064 M 20.61427468765733,33.91908530547951 M 21.24000720246216,33.97523519950205 M 21.86782083099913,33.99855983253169 M 22.49599477975121,33.98899527337056 M 23.122807267588698,33.94656773781051 M 23.746540245051644,33.871393516777395 M 24.365484103403965,33.76367865758578 M 24.97794236055217,33.623718399177534 M 25.58223631098488,33.45189636289244 M 26.176709626987908,33.24868350098875 M 26.759732898523424,33.01463680579579 M 27.329708099329604,32.7503977830367 M 27.88507296699953,32.456690693505834 M 28.42430528503385,32.13432056792026 M 28.94592705513041,31.784171000386547 M 29.448508548274873,31.40720172653069 M 29.93067222352853,31.004445992929526 M 30.391096503772296,30.57700772505365 M 30.828519398057733,30.126058501484433 M 31.24174196063648,29.652834342698586 M 31.62963157718728,29.158632323221934 M 31.99112506923302,28.644807016438293 M 32.32523160823912,28.112766781798012 M 32.63103543140563,27.563969904602565 M 32.9076983517094,26.999920598945945 M 33.154462055316486,26.42216488476837 M 33.37065018006764,25.83228635032311 M 33.555670169339976,25.231901811671094 M 33.70901489620347,24.62265688110056 M 33.83026405342065,24.006221456618125 M 33.91908530547951,23.384285144874372 M 33.97523519950205,22.758552630069538 M 33.9985598325317,22.13073900153257 M 33.98899527337058,21.50256505278049 M 33.94656773781052,20.875752564942996 M 33.8713935167774,20.252019587480056 M 33.763678657585785,19.633075729127732 M 33.62371839917755,19.02061747197953 M 33.451896362892455,18.416323521546822 M 33.24868350098876,17.82185020554379 M 33.0146368057958,17.23882693400827 M 32.75039778303672,16.668851733202096 M 32.45669069350585,16.11348686553217 M 32.13432056792027,15.574254547497851 M 31.784171000386554,15.052632777401286 M 31.4072017265307,14.550051284256822 M 31.004445992929536,14.067887609003165 M 30.577007725053658,13.607463328759398 M 30.12605850148444,13.170040434473961 M 29.652834342698593,12.75681787189521 M 29.15863232322194,12.368928255344418 M 28.644807016438303,12.007434763298678 M 28.11276678179802,11.673328224292572 M 27.563969904602576,11.36752440112607 M 26.999920598945955,11.090861480822293 M 26.42216488476838,10.844097777215206 M 25.832286350323116,10.627909652464052 M 25.2319018116711,10.442889663191721 M 24.62265688110057,10.28954493632823 M 24.00622145661813,10.16829577911105 M 23.384285144874383,10.079474527052183 M 22.758552630069545,10.023324633029638 M 19.958072279658904,20.099279916265843 M 24.040487552872797,20.099279916265843 M 24.209486151265644,20.319523177666 M 24.424151046862278,20.599279916265843 M 24.499279916265856,20.78065705170571 M 24.703872229875245,21.27458658997878 M 24.799279916265853,21.99927991626584 M 24.703872229875245,22.723973242552905 M 24.499279916265852,23.217902780825984 M 24.424151046862285,23.399279916265847 M 24.209486151265647,23.679036654865687 M 24.040487552872797,23.899279916265847 M 19.958072279658904,23.899279916265847 M 19.789073681266057,23.679036654865687 M 19.574408785669426,23.399279916265847 M 19.49927991626585,23.21790278082598 M 19.29468760265646,22.723973242552905 M 19.19927991626585,21.999279916265845 M 19.29468760265646,21.27458658997879 M 19.49927991626585,20.78065705170571 M 19.57440878566942,20.59927991626585 M 19.789073681266057,20.319523177666007 M 24.574498408958632,16.555250867013054 M 27.074498408958632,12.225123848090862 M 27.940523812743074,12.725123848090862 M 25.440523812743074,17.055250867013054 M 11.503836461757341,18.66939622821878 M 16.333465593202682,19.96349145373138 M 16.074646548100166,20.929417280020452 M 11.24501741665482,19.635322054507846 M 25.89576836673301,17.407267249733753 M 29.431302272665743,13.871733343801015 M 30.13840905385229,14.578840124987563 M 26.60287514791955,18.114374030920295 M 27.923913284431517,23.06914255251131 M 32.75354241587686,24.363237778023915 M 32.49472337077434,25.32916360431298 M 27.665094239328997,24.035068378800375 M 16.074841201449477,31.27708899733789 M 18.57484120144948,26.946961978415697 M 19.440866605233918,27.446961978415697 M 16.940866605233914,31.777088997337888 M 13.875437868351337,29.427597748115392 M 17.41097177428408,25.892063842182658 M 18.118078555470625,26.599170623369208 M 14.582544649537885,30.134704529301942 M 10.999622708756718,21.499279916265884 M 15.999622708756716,21.499279916265884 M 15.999622708756721,22.499279916265884 M 10.999622708756714,22.499279916265877 M 26.95149907585966,18.572221707018876 M 31.28162609478186,16.072221707018876 M 31.781626094781856,16.938247110803314 M 27.45149907585966,19.43824711080331 M 21.507470026606867,32.99631762934439 M 21.50747002660687,27.996317629344386 M 22.50747002660687,27.996317629344386 M 22.507470026606864,32.99631762934439 M 12.229660945534821,27.071878914528 M 16.559787964457012,24.571878914528 M 17.05978796445701,25.437904318312437 M 12.729660945534812,27.937904318312434 M 21.507470026606878,15.997003214326089 M 21.507470026606878,10.997003214326087 M 22.507470026606875,10.997003214326087 M 22.507470026606875,15.997003214326089 M 19.635322054507782,11.245017416654841 M 20.929417280020388,16.074646548100183 M 19.963491453731322,16.333465593202703 M 18.66939622821872,11.503836461757363 M 27.443308965518643,24.574498408958625 M 31.77343598444083,27.074498408958622 M 31.27343598444083,27.94052381274306 M 26.94330896551864,25.440523812743063 M 20.92941728002039,27.923913284431517 M 19.635322054507782,32.753542415876865 M 18.669396228218716,32.49472337077434 M 19.963491453731322,27.665094239328997 M 12.721470835193816,16.074841201449466 M 17.051597854116007,18.574841201449466 M 16.55159785411601,19.440866605233907 M 12.221470835193816,16.9408666052339 M 16.93246401440348,12.223297341642366 M 19.432464014403482,16.55342436056456 M 18.566438610619045,17.05342436056456 M 16.06643861061904,12.723297341642365 M 27.998937123774983,21.499279916265877 M 32.99893712377498,21.499279916265877 M 32.99893712377498,22.499279916265873 M 27.99893712377498,22.499279916265877 M 14.574901104701926,13.867794323515405 M 18.110435010634664,17.403328229448142 M 17.403328229448114,18.11043501063469 M 13.86779432351538,14.574901104701954 M 24.035068378800325,27.665094239329 M 25.329163604312928,32.49472337077435 M 24.36323777802386,32.753542415876865 M 23.06914255251126,27.923913284431528 M 25.432121221912602,26.945135471967166 M 27.932121221912606,31.275262490889357 M 27.06609581812817,31.775262490889357 M 24.56609581812817,27.445135471967166 M 26.595231603083544,25.888124821897044 M 30.13076550901628,29.42365872782978 M 29.423658727829732,30.130765509016328 M 25.888124821897,26.59523160308359 M 25.329163604312917,11.503836461757329 M 24.035068378800315,16.33346559320267 M 23.06914255251125,16.07464654810015 M 24.36323777802385,11.24501741665481 M 11.245017416654836,24.36323777802392 M 16.074646548100176,23.06914255251132 M 16.3334655932027,24.035068378800386 M 11.503836461757357,25.329163604312996 M 27.665094239329015,19.963491453731375 M 32.49472337077435,18.669396228218776 M 32.75354241587688,19.635322054507842 M 27.923913284431535,20.92941728002044 " />
</svg>
